<svg width="173" height="445" viewBox="0 0 173 445" fill="none" xmlns="http://www.w3.org/2000/svg">
<g filter="url(#filter0_d_4_523)">
<path d="M105.246 56.1728C110.589 57.3611 118.271 59.3365 119.648 63.7711C120.46 66.3942 118.368 67.5969 118.136 72.2831C117.941 76.0816 119.227 76.8811 121.192 83.8978C123.407 91.7989 124.459 95.7864 122.012 98.0404C119.865 100 117.154 98.7519 113.413 100.861C109.862 102.866 108.369 106.215 107.679 108.55C109.615 106.273 113.794 102.093 119.47 101.692C120.251 101.639 123.089 101.446 123.788 102.558C124.438 103.597 122.813 105.173 121.681 106.568C118.488 110.503 117.993 114.538 117.309 120.218C116.654 125.55 116.334 128.215 118.183 130.768C120.324 133.71 123.537 134.254 123.549 136.654C123.549 136.654 121.964 140.069 121.185 143.031C120.421 145.891 122.03 147.079 121.07 148.225C119.764 149.767 115.859 148.795 107.914 147.535C98.9464 146.128 94.3748 145.425 90.1684 145.94C85.7071 146.487 86.0048 147.385 79.2864 148.671C73.3323 149.817 68.6269 149.959 65.7717 150.036C61.098 150.164 60.1049 149.841 45.89 148.64C28.9277 147.195 39.0099 148.386 26.6644 147.411C23.0551 147.133 -14.0428 147.427 -17.9282 148.098C-22.3391 148.863 -22.7895 149.915 -26.3285 150.189C-27.3646 150.274 -34.3799 150.734 -38.2386 146.882C-40.1759 144.955 -41.2624 139.564 -41.7192 137.344C-41.9052 136.445 -42.3453 134.297 -42 132.446C-41.0971 127.795 -35.4459 126.667 -31.9596 123.252C-24.1349 115.612 -34.0139 103.175 -28.3496 99.0796C-24.4573 96.2705 17.6008 101.242 26.4434 104.222C56.0956 114.245 85.9656 115.332 89.0061 109.275C89.9104 107.475 88.0164 105.155 87.0002 104.222C82.9997 100.516 80.5382 103.166 70.6868 102.613C59.0951 101.963 60.6419 97.7996 44.9097 95.1186C37.5871 93.8663 34.4807 94.2954 21.9934 92.1145C17.8683 91.3919 -20.5357 89.1557 -25.0163 86.6919C-28.935 84.527 -31.5178 81.9828 -33.0868 80.1685C-31.1413 74.6186 -29.2401 66.6548 -30.117 57.1817C-30.8662 49.0744 -33.1587 45.4359 -30.2891 42.4933C-25.5276 37.6086 22.1849 41.7284 32.1811 43.7494C42.3372 45.7976 43.5357 47.3108 52.1616 49.4933C71.4459 54.3726 80.4174 50.6458 105.294 56.1723L105.246 56.1728Z" fill="#D7D0BB"/>
<path d="M105.246 56.1732C109.758 57.2402 114.684 58.2588 118.119 61.3312C119.216 62.3656 119.983 63.782 119.872 65.2524C119.714 66.7087 118.947 68.0122 118.629 69.4268C117.864 72.2575 118.122 75.178 119.302 77.8696C120.85 81.9677 122 86.1577 123.023 90.3928C123.581 93.0916 124.357 96.6897 121.539 98.5845C120.162 99.4879 118.454 99.4497 116.958 99.7581C112.18 100.556 108.971 104.477 107.871 108.592L107.502 108.421C108.95 106.717 110.607 105.156 112.539 103.897C115.42 102.016 119.125 100.925 122.692 101.611C123.268 101.75 123.974 102.076 124.173 102.772C124.325 103.439 123.996 103.995 123.715 104.479C122.427 106.297 120.866 107.828 119.996 109.846C118.19 113.721 118.05 118.072 117.509 122.296C117.31 124.408 117.048 126.563 117.598 128.506C118.163 130.478 119.761 131.986 121.61 133.244C123.041 134.115 125.077 137.681 124.173 139.525C123.893 140.124 123.468 140.58 123.105 140.992C121.607 142.507 120.977 144.536 121.446 146.48C121.532 146.988 121.762 147.494 121.706 148.237C120.922 152.115 112.353 149.321 109.495 149.165C102.672 148.3 95.7573 146.49 88.9084 147.53C77.7822 151.21 65.8308 152.542 54.0697 151.051L40.0952 149.949C35.4156 149.568 30.6938 149.667 26.0775 149.241C21.5413 148.843 17.0568 148.779 12.814 150.269C10.7499 151.137 7.83698 151.738 5.47375 151.591C0.447597 151.592 -29.644 148.002 -31.6132 143.356C-32.8489 140.025 -33.7978 136.662 -32.9939 133.104C-31.3858 127.354 -23.3858 126.504 -21.067 121.503C-19.2589 117.845 -20.2496 113.639 -20.918 109.705C-21.4654 106.57 -22.4804 101.651 -18.79 99.3093C-12.596 95.4842 23.4212 102.309 29.9017 103.876C38.6461 106.639 47.6854 108.7 56.8442 110.062C61.4157 110.75 66.0329 111.249 70.6473 111.515C77.2718 111.743 79.2727 111.695 85.4045 109.369C87.4202 108.458 87.3285 107.441 86.2724 105.824C83.9306 102.055 78.9936 102.855 74.8153 103.049C70.1278 103.352 70.6076 104.039 65.7937 103.092C63.3791 102.64 61.0698 101.649 59.0314 100.626C54.97 98.5355 50.7414 97.1596 46.184 96.3112C30.6237 93.3227 -12.7766 95.0499 -23.3321 82.0686L-23.5424 81.8238L-23.4341 81.5316C-21.5647 76.3026 -20.4319 70.8495 -20.1772 65.3485C-19.8118 59.7735 -20.9121 54.3757 -21.7427 48.8583C-22.8467 41.7879 10.0596 40.4891 15.8739 41.0318C24.9789 41.8851 33.9983 43.6121 42.5995 46.4057C45.4354 47.4052 48.2712 48.3901 51.2001 49.1558C62.8879 52.5533 75.2338 52.205 87.3095 53.2998C93.3637 53.8834 99.3588 54.8749 105.278 56.2164L105.246 56.1732ZM105.246 56.1732C99.3267 54.8607 93.3319 53.8983 87.2781 53.3438C75.1872 52.3073 62.81 52.7142 51.091 49.3752C48.1623 48.6241 45.2948 47.6541 42.459 46.6692C33.8904 43.9333 24.8234 42.236 15.8152 41.4689C10.4964 41.0076 -22.1875 42.2165 -20.9939 48.7623C-20.0844 54.206 -18.8863 59.7772 -19.172 65.3513C-19.3297 70.953 -20.3974 76.5217 -22.2335 81.8666L-22.3355 81.3297C-19.489 84.598 1.02946 88.667 5.18231 90.3928C15.9207 94.4705 35.2255 92.5125 46.578 94.5321C51.2305 95.3212 55.9069 96.7936 60.0318 98.8543C62.0858 99.8484 64.0899 100.669 66.2804 101.05C70.6618 101.857 69.9904 101.157 74.6133 100.783C78.7265 100.487 84.128 99.8422 87.3095 103.092C93.6745 109.781 86.1618 112.72 79.4197 113.351C60.4822 114.912 46.8128 111.838 28.8798 106.535C24.082 105.603 -16.6472 96.9861 -18.1832 103.433C-18.9094 109.55 -15.0302 116.516 -18.3249 122.663C-20.237 126.976 -25.6736 128.713 -28.7994 131.571C-31.0096 133.59 -30.4451 136.827 -29.8231 139.525C-29.3269 142.384 -27.9084 144.971 -24.9102 146.201C-22.1517 147.405 -18.2665 149.423 -15.2083 148.965C-11.9317 148.083 15.5954 146.615 19.1055 146.588C23.9055 146.357 28.5427 147.205 33.2354 147.339C37.9583 147.327 49.4623 148.662 54.3172 149.026C63.4575 150.17 72.8691 149.958 81.8276 147.846C84.1192 147.325 86.2452 146.296 88.619 145.977C98.0833 144.819 107.375 147.954 116.641 148.965C118.03 149.051 119.949 149.406 120.429 148.15C120.473 147.829 120.323 147.293 120.205 146.756C119.652 144.508 120.532 141.982 122.204 140.362C124.067 138.639 122.976 135.41 120.934 134.067C116.256 131.111 115.841 127.014 116.631 122.263C117.236 118.023 117.439 113.628 119.371 109.649C120.67 106.085 128.337 101.356 119.17 102.001C114.133 102.467 110.137 105.889 107.226 109.443L107.487 108.538C108.618 104.336 112.001 100.282 116.907 99.4969C118.451 99.1879 120.127 99.2265 121.377 98.3827C124.085 96.5765 123.294 93.0805 122.8 90.4682C121.81 86.2472 120.691 82.0422 119.175 77.9583C118.011 75.2666 117.768 72.2586 118.549 69.4278C118.883 68.013 119.65 66.6949 119.809 65.2677C119.92 63.8409 119.169 62.4243 118.104 61.4041C114.701 58.3314 109.79 57.2835 105.294 56.2017L105.246 56.1732Z" fill="#3C3636"/>
<path d="M-0.0980121 111.922C-1.33428 96.0715 -8.05096 90.6958 -4.65461 87.7761C-0.958206 84.5911 10.2691 88.183 13.6806 89.2776C19.2862 91.0736 19.9723 92.4328 24.7845 93.2346C29.5167 94.0227 31.4532 93.1564 38.5963 92.7091C40.2705 92.6022 48.1478 92.1754 56.7444 93.2237C66.0281 94.3513 65.4401 95.9145 74.4999 97.001C84.4228 98.2083 89.1935 96.8288 92.115 103.991C93.4945 105.967 90.9419 107.365 90.4515 113.174C90.2274 115.838 90.7218 118.538 91.6945 123.937C92.8381 130.294 93.6036 131.623 92.4509 132.655C90.6667 134.261 87.0099 132.661 79.9143 131.711C72.8827 130.775 67.5259 131.158 61.7705 131.56C50.7221 132.344 51.1942 134.506 42.377 135.06C32.5552 135.67 31.9176 133.001 17.8017 132.09C4.45232 131.228 0.0886731 133.301 -2.59273 130.511C-6.00093 126.973 -0.0537234 122.51 -0.0978415 111.937L-0.0980121 111.922Z" fill="#EBE9E5"/>
<path d="M-0.0981782 111.922C-0.0313833 106.729 -2.04484 96.8759 -4.01589 92.0701C-7.06835 84.8479 2.83415 85.6773 7.6499 86.7845C13.1983 87.7813 18.3621 89.9898 23.5385 91.9218C28.9988 93.5596 34.5327 91.9529 40.0977 91.6405C45.7737 91.2685 51.4702 91.2891 57.1568 91.8188C61.3566 92.1041 65.6778 93.217 69.6646 94.3921C73.6489 95.349 77.7696 95.6935 81.8883 95.8634C84.6349 96.0494 87.8861 95.7204 90.7193 96.4871C94.0661 97.5097 94.6833 105.313 93.2945 107.977C90.4982 114.453 93.038 121.492 94.0889 128.112C94.3145 129.666 94.9702 131.156 94.1914 132.78C92.0757 136.048 87.6353 134.297 84.5821 133.823C81.8632 133.274 79.1613 132.825 76.414 132.581C68.3023 132.065 59.6381 132.065 51.7005 134.151C46.2951 135.828 40.2849 136.277 34.6412 135.325C31.8109 134.805 29.1688 134.007 26.4186 133.516C20.9497 132.504 15.3124 132.09 9.69541 132.054C5.00207 131.861 -4.62788 133.865 -3.59222 126.93C-2.18241 121.968 0.122879 117.17 -0.0822239 111.922L-0.0981782 111.922ZM-0.0981782 111.922C0.1704 117.14 -2.10212 122.011 -3.48038 126.943C-4.40538 133.79 5.10949 131.497 9.69064 131.647C15.3382 131.566 21.0047 131.747 26.6154 132.612C29.4126 133.03 32.1654 133.74 34.8828 134.159C40.3325 134.895 45.942 134.291 51.1228 132.514C61.9696 129.507 74.0606 129.191 85.1899 131.227C87.0761 131.511 89.0615 132.098 90.8302 131.888C91.0213 131.857 91.1482 131.797 91.2433 131.738C91.3382 131.664 91.4329 131.576 91.4169 131.576C91.6019 131.021 91.1527 129.456 91.0317 128.657C89.9193 122.241 87.5901 115.462 89.6521 108.965C90.0198 107.666 90.6484 101.331 90.8301 100.5C91.0157 98.6363 87.6042 98.8945 85.9745 98.7099C81.7764 98.5701 77.2898 98.3172 73.1809 97.6235C70.336 97.2205 67.4529 96.2798 64.906 95.4369C57.0131 93.1731 48.4576 92.9097 40.1945 93.0938C34.5959 93.2613 28.7084 94.6538 23.2297 92.7981C20.507 91.9282 18.224 90.4568 15.5328 89.5575C10.9042 88.0845 -0.842471 83.7423 -4.12333 88.3479C-4.73207 89.504 -4.30142 90.8517 -3.8886 92.0395C-1.94963 96.8312 0.0324331 106.728 -0.0822239 111.922L-0.0981782 111.922Z" fill="#3C3636"/>
<path d="M1.34802 52.8384C0.0799731 48.1116 -0.538438 45.7189 0.459776 43.7582C1.942 40.89 5.91786 39.7671 7.55583 39.297C25.6382 34.198 50.165 53.4591 80.6649 50.0473C85.7802 49.4782 90.4745 48.3905 93.1973 50.6277C98.6265 55.073 91.7494 68.6804 90.6382 80.0676C90.3824 82.7468 90.5145 84.4907 90.5699 85.13C91.0243 89.8664 92.568 90.881 91.9429 92.0083C90.8339 94.043 83.9895 94.1087 54.5003 88.4617C54.5003 88.4617 43.3539 86.3233 27.9127 82.6062C6.45494 77.4323 22.3474 80.1696 8.96663 76.632C5.15733 75.6294 0.757057 74.5755 -0.393457 71.7091C-0.952079 70.3339 -0.584692 69.006 0.0893323 66.6127C1.22238 62.5414 2.73203 62.0146 3.01958 59.3204C3.22164 57.4999 2.56702 57.464 1.31611 52.8388L1.34802 52.8384Z" fill="#EBE9E5"/>
<path d="M1.34749 52.8378C0.727712 50.3288 -0.243219 47.8094 -0.0182895 45.2177C1.6964 37.6779 15.9611 37.6707 22.4245 39.1368C33.5233 41.2903 44.0386 45.3996 55.1058 47.5826C63.3111 49.2755 71.7443 49.9912 80.0775 48.9772C84.3178 48.6366 89.3232 46.8617 93.5315 49.2414C100.799 53.927 93.4208 69.7511 92.7513 76.6096C91.864 81.2308 91.5998 85.9173 93.4386 90.332C94.836 95.2028 87.4434 94.7803 84.1209 94.4702C75.5592 93.6832 67.2259 91.9628 58.8614 90.3008C44.3683 87.1544 29.7174 84.1553 15.7017 79.5342C15.3975 79.4505 15.0572 79.0036 14.8956 78.831C13.4818 78.0039 11.6904 77.6322 10.073 77.142C6.32501 75.9206 0.925434 75.3729 -0.572893 71.4197C-0.95517 70.1152 -0.539751 68.8012 -0.219204 67.5612C0.260988 64.9665 1.87851 62.7513 2.82358 60.3403C3.65493 57.7561 1.79177 55.3489 1.34749 52.8378ZM1.34749 52.8378C1.76866 54.7383 2.71495 56.5162 3.08842 58.4318C3.17514 61.747 0.317305 64.3259 -0.107016 67.6035C-1.03341 70.247 -0.62052 72.8021 2.2521 74.2084C5.96011 76.0994 10.3369 76.5135 14.2949 77.9507C14.6315 78.0777 14.9679 78.1901 15.306 78.448C15.6931 78.807 15.6626 78.9238 16.0311 79.0504C24.6635 81.7855 33.7922 83.3076 42.6866 85.2542C53.7387 87.51 64.8821 89.3867 76.0377 90.9432C80.6706 91.427 85.549 92.4317 90.1348 91.6216C90.5958 91.4707 90.6258 91.3104 90.5797 91.4564C89.7907 89.4875 89.0054 86.4714 88.9627 84.1883C88.6625 76.2648 91.7151 68.5202 93.1906 60.9977C93.6942 57.6756 94.7646 53.7068 91.9291 51.3837C88.558 49.6487 84.3147 51.0948 80.3912 51.2426C77.5063 51.5091 74.6186 51.5429 71.7296 51.4604C54.3643 51.0239 38.8296 43.4098 22.3655 39.5447C15.9166 37.9621 1.90431 37.7191 0.0777753 45.2457C-0.163279 47.823 0.791868 50.3571 1.37974 52.8665L1.34749 52.8378Z" fill="#3C3636"/>
<path d="M119.591 304.142C120.171 306.026 116.686 306.823 116.057 310.263C115.47 313.354 117.733 315.785 126.605 325.368C131.777 330.966 134.395 333.8 135.152 335.813C137.194 341.215 135.135 345.239 134.031 350.459C130.072 369.341 143.595 380.92 137.048 387.309C135.297 389.017 133.131 389.362 124.775 389.795C104.061 390.881 94.2058 390.022 84.5105 390.529C69.5208 391.301 57.9021 395.16 51.3854 397.316C40.021 401.086 -4.70063 416.427 -10.1625 411.924C-10.8553 411.351 -12.584 409.524 -15.5262 408.991C-18.5005 408.444 -20.0651 409.728 -20.9998 408.939C-21.4188 408.58 -22.2792 407.325 -17.03 397.765C-13.7178 391.748 -13.3456 392.195 -12.5906 389.903C-10.7415 384.296 -12.2058 379.164 -12.9693 376.642C-14.4974 371.511 -15.9752 372.037 -17.405 367.123C-18.037 364.934 -19.7995 358.861 -16.9109 353.46C-15.2401 350.342 -12.7531 348.8 -10.3158 347.099C-7.59351 345.205 -10.5403 347 32.8463 322.583C44.0534 312.198 49.6571 307.012 50.7197 306.462C59.8237 301.788 69.392 301.327 82.2611 300.696C85.8811 300.523 89.9993 300.649 98.2354 300.887C115.841 301.408 119.077 302.519 119.591 304.171L119.591 304.142Z" fill="#D7D0BB"/>
<path d="M119.591 304.142C119.923 305.229 118.831 306.042 118.138 306.777C116.575 308.236 115.563 310.371 116.209 312.4C118.276 317.19 122.785 320.759 126.199 324.777C128.721 327.584 132.611 331.378 134.658 334.481C136.904 338.251 136.318 342.723 135.184 346.693C132.693 354.692 133.35 363.092 136.138 370.928L138.186 376.824C141.118 384.702 139.329 389.974 129.2 390.238C120.129 390.926 111.054 391.279 101.976 391.357C92.9616 391.419 83.9605 391.262 75.0737 392.69C61.6759 394.505 49.2106 399.64 36.5437 403.919C29.8805 405.83 -5.98463 418.173 -13.2783 416.658C-14.4622 416.396 -15.8789 415.322 -16.6052 414.618C-18.3943 413.082 -20.7166 412.339 -23.1201 412.847C-29.1378 414.008 -27.1775 408.371 -25.7289 405.357C-23.8918 401.452 -21.8609 397.749 -19.478 394.128C-18.882 393.249 -18.5706 392.59 -18.279 391.598C-17.3866 388.78 -17.3413 385.842 -17.854 382.939C-18.2115 381.023 -18.7618 378.993 -19.4688 377.212C-20.2567 375.331 -21.7767 373.618 -22.4543 371.618C-24.6148 365.622 -25.2292 358.124 -20.4717 352.905C-18.1885 350.304 -15.0748 349.133 -12.8377 346.692C-4.35023 338.418 33.7044 320.93 42.4987 312.973L47.3783 308.639C48.6426 307.592 49.8246 306.341 51.4286 305.697C60.1082 301.567 70.0913 301.101 79.6595 300.639C84.1875 300.339 88.7364 300.46 93.2538 300.611C100.038 300.851 106.852 300.946 113.596 301.798C115.595 302.196 118.627 302.234 119.575 304.142L119.591 304.142ZM119.591 304.142C118.288 300.507 97.7604 301.213 93.2563 300.829C88.7235 300.722 84.2069 300.63 79.6792 300.959C70.7339 301.471 61.4207 301.915 53.2625 305.603C51.0227 306.458 49.6322 307.624 47.9595 309.214L43.1925 313.634C34.6077 321.763 -3.23766 339.409 -11.5 347.825C-13.5619 350.249 -16.9588 351.758 -18.9098 354.108C-24.4005 360.762 -21.3585 369.817 -17.0537 376.34C-14.9516 381.436 -13.9929 386.995 -15.6059 392.323C-15.8492 393.344 -16.4568 394.602 -17.0687 395.482C-19.3255 398.97 -21.3244 402.688 -23.0201 406.402C-23.5947 407.747 -24.2781 409.34 -24.3113 410.592C-24.3118 410.548 -24.4089 410.433 -24.4732 410.39C-24.5054 410.361 -24.5698 410.318 -24.6338 410.304C-24.8573 410.293 -24.2672 410.271 -23.7101 410.148C-20.4955 409.427 -16.9246 410.505 -14.5713 412.528C-13.5236 413.432 -13.2654 413.677 -12.3528 413.942C-6.19727 415.005 29.4644 402.999 35.4759 401.299C48.287 397.076 60.9446 392.012 74.6143 390.252C83.6455 388.895 92.8729 389.296 101.953 389.393C110.985 389.491 120.046 389.312 129.056 388.814C138.277 388.735 139.536 384.459 137.072 377.142L135.152 371.201C132.49 363.247 132.133 354.626 134.704 346.611C135.855 342.714 136.474 338.343 134.325 334.659C132.453 331.554 128.404 327.776 125.994 324.939C122.611 320.892 118.117 317.279 116.098 312.445C115.468 310.387 116.511 308.236 118.09 306.792C118.799 306.042 119.875 305.273 119.575 304.171L119.591 304.142Z" fill="#3C3636"/>
<path d="M-12.1288 154.254C-9.09752 154.218 97.2336 147.304 101.703 148.779C104.922 149.847 104.821 149.382 113.716 151.358C120.915 152.961 121.798 153.445 122.175 154.255C123.124 156.295 119.647 157.747 117.98 162.61C117.209 164.83 117.331 167.068 117.605 171.457C117.902 176.385 118.097 179.379 119.058 182.378C122.32 192.565 132.215 195.416 130.793 199.331C130.221 200.894 127.817 202.769 118.859 203.558C121.74 205.633 125.609 209.05 127.726 214.072C129.843 219.08 128.042 220.599 128.259 232.305C128.439 242.237 129.796 245.029 127.168 249.466C125.149 252.865 122.063 255.053 119.797 256.36C122.214 257.059 125.533 258.431 127.305 261.174C128.832 263.526 128.475 265.741 126.797 273.703C124.304 285.572 123.838 286.668 124.711 288.97C126.358 293.358 129.499 293.234 131.296 298.144C132.565 301.591 132.749 306.359 130.77 309.03C125.979 315.5 2.14563 344.809 -12.1605 344.002C-60.6193 341.268 -97.9491 355.064 -106.009 348.046C-107.799 346.481 -106.938 343.649 -105.148 338.509C-100.733 325.803 -94.2279 309.058 -84.6785 289.281C-90.8952 284.365 -97.1016 277.602 -97.5501 269.287C-99.3511 235.419 -3.87156 205.312 -6.9998 199.792C-7.74936 198.463 -13.51 199.781 -23.5297 201.208C-41.8168 203.807 -57.0567 203.651 -67.2273 203.087C-69.7998 204.15 -77.7907 207.138 -87.6101 205.231C-89.753 204.82 -100.276 202.761 -104.944 195.224C-105.838 193.78 -107.032 191.306 -106.675 180.961C-106.509 176.072 -106.009 169.666 -104.629 162.159C-45.032 160.908 -23.1187 158.659 -18.8707 156.253C-18.3159 155.941 -15.7184 154.296 -12.1605 154.269L-12.1288 154.254Z" fill="#D7D0BB"/>
<path d="M93.1833 146.159C97.3488 146.241 100.733 149.081 104.839 149.571C110.341 150.641 116.015 151.476 121.271 153.364C123.019 154.158 122.37 155.969 121.394 157.057C117.912 160.821 117.008 165.428 117.639 170.206C117.922 173.941 117.966 177.722 118.902 181.347C120.26 186.96 124.586 191.215 128.988 195.09C135.939 201.394 123.979 203.425 118.893 203.746L119.017 203.381C125.435 207.83 130.322 215.03 128.911 222.61C128.538 227.502 128.579 232.403 128.908 237.286C129.348 242.139 129.955 247.659 126.204 251.688C124.553 253.729 122.434 255.398 120.121 256.748L119.998 255.834C126.53 257.648 130.23 261.619 128.583 268.096C127.652 274.492 125.557 280.829 125.121 287.191C125.357 289.646 127.151 291.589 129.134 293.325C133.186 297.336 134.363 303.838 131.948 308.855C126.894 317.365 103.141 311.026 94.0146 311.06C71.1962 309.596 49.3874 318.041 30.1243 328.579C25.2248 331.225 -29.0344 351.305 -33.9649 354.025C-37.7868 356.033 -41.5416 358.317 -46.0146 359.228C-50.3922 360.108 -53.5054 357.236 -52.5 353.166C-46.9463 334.178 -38.8158 315.872 -30.235 297.867L-29.833 299.491C-67.3839 270.361 -92.6628 234.07 -65.5369 220.502C-57.8595 216.63 -50.0514 213.019 -42.308 209.336C-37.6934 206.896 -33.4464 208.49 -29.833 205.03C-29.7858 204.971 -29.8491 205.015 -29.8014 205C-29.833 205.03 -29.7681 205.116 -29.768 205.131C-31.67 204.848 -32.9828 201.75 -35.2608 202.068C-43.8614 203.405 -52.6082 204.526 -61.3626 204.992C-70.1167 205.487 -78.9087 205.474 -87.6587 204.951C-92.1481 207.185 -100.831 208.305 -106.908 207.184C-116.371 205.724 -127.398 200.122 -127.29 190.274C-127.746 181.29 -1.09709 162.856 0.474461 153.994L0.504491 153.834L0.679985 153.832C24.0015 153.296 47.3727 152.906 70.6133 150.918C74.4864 150.552 78.3589 150.143 82.1637 149.4C86.067 148.889 89.0966 145.988 93.1511 146.13L93.1833 146.159ZM93.1833 146.159C89.113 146.032 86.1155 148.947 82.1965 149.473C78.3919 150.23 74.5195 150.654 70.6466 151.034C47.4071 153.124 24.0372 153.616 0.700716 154.239L0.90624 154.076C-0.157641 159.965 -0.837956 165.907 -1.0393 171.873C-0.94059 177.573 -127.809 193.669 -123.494 198.346C-114.866 207.466 -99.1034 208.678 -87.5439 203.859C-78.8427 204.295 -70.1156 204.222 -61.4265 203.625C-50.3902 203.176 -41.3626 204.234 -30.3636 203.32C-29.2947 203.307 -27.8208 203.813 -27.8543 205.036C-28.1053 206.769 -28.5511 204.127 -29.833 205.03C-33.5562 207.284 -37.4276 209.148 -41.2826 211.055C-56.6883 218.537 -81.2272 226.501 -95.5773 235.556C-143.701 261.138 -54.9595 276.717 -27.7995 297.373L-26.9459 298.046L-27.3975 298.997C-34.2509 313.273 -40.431 327.818 -45.8584 342.601C-47.1084 346.223 -48.6766 349.921 -49.4952 353.596C-49.6755 354.544 -49.7604 355.475 -49.1622 356.138C-48.6936 356.641 -47.7508 356.761 -46.5405 356.558C-42.6091 355.726 -39.0279 353.604 -35.4595 351.744C-30.5922 349.084 23.7308 329.003 28.6781 326.356C38.5566 321.048 48.9196 316.243 59.923 312.987C70.9107 309.745 82.6037 308.139 94.1817 308.978C102.479 309.026 125.879 315.123 130.311 308.06C132.029 304.811 131.501 300.657 130.09 297.372C129.056 294.868 126.631 293.558 125.057 291.264C123.306 288.943 123.35 285.844 124.037 283.233C125.078 278.101 126.327 273.01 127.272 267.908C128.829 261.868 125.695 258.618 119.626 256.783L118.49 256.448C127.574 251.454 129.128 246.563 128.046 237.311C127.781 232.398 127.803 227.452 128.24 222.545C128.451 220.099 128.726 217.653 127.917 215.335C126.328 210.51 122.642 206.422 118.283 203.375C122.314 202.877 127.196 202.835 130.178 199.993C132.487 196.867 126.194 193.581 124.443 191.245C121.698 188.441 119.584 185.077 118.631 181.394C117.695 177.71 117.682 173.929 117.415 170.194C116.785 165.416 117.766 160.692 121.265 156.957C122.194 155.928 122.86 154.16 121.208 153.452C115.984 151.55 110.325 150.685 104.84 149.6C100.717 149.096 97.3488 146.241 93.1831 146.144L93.1833 146.159Z" fill="#3C3636"/>
<path d="M40.5932 196.635C35.3822 198.558 31.0868 202.375 22.5284 210.039C16.8121 215.139 13.9229 217.761 12.7283 220.67C10.4319 226.224 13.3704 227.804 12.1418 235.978C10.7938 244.852 6.83677 246.222 8.34294 250.844C10.064 256.104 17.0174 259.891 23.1395 260.823C25.3454 261.161 29.1775 261.392 46.4633 255.037C57.5212 250.98 55.3048 251.108 60.5673 249.49C70.8537 246.315 82.3485 242.777 94.2036 245.474C97.4034 246.208 99.6964 247.17 101.551 246.115C104.388 244.497 102.662 240.212 102.673 231.586C102.678 225.157 103.644 225.946 104.205 215.234C104.66 206.429 104.146 203.425 102.308 200.392C101.592 199.222 99.8357 196.421 96.1887 194.296C94.1483 193.098 90.4116 191.484 79.1663 191.805C73.2963 191.961 70.7177 192.5 59.5499 193.984C42.7263 196.203 43.1512 195.703 40.5934 196.65L40.5932 196.635Z" fill="#EBE9E5"/>
<path d="M40.5933 196.635C34.9542 198.796 30.6949 202.962 26.3351 206.722C22.1526 210.64 17.4085 214.288 14.015 218.808C10.3388 223.723 13.598 229.518 12.7676 234.909C12.529 239.057 10.7736 243.121 9.09469 246.908C7.71995 250.779 10.9374 254.377 14.2814 256.52C23.1875 262.19 29.8566 259.421 39.0428 256.317C44.6363 254.346 50.2766 252.287 55.5772 249.84C66.9521 245.605 79.2736 241.809 91.7403 243.598C94.376 243.843 97.7438 245.302 100.088 245.216C102.492 244.694 101.608 241.46 101.65 239.569C101.458 236.837 101.313 234.017 101.392 231.209C101.568 225.767 103.099 220.251 103.241 214.693C103.53 209.366 104.213 203.657 100.633 199.102C97.4174 194.297 91.4908 192.344 85.5054 192.182C76.7847 191.44 67.1348 193.11 58.4672 194.171L49.4648 195.266C46.8533 195.718 42.9753 195.662 40.5454 196.636L40.5933 196.635ZM40.5933 196.635C43.0069 195.632 46.9163 195.645 49.512 195.207L58.4977 194.054C70.3522 192.621 82.8732 189.507 94.6261 193.02C100.35 195.368 104.497 200.701 104.995 206.396C105.57 213.313 105.03 220.316 104.074 227.207C103.659 231.269 104.073 235.294 104.408 239.391C104.746 242.355 105.01 247.166 100.598 247.843C97.2513 248.202 94.4092 246.679 91.2143 246.368C81.0163 244.829 70.5853 247.918 60.9345 250.868C53.8961 253.437 47.1666 256.498 39.9638 258.662C34.1591 260.301 27.8396 262.95 21.6645 261.582C15.6318 260.111 9.44919 256.736 7.51494 250.985C6.45963 248.073 8.30896 245.215 9.52372 242.67C11.8741 237.639 12.4309 232.048 11.57 226.661C10.5753 220.753 15.3236 216.101 19.6841 212.4L26.2225 206.65C30.6144 202.905 34.922 198.767 40.5773 196.635L40.5933 196.635Z" fill="#3C3636"/>
<path d="M-3.51106 173.327C-4.59896 170.358 -4.67476 167.974 -4.8106 163.19C-4.97449 157.374 -5.05643 154.466 -3.64154 152.66C-1.83359 150.356 1.17181 149.477 8.83132 148.165C19.9146 146.275 25.4721 145.323 31.2486 145.357C35.3656 145.382 43.919 146.823 61.0097 149.692C75.0786 152.043 74.7773 152.207 77.571 152.32C85.5366 152.619 91.4269 151.474 93.3563 154.084C94.1993 155.223 93.588 156.161 93.3115 158.433C92.4274 166.05 97.8416 167.849 97.584 175.822C97.5237 177.481 97.3595 182.53 93.3971 184.802C92.3986 185.381 91.4438 185.596 90.6003 185.78C83.2778 187.262 75.6712 186.275 75.3514 186.221C59.8332 184.105 60.2103 183.606 56.3162 183.535C53.8425 183.491 49.4641 184.299 40.8027 185.898C19.4835 189.828 15.9971 190.509 11.4773 188.787C6.38049 186.84 2.87265 182.968 1.54705 181.5C-1.76678 177.845 -3.11522 174.428 -3.51072 173.356L-3.51106 173.327Z" fill="#EBE9E5"/>
<path d="M-3.51133 173.327C-5.21116 168.518 -4.72939 163.335 -4.94738 158.348C-5.41036 151.517 -1.24919 149.869 5.24603 148.6C10.6588 147.548 16.0557 146.51 21.5184 145.631C32.5504 143.451 43.6711 146.113 54.5863 147.585C61.3315 148.583 68.2209 149.637 74.9674 150.75C78.9787 151.285 82.9945 150.845 87.1596 150.898C90.2538 150.789 95.3369 151.559 95.365 155.326C95.124 157.903 94.4309 160.035 95.1301 162.514C95.6184 164.69 97.0312 166.797 98.0505 169.359C99.8661 174.516 99.879 181.061 95.3787 185.084C92.9768 187.091 89.7713 187.23 86.7757 187.585C78.3762 188.382 70.0244 186.443 61.8223 185.027C59.1034 184.477 56.5616 184.07 53.8849 184.407C43.0509 185.785 32.2117 188.079 21.2662 189.473C18.5411 189.766 15.689 190.105 12.9837 189.366C5.16739 186.825 -0.701244 180.29 -3.49537 173.327L-3.51133 173.327ZM-3.51133 173.327C-0.670189 180.217 5.21474 186.781 13.0448 189.133C15.7013 189.8 18.4892 189.418 21.1976 189.066C32.0917 187.368 42.7031 184.698 53.6924 182.955C59.3639 182.205 64.778 183.988 70.3364 184.476C72.669 184.725 76.1221 185.296 78.4361 185.327C82.4589 185.483 86.4934 185.276 90.3931 184.459C91.6347 184.212 92.5712 183.794 93.3927 183.086C96.6602 180.066 96.5594 174.191 95.0781 170.325C94.239 168.167 92.649 165.917 91.9942 163.147C91.2947 160.639 91.8035 157.767 92.222 155.348C92.2807 154.911 91.7318 154.365 90.7552 154.085C85.5903 153.142 79.779 154.228 74.4708 153.301C62.3184 151.102 50.1154 148.671 37.9338 146.704C35.2167 146.314 32.5312 145.895 29.8353 145.956C21.6039 146.125 13.4373 147.733 5.33057 149.006C1.54189 149.763 -3.45826 150.622 -4.44857 154.619C-5.20298 158.322 -4.69533 162.156 -4.68344 165.894C-4.60627 168.395 -4.40096 170.938 -3.51133 173.327Z" fill="#3C3636"/>
<path d="M8.60424 303.086C6.73591 298.876 8.99981 294.631 9.4531 293.826C12.22 288.935 18.148 286.917 21.77 285.551C22.4214 285.31 13.1436 288.779 49.9793 270.486C71.9348 259.582 76.7621 257.591 84.1463 255.934C97.4984 252.941 102.451 254.846 104.877 256.229C109.342 258.78 113.01 264.046 111.494 268.122C109.746 272.797 102.76 271.671 98.6481 277.523C95.1325 282.524 98.38 285.962 94.8477 289.538C92.1669 292.246 88.2115 292.394 79.4108 292.992C61.9365 294.156 53.0883 294.784 48.0954 296.267C44.311 297.388 35.8678 299.901 29.4346 306.464C25.0354 310.952 25.5259 313.317 19.491 319.831C15.284 324.375 8.55529 330.228 6.64484 329.232C5.16771 328.449 7.01118 323.73 7.84782 321.596C10.776 314.13 14.6653 312.426 13.6356 308.976C12.8217 306.237 10.1448 306.559 8.60424 303.086Z" fill="#EBE9E5"/>
<path d="M8.6042 303.086C6.25753 297.543 9.7732 291.189 15.2128 288.348C17.1305 287.234 19.4974 286.334 21.5939 285.509L21.737 285.464C21.6871 285.29 21.8831 285.68 21.819 285.652C21.7078 285.697 21.5805 285.728 21.4532 285.758C21.3736 285.774 21.2464 285.804 21.1501 285.762C21.0535 285.69 21.0848 285.632 21.1 285.573C23.8669 283.403 27.2964 281.952 30.3712 280.185C41.2812 274.399 52.2401 268.7 63.3125 263.159C68.8813 260.447 74.4328 257.618 80.6025 255.801C88.3027 253.878 96.9708 251.493 104.699 254.66C112.801 258.449 118.135 269.775 107.042 273.527C100.67 275.798 98.0337 279.566 98.2482 285.615C97.6532 293.389 88.2455 293.935 81.7862 294.185C72.6823 294.787 62.5542 295.124 53.6151 296.174C44.551 297.444 35.515 301.113 29.3664 307.454C27.2845 309.529 25.9584 312.105 24.2803 314.597C22.7969 317.363 8.88172 332.217 6.16312 328.976C5.65611 327.92 6.07323 326.752 6.30027 325.702C7.11328 322.914 8.24639 320.21 9.68433 317.648C10.9147 315.073 13.6018 312.904 13.7751 309.993C13.8334 306.792 9.51541 305.956 8.62033 303.101L8.6042 303.086ZM8.6042 303.086C9.34786 305.274 11.7839 306.191 13.1605 307.92C14.5558 309.896 13.4183 312.222 12.1461 313.954C9.53972 317.562 7.65582 321.555 6.55605 325.742C6.32884 326.778 5.6392 329.2 7.28211 329.152C11.6699 327.777 14.7368 323.974 17.8772 320.999C22.423 316.771 24.4657 311.351 28.3679 306.666C33.5022 300.918 40.8958 297.341 48.5451 295.157C59.1431 292.705 70.7566 292.482 81.5792 291.497C86.7742 290.927 94.5504 291.403 95.1336 285.346C94.7799 278.31 98.5362 273.423 105.735 270.909C107.148 270.325 108.45 269.743 109.19 268.963C111.805 266.024 109.394 261.849 106.748 259.305C102.613 255.048 96.1207 255.197 90.3213 255.934C80.9511 256.96 72.4397 260.463 64.0453 264.416C49.7809 271.259 35.1282 277.642 21.4817 285.467C21.4184 285.511 21.3397 285.6 21.3239 285.614C21.3239 285.614 21.3237 285.6 21.2911 285.542C21.3867 285.526 21.6095 285.48 21.7526 285.435C21.7838 285.376 21.9324 285.796 21.8188 285.638C19.6581 286.434 17.2428 287.291 15.2775 288.42C9.85331 291.218 6.30522 297.528 8.60403 303.072L8.6042 303.086Z" fill="#3C3636"/>
<path d="M108.687 307.688C109.265 309.427 105.78 310.181 105.147 313.388C104.559 316.26 106.819 318.517 115.683 327.417C120.85 332.607 123.466 335.253 124.222 337.12C126.259 342.143 124.197 345.876 123.089 350.733C119.114 368.292 132.627 379.042 126.075 384.98C124.323 386.572 122.156 386.888 113.8 387.306C93.0852 388.334 83.2311 387.548 73.5352 388.01C58.545 388.739 46.9232 392.337 40.4048 394.348C29.0375 397.87 -10.2065 409.185 -15.6647 405.002C-16.357 404.472 -18.0843 402.761 -21.026 402.272C-23.9997 401.769 -25.5654 402.965 -26.4995 402.22C-26.9183 401.89 -27.7778 400.708 -22.5206 391.832C-19.2034 386.237 -18.8317 386.64 -18.0747 384.522C-16.2211 379.308 -17.6811 374.539 -18.4425 372.192C-19.9664 367.425 -21.4445 367.922 -22.8702 363.357C-23.5004 361.313 -25.2578 355.676 -22.3648 350.653C-20.6915 347.754 -18.2033 346.314 -15.7646 344.729C-13.0408 342.966 3.08202 341.114 21.9274 324.879C33.1431 315.221 38.7508 310.384 39.8139 309.877C48.9217 305.523 58.4903 305.091 71.3598 304.49C74.98 304.331 79.0978 304.428 87.3337 304.651C104.939 305.114 108.174 306.153 108.687 307.688Z" fill="#EBE9E5"/>
<path d="M108.687 307.688C109.018 308.761 107.878 309.487 107.184 310.193C105.605 311.549 104.576 313.656 105.365 315.596C107.716 320.121 112.142 323.443 115.633 327.228L120.057 331.685C125.814 336.854 126.22 341.489 123.922 348.337C121.445 356.119 122.833 364.262 125.872 371.732C127.504 376.236 130.995 382.741 125.436 386.238C122.374 387.801 118.782 387.611 115.451 387.955C97.9813 389.484 80.2828 387.844 62.9354 390.301C49.9522 392.097 37.737 396.793 25.321 400.691C21.1075 401.962 16.8453 403.161 12.3218 403.84C9.50167 404.193 -1.36512 405.232 -4.1897 403.84C-5.50712 403.07 -6.6226 401.832 -8.06458 401.325C-9.33125 400.802 -10.6894 400.643 -12.0594 400.834C-12.9998 400.918 -6.92678 400.647 -8.08329 399.991C-12.3674 397.962 -10.5567 386.097 -8.83394 383.328C-5.61945 378.505 -6.85924 372.105 -9.10286 367.186C-12.7696 362.007 -14.7777 355.398 -12.5207 349.205C-11.2127 345.088 -6.6792 342.533 -3.30709 340.268C-0.260367 337.469 10.3694 333.901 13.5604 331.158C19.9741 325.658 26.4525 320.229 32.9468 314.801C36.2337 312.071 39.4055 309.053 43.78 307.91C47.9436 306.465 52.3231 305.745 56.6895 305.272C69.8375 303.925 83.0691 304.265 96.2413 304.983C99.5149 305.206 102.852 305.371 106.036 306.119C107.044 306.398 108.277 306.718 108.671 307.717L108.687 307.688ZM108.687 307.688C107.74 305.896 104.677 305.931 102.806 305.575C96.2558 304.867 89.6496 304.828 83.0577 304.658C74.2783 304.353 65.4758 304.805 56.7581 305.678C52.4078 306.166 48.0937 307.016 44.0423 308.504C39.7645 309.732 36.7998 312.719 33.6407 315.462C27.2914 321.02 20.9422 326.577 14.6736 332.207C11.5315 335.036 1.07676 338.558 -2 341.518C-5.28978 344 -9.20858 345.908 -10.4389 349.849C-12.3215 355.311 -10.2554 361.425 -6.738 366.111C-3.95852 371.824 -2.72447 379.096 -6.44028 384.71C-9.11931 388.931 -12.7145 393.947 -13.6644 398.671C-13.6 398.714 -13.8438 398.339 -13.9234 398.354C-14.0519 398.283 -14.1153 398.313 -13.9719 398.296C-11.7435 397.834 -8.98346 397.802 -6.81843 398.736C-5.16803 399.328 -3.97431 400.434 -2.62328 401.349C-0.522244 402.27 6.98235 402.792 9.5 402.5C13.6736 401.913 20.2298 399.223 24.3641 398.011C36.9087 394.184 49.2681 389.545 62.5076 387.834C79.8256 385.595 97.753 387.697 115.354 386.502C128.805 386.461 128.951 382.604 124.934 372.019C122.021 364.432 120.917 356.038 123.49 348.226C125.806 341.552 125.496 336.959 119.852 331.847L115.475 327.361C112.016 323.547 107.605 320.18 105.285 315.611C104.496 313.642 105.572 311.521 107.168 310.164C107.878 309.457 109.002 308.746 108.703 307.673L108.687 307.688Z" fill="#3C3636"/>
</g>
<defs>
<filter id="filter0_d_4_523" x="-160.291" y="0.378418" width="332.75" height="444.409" filterUnits="userSpaceOnUse" color-interpolation-filters="sRGB">
<feFlood flood-opacity="0" result="BackgroundImageFix"/>
<feColorMatrix in="SourceAlpha" type="matrix" values="0 0 0 0 0 0 0 0 0 0 0 0 0 0 0 0 0 0 127 0" result="hardAlpha"/>
<feOffset dy="-5"/>
<feGaussianBlur stdDeviation="16.5"/>
<feComposite in2="hardAlpha" operator="out"/>
<feColorMatrix type="matrix" values="0 0 0 0 0 0 0 0 0 0 0 0 0 0 0 0 0 0 0.45 0"/>
<feBlend mode="normal" in2="BackgroundImageFix" result="effect1_dropShadow_4_523"/>
<feBlend mode="normal" in="SourceGraphic" in2="effect1_dropShadow_4_523" result="shape"/>
</filter>
</defs>
</svg>
