<svg width="151" height="387" viewBox="0 0 151 387" fill="none" xmlns="http://www.w3.org/2000/svg">
<g filter="url(#filter0_d_4_509)">
<path d="M52.2287 39.857L122.155 39.0377C125.073 38.9162 141.281 38.1353 151 46.5012C153.595 48.7252 175.601 54.8439 176.88 60.5014C178.042 65.7094 175.709 68.1512 177.067 76.4987C177.274 77.7908 177.56 79.111 177.118 80.8616C176.127 84.7858 172.879 85.3766 170.822 88.2078C166.865 93.6649 173.596 98.895 171.077 110.022C170.577 112.254 186.349 118.372 184.337 120.956C179.621 127.033 157.686 127.705 154.865 127.971C158.26 129.051 176.498 131.535 179.61 135.644C184.504 142.088 181.366 147.957 181.606 160.259C181.97 179.076 189.763 187.799 184.642 191.961C182.982 193.304 179.55 194.508 171.528 192.115C183.153 194.262 185.632 197.185 186.863 204.239C186.863 204.239 187.827 208.428 188.623 214.395C190.161 225.942 173.647 224.225 170.943 238.54C170.943 238.54 169.661 252.433 167.62 258.007C166.05 262.913 170.524 271.1 169.813 275.85C169.118 280.469 170.771 284.042 171.528 286.011C175.083 295.249 170.284 298.331 170.29 316.57C170.288 331.304 173.424 334.802 170.631 345.656C169.319 350.791 167.388 354.799 165.981 357.347L39.0203 326.097C37.7981 313.021 36.5917 299.944 35.3695 286.868C33.4233 277.379 34.9417 270.787 36.7263 266.489C38.5107 262.178 40.6547 259.956 41.3761 254.799C42.0678 249.831 40.787 246.733 39.6274 241.729C39.0726 239.321 36.8516 229.529 37.7763 219.933C39.0152 207.192 45.6218 196.366 50.2668 196.515C51.5279 196.558 53.4049 197.424 55.053 196.459C55.972 195.91 56.7572 194.839 56.5075 193.955C56.2073 192.838 54.3999 192.467 53.4065 192.115C48.1197 190.3 45.8303 182.836 45.2762 179.119C45.0503 177.551 44.4738 173.282 46.7523 168.921C48.625 165.335 50.1023 166.132 51.4703 163.047C53.5067 158.456 50.5886 155.887 52.9123 149.94C53.6712 147.982 53.9318 148.43 54.7056 146.384C56.3003 142.22 55.2732 140.356 55.9327 135.36C56.4455 131.47 56.7967 128.761 59.0212 126.596C61.514 124.182 65.0506 123.704 66.9641 123.594C64.6783 121.89 61.4864 119.106 58.8849 114.962C58.072 113.677 56.6708 111.206 55.6089 107.728C51.9739 95.7273 53.2992 74.0252 53.5023 64.1177C53.6104 58.3712 53.4809 50.0384 52.2127 39.8572L52.2287 39.857Z" fill="#D7D0BB"/>
<g opacity="0.7">
<path d="M52.2289 39.8571C69.6819 39.6089 109.243 38.7526 126.139 38.6274C138.526 39.0931 162.931 47.6418 167.446 58.5122C168.941 62.1455 168.095 66.1844 167.835 69.8673C167.353 73.6692 169.184 77.4294 168.223 81.1933C166.222 87.4711 158.761 86.6712 161.303 95.2812C162.452 99.3694 180.817 107.87 180.181 112.154C179.125 122.813 171.279 128.665 159.995 129.772L160.244 127.878C165.801 129.573 171.171 133.015 173.592 138.092C175.964 143.111 174.611 148.814 174.4 153.937C173.5 164.303 175.691 174.314 178.537 184.316C181.699 195.45 171.677 196.658 162.531 193.682L163.237 191.274C172.099 193.177 180.642 200.661 182.13 210.577C182.204 212.758 182.736 214.585 182.201 216.627C179.417 224.15 181.215 231.896 180.333 239.703C179.917 243.679 179.213 247.599 177.998 251.497C177.335 253.468 176.764 255.075 176.626 256.953C175.722 262.854 180.116 273.048 180.116 273.048C180.116 273.048 180.634 273.967 180.757 275.749C178.671 278.843 178.588 282.625 179.522 286.09C180.795 289.901 165.161 289.717 164.683 293.81C164.082 299.736 162.504 305.355 162.366 311.276C162.156 315.119 162.186 319.002 162.454 322.853C163.087 330.598 164.924 338.911 162.366 346.62C161.203 350.925 159.401 355.062 157.165 359.001L155.901 358.652L38.6209 327.396L37.6924 327.131L37.6181 326.244C37.6666 326.302 33.946 286.565 34.0325 287.131C33.2529 283.242 32.9027 279.232 33.2549 275.243C33.4722 269.277 36.6627 263.77 39.1215 258.462C41.3231 252.981 39.8726 247.66 38.3857 241.962C35.1225 227.644 34.6682 207.941 46.8237 196.788C47.7896 196.151 48.9789 195.526 50.4795 195.582C52.5565 195.819 54.0337 196.602 55.259 194.958C55.603 194.358 55.6967 194.182 55.0376 193.768C53.4663 193.118 50.6317 192.234 49.4329 190.692C43.5478 184.114 41.4411 171.819 48.5296 165.351C50.9499 163.563 51.5408 160.879 51.3011 158.133C50.8631 154.793 51.0882 150.849 53.111 147.814C55.5875 144.018 54.53 139.55 55.1827 135.339C55.6601 128.425 58.5692 123.416 66.926 123.057L66.555 124.079C63.4319 121.716 60.734 118.882 58.6861 115.692C52.5893 106.018 53.0267 94.3186 52.7885 83.5291C52.953 68.9676 54.1865 54.4082 52.2133 39.8863L52.2289 39.8571ZM52.2289 39.8571C54.4088 54.3183 53.3995 68.9478 53.4423 83.4923C53.7291 98.4412 54.0134 114.539 68.6292 124.069C51.0029 124.509 59.8586 139.488 54.5397 148.554C52.723 151.469 52.6165 154.641 53.0386 157.982C53.4242 160.93 52.4784 164.635 49.7563 166.544C43.2324 172.176 45.7499 186.852 53.1381 190.983C54.406 191.608 57.1696 191.881 57.5602 193.899C57.7925 196.019 55.77 197.716 53.6178 197.872C51.1775 197.959 50.0793 196.837 48.15 198.314C42.3069 203.488 40.1676 211.556 39.1027 218.725C38.2176 226.255 39.1379 233.982 40.8528 241.438C42.4676 247.165 43.9764 253.372 41.6353 259.203C40.9243 261.16 39.892 262.932 39.0344 264.644C35.4285 271.464 35.1854 279.322 36.7404 286.75L40.4392 325.979C40.4392 325.979 39.4207 324.841 39.4366 324.841L156.81 355.863L154.935 356.598C158.558 349.836 161.022 342.258 160.471 334.701C159.663 327.016 158.659 318.941 159.253 311.124C159.424 305.26 160.999 299.394 161.617 293.642C162.066 289.753 177.706 290.417 176.578 286.75C175.744 283.677 175.837 280.793 176.87 277.712C178.087 273.072 177.59 274.003 176.025 270.321C174.808 265.709 172.686 262.512 173.688 256.711C173.824 254.731 174.533 252.585 175.181 250.745C176.336 247.124 177.04 243.276 177.443 239.46C177.876 235.63 177.736 231.835 177.642 227.866C177.547 223.867 178.185 219.743 179.464 215.903C179.907 214.167 179.311 212.356 179.402 210.609C177.888 202.613 170.194 195.366 162.659 193.724L163.365 191.316C167.095 192.334 173.674 194.133 175.975 190.382C176.817 188.714 176.316 186.815 175.91 184.813C175.138 181.52 174.108 178.128 173.398 174.704C171.898 167.856 171.432 160.778 171.973 153.805C172.187 150.341 172.721 146.873 172.571 143.588C172.427 136.768 166.257 131.764 159.5 129.719L154.935 128.26L159.749 127.826C170.125 126.889 177.213 121.687 178.231 111.944C178.853 107.806 160.573 99.6969 159.473 95.6517C156.252 83.5589 169.28 86.9989 166.417 75.5419C165.251 69.9994 167.913 64.3102 165.999 58.9219C161.841 48.5419 137.916 40.0748 126.022 39.516C109.538 39.4182 69.2057 39.8181 52.1653 39.8723L52.2289 39.8571Z" fill="#3C3636"/>
</g>
<path d="M75.1496 71.8643C71.3696 61.1017 68.1346 51.9181 71.6692 47.1787C74.2454 43.7159 78.8052 44.7678 98.7567 43.9523C120.431 43.0583 123.173 41.4844 132.26 43.5597C138.707 45.0259 149.315 47.4615 152.961 54.9531C154.318 57.7298 154.507 61.6402 154.902 69.4753C161.476 74.9903 161.454 78.525 161.386 80.8967C162.24 81.5994 163.74 83.0072 164.628 85.2222C165.992 88.5806 165.053 91.5442 164.713 92.4937C163.913 92.2558 162.743 91.8331 161.505 91.0767C158.243 89.0787 157.463 86.557 156.668 86.7699C155.761 86.9987 155.261 90.6263 156.753 94.0414C158.573 98.2236 162.193 99.3593 161.625 101.257C161.21 102.629 159.212 102.347 156.873 104.222C153.869 106.628 154.885 108.885 152.961 110.813C148.687 115.095 129.676 110.38 125.05 109.097C123.113 108.567 118.549 107.195 113.059 107.055C111.431 107.016 109.549 107.082 107.483 107.848C104.703 108.884 104.431 110.153 102.731 110.813C98.8397 112.313 95.7346 107.404 89.1109 105.881C81.0473 104.027 77.0088 109.339 73.1649 106.737C69.4818 104.25 69.636 96.9899 72.1974 92.2619C73.8842 89.1441 75.5277 89.1539 76.9154 86.3886C79.2389 81.7797 77.0148 77.1659 75.1496 71.8643Z" fill="#FFFFEE"/>
<path d="M75.1497 71.8643C73.2389 65.3851 65.4891 49.4619 73.913 45.3051C78.1248 43.8886 82.7576 44.3579 87.1579 44.0591L96.0252 43.6933C104.925 43.3418 113.705 42.3517 122.602 41.8256C125.6 41.6887 128.699 41.9433 131.626 42.5489C137.384 43.7469 143.383 45.0729 148.528 48.3871C154.233 51.8837 155.816 57.5523 155.996 63.4118C156.458 68.8171 156.49 74.242 156.57 79.6954L156.062 78.6105C158.011 80.1876 159.472 82.3086 160.122 84.6282C160.984 87.4398 160.477 90.3839 159.375 93.0585L157.854 92.6109C154.429 91.7056 151.705 89.3667 149.727 86.7427C149.952 86.8709 150.081 86.9712 150.607 86.9214C150.989 86.8733 151.226 86.6233 151.273 86.5791C151.164 86.7695 151.104 87.0902 151.06 87.4397C150.671 91.0078 152.383 94.1149 155.189 96.642C155.932 97.4332 156.722 98.1512 156.817 99.4446C156.951 102.687 152.369 102.478 150.782 104.577C149.25 105.933 149.321 109.263 147.232 110.713C139.905 115.933 127.168 110.134 119.3 108.611C114.775 107.835 109.275 106.867 105.448 109.763C102.262 112.971 98.975 111.598 95.7422 109.411C91.7699 106.752 86.8513 105.035 81.9194 106.271C79.4991 106.707 77.0105 108.118 74.4348 107.537C67.4635 104.942 69.9858 92.7823 74.6813 89.0765C80.2278 84.4589 77.1442 77.3099 75.1496 71.8498L75.1497 71.8643ZM75.1497 71.8643C77.2082 77.3237 80.324 84.5015 74.7782 89.1772C70.4196 93.0391 68.7789 101.451 72.5814 105.959C75.1174 108.591 78.7284 106.294 81.7364 105.633C85.0449 104.751 88.7337 104.999 91.8917 106.256C93.4945 106.863 94.9719 107.675 96.3857 108.502C98.3931 109.598 100.422 111.131 102.66 110.115C103.278 109.832 103.783 109.302 104.446 108.742C107.164 106.47 111.085 106.06 114.55 106.296C122.979 106.648 130.81 110.498 139.187 110.473C142.331 110.479 145.577 109.758 146.332 107.465C146.564 106.866 146.747 106.093 147.072 105.246C147.968 102.748 150.674 100.84 153.217 99.9522C153.598 99.7587 153.836 99.7123 153.787 99.5965C153.867 99.5956 153.461 99.033 152.913 98.5159C149.318 95.4017 146.785 90.2825 148.294 85.654C148.787 84.1356 150.726 83.4874 152.002 84.7524C153.879 87.0285 155.737 88.9994 158.843 89.8648L156.843 90.7901C158.283 87.0351 156.909 82.7459 153.481 80.2843C153.384 74.7293 153.542 69.1567 153.158 63.5614C153.048 58.2683 152.016 53.3206 147.08 50.1203C142.592 47.0167 136.846 45.5131 131.198 44.1975C125.613 42.7649 119.732 43.3574 113.8 43.6887C102.003 44.5251 90.1134 44.359 78.3107 44.7736C63.5055 44.9471 73.0528 64.4855 75.1497 71.8643Z" fill="#3C3636"/>
<path d="M63.1879 140.365C64.0812 138.987 65.4209 137.575 65.5213 135.247C65.6356 132.744 64.1898 131.917 64.664 130.166C65.0921 128.575 67.0593 127.607 70.9944 125.728C77.0557 122.835 80.1022 121.374 80.5156 121.253C82.1055 120.769 85.8508 120.391 93.2617 119.649C98.9513 119.074 100.594 118.996 102.834 119.537C106.066 120.314 105.87 121.262 109.25 122.371C114.616 124.126 116.748 122.283 122.03 123.676C126.127 124.762 128.801 126.913 130.058 127.945C135.278 132.247 136.746 137.728 137.382 140.223C139.189 147.372 136.086 148.048 136.814 159.865C137.092 164.487 137.724 166.719 136.11 167.873C134.022 169.381 130.853 167.164 122.541 167.305C118.664 167.365 117.602 167.886 117.205 168.094C114.272 169.671 114.685 172.284 111.459 174.707C109.197 176.406 106.697 176.843 105.9 176.954C102.667 177.414 101.599 176.146 95.5046 174.894C91.1061 173.985 88.8988 173.531 86.7215 174.27C83.4793 175.369 83.6322 177.52 80.391 178.707C76.4349 180.15 72.2815 178.38 71.6079 178.083C66.6687 175.974 64.8597 171.384 63.5116 167.996C62.0153 164.218 61.9254 160.626 61.7458 153.472C61.5681 146.478 61.4953 142.988 63.1879 140.365Z" fill="#FFFFEE"/>
<path d="M63.1879 140.365C64.5857 138.457 65.9481 136.26 65.3937 133.881C65.2047 132.734 64.379 131.711 64.5561 130.487C64.7013 129.264 65.8082 128.407 66.854 127.784C70.5943 125.617 76.4524 123.09 80.3862 121.095C84.713 119.968 91.1232 119.616 95.5993 118.967C98.1809 118.69 100.89 118.382 103.435 119.079C105.947 119.675 107.787 121.472 110.362 121.936C112.827 122.62 115.169 122.316 117.753 122.242C120.465 122.21 123.185 122.833 125.607 123.896C134.267 127.678 139.332 136.403 139.416 144.969C138.671 150.796 137.746 156.305 138.565 162.215C138.867 164.859 139.221 169.131 135.191 169.731C131.97 169.972 130.045 169.035 127.155 168.88C124.232 168.652 121.07 168.427 118.27 169.071C117.936 169.162 117.492 169.444 117.128 169.724C116.417 170.285 115.917 171.193 115.26 172.277C113.322 175.761 109.088 178.022 104.797 178.116C100.677 177.844 97.4478 175.947 93.436 175.369C90.9728 174.86 88.5084 174.249 86.4606 175.145C84.2373 176.044 82.9924 178.749 80.3823 179.318C75.1507 180.849 69.3149 178.473 66.4116 174.449C64.9364 172.474 64.0804 170.23 63.2409 168.029C61.5288 163.54 61.8079 158.766 61.6579 154.128C61.78 149.574 60.748 144.568 63.1399 140.351L63.1879 140.365ZM63.1879 140.365C60.828 144.581 61.9236 149.572 61.8175 154.14C62.0313 158.763 61.9278 163.55 63.7021 167.907C64.5892 170.078 65.556 172.249 67.0456 174.093C69.8004 177.697 75.4091 179.755 79.9705 178.218C82.5304 177.446 83.2821 174.877 85.8228 173.829C87.0923 173.233 88.6218 173.04 89.9793 173.141C93.8929 173.516 97.6841 174.33 101.43 175.406C103.801 176.208 105.827 176.126 108.082 175.227C110.226 174.387 111.838 173.015 112.9 171.068C113.463 170.116 114.055 168.844 115.255 167.812C116.281 166.84 118.077 166.252 119.512 166.133C123.543 165.693 127.503 165.937 131.42 166.604C136.555 167.649 135.614 166.322 135.424 162.441C135.003 157.763 135.008 152.803 135.991 148.166C136.459 145.862 136.659 143.853 136.234 141.676C134.937 133.095 127.846 124.335 117.757 123.958C113.882 124.12 109.618 123.879 106.275 121.78C103.201 119.504 99.5469 119.517 95.7056 119.868L88.07 120.496C85.552 120.758 82.9364 120.861 80.5342 121.471L73.6937 124.591C71.4244 125.65 69.0743 126.623 66.9188 127.87C65.873 128.494 64.7975 129.306 64.636 130.501C64.4424 131.681 65.2684 132.719 65.4416 133.88C65.9963 136.288 64.6018 138.472 63.1881 140.379L63.1879 140.365Z" fill="#3C3636"/>
<path d="M59.88 200.487C63.5283 195.921 69.3466 194.078 72.5579 193.066C79.8706 190.755 86.1298 191.133 90.0901 191.406C129.007 194.092 122.015 197.941 125.291 199.721C128.085 201.23 140.562 207.993 141.466 218.44C141.596 220.009 141.527 222.25 136.834 231.585C128.023 249.084 132.378 248.96 130.776 259.291C130.004 264.26 130.467 268.327 130.929 272.38C131.854 280.529 133.556 281.396 135.971 294.138C138.182 305.806 136.191 302.019 137.737 308.662C138.325 311.186 138.888 312.94 137.805 314.479C135.969 317.09 130.549 317.546 126.654 316.065C123.353 314.809 122.642 312.708 120.205 310.322C115.959 306.154 110.427 305.201 99.3792 303.294C91.465 301.932 85.6259 302 78.6221 302.082C68.9062 302.196 65.6792 303.223 64.2807 303.705C61.1819 304.789 60.14 305.746 56.3378 306.707C52.8697 307.591 47.8743 308.857 45.1701 306.838C42.6589 304.962 43.1391 301 43.4724 298.131C44.5029 289.392 44.6866 280.561 46.3565 271.916C48.8545 259.058 46.8713 261.38 49.2746 248.61C52.9256 229.295 56.2721 230.289 56.8937 217.976C57.3081 209.768 56.0273 205.318 59.88 200.487Z" fill="#FFFFEE"/>
<path d="M59.8801 200.487C62.5685 197.067 66.7557 194.923 71.0153 193.506C77.418 191.147 84.4498 190.73 91.2543 191.349C95.5656 191.618 107.271 192.47 111.727 192.796C118.548 193.443 122.4 196.905 126.263 198.997C134.381 203.393 141.203 208.182 142.018 217.816C141.714 223.187 138.627 228.023 136.433 232.834C132.9 240.41 135.135 245.447 131.68 252.92C128.735 264.981 133.254 277.414 136.423 289.1C137.333 293.235 138.226 297.268 138.596 301.612C138.686 303.851 138.513 305.482 139.097 307.613C139.491 309.921 140.648 312.031 139.53 314.604C136.713 319.292 129.561 319.012 124.973 316.884C122.726 315.82 121.314 313.727 119.858 312.071C115.653 307.205 108.862 306.426 102.385 305.149C91.3496 302.966 80.0025 302.764 68.7973 303.783C64.2222 304.156 60.4726 306.891 56.031 307.758C51.7999 308.884 44.6345 310.146 42.8518 305.076C42.0754 302.816 42.369 300.631 42.6158 298.548C43.7161 290.317 44.0171 281.965 45.516 273.715C47.5583 265.531 47.2689 257.186 48.9598 248.977C49.7575 244.881 50.6669 240.783 51.9123 236.768C53.0776 232.726 54.9795 228.907 55.9051 224.838C56.8148 220.77 56.9093 216.579 56.9246 212.434C56.8765 208.333 56.9679 203.881 59.8641 200.487L59.8801 200.487ZM59.8801 200.487C57.0162 203.91 56.9723 208.332 57.0522 212.432C57.0691 216.592 57.0224 220.782 56.1449 224.879C55.2517 228.991 53.3819 232.824 52.2643 236.851C51.0507 240.851 50.1891 244.948 49.4233 249.044C47.812 257.237 48.3899 265.696 46.5069 273.849C45.2148 282.053 45.1051 290.388 44.1971 298.689C43.9974 300.713 43.8305 302.81 44.5049 304.533C46.2596 308.585 51.887 306.788 55.4832 305.946C59.9072 304.934 63.7671 302.082 68.4371 301.649C79.8462 300.322 91.6865 300.402 102.929 302.583C109.533 303.756 117.669 304.955 122.183 310.299C123.605 311.838 124.582 313.5 126.459 314.409C129.189 315.86 135.015 316.054 136.612 313.417C137.191 312.421 136.447 310.219 136.024 308.159C135.474 306.216 135.54 303.67 135.534 301.75C135.232 297.797 134.386 293.647 133.525 289.628C130.335 277.521 126.722 262.692 129.624 250.631C133.426 242.834 130.898 239.779 134.717 232.069C136.961 227.446 140.002 222.858 140.486 217.834C139.868 208.693 133.658 205.252 125.984 199.712C121.393 197.532 118.409 193.867 111.668 193.19C107.164 192.835 95.5849 191.894 91.2254 191.596C84.4363 190.934 77.4674 191.278 71.0483 193.593C66.7882 194.966 62.6004 197.066 59.8799 200.472L59.8801 200.487Z" fill="#3C3636"/>
</g>
<defs>
<filter id="filter0_d_4_509" x="0.117798" y="0.627319" width="221.606" height="386.374" filterUnits="userSpaceOnUse" color-interpolation-filters="sRGB">
<feFlood flood-opacity="0" result="BackgroundImageFix"/>
<feColorMatrix in="SourceAlpha" type="matrix" values="0 0 0 0 0 0 0 0 0 0 0 0 0 0 0 0 0 0 127 0" result="hardAlpha"/>
<feOffset dy="-5"/>
<feGaussianBlur stdDeviation="16.5"/>
<feComposite in2="hardAlpha" operator="out"/>
<feColorMatrix type="matrix" values="0 0 0 0 0 0 0 0 0 0 0 0 0 0 0 0 0 0 0.45 0"/>
<feBlend mode="normal" in2="BackgroundImageFix" result="effect1_dropShadow_4_509"/>
<feBlend mode="normal" in="SourceGraphic" in2="effect1_dropShadow_4_509" result="shape"/>
</filter>
</defs>
</svg>
