<svg width="1439" height="219" viewBox="0 0 1439 219" fill="none" xmlns="http://www.w3.org/2000/svg">
<path d="M1164.78 140.101C1175.79 144.086 1189.37 142.182 1207.82 139.597C1212.68 138.915 1222.3 137.32 1233.35 140.751C1237.83 142.138 1240.81 143.832 1242.96 144.999C1258.35 153.394 1261.48 152.297 1278.22 160.574C1299.96 171.322 1310.83 176.689 1315.18 184.85C1317.06 188.36 1319.57 194.871 1326.5 197.799C1330.77 199.595 1334.84 199.242 1336.08 199.14C1346.62 198.319 1381.22 199.163 1430.17 200.944C1430.99 199.641 1432.14 197.636 1433.29 195.094C1441.78 176.259 1434.25 161.028 1429.44 138.454C1421.54 101.323 1431.68 94.3725 1419.16 77.5282C1410.36 65.6982 1398.53 59.9067 1393.41 57.4812C1368.93 45.8351 1355.87 55.2467 1324.74 48.1116C1298.82 42.1653 1303.18 34.5562 1275.06 26.8916C1263.35 23.7003 1243.85 23.1004 1204.85 21.9004C1145.56 20.0806 1154.31 24.0333 1141.06 21.1944C1134.91 19.8712 1124.43 17.1887 1113.96 21.512C1113.26 21.7963 1098.58 28.0583 1098.2 37.6848C1097.74 49.6233 1119.83 51.9516 1128.9 72.2084C1132.39 79.9873 1129.48 80.4138 1132.33 92.5169C1133.79 98.7062 1141.56 131.725 1164.78 140.101Z" fill="#ECDDB4"/>
<path d="M1164.78 140.101C1182.19 145.798 1200.55 139.188 1218.25 138.53C1224.26 138.445 1230.32 139.392 1235.89 141.477C1241.45 143.592 1246.3 146.893 1251.75 149.227C1257.09 151.694 1262.77 153.502 1268.23 155.778C1273.71 158.025 1278.98 160.696 1284.25 163.28C1294.57 168.726 1306.21 173.095 1313.78 181.887C1317.11 186.426 1318.52 191.991 1323.39 195.437C1328.04 199.118 1334.38 198.84 1340.15 198.366C1346.18 198.164 1352.19 198.195 1358.18 198.227C1382.21 198.469 1406.2 199.205 1430.21 199.941L1429.2 200.447C1435.63 190.285 1437.18 178.304 1434.76 166.85C1432.52 155.278 1428.77 143.854 1426.77 132.177C1424.54 120.532 1424.5 108.41 1424.44 96.6957C1424.26 79.0381 1407.57 65.4112 1391.17 58.1179C1379.64 52.5118 1366.82 52.2405 1353.97 52.5074C1337.69 52.4656 1320.7 50.2955 1306.28 42.9936C1299.33 39.1507 1293.23 34.4111 1285.66 31.6801C1266.37 23.7522 1244.77 24.6447 1224.03 23.4489C1201.4 22.6821 1178.74 21.465 1156.1 22.5298C1152.88 22.6693 1149.61 23.0563 1146.28 22.6739C1136.82 21.1423 1127.31 17.9544 1117.74 20.6827C1109.46 23.1779 1098.92 29.4207 1098.51 38.0881C1098.55 44.2504 1104.99 47.9395 1109.75 51.4156C1119.89 58.2589 1130.13 67.7901 1130.95 79.9169C1130.99 82.8816 1131.12 85.8161 1131.66 88.7312C1135.52 107.421 1144.03 131.987 1164.74 140.102L1164.78 140.101ZM1164.78 140.101C1144.02 132.074 1135.34 107.438 1131.42 88.763C1130.88 85.8479 1130.73 82.87 1130.67 79.9202C1129.76 67.8961 1119.62 58.5237 1109.48 51.7531C1104.56 48.2206 1097.98 44.4751 1097.89 38.0954C1098.15 29.0663 1109.03 22.5 1117.51 19.857C1123.83 18.0968 1130.63 18.5259 1136.99 19.7885C1140.19 20.4052 1143.31 21.1971 1146.45 21.5381C1149.58 21.8648 1152.8 21.4638 1156.05 21.2949C1178.72 20.0118 1201.47 21.0243 1224.15 21.5724C1237.11 22.0021 1250.09 22.2569 1263.07 23.6164C1276.09 24.9609 1288.95 29.1562 1299.72 35.9775C1309.93 43.2124 1322.18 46.9352 1334.87 48.6178C1347.73 50.6764 1360.6 48.985 1373.64 50.2711C1393.92 52.9114 1413.43 64.6158 1423.27 81.0992C1429.46 91.23 1426.88 103.324 1427.68 114.303C1427.95 120.157 1428.64 125.978 1429.6 131.78C1433.47 155.906 1446.34 178.793 1430.82 201.998C1400.64 200.913 1370.42 199.29 1340.21 199.542C1329.7 200.625 1322.14 198.664 1317.14 189.609C1315.7 187.155 1314.75 184.55 1313.05 182.375C1305.77 173.725 1294.11 169.167 1284 163.719C1278.74 161.077 1273.51 158.42 1268.06 156.158C1262.63 153.867 1256.95 152.03 1251.59 149.535C1246.18 147.185 1241.32 143.856 1235.8 141.74C1224.55 137.163 1212.15 138.907 1200.42 140.701C1188.68 142.089 1176.18 144.081 1164.79 140.116L1164.78 140.101Z" fill="#3C3636"/>
<path d="M96.3392 182.814C99.6604 182.486 107.028 181.647 117.286 181.735C128.868 181.837 137.336 183.079 140.799 183.534C153.575 185.25 166.096 185.109 191.139 184.856C242.83 184.303 296.341 183.788 305.714 162.826C308.903 155.683 306.278 147.922 303.247 142.143C288.777 122.147 274.308 102.166 259.838 82.1699L45.9468 95.3341C5.7983 114.564 -16.8187 140.268 -10.705 156.041C-4.89874 171.019 26.634 176.608 44.9369 179.846C52.2481 181.145 73.9829 184.998 96.3392 182.814Z" fill="#ECDDB4"/>
<path d="M96.3406 182.812C106.319 181.682 116.407 181.379 126.439 181.978C136.471 182.534 146.338 184.501 156.398 184.649C186.494 185.007 216.714 184.637 246.749 182.7C273.209 180.614 319.977 175.188 302.229 142.687C291.229 127.826 269.408 97.7981 258.54 82.8779L259.921 83.4873C212.298 86.6406 147.131 90.4132 99.4876 93.2033L45.9904 96.1902L46.4027 96.0838C31.0733 103.393 16.4407 112.235 4.51741 123.488C-19.3344 146.924 -17.3711 164.197 18.5142 174.01C43.638 180.398 70.0645 185.07 96.3404 182.797L96.3406 182.812ZM96.3406 182.812C70.0495 185.201 43.5914 180.645 18.3861 174.36C6.48152 170.803 -8.5159 165.943 -11.7052 153.974C-14.8702 135.828 8.24594 117.196 23.2116 107.173C30.3176 102.471 37.8601 98.2876 45.6388 94.4792C45.6708 94.3916 99.2118 90.9245 99.3104 90.8653C146.934 87.7992 212.062 83.562 259.723 80.8298L260.632 80.776L261.12 81.439C271.873 96.4041 293.579 126.55 304.233 141.574C322.489 176.308 275.012 181.945 246.861 183.73C226.777 185.018 206.659 184.896 186.561 185.094C176.52 185.149 166.464 185.291 156.401 184.925C146.324 184.734 136.473 182.723 126.441 182.109C116.424 181.452 106.336 181.725 96.357 182.797L96.3406 182.812Z" fill="#3C3636"/>
<path d="M49.4109 161.41C86.7814 153.184 90.6906 148.14 121.483 140.395C162.55 130.049 187.223 123.841 215.709 129.218C223.055 130.603 257.983 137.927 273.852 136.877C273.852 136.877 280.249 137.778 289.552 136.932C296.096 136.335 299.417 135.993 300.685 134.104C303.187 130.355 295.546 123.755 289.039 115.108C284.634 109.256 285.791 109.156 274.223 82.8919C259.916 50.4235 258.658 51.7167 257.487 43.7796C255.36 29.3564 259.384 24.2241 253.754 15.625C247.956 6.78078 237.788 3.20358 230.179 0.52777C201.968 -9.38664 174.068 -0.540717 165.571 2.69441C152.381 7.71199 155.187 9.9332 142.615 14.1008C119.086 21.9092 92.1613 19.7852 83.087 19.0735C71.4792 18.1578 64.4292 16.5803 55.6218 20.1387C50.3043 22.277 48.6775 24.5481 38.9169 29.9922C30.5038 34.6943 26.433 35.961 21.4997 38.4002C-3.52875 50.7893 -13.0662 74.6313 -14.6532 78.8205C-17.6983 86.9068 -17.6336 92.2402 -16.8236 96.2862C-15.5917 102.377 -13.1526 102.974 -11.6714 107.797C-7.74426 120.602 -21.5896 127.531 -21.0737 142.786C-21.0194 144.529 -20.5 154.625 -13.3236 161.172C-4.79218 168.953 11.133 169.835 49.4109 161.41Z" fill="#FFFFEE"/>
<path d="M49.4069 161.407C68.2361 157.56 86.1089 151.239 104.1 145.164C113.147 142.256 122.45 140 131.703 137.657C150.242 133.101 168.86 128.225 188.169 127.062C207.589 125.549 226.303 131.34 245.275 133.886C254.704 135.175 264.333 136.578 273.856 136.092C280.432 136.817 287.21 136.406 293.867 135.604C299.881 135.013 301.913 133.376 298.211 128.2C295.535 124.466 292.302 121.087 289.412 117.428C283.236 110.187 281.025 101.07 277.121 92.9026C272.273 81.8677 267.391 70.8333 262.131 59.963C260.228 55.7986 257.83 51.7416 256.635 47.3076C255.604 42.8281 255.269 38.3117 255.247 33.7627C255.243 30.7542 255.472 27.7866 255.289 24.9545C255.055 19.2887 251.618 14.1824 246.974 10.4124C242.262 6.54149 236.211 4.13911 229.981 1.98584C208.366 -5.60361 183.331 -3.35821 162.542 5.36505C159.547 6.63437 156.952 8.18983 154.278 10.0369C148.765 13.8346 142.023 15.7858 135.392 17.4451C115.615 22.2326 94.663 21.5249 74.603 19.3537C71.274 19.0426 67.9623 18.7894 64.7226 19.015C54.3715 19.4228 47.2313 26.7853 38.6809 31.0824C33.0294 34.3294 26.6553 36.6543 20.8676 39.5831C3.47306 48.515 -8.72922 64.0886 -14.8635 80.7562C-16.8139 86.3595 -17.7171 92.3724 -16.0268 98.0798C-15.2966 101.007 -13.1672 103.352 -11.9754 106.144C-10.8658 108.98 -10.4149 112.056 -11.0076 115.028C-12.1759 121.015 -16.2513 126.003 -18.5666 131.523C-21.0807 137.031 -21.553 143.112 -20.077 148.88C-16.8653 162.738 -5.85156 167.875 9.52618 167.265C23.0212 166.923 36.2717 164.143 49.3739 161.407L49.4069 161.407ZM49.4069 161.407C32.9028 164.631 4.98323 171.895 -9.98747 163.765C-18.5855 158.659 -21.6333 148.781 -21.2095 140.055C-20.7859 134.048 -17.7092 128.563 -14.7626 123.254C-11.7157 118.03 -10.0357 111.95 -12.5687 106.325C-13.7764 103.592 -16.0061 101.161 -16.7529 98.2333C-18.5606 92.3964 -17.7094 86.1807 -15.8096 80.4908C-9.79522 63.4902 2.41903 47.5386 20.0412 38.2844C25.8937 35.2386 32.0533 32.9597 37.6872 29.6257C46.3832 25.0507 53.7363 17.5114 64.5495 17.0112C74.784 16.5466 84.7842 18.5845 94.9583 18.5857C113.177 18.9464 137.328 17.4377 152.482 7.93518C163.277 0.415069 177.231 -2.98397 190.659 -4.77828C210.796 -7.12814 233.241 -3.35608 249.149 8.3385C262.431 19.1471 256.941 28.9182 258.809 42.4576C259.245 48.4117 262.301 53.5078 264.815 58.9297C270.027 69.8733 274.941 80.9219 279.625 92.0458C283.43 100.229 285.373 109.015 291.333 116.229C295.743 122.473 311.523 136 294.136 137.301C287.395 138.032 280.551 138.414 273.692 137.591C264.979 138.024 254.29 136.488 245.025 135.096C235.528 133.604 226.126 131.778 216.756 129.878C188.278 123.79 159.285 131.197 131.805 137.932C122.536 140.246 113.249 142.458 104.185 145.337C86.1928 151.34 68.2366 157.604 49.4066 161.378L49.4069 161.407Z" fill="#3C3636"/>
<path d="M309.786 84.7998C300.735 109.746 303.036 129.239 305.213 139.475C307.507 150.233 311.084 167.022 323.736 171.729C332.224 174.885 335.777 169.262 350.967 170.087C365.645 170.889 365.725 176.324 386.938 180.93C393.348 182.323 405.783 184.924 421.49 183.65C432.53 182.765 431.887 181.028 441.225 180.526C455.774 179.731 458.485 183.87 478.763 186.264C494.331 188.102 502.617 189.08 512.254 185.493C520.541 182.402 522.332 178.733 529.058 178.509C538.079 178.214 540.658 184.623 551.143 189.572C573.366 200.068 602.208 190.311 605.431 189.169C614.943 185.831 616.838 182.945 624.743 182.576C635.372 182.074 638.762 186.976 652.065 190.149C665.353 193.321 676.29 191.856 686.112 190.549C694.279 189.465 715.93 186.566 717.041 179.3C717.767 174.611 709.157 173.23 701.493 164.206C690.693 151.499 695.855 140.232 689.908 123.979C686.746 115.353 679.98 104.008 663.934 92.6558C545.879 90.042 427.825 87.4138 309.77 84.8L309.786 84.7998Z" fill="#ECDDB4"/>
<path d="M309.786 84.7998C303.751 101.774 301.716 120.039 305.223 137.629C308.032 150.052 311.8 170.953 329.018 172.059C332.126 171.994 335.223 170.896 338.468 170.277C348.171 168.245 358.801 169.21 367.511 173.657C384.886 181.375 404.948 184.41 424.154 182.412C427.435 182.083 430.392 181.322 433.588 180.514C443.415 178.219 453.637 179.698 463.123 182.363C469.407 183.888 475.748 184.802 482.23 185.496C488.616 186.192 495.099 186.988 501.488 186.579C507.861 186.155 513.783 183.993 519.07 180.719C524.604 176.686 533.014 175.904 538.786 179.993C541.597 181.792 543.949 183.799 546.551 185.484C556.965 192.397 570.392 193.954 582.99 192.658C592.529 191.66 602.055 189.499 610.667 185.59C620.251 180.231 629.779 179.683 639.865 184.492C645.715 187.069 651.716 188.946 658.041 189.875C667.546 191.391 677.293 190.376 686.812 189.015C693.799 187.901 714.308 185.567 715.505 178.809C715.606 177.951 714.783 177.059 713.688 176.142C711.386 174.352 708.512 172.656 706.017 170.607C687.045 155.829 695.647 138.839 686.967 120.656C682.042 109.885 673.215 100.904 663.085 93.7121L663.934 93.9929C565.096 91.6918 409.745 87.5965 309.818 84.8285L309.786 84.7998ZM309.786 84.7998C410.58 86.671 564.843 89.0785 664.461 91.3705C675.072 98.8187 684.43 108.2 689.682 119.592C692.299 125.201 693.773 131.259 694.496 137.239C695.268 143.218 695.481 149.146 697.49 154.558C699.498 159.942 703.317 164.694 708.049 168.461C711.208 171.331 716.427 173.174 718.388 177.249C720.953 187.946 695.185 190.573 687.26 191.844C677.454 193.238 667.42 194.227 657.516 192.628C650.951 191.659 644.501 189.598 638.571 186.978C629.27 182.494 620.905 183.028 611.986 187.987C603.025 192.031 593.181 194.254 583.275 195.257C570.089 196.618 555.829 194.852 544.885 187.538C542.154 185.768 539.722 183.689 537.184 182.076C526.887 175.569 520.881 184.186 511.587 187.042C508.427 188.154 505.038 188.775 501.676 189.018C495 189.445 488.436 188.563 481.874 187.811C475.376 187.074 468.795 186.075 462.478 184.492C453.295 181.853 443.583 180.339 434.121 182.47C431.021 183.247 427.65 184.057 424.416 184.357C404.811 186.273 384.38 183.082 366.731 175.076C358.244 170.685 348.236 169.77 338.771 171.596C335.62 172.156 332.492 173.254 329.032 173.294C310.872 171.995 307.244 150.846 304.491 137.739C301.222 120.06 303.511 101.719 309.786 84.7852L309.786 84.7998Z" fill="#3C3636"/>
<path d="M260.575 10.6237C265.652 7.52734 270.721 13.2391 285.861 11.233C297.317 9.70548 299.197 5.80301 312.24 2.99262C321.231 1.05748 327.918 1.28554 338.506 1.64299C346.261 1.90232 360.655 2.47747 378.191 7.24598C393.274 11.3597 420.194 18.6943 436.431 39.4514C441.393 45.7894 438.384 44.4579 448.762 61.213C461.996 82.5717 466.134 83.5268 470.071 94.833C475.701 110.974 468.42 112.454 474.887 125.504C480.79 137.412 489.53 141.599 490.079 153.715C490.234 157.26 490.472 162.242 486.929 165.088C481.799 169.217 473.127 165.335 455.682 162.673C453.914 162.403 442.339 160.676 430.814 160.562C404.254 160.301 395.729 168.859 380.715 163.756C372.883 161.099 373.496 158.2 364.021 152.176C341.468 137.814 325.286 146.126 307.159 137.803C294.059 131.791 286.532 112.562 271.997 74.343C250.697 18.3248 258.357 11.9719 260.558 10.6239L260.575 10.6237Z" fill="#FFFFEE"/>
<path d="M260.575 10.6243C263.756 8.71257 267.594 10.2526 270.983 10.8094C277.975 12.1676 285.366 11.7771 292.189 9.86692C295.608 8.89723 298.745 7.32034 302.031 6.00335C308.587 3.36957 315.69 1.86318 322.854 1.41711C344.353 0.631169 366.066 2.86598 386.404 9.2736C399.997 13.2446 413.348 18.6718 424.34 27.0913C429.828 31.2722 434.644 36.1438 438.56 41.5928C440.422 44.391 441.43 47.5044 443.051 50.3926C449.257 61.9778 456.88 72.8636 464.856 83.5127C469.759 90.302 472.687 98.364 473.059 106.485C473.129 109.696 472.553 112.915 472.768 116.095C473.132 120.844 475.337 125.266 477.911 129.394C481.393 135.022 486.531 139.774 489.161 145.891C490.492 148.986 490.937 152.353 490.975 155.58C491.047 158.893 490.719 162.588 488.014 165.163C482.392 170.068 473.268 166.278 466.67 165.337C459.71 163.891 452.689 162.751 445.592 162.063C434.962 160.95 424.214 160.74 413.648 162.286C401.467 164.084 388.206 169.019 376.671 162.539C375.091 161.67 373.702 160.552 372.458 159.39C368.807 155.842 364.645 152.895 360.1 150.375C355.539 147.928 350.644 145.921 345.468 144.803C331.82 141.588 315.941 144.126 303.904 136.3C298.096 132.356 294.434 126.511 291.242 120.778C285.035 109.164 280.504 96.9196 275.811 84.7646C271.243 72.143 249.379 19.0819 260.607 10.6239L260.575 10.6243ZM260.575 10.6243C249.379 19.0529 271.6 72.2261 276.166 84.6442C280.922 96.7403 285.502 108.984 291.757 120.525C295.311 126.821 299.517 133.458 306.519 137.069C318.471 143.196 332.703 140.997 345.669 144.001C352.711 145.504 359.237 148.539 365.107 152.294C371.234 155.814 374.902 162.123 382.024 163.596C392.421 166.906 403.05 162.51 413.441 161.169C424.119 159.549 435.045 159.728 445.755 160.796C452.9 161.47 460.018 162.594 467.01 164.01C470.514 164.697 474.003 165.456 477.472 165.924C480.746 166.352 484.437 166.469 486.837 164.174C490.899 160.072 489.565 151.265 487.726 146.373C483.707 137.699 475.012 130.561 472.374 121.042C470.683 116.308 471.741 111.325 471.764 106.5C471.659 101.733 470.373 97.0535 468.605 92.5682C466.316 86.5336 461.821 81.4402 458.001 76.0047C454.102 70.5991 450.507 65.0157 447.09 59.3575C443.463 53.818 440.964 47.7278 437.804 42.0085C433.986 36.6456 429.251 31.7875 423.845 27.6349C413.015 19.257 399.777 13.7994 386.248 9.78411C365.99 3.28837 344.357 0.994487 322.905 1.67814C315.773 2.08023 308.702 3.55719 302.146 6.16191C298.877 7.46417 295.707 9.02691 292.271 9.99679C285.416 11.8928 278.008 12.2544 271.016 10.8526C267.627 10.2813 263.805 8.72654 260.607 10.6239L260.575 10.6243Z" fill="#3C3636"/>
<path d="M458.002 51.451C462.645 46.2804 472.595 50.437 493.927 51.5678C515.482 52.7106 515.901 49.0139 535.531 50.5571C560.077 52.4933 557.225 58.108 571.433 56.8514C584.207 55.7279 610.327 49.0992 620.672 46.1292C622.119 45.7198 625.742 44.66 628.773 46.2087C632.158 47.9423 632.217 51.648 633.818 54.8995C637.461 62.3277 646.697 62.641 654.529 67.0404C661.238 70.799 664.918 78.6192 672.003 94.1029C682.624 117.336 687.942 128.945 682.341 136.787C676.772 144.599 663.399 144.944 657.167 145.177C630.853 146.154 593.253 150.069 535.439 159.7C513.623 160.769 500.825 155.89 493.294 148.638C487.051 139.059 484.533 136.071 473.354 112.787C466.522 98.5649 464.56 87.275 458.525 67.5058C455.705 58.2511 455.546 54.1542 458.001 51.4219L458.002 51.451Z" fill="#FFFFEE"/>
<path d="M458.002 51.451C461.246 48.0119 466.741 48.8922 471.146 49.2621C475.76 49.7604 480.344 50.3898 484.973 50.8152C494.199 51.6519 503.532 52.1094 512.752 51.0566C526.522 49.2237 540.879 49.7241 554.237 53.4774C558.59 54.8654 562.774 56.764 567.476 56.5926C576.673 56.325 585.766 53.9946 594.704 52.0585C603.704 49.9472 612.59 47.6338 621.489 45.0586C626.956 43.483 631.938 45.5031 633.373 50.8786C634.455 54.8339 636.713 58.3394 640.864 60.1803C644.761 62.1114 649.334 63.206 653.6 65.2636C662.369 69.3178 666.001 78.5484 669.837 86.1778C672.995 93.0302 677.638 102.801 680.541 109.671C683.616 117.673 688.281 126.63 684.97 135.215C678.175 148.609 659.201 145.924 645.933 147.126C627.45 148.229 609.025 150.262 590.636 152.585C572.247 154.879 553.91 157.594 535.607 160.497C528.882 160.765 522.071 160.597 515.409 159.411C502.485 157.353 493.645 150.619 485.53 137.482C479.443 128.549 476.511 116.756 470.31 105.956C464.141 95.2292 462.396 80.8469 458.957 69.0559C458.03 66.1453 457.183 63.2047 456.621 60.2026C456.109 57.2871 455.814 53.8894 458.002 51.451ZM458.002 51.451C455.83 53.9038 456.156 57.272 456.685 60.1873C457.262 63.1747 458.126 66.1151 459.068 69.011C464.108 86.8152 471.83 105.432 479.441 122.771C481.613 128.515 484.514 133.862 487.05 137.483C489.079 141.219 490.291 142.361 492.122 144.84C497.727 152.347 506.048 156.643 515.681 158.129C521.976 159.218 529.31 159.219 535.302 158.931C576.357 151.88 617.801 145.348 659.669 143.68C686.456 142.276 686.475 130.343 677.793 110.619C675.114 103.805 670.28 94.0068 667.298 87.1668C663.625 79.9134 660.493 71.1857 652.427 67.2395C648.513 65.2505 644.003 64.1115 639.769 61.9518C635.312 59.9401 632.489 55.7436 631.433 51.4101C630.297 46.9322 626.659 45.405 621.97 46.6373C613.117 49.0666 604.071 51.2801 595.037 53.261C585.938 55.1117 576.859 57.2966 567.469 57.4357C562.703 57.5497 558.327 55.5516 553.989 54.0908C540.804 50.1465 526.495 49.5874 512.787 51.3469C503.535 52.3419 494.185 51.841 484.958 50.9462C480.345 50.4916 475.745 49.8478 471.147 49.3203C466.758 48.9211 461.278 48.026 458.017 51.4363L458.002 51.451Z" fill="#3C3636"/>
<path d="M750.057 178.798C766.289 178.797 774.855 181.807 793.093 185.692C826.661 192.827 871.722 202.43 879.742 190.185C881.513 187.49 881.14 184.253 874.656 169.794C862.311 142.25 856.155 128.485 848.363 120.815C822.279 95.1035 780 101.137 715.913 110.289C709.658 111.176 696.831 113.303 693.556 120.899C692.547 123.251 692.778 125.342 695.331 137.724C697.562 148.512 698.678 153.906 698.99 154.673C703.369 165.086 713.503 173.994 724.899 177.712C733.446 180.504 737.907 178.809 750.089 178.812L750.057 178.798Z" fill="#ECDDB4"/>
<path d="M750.057 178.798C760.132 178.651 770.086 180.322 779.807 182.606C799.295 186.942 818.877 191.175 838.727 193.849C848.482 194.897 875.922 198.907 879.576 188.196C879.957 184.005 877.512 179.485 875.951 175.506C872.201 167.062 868.227 158.62 864.302 150.236C858.75 139.065 853.967 126.84 843.649 118.559C823.812 102.106 794.896 102.765 769.663 104.761C752.666 106.152 734.358 108.648 717.419 110.882C709.301 112.067 699.334 113.274 694.646 120.087C692.688 123.075 693.813 126.521 694.25 129.816C695.036 134.327 695.95 138.822 696.832 143.332L698.171 150.089C700.057 161.404 709.765 170.709 720.589 175.931C725.062 177.972 729.957 179.339 735.011 179.279C740.033 179.221 745.05 178.755 750.073 178.827L750.057 178.798ZM750.057 178.798C745.034 178.77 740.033 179.279 734.996 179.352C729.942 179.455 724.984 178.118 720.479 176.092C709.497 170.93 699.724 161.568 697.614 150.169L696.132 143.442C694.856 136.625 692.658 129.994 692.432 123.02C693.38 115.466 702.734 112.202 709.715 110.608C718.05 108.927 730.962 107.307 739.493 105.957C783.193 100.096 839.769 90.8725 860.73 136.629C867.096 149.142 872.507 161.927 877.999 174.77C879.598 179.199 882.058 183.676 881.445 188.494C877.411 200.808 849.181 196.023 838.594 194.723C818.77 191.626 799.25 187.233 779.761 182.796C770.055 180.453 760.133 178.709 750.057 178.783L750.057 178.798Z" fill="#3C3636"/>
<path d="M653.884 37.8333C656.991 33.5382 663.492 33.1132 688.366 33.1415C721.771 33.1716 721.955 33.9689 730.075 32.9435C750.486 30.3642 749.073 25.3808 767.398 24.3958C781.468 23.635 784.499 26.4628 802.1 24.8903C813.536 23.8697 815.846 22.3601 819.839 24.3045C826.879 27.7249 825.532 35.2552 832.727 55.9555C836.687 67.3625 837.553 66.3931 841.469 78.1058C846.872 94.2632 844.576 94.2029 848.76 105.651C854.163 120.457 859.605 124.957 862.46 139.938C863.309 144.404 863.846 149.369 861.064 154.169C857.953 159.525 852.243 162.063 849.909 162.875C836.156 167.644 824.131 152.451 800.906 143.479C784.729 137.229 769.565 137.262 739.534 136.654C715.308 136.168 704.97 138.426 695.907 131.075C688.937 125.416 691.792 121.444 684.441 105.047C675.223 84.516 666.479 81.2754 656.958 57.9279C651.097 43.5781 652.425 39.8853 653.9 37.8477L653.884 37.8333Z" fill="#FFFFEE"/>
<path d="M653.884 37.8333C657.797 32.9619 665.716 33.7703 671.593 33.2508C677.953 33.0455 684.299 33.0584 690.661 33.0274C697.007 33.0257 703.369 33.0529 709.716 33.1239C715.408 33.1153 723.179 33.5766 728.719 32.8722C735.009 32.1444 741.228 30.8651 747.07 28.6165C752.861 26.2085 759.091 24.4059 765.496 24.0547C771.835 23.4426 778.298 23.8611 784.603 24.4413C790.891 24.9635 797.202 24.7006 803.476 24.0166C808.336 23.7416 812.989 22.0883 817.955 22.7423C826.862 24.9054 827.217 34.7558 829.432 41.4449C830.964 47.0373 832.735 52.5688 834.76 58.0247C839.288 68.9018 844.309 79.5987 846.533 91.1713C847.51 96.9592 848.848 102.321 851.128 107.76C854.253 115.877 859.365 123.506 862.031 131.905C866.197 144.56 866.965 157.05 851.798 163.58C842.011 167.895 832.053 161.776 824.121 157C818.806 153.821 813.57 150.612 808.038 147.945C796.986 142.318 784.771 139.482 772.181 138.67C759.574 137.771 746.816 137.586 734.168 137.284C727.821 137.184 721.476 137.316 715.096 137.13C708.748 136.928 701.882 136.151 696.815 132.3C691.161 128.82 689.971 122.482 688.502 116.889C686.906 111.312 684.721 105.858 682.077 100.613C676.977 89.975 668.661 80.9882 662.959 70.6482C660.06 65.4932 657.685 60.0996 655.628 54.6296C654.607 51.8945 653.697 49.0999 653.106 46.258C652.579 43.4736 652.079 40.2963 653.9 37.8186L653.884 37.8333ZM653.884 37.8333C652.08 40.3254 652.611 43.5022 653.154 46.272C653.761 49.1137 654.703 51.8788 655.723 54.6139C657.812 60.0691 660.235 65.4331 663.149 70.5733C668.93 80.8833 677.311 89.8258 682.49 100.463C685.15 105.722 687.478 111.145 689.17 116.75C690.749 122.241 691.84 128.274 697.412 131.596C702.398 135.229 708.926 135.836 715.13 135.952C721.445 136.052 727.805 135.832 734.167 135.845C746.924 135.972 759.6 135.954 772.333 136.691C785.128 137.341 798.028 140.082 809.304 145.764C817.833 149.748 825.39 155.11 833.698 159.286C842.3 163.982 850.838 163.271 857.58 156.274C861.661 152.055 862.121 146.424 861.021 141.016C859.45 129.392 852.654 119.588 848.333 108.679C846.101 103.255 844.628 97.3128 843.732 91.6402C841.638 80.2695 836.633 69.5579 832.409 58.7354C830.462 53.1914 828.754 47.5719 827.317 41.9202C825.283 35.7813 825.398 26.5213 817.544 24.346C813.056 23.759 808.258 25.2542 803.653 25.4535C797.314 26.051 790.842 26.2286 784.489 25.6054C778.167 24.9527 771.91 24.4301 765.571 24.955C759.196 25.2331 753.172 26.8735 747.332 29.2093C741.394 31.401 735.094 32.5794 728.772 33.293C723.198 33.8671 715.349 33.5375 709.704 33.4438C703.356 33.3292 696.994 33.273 690.647 33.2456C684.301 33.2328 677.938 33.1765 671.594 33.3526C665.668 33.829 657.846 33.005 653.868 37.8335L653.884 37.8333Z" fill="#3C3636"/>
<path d="M1099.65 159.14C1091.8 162.789 1092.35 164.774 1081.3 170.568C1079.15 171.696 1070.93 175.917 1060.37 179.117C1047.39 183.043 1043.84 181.499 1029.03 184.108C1009.12 187.617 1008.82 191.603 984.564 196.673C971.194 199.469 961.085 200.383 958.446 200.602C942.895 201.925 931.825 201.106 916.689 199.896C894.762 198.138 890.906 195.957 888.406 193.98C881.188 188.218 879.862 179.571 879.621 174.676C876.479 168.81 872.756 159.841 872.008 148.571C870.519 126.408 881.511 109.904 886.125 103.762C943.14 84.3399 1000.17 64.9177 1057.19 45.4957C1110.97 87.8666 1149.92 118.603 1155.52 122.871C1156.2 123.387 1158.1 124.819 1158.87 127.194C1160.31 131.61 1156.79 136.141 1155.24 138.063C1152.43 141.568 1146.31 147.306 1129.69 152.333C1116.78 156.243 1111.47 153.629 1099.63 159.126L1099.65 159.14Z" fill="#ECDDB4"/>
<path d="M1099.65 159.137C1094.99 161.137 1091.43 164.52 1087.28 167.183C1074.65 174.782 1060.15 180.818 1044.81 182.314C1034.6 183.171 1024.4 184.667 1014.78 187.799C995.989 195.206 975.872 199.866 955.306 201.421C939.869 202.657 924.435 201.378 909.067 200.054C902.702 199.283 895.929 198.866 890.02 196.214C886.497 194.336 883.969 191.399 882.098 188.252C879.687 184.035 878.64 179.367 878.385 174.748L878.506 175.168C865.618 152.349 868.808 124.073 884.829 103.021L885.106 102.654L885.582 102.489C899.836 97.6188 914.039 92.6619 928.326 87.8785C966.468 74.9915 1018.6 57.3389 1056.83 44.6543L1057.44 44.4585L1057.9 44.8311C1072.44 56.396 1143.62 113.249 1156.62 123.509C1160.05 126.377 1160.06 131.071 1157.89 134.57C1153.9 141.766 1146.03 146.404 1137.95 149.591C1133.87 151.163 1129.7 152.562 1125.4 153.57C1116.79 155.411 1107.53 155.08 1099.67 159.151L1099.65 159.137ZM1099.65 159.137C1107.49 155.022 1116.77 155.295 1125.35 153.425C1129.63 152.403 1133.81 150.989 1137.85 149.403C1145.85 146.202 1153.65 141.565 1157.56 134.413C1159.6 130.989 1159.67 126.526 1156.31 123.745C1143.72 113.887 1070.81 57.2428 1056.5 46.1696L1057.58 46.3464C1019.6 59.624 967.555 77.45 929.497 90.5105C915.277 95.4385 900.973 100.179 886.719 105.034L887.456 104.503C871.804 124.781 868.733 151.995 880.789 174.198C881.293 181.721 883.574 190.154 891.122 194.545C896.666 197.07 903.127 197.549 909.327 198.38C924.533 199.879 939.936 201.348 955.242 200.288C975.696 198.952 995.833 194.641 1014.65 187.379C1024.35 184.275 1034.6 182.822 1044.81 182.009C1060.11 180.586 1074.61 174.623 1087.27 167.111C1091.43 164.477 1095 161.108 1099.68 159.122L1099.65 159.137Z" fill="#3C3636"/>
<path d="M1084.98 142.082C1077.25 141.995 1063.48 141.075 1060.45 140.79C1036.72 138.543 1027.97 137.174 1016.53 136.17C984.921 133.416 957.789 139.478 946.973 141.911C936.486 144.254 918.501 149.035 895.357 149.049C889.612 149.056 883.385 148.763 877.599 145.34C869.186 140.363 868.5 132.784 863.544 120.238C856.834 103.251 854.073 106.988 843.044 83.6396C835.708 68.0834 832.826 57.753 831.399 51.7664C828.512 39.6482 827.085 33.589 828.582 30.36C820.137 25.5137 818.747 22.4917 819.202 20.5825C822.624 5.95136 942.987 21.263 946.725 21.8748C950.91 22.5543 954.754 23.7463 954.754 23.7463C957.539 24.6741 959.2 25.5855 961.802 26.3991C964.006 27.0864 965.794 27.5023 969.579 27.9391C979.333 29.079 1009.93 26.0445 1018.99 25.5934C1030.56 25.0267 1039.39 27.456 1057.04 32.4308C1085.15 40.3398 1122.65 50.8898 1131.85 75.1892C1136.81 88.3158 1131.4 99.83 1143.17 113.156C1147.5 118.049 1152.33 121.134 1155.53 122.885C1122.69 139.971 1098.52 142.249 1084.98 142.097L1084.98 142.082Z" fill="#FFFFEE"/>
<path d="M1084.96 142.044C1070.3 141.804 1055.71 140.474 1041.16 138.882C1026.63 137.319 1012.1 135.305 997.429 135.647C982.789 135.858 968.201 137.668 953.958 140.694C936.228 144.763 918.369 149.168 899.918 149.553C865.277 151.636 869.942 133.226 858.696 112.163C857.159 109.288 855.229 106.622 853.265 103.882C845.44 92.8532 839.962 80.707 835.111 68.4664C831.55 59.2196 829.273 49.6966 827.277 40.1122C826.74 36.6591 825.81 33.3995 827.186 29.8228L827.75 31.4152C823.559 28.7888 815.701 24.6347 818.096 19.2295C826.208 6.01212 912.491 16.7394 930.588 18.4945C936.97 19.308 943.563 19.843 949.851 21.0792C953.986 21.8022 958.268 23.6572 962.048 25.0528C967.981 27.0052 974.238 26.9918 980.591 26.7882C989.122 26.5307 997.683 25.9241 1006.24 25.3174C1014.84 24.7249 1023.66 23.7228 1032.23 25.2526C1040.81 26.6659 1048.95 29.189 1057.13 31.4936C1080.17 38.3662 1105.44 44.8356 1122.65 60.9171C1129.3 67.1636 1133.46 75.4878 1134.3 84.0098C1135.19 91.4849 1134.93 99.2492 1138.66 106.169C1142.25 113.002 1148.39 118.688 1155.62 122.675L1155.87 122.802L1155.62 122.922C1134.21 133.908 1110.06 142.294 1084.98 142.014L1084.96 142.044ZM1084.96 142.044C1110.04 142.222 1134.09 133.764 1155.44 122.691L1155.44 122.953C1144.39 117.047 1136.06 106.91 1134.89 95.3981C1134.31 91.6403 1134.15 87.8486 1133.63 84.1048C1132.8 76.6 1129.38 69.4591 1124.02 63.6485C1106.98 46.315 1080.52 40.0482 1056.57 33.1133C1048.37 30.8961 1040.2 28.4751 1031.87 27.1898C1023.43 25.7893 1014.96 26.8745 1006.48 27.5384C997.925 28.2323 989.349 28.9408 980.72 29.2722C974.268 29.5204 967.318 29.5127 961.087 27.462C956.095 25.557 951.517 23.7635 946.127 23.0549C932.355 21.2794 918.504 19.8537 904.656 18.6023C887.602 17.1115 870.485 15.9121 853.397 15.6716C844.977 15.6371 836.311 15.6636 828.108 17.1964C814.899 19.6731 822.125 24.8664 829.424 29.2304L830.439 29.8292C829.583 31.4233 829.355 33.0392 829.543 35.0282C833.063 58.7081 841.631 82.1704 855.233 102.843C859.26 108.232 862.452 114.3 864.705 120.452C867.137 126.456 868.536 132.951 871.839 138.582C879.3 150.938 897.463 148.535 910.841 147.757C925.471 146.645 939.591 143.053 953.835 140.07C968.146 137.203 982.784 135.466 997.458 135.298C1012.16 135.014 1026.7 137.086 1041.23 138.707C1055.76 140.357 1070.33 141.746 1085 142.043L1084.96 142.044Z" fill="#3C3636"/>
<path d="M1115.88 49.1049C1112.53 41.5424 1110.86 37.7684 1112.52 34.6095C1117.02 25.9812 1135.84 33.0571 1173.01 26.6332C1183.2 24.8715 1188.57 23.1807 1196.91 24.8998C1208.98 27.3746 1212.55 33.9461 1222.59 39.1336C1234.68 45.3726 1241.74 42.1504 1267.28 42.9704C1297.95 43.9627 1295.83 48.8567 1331.15 50.9428C1359.63 52.6294 1363.31 49.563 1377.42 53.3076C1386.36 55.6737 1410.62 62.0608 1420.79 80.4154C1423.79 85.8308 1422.31 86.415 1427.59 116.673C1430.51 133.382 1430.91 132.913 1432.7 144.229C1436.52 168.384 1439.66 188.246 1433.24 190.734C1429.13 192.322 1426.24 184.784 1413.99 180.785C1403.17 177.249 1397.92 180.668 1377.32 181.214C1359.95 181.665 1351.26 181.898 1345.41 178.682C1332.95 171.822 1337.16 160.668 1321.1 145.536C1318.41 142.995 1311.93 136.996 1301.81 132.681C1286.72 126.245 1280.67 130.894 1255.51 127.41C1234.72 124.528 1234.75 120.778 1218.76 120.573C1208.19 120.435 1206.53 122.054 1188.49 122.381C1168.53 122.746 1162.72 120.924 1159.75 119.811C1156.28 118.514 1146 114.652 1140.45 105.502C1134.49 95.6596 1141.26 91.6703 1136.96 79.3808C1132.47 66.5556 1123.43 66.2255 1115.88 49.1049Z" fill="#FFFFEE"/>
<path d="M1115.88 49.1049C1114.3 45.2862 1112.12 41.5182 1111.85 37.379C1112.18 27.8839 1127.64 30.2027 1134.75 29.6688C1148.29 29.5974 1161.84 28.581 1175.11 26.1C1179.54 25.3069 1183.94 24.296 1188.48 24.0393C1197.71 23.4806 1206.5 27.2002 1213.25 32.6879C1216.72 35.2925 1220.31 37.7941 1224.33 39.6074C1232.43 43.5968 1241.81 42.6293 1250.69 42.4526C1259.73 42.2159 1268.79 42.3132 1277.82 42.9487C1286.85 43.5114 1295.74 45.5293 1304.54 47.1994C1322.21 50.2481 1340.34 50.8352 1358.3 50.3631C1367.41 49.7767 1376.63 51.5291 1385.23 54.3353C1399.17 58.6196 1413.25 65.8528 1420.81 77.8717C1422.7 80.5965 1424 83.7354 1424.41 86.9428C1425.62 95.1698 1426.75 103.252 1428.17 111.39C1429.54 119.528 1431.07 127.577 1432.76 135.682C1434.3 143.847 1435.5 151.972 1436.73 160.17C1437.28 166.573 1442.86 193.833 1431.01 192.17L1430.42 192.017L1429.92 191.804C1425.06 188.984 1421.41 184.928 1416.12 183.027C1407.91 179.155 1399.13 180.799 1390.29 181.688C1381.23 182.535 1372.19 182.626 1363.09 182.689C1344.34 183.011 1338.32 178.038 1332.04 162.487C1326.92 151.253 1317.42 141.917 1306.04 135.669C1302.22 133.607 1298.14 131.939 1293.9 130.855C1285.22 128.864 1275.98 130.019 1267.09 129.222C1258.05 128.557 1249.04 127.282 1240.34 124.928C1233.86 123.012 1227.54 121.081 1220.69 121.016C1213.91 120.601 1207.26 121.638 1200.49 122.139C1191.46 122.724 1182.42 122.801 1173.37 122.34C1168.87 122.015 1164.3 121.618 1160.05 120.098C1149.78 116.469 1139.36 109.12 1137.81 98.5859C1137.49 92.4413 1139.48 86.2117 1137.11 80.2221C1135.01 71.9329 1127.43 66.542 1122.22 59.9316C1119.58 56.5905 1117.53 52.8937 1115.84 49.0762L1115.88 49.1049ZM1115.88 49.1049C1117.58 52.9076 1119.65 56.5897 1122.3 59.9307C1127.56 66.5115 1135.15 71.9021 1137.3 80.2053C1139.72 86.1799 1137.77 92.4672 1138.09 98.597C1139.7 109.029 1150.05 116.233 1160.23 119.791C1164.41 121.268 1168.96 121.651 1173.44 121.962C1182.44 122.409 1191.5 122.201 1200.47 121.543C1209.42 120.668 1218.55 119.398 1227.56 120.761C1236.51 122.298 1244.78 125.602 1253.84 126.572C1262.74 127.906 1271.69 128.325 1280.72 128.219C1289.85 127.836 1299.2 129.863 1307.03 134.219C1318.84 140.534 1328.81 150.141 1334.22 161.662C1336.96 167.254 1338.87 173.104 1344.42 176.658C1349.76 180.331 1356.58 180.12 1363.14 180.232C1367.62 180.224 1372.13 180.084 1376.64 179.958C1398.21 179.778 1410.46 172.294 1428.85 187.733C1430.22 188.661 1431.43 190.043 1432.99 189.283C1434.09 188.587 1434.77 186.617 1435.05 184.753C1436.03 176.835 1434.62 168.508 1433.61 160.555C1431.53 144.199 1428.01 128.077 1425.29 111.816C1423.9 103.693 1422.78 95.4356 1421.64 87.3531C1421.21 83.3902 1419.14 79.8534 1416.68 76.641C1406.43 63.2728 1388.56 56.7381 1371.63 53.1138C1367.32 52.3214 1362.88 52.2861 1358.37 52.3535C1349.33 52.5466 1340.24 52.377 1331.21 51.7852C1322.19 51.1931 1313.14 50.3254 1304.26 48.6126C1295.42 46.8412 1286.77 44.7624 1277.74 44.1124C1268.78 43.3888 1259.76 43.1894 1250.73 43.3533C1241.79 43.4581 1232.17 44.2975 1224.04 40.1632C1219.96 38.2778 1216.36 35.7038 1212.92 33.0697C1206.28 27.537 1197.65 23.8883 1188.52 24.3877C1184.02 24.6148 1179.62 25.6111 1175.19 26.3897C1161.89 28.8421 1148.32 29.8005 1134.77 29.814C1127.49 30.3063 1112.36 27.969 1111.93 37.3635C1112.17 41.4886 1114.35 45.2711 1115.89 49.0902L1115.88 49.1049Z" fill="#3C3636"/>
</svg>
