<svg width="1440" height="218" viewBox="0 0 1440 218" fill="none" xmlns="http://www.w3.org/2000/svg">
<g filter="url(#filter0_ddd_4_641)">
<g filter="url(#filter1_d_4_641)">
<path d="M1184.54 119.518C1184.05 116.15 1183.01 112.794 1181.8 109.586C1177.87 98.9346 1171.25 91.4721 1169.41 103.173C1169.06 105.488 1168.96 108.109 1168.99 110.528C1169.18 115.218 1169.75 120.12 1166 123.766C1152.25 136.599 1121.72 120.276 1125.35 103.879C1126.36 98.8058 1130.91 95.4761 1136.19 93.7923C1139.92 92.4359 1143.42 91.9229 1146.45 89.9346C1150.02 87.5115 1148.97 82.7393 1144.55 81.717C1141.74 81.0176 1138.41 81.4146 1135.41 81.4499C1125.72 82.0896 1124.66 76.569 1124.22 68.7737C1123.89 61.6498 1123.53 53.0019 1131.27 49.2333C1143.04 44.1646 1159.5 45.6804 1166.39 55.3963C1167.47 56.8374 1168.61 58.4949 1169.96 59.6345C1172.15 61.5996 1175.05 61.8206 1177.11 60.0172C1182.95 54.8443 1176.82 37.0586 1167.4 32.2056C1164.4 30.7869 1161.65 31.34 1157.9 31.6497C1141.09 33.7018 1071.08 34.072 1078.84 49.8423C1082.11 54.3877 1085.94 56.095 1086.55 62.4074C1087.18 67.0758 1086.71 70.9111 1085.94 75.059C1084.59 87.7791 1090.1 122.811 1090.01 135.891C1089.82 137.656 1089.18 139.361 1088.14 140.892C1087.96 141.171 1087.75 141.45 1087.53 141.718C1085.49 145.04 1076.08 148.156 1078.9 151.443C1089.18 157.582 1106.15 148.275 1124.05 145.424C1129.03 144.498 1134.08 143.777 1138.91 142.939C1155.01 140.13 1188.45 142.993 1184.56 119.654L1184.54 119.524L1184.54 119.518ZM1099.46 64.1492C1101.5 62.3352 1102.24 59.278 1104.15 57.2974C1105.62 55.6149 1108.2 55.2863 1109.29 57.5354C1110.18 59.2555 1109.94 61.7319 1110.22 63.3288C1110.43 66.0386 1113.86 65.7759 1115.93 66.6685C1119.64 67.8944 1119.15 71.1005 1116.92 73.6708C1114.2 76.9248 1109.86 80.3931 1106.81 75.7095C1105.37 73.4644 1104.73 75.2186 1103.88 76.7256C1103.26 77.9751 1102 79.2159 1100.39 78.6381C1097.84 77.7891 1094.6 74.1873 1093.61 71.4107C1092.16 67.6576 1097.15 66.4003 1099.39 64.2206L1099.46 64.1492ZM1110.88 116.498C1110.97 119.035 1112.9 124.095 1110.65 126.134C1108.89 127.609 1106.69 126.636 1104.92 124.276C1103.75 122.662 1103.02 120.647 1101.97 119.048C1099.49 114.423 1092.05 115.053 1096.77 109.085C1098.22 107.365 1101.52 103.03 1103.48 103.755C1104.85 104.775 1104.48 107.204 1105.03 108.56C1105.6 110.115 1106.54 108.808 1107.17 107.862C1108.94 104.912 1111.13 102.63 1114.59 105.225C1116.76 106.985 1120.83 110.978 1119.61 113.759C1118.81 115.293 1115.65 115.286 1113.37 115.28C1112.38 115.314 1110.97 115.281 1110.87 116.433L1110.88 116.487L1110.88 116.498Z" fill="#A96B35"/>
</g>
<path d="M1103.35 57.5394C1114.51 52.6189 1108.67 64.8977 1109.04 65.5009C1109.71 66.5671 1131.08 65.0147 1108.4 79.3731C1104.18 64.0986 1105.22 79.0144 1102.01 79.448C1099.05 76.8085 1096.08 74.1636 1093.12 71.5241C1091.97 64.6323 1099.81 67.1983 1101.04 65.5946C1101.81 62.9113 1102.58 60.2227 1103.35 57.5394Z" fill="#FFFFFE"/>
<path d="M1106.19 81.4864L1108.99 88.1843L1116.39 90.5882L1109.05 93.1649L1106.4 99.9268L1103.59 93.2288L1096.19 90.8249L1103.54 88.2483L1106.19 81.4864Z" fill="#DE0905"/>
<path d="M1103.88 102.779C1106.49 104.24 1102.18 120.77 1110.27 102.704C1132.2 119.974 1109.92 113.921 1109.62 115.118C1109.45 115.792 1116.06 125.104 1108.94 126.072C1102.7 126.921 1103.46 116.53 1102.43 115.934C1099.49 115.236 1096.55 114.544 1093.61 113.846C1097.03 110.155 1100.45 106.47 1103.87 102.779L1103.88 102.779Z" fill="#FFFFFE"/>
<g filter="url(#filter2_d_4_641)">
<path d="M942.931 31.9191C944.379 27.6594 947.942 24.2882 950.396 20.4998C951.394 19.1446 952.124 17.0499 950.305 16.0872C947.559 14.7522 943.993 13.9926 940.846 14.2946C937.951 14.6585 934.88 16.5095 932.031 17.9631C929.221 19.4692 926.514 20.9741 923.934 22.8075C920.878 24.8823 917.375 28.3765 921.283 31.3125C923.225 32.9043 925.802 34.088 926.854 36.2678C928.063 38.5754 928.025 41.4162 928.12 43.9549C928.415 53.6982 928.851 63.3985 929.049 73.1488C929.222 75.7396 928.221 80.1886 924.554 78.5285C922.132 77.3135 920.887 74.6882 919.328 72.7029C916.857 69.5851 914.438 66.4431 912.063 63.2593C908.57 58.804 904.577 54.6728 900.962 50.2956C898.095 46.9349 895.843 43.1781 892.707 40.0269C890.708 37.9937 888.51 36.1338 886.358 34.2379C878.511 27.3999 873.816 19.0164 861.168 20.1252C854.15 20.6435 850.224 26.6059 845.741 30.8128C843.505 33.3553 840.282 35.5085 839.015 38.6112C838.582 40.8025 842.058 40.473 843.612 40.8732C846.73 41.3965 849.023 43.1257 850.188 45.5634C855.322 57.8193 856.113 84.5516 853.397 96.2688C852.293 101.833 845.514 102.938 840.945 105.861C837.512 107.639 833.849 111.866 836.665 115.245C838.067 116.967 842.015 116.721 844.695 116.801C851.666 116.59 874.279 115.317 876.454 111.939C879.692 107.245 873.967 103.023 869.265 101.711C866.431 100.642 862.521 100.328 862.515 97.0695C862.452 94.9782 861.632 70.1732 866.84 69.9649C868.102 70.2565 869.229 71.693 870.152 72.7723C889.635 96.3097 910.769 150.034 942.196 131.764C943.519 130.64 944.134 129.113 944.134 127.404C939.658 95.9004 940.514 63.6979 942.913 32.0313L942.944 31.9249L942.931 31.9191ZM892.79 59.7609C890.799 62.3417 888.093 59.4506 886.006 59.864C884.176 60.7634 885.051 63.7526 883.164 64.7412C880.777 65.9713 874.482 63.7763 873.198 61.0865C871.738 58.1926 875.573 56.0027 875.553 53.2333C875.531 51.3538 873.368 49.1457 873.213 46.9083C872.731 43.7731 876.643 41.5587 879.511 43.3342C881.941 44.6964 883.056 47.8124 885.897 48.392C888.272 48.8591 891.204 48.4182 892.912 50.3605C895.124 52.892 894.507 56.9712 892.853 59.6718L892.79 59.755L892.79 59.7609ZM909.31 97.6997C906.517 97.3612 902.884 99.1598 900.872 96.6377C898.964 94.1026 899.64 88.4081 902.87 87.4627C904.438 86.8845 907.037 87.2253 907.233 85.19C907.317 84.6292 907.257 83.911 907.269 83.298C907.104 80.2239 910.155 80.5417 912.366 81.3467C917.376 83.0617 922.862 86.1972 919.589 90.0954C916.801 93.4104 917.575 95.0218 919.667 98.368C921.096 100.738 922.231 103.971 918.95 102.767C915.709 101.626 912.709 98.5025 909.42 97.722L909.31 97.7056L909.31 97.6997Z" fill="#A96B35"/>
</g>
<path d="M875.977 43.1804C881.437 41.3663 881.817 47.9086 884.734 49.4183C885.584 49.8562 897.957 44.5905 892.671 59.6316C890.16 66.7794 882.418 49.0624 884.919 65.2733C863.109 61.7752 876.789 55.6575 876.963 53.4751C877.008 52.8735 868.505 45.6604 875.971 43.1804L875.977 43.1804Z" fill="#FFFFFE"/>
<path d="M890.553 63.9985L897.081 69.0124L905.511 67.7444L900.004 73.7141L901.376 81.4063L894.847 76.3923L886.417 77.6603L891.924 71.6906L890.553 63.9985Z" fill="#DE0905"/>
<path d="M907.686 80.8605C908.713 80.3771 930.837 86.4466 915.642 92.6587C930.955 113.051 910.75 97.165 909.608 96.6952C908.635 96.2941 895.721 104.395 901.67 86.4819C915.491 90.8338 903.159 82.9996 907.686 80.8605Z" fill="#FFFFFE"/>
<g filter="url(#filter3_d_4_641)">
<path d="M1327.28 148.031C1324.68 147.251 1320.86 147.424 1317.92 146.401C1312.01 144.403 1309.72 138.277 1308.81 133.031C1307.85 127.373 1307.9 121.751 1308.1 116.036C1308.78 106.991 1308.74 96.9679 1300.37 90.9936C1298.3 89.5305 1295.75 88.4115 1292.62 87.7286C1289.47 86.9924 1286.18 86.8162 1283.36 85.9849C1281.45 85.4434 1282.37 84.3965 1283.45 83.7234C1290.39 79.7119 1303.88 74.7861 1308.8 66.9003C1311.97 62.337 1313.01 56.7356 1312.43 51.4485C1309.66 26.8368 1279 23.4538 1257.14 30.6468C1241.15 34.6355 1214.73 36.7974 1203.66 38.2426C1201.66 38.513 1199.49 38.8176 1197.87 39.8996C1193.44 43.6187 1201.41 48.4917 1202.38 52.1474C1202.96 68.3445 1203.86 115.614 1203.16 131.187C1201.48 135.921 1196.37 140.625 1191.83 143.626C1188.7 145.714 1185.45 146.987 1183.97 148.293C1183.76 148.505 1183.68 148.699 1183.95 148.862C1184.3 149.062 1185.27 149.12 1186.65 149.093C1189.57 149.016 1192.72 148.743 1195.69 148.569C1213.62 147.424 1231.83 146.701 1249.73 146.411C1251.1 146.395 1252.82 146.358 1254.01 146.285C1255.34 146.205 1256.16 146.072 1256.27 145.77C1256.38 145.495 1255.9 145.066 1254.95 144.395C1254.25 143.899 1253.3 143.266 1252.26 142.515C1249.21 140.318 1246.42 137.424 1244.69 134.239C1243.22 131.47 1243.09 129.479 1242.99 126.248C1242.92 122.92 1242.9 119.839 1242.86 116.365C1242.83 113.509 1242.79 110.584 1242.76 107.738C1242.88 102.32 1242.08 99.1557 1244.52 96.8935C1245.99 95.8401 1247.97 95.5645 1249.86 95.3223C1254.74 94.6906 1260.25 96.2153 1263.07 100.064C1272.61 113.38 1268.88 125.08 1267.99 139.77C1267.7 145.502 1268.21 151.273 1268.16 156.997C1267.53 171.85 1281.23 176.468 1295.54 174.744C1303.99 173.41 1310.43 169.909 1317.34 165.43C1321.22 162.792 1325.24 159.845 1328.16 156.305C1330.85 152.966 1331.51 149.286 1327.38 148.057L1327.29 148.031L1327.28 148.031ZM1212.88 64.9692C1214.29 64.2172 1216.08 64.0459 1217.36 63.1235C1219.68 61.1527 1218.99 57.6547 1221.07 55.1284C1222.01 53.8342 1223.82 52.8358 1225.46 53.536C1228.57 54.7882 1228.2 59.426 1228.66 61.4985C1229.19 63.5056 1231.89 63.4525 1233.6 64.3291C1239.34 66.5813 1234.96 72.979 1231.32 75.0189C1228.36 76.8468 1226.54 74.6883 1224.77 72.7655C1224.38 72.4156 1224.06 72.2691 1223.75 72.3854C1223.49 72.4798 1223.22 72.7567 1222.94 73.1466C1222.07 74.3863 1220.86 76.5482 1218.85 76.6308C1214.33 76.8556 1207.36 67.9333 1212.8 65.0077L1212.88 64.9692ZM1229.7 118.146C1229.21 119.537 1229.89 121.816 1229.32 123.804C1228.91 126.021 1226.59 127.756 1224.27 126.097C1221.5 124.25 1221.16 120.351 1219.64 117.792C1218.39 115.782 1215.65 116.448 1213.57 115.495C1211.28 114.459 1211.58 111.948 1212.52 110.036C1213.83 107.283 1216.72 103.458 1220.11 104.723C1221.3 105.155 1222.32 106.126 1223.13 106.943C1224.14 108.015 1224.96 108.672 1225.76 107.03C1226.6 105.168 1227.74 102.094 1230.65 103.059C1234.73 104.16 1240.24 110.85 1235.87 114.579C1234.6 115.748 1232.78 116.344 1231.49 116.815C1230.59 117.148 1229.98 117.493 1229.72 118.092L1229.7 118.141L1229.7 118.146ZM1247.67 60.4274C1250.24 58.5986 1253.42 58.8191 1256.93 58.8639C1259.07 58.9032 1261.23 58.9369 1263.37 58.9816C1267.06 59.121 1270.03 59.2795 1271.57 61.2695C1275.73 70.9281 1249.52 90.0914 1245.01 78.4503C1243.04 74.1352 1243.36 63.5758 1247.6 60.4819L1247.67 60.4273L1247.67 60.4274ZM1281.39 110.614C1282.93 108.986 1283.88 106.591 1285.52 104.886C1287.39 102.813 1289.91 103.116 1291.01 105.589C1292.1 107.659 1291.53 109.824 1292.75 111.582C1293.93 112.937 1296.06 113.17 1297.46 114.319C1299.54 115.953 1299.57 118.154 1298.15 120.625C1296.9 122.706 1294.56 125.225 1291.7 124.673C1290.64 124.466 1289.68 123.876 1288.89 123.402C1288.08 122.917 1287.45 122.586 1286.82 122.905C1285.49 123.656 1284.57 125.739 1282.78 125.916C1279.59 125.991 1275.83 121.439 1275.25 118.751C1274.31 115.041 1279.01 113.209 1281.32 110.685L1281.39 110.609L1281.39 110.614ZM1294.12 165.37C1292.48 167.322 1292.73 170.782 1291.29 172.538C1290.2 173.979 1288.08 173.462 1287.04 172.245C1284.92 169.977 1284 165.773 1280.98 164.128C1279.29 163.031 1276.96 162.258 1276.57 160.169C1275.91 157.331 1279.18 151.252 1283.34 151.665C1284.71 151.955 1285.7 153.2 1286.65 154.016C1287.16 154.461 1287.63 154.729 1288.12 154.659C1288.59 154.6 1289.11 154.255 1289.71 153.77C1291.37 152.312 1293.67 150.497 1296 151.973C1298.52 153.468 1301.22 157.394 1299.9 160.378C1298.79 162.646 1295.64 163.333 1294.17 165.305L1294.12 165.37Z" fill="#A96B35"/>
</g>
<path d="M1224.48 53.4919C1232.12 53.8587 1226.76 63.5696 1226.98 64.2972C1227.16 64.8749 1237.37 60.3527 1236.53 68.518C1233.66 71.1986 1230.79 73.8845 1227.92 76.565C1224.96 76.7339 1223.67 60.6314 1222.37 75.9052C1219.35 80.3056 1205.3 66.9136 1213.52 63.7301C1215.64 64.1885 1217.76 64.6415 1219.87 65.1C1220.62 64.9086 1216.52 53.102 1224.48 53.4865L1224.48 53.4919Z" fill="#FFFFFE"/>
<path d="M1220.31 102.66C1228.75 120.541 1223.58 103.18 1228.22 102.567C1231.14 104.702 1234.07 106.831 1237 108.966C1240.37 119.186 1227.78 115.57 1227.59 116.297C1227.44 116.82 1233.65 123.324 1228.49 125.677C1219.84 129.623 1221.69 116.281 1220.46 115.661C1219.35 115.1 1201.86 119.708 1220.31 102.66Z" fill="#FFFFFE"/>
<path d="M1285.23 104.785C1295.52 101.127 1290.51 112.079 1290.87 112.665C1291.45 113.625 1309.29 112.954 1290.23 126.396C1286.65 111.394 1285.85 126.093 1283.9 126.47C1280.97 123.858 1278.04 121.24 1275.11 118.627C1274.22 111.615 1281.67 114.432 1282.95 112.758C1283.71 110.102 1284.47 107.441 1285.23 104.785Z" fill="#FFFFFE"/>
<path d="M1224.77 80.5512L1227.55 87.1807L1234.88 89.56L1227.61 92.1104L1224.99 98.8032L1222.21 92.1737L1214.88 89.7943L1222.15 87.244L1224.77 80.5512Z" fill="#DE0905"/>
<path d="M1288.29 129.202L1291.06 135.832L1298.39 138.211L1291.12 140.761L1288.5 147.454L1285.72 140.825L1278.39 138.445L1285.66 135.895L1288.29 129.202Z" fill="#DE0905"/>
<path d="M1284.19 151.028C1288.83 150.84 1285.13 157.046 1287.44 158.211C1289 155.788 1290.55 153.359 1292.1 150.935C1296.31 150.194 1308.67 165.463 1291.45 163.222C1297.24 175.836 1282.83 176.616 1284.32 162.581C1270.44 167.677 1278.22 151.264 1284.19 151.023L1284.19 151.028Z" fill="#FFFFFE"/>
<g filter="url(#filter4_d_4_641)">
<path d="M1057.87 136.283C1058.72 133.905 1058.74 131.036 1059 128.391C1062.9 94.9208 1088.25 102.788 1018.86 109.688C1016.05 109.959 1012.5 110.67 1010.87 112.342C1007.59 115.499 1011.21 119.867 1014.67 121.666C1017.17 123.272 1020.78 124.143 1022.14 126.443C1027.39 136.332 1014.27 147.879 1004.06 143.309C998.887 141.112 995.913 135.432 994.988 130.508C994.642 111.828 988.397 59.2851 1009.34 49.7176C1012.81 48.5888 1016.87 49.8563 1019.22 52.4357C1025.58 58.029 1027.82 76.4082 1036.24 75.7568C1051.55 72.697 1039.15 53.8955 1039.91 42.5628C1040.36 37.6754 1038.25 36.0999 1032.47 35.6788C907.153 27.924 949.583 219.659 1050.45 143.481C1053.19 141.313 1056.62 139.655 1057.82 136.389L1057.85 136.289L1057.87 136.283ZM972.409 73.4905C972.968 72.2852 972.243 70.7692 972.583 68.7751C972.809 66.2819 975.407 63.8365 978.232 64.4552C982.178 65.532 980.27 70.2969 981.299 72.7288C982.488 74.5537 985.838 74.3108 987.116 76.2161C990.006 80.145 984.492 87.8616 980.364 86.4436C979.103 86.0627 978.121 84.9627 977.295 84.1112C976.947 83.7545 976.683 83.5539 976.454 83.5857C975.712 83.897 975.29 85.4847 974.513 86.0466C972.159 88.1108 968.598 85.6038 966.468 83.371C964.016 80.9034 964.444 77.1509 967.818 75.5984C969.635 74.5937 971.417 74.8056 972.371 73.5491L972.402 73.4964L972.409 73.4905ZM989.161 123.419C988.417 124.656 986.878 125.477 985.495 126.104C984.176 126.725 982.705 127.347 982.383 128.753C982.033 130.474 982.952 132.698 982.051 134.693C981.086 137.212 977.511 137.906 975.775 135.546C973.966 133.53 974.458 130.365 973.298 128.208C973.02 127.833 972.622 127.622 972.161 127.453C969.788 126.789 965.704 125.9 966.168 122.537C966.234 120.005 970.504 113.385 973.619 113.68C975.685 114.273 975.756 117.03 976.844 118.484C978.525 120.466 979.015 114.42 980.401 113.606C981.772 112.479 983.6 113.458 984.955 114.298C987.75 116.15 990.959 120.169 989.211 123.326L989.155 123.419L989.161 123.419Z" fill="#A96B35"/>
</g>
<path d="M974.239 65.52C984.74 60.7709 979.885 73.4723 980.344 74.0604C982.349 74.2988 984.353 74.5371 986.358 74.7755C992.278 79.4544 979.605 94.7495 976.137 81.1564C977.098 93.0099 965.452 83.3299 964.979 80.5016C963.738 73.0563 972.454 75.8287 973.479 74.1409C973.736 73.7247 969.603 67.6167 974.239 65.52Z" fill="#FFFFFE"/>
<path d="M977.384 89.5697L980.395 96.7548L988.336 99.3335L980.458 102.098L977.615 109.351L974.604 102.166L966.664 99.5874L974.542 96.8233L977.384 89.5697Z" fill="#DE0905"/>
<path d="M974.79 112.485C978.04 129.194 978.75 114.772 979.952 113.99C982.635 112.248 991.549 118.911 989.505 124.056C986.662 125.13 983.812 126.211 980.969 127.286C980.719 127.72 986.075 133.808 980.209 135.907C972.807 138.56 974.499 127.851 974.104 127.367C973.114 126.139 956.469 127.742 974.79 112.485Z" fill="#FFFFFE"/>
<g filter="url(#filter5_d_4_641)">
<path d="M843.038 138.186C839.234 132.503 834.812 126.969 831.571 120.998C828.151 114.967 825.23 108.678 822.68 102.278C812.254 76.8025 808.554 42.6637 790.221 38.4624C785.781 37.8217 781.145 38.7264 776.531 39.3954C771.139 40.4122 747.872 44.4389 747.824 50.3346C749.248 55.8571 756.637 54.6002 752.407 63.3598C741.859 83.7825 729.403 114.243 716.072 131.185C714.623 132.979 712.713 134.727 710.661 136.039C708.444 137.529 705.849 138.547 703.685 140.085C700.156 142.461 700.675 146.067 704.634 147.754C709.215 149.725 714.508 148.96 719.409 148.777C722.713 148.604 746.416 148.039 743.191 142.638C742.599 141.856 741.673 141.275 740.802 140.704C738.084 139.004 735.052 137.15 733.713 134.638C728.051 119.196 761.209 115.109 773.823 115.808C777.74 115.811 781.719 117.038 783.843 120.29C786.499 124.264 787.767 128.858 789.607 133.127C793.507 141.623 797.55 145.604 788.78 153.392C784.751 157.012 779.557 162.477 788.288 164.046C794.587 165.009 801.008 164.373 807.309 163.865C818.941 162.907 830.392 160.482 841.672 157.979C847.202 156.63 861.495 155.334 853.438 147.822C849.758 144.581 845.701 142.18 843.13 138.293L843.059 138.194L843.038 138.186ZM775.776 103.297C769.685 106.469 754.011 106.082 750.994 98.9121C748.928 93.5837 752.574 87.0232 755.975 82.5238C760.443 76.6474 764.741 78.4202 768.869 83.473C772.26 87.4682 781.757 99.1283 775.864 103.231L775.77 103.29L775.776 103.297ZM788.694 87.6731C787.097 88.2644 785.317 87.5422 783.888 86.8235C780.573 85.1283 777.511 81.8776 779.536 78.6258C780.683 76.8431 782.789 75.4566 783.221 73.3336C783.768 71.1457 782.569 68.3906 783.367 66.1056C784.109 63.466 787.432 62.5965 789.618 64.4185C791.587 65.8531 792.418 68.687 794.162 70.0216C796.332 71.7597 800.177 70.9463 801.667 73.5166C803.385 76.641 801.596 81.7396 798.186 82.7906C796.295 83.4835 793.849 82.6473 792.208 83.8762C790.956 84.8097 790.358 87.0273 788.787 87.639L788.687 87.6792L788.694 87.6731ZM816.169 125.581C815.857 127.696 817.984 130.156 818.066 132.36C818.523 135.72 815.229 137.41 812.237 135.608C808.539 133.396 807.703 129.212 802.934 128.435C800.308 127.923 797.696 126.81 797.071 124.178C796.213 120.741 797.401 115.596 801.186 114.14C802.86 113.552 804.731 113.786 806.444 113.373C807.757 113.088 808.997 112.48 810.293 112.125C813.387 111.219 816.832 112.837 819.152 114.748C820.784 116.091 822.167 118.221 820.95 120.115C819.844 122.028 816.615 123.318 816.181 125.485L816.161 125.587L816.169 125.581Z" fill="#A96B35"/>
</g>
<path d="M796.788 88.399L802.31 95.1716L811.546 95.7424L804.114 100.798L803.468 109.23L797.946 102.457L788.709 101.887L796.142 96.8311L796.788 88.399Z" fill="#DE0905"/>
<path d="M785.931 63.939C793.706 61.8109 791.617 72.0832 792.952 72.8679C793.914 73.4306 808.298 64.7705 797.894 85.1418C784.061 73.3323 794.881 85.6227 790.175 88.2257C786.217 86.0337 782.259 83.8418 778.301 81.6499C777.171 74.5739 785.425 76.3828 786.22 75.1338C786.575 74.5682 777.458 66.2523 785.924 63.9323L785.931 63.939Z" fill="#FFFFFE"/>
<path d="M807.686 111.422C835.61 119.605 814.051 123.429 813.521 124.601C813.232 125.24 825.279 133.41 815.696 135.889C808.924 137.635 808.221 127.419 806.795 126.873C805.884 126.524 792.898 133.311 798.881 117.039C803.208 105.278 810.191 126.679 807.693 111.422L807.686 111.422Z" fill="#FFFFFE"/>
<g filter="url(#filter6_d_4_641)">
<path d="M411.531 152.164C412.024 150.121 412.562 148.071 413.626 146.204C416.009 142.035 420.609 139.229 421.641 134.583C422.249 132.276 422.241 129.666 422.242 127.238C422.068 107.357 421.776 87.4969 421.558 67.6161C421.507 65.1212 421.453 62.4779 420.783 60.0981C419.053 52.4632 407.104 49.2781 410.198 40.2714C411.245 37.568 413.366 36.3493 416.025 35.61C432.622 31.2473 472.506 23.9071 496.04 22.6129C499.23 22.4271 502.673 23.0006 504.227 25.7342C505.47 27.7633 505.79 30.4169 506.024 32.7748C506.602 39.2025 507.135 45.5767 507.676 52.025C507.792 54.3708 508.824 62.9447 504.208 61.2856C502.067 60.1776 500.747 57.9201 499.513 55.9786C495.725 49.8988 492.718 41.746 484.628 40.04C471.758 38.2821 461.005 58.3386 459.38 67.8744C458.676 72.0981 457.908 77.8535 462.102 80.7113C466.1 83.2612 472.08 80.8912 476.568 82.3696C481.551 83.8558 482.309 89.8901 478.64 92.7254C474.712 96.1438 467.436 97.6319 463.14 104.326C459.518 109.96 458.522 117.033 459.682 123.285C461.317 132.931 469.514 134.407 478.987 136.218C484.618 137.548 482.069 140.721 478.968 142.781C461.072 154.227 429.438 155.562 407.613 155.831M360.726 143.687L439.55 51.1371C437.407 52.3628 436.507 55.0307 434.938 57.3356C433.965 58.8375 432.673 60.1342 431.222 61.2303C429.26 62.7978 426.61 64.2318 426.322 66.7981C426.052 69.6138 428.766 72.9274 431.572 74.0209C434.541 75.1394 437.094 73.6054 439.898 73.8963C444.79 74.5539 448.319 76.1583 450.546 70.6892C451.952 67.0779 451.094 63.2367 449.361 59.7565C447.609 56.5868 444.234 49.1263 439.646 51.082L439.55 51.1304L360.726 143.687ZM435.256 102.764C431.894 102.824 429.289 106.861 428.662 110.139C428.036 114.058 431.527 117.484 433.774 120.702C435.832 123.551 439.21 128.024 443.387 125.695C445.347 124.579 446.626 122.096 448.049 119.941C449.593 117.434 452.038 115.443 453.561 112.957C456.296 108.682 451.526 102.027 446.649 102.03C443.953 102.082 441.99 104.243 439.675 104.027C438.314 103.935 436.942 102.886 435.352 102.776L435.256 102.777L435.256 102.764Z" fill="#A96B35"/>
</g>
<path d="M439.213 76.0579L442.703 84.3859L451.907 87.3749L442.776 90.5787L439.482 98.9862L435.992 90.6582L426.788 87.6692L435.919 84.4654L439.213 76.0579Z" fill="#DE0905"/>
<path d="M438.192 52.0444C446.376 49.244 442.793 60.61 451.252 63.6876C443.42 91.3982 439.386 56.1648 436.481 75.6569C414.688 61.5396 434.761 63.1052 435.325 62.0599C436.283 58.7237 437.234 55.3807 438.192 52.0444Z" fill="#FFFFFE"/>
<path d="M436.781 101.061C438.138 104.067 439.504 107.079 440.862 110.085C441.117 92.7553 453.847 108.442 453.794 110.844C453.663 116.646 447.307 114.71 445.908 116.379C445.143 117.292 448.954 127.87 439.044 124.627C434.305 123.078 440.109 117.095 427.972 112.961C430.911 108.994 433.842 105.028 436.781 101.061Z" fill="#FFFFFE"/>
<g filter="url(#filter7_d_4_641)">
<path d="M693.948 134.042C692.884 131.738 692.542 129.133 692.36 126.606C691.222 110.014 689.856 93.0864 688.297 76.413C687.738 70.8248 687.875 65.1754 689.509 59.7403C691.783 52.02 694.487 44.4337 696.958 36.7442C698.302 32.6035 700.48 26.5661 697.204 23.1417C693.88 19.89 688.123 20.1031 683.455 20.3763C675.349 20.7295 667.691 24.6197 660.358 26.5529C653.326 28.1846 645.668 27.7381 638.916 30.3398C626.286 35.1821 639.386 40.0672 642.538 45.9362C644.934 49.8411 644.66 54.3929 644.682 58.7294C644.664 64.6224 644.53 70.4836 644.447 76.3773C644.367 79.4768 644.313 82.9601 642.625 85.6085C640.246 89.364 634.424 90.2334 629.893 90.4123C623.84 90.8076 620.298 86.9162 620.759 81.6736C620.889 77.8451 622.244 74.0221 624.629 70.8624C629.479 65.0122 636.692 59.0151 625.603 55.4902C612.997 51.95 579.599 53.7185 569.819 62.851C565.37 69.405 574.137 75.4002 577.772 80.3697C579.712 83.1345 580.345 86.4045 580.557 89.6728C581.728 108.516 580.324 127.905 580.517 146.866C581.262 159.106 566.794 169.889 577.801 173.243C585.764 174.964 594.794 174.878 602.729 175.414C610.085 175.493 617.99 175.956 624.812 173.116C633.393 168.764 621.766 161.988 621.071 156.527C620.284 153.782 620.467 150.867 620.659 148.031C621.319 138.767 621.912 129.272 621.494 120.259C621.359 116.103 620.663 111.191 623.845 107.89C626.941 104.709 633.747 103.603 638.802 104.172C643.957 104.536 645.754 109.321 645.616 113.693C645.75 120.16 645.71 126.662 645.829 133.11C645.664 144.361 648.875 148.462 661.365 147.799C671.088 147.413 680.797 147.637 690.511 147.086C693.662 146.771 698.69 146.183 698.877 142.983C698.921 140.546 695.291 137.225 694 134.148L693.948 134.036L693.948 134.042ZM600.853 76.6232C605.064 77.4942 609.345 84.4094 611.844 87.8495C613.403 90.2612 614.423 93.1492 613.222 95.8515C612.129 98.5657 608.916 101.086 606.45 101.128C603.369 101.303 601.917 97.467 598.898 99.7867C597.551 100.617 595.998 101.8 594.24 101.609C590.406 101.217 587.337 94.9961 588.671 91.2065C589.375 88.7617 591.063 86.7291 592.532 84.5799C594.778 81.8257 596.62 76.2822 600.744 76.598L600.853 76.6166L600.853 76.6232ZM613.724 142.431C612.859 144.169 611.391 145.762 610.389 147.575C608.772 150.103 608.604 153.668 606.146 155.65C601.731 158.343 598.892 153.185 596.883 150.044C595.086 147.132 591.655 145.272 590.125 142.238C588.56 138.687 590.668 133.472 594.389 131.647C596.693 130.733 599.204 132.114 601.589 131.973C603.91 131.986 606.209 130.674 608.537 131.263C612.286 132.344 615.89 138.46 613.788 142.318L613.731 142.431L613.724 142.431ZM656.903 56.6993C658.669 54.5069 658.994 51.3051 660.826 49.1185C662.005 47.6216 664.295 46.8267 666 48.0317C668.127 49.4369 669.222 53.1451 670.759 55.5504C672.218 58.0559 674.261 60.3625 674.687 63.284C675.279 66.7863 673.163 71.8828 668.891 71.9461C666.496 71.8417 664.185 70.869 661.768 71.374C659.929 71.6273 657.834 72.3802 655.77 71.398C653.88 70.5064 652.482 68.7947 651.714 67.0028C649.597 62.1876 654.005 60.1232 656.824 56.7995L656.903 56.6993ZM672.306 118.869C670.549 121.167 670.128 124.847 668.446 126.813C664.904 130.324 661.95 125.221 660.26 122.188C659.616 121.117 658.93 120.085 658.099 119.141C655.973 116.644 652.877 114.873 652.438 112.09C651.996 108.434 654.683 104.357 657.844 102.327C660.561 100.825 663.241 102.959 666.042 103.006C670.996 102.974 673.92 102.45 676.683 107.33C679.652 113.082 675.869 114.596 672.385 118.775L672.306 118.882L672.306 118.869Z" fill="#A96B35"/>
</g>
<path d="M600.843 105.381L604.269 113.557L613.304 116.491L604.34 119.636L601.106 127.889L597.68 119.714L588.645 116.78L597.609 113.635L600.843 105.381Z" fill="#DE0905"/>
<path d="M665.059 76.1613L668.485 84.3367L677.52 87.2708L668.557 90.4159L665.323 98.6693L661.896 90.4939L652.861 87.5598L661.825 84.4147L665.059 76.1613Z" fill="#DE0905"/>
<path d="M663.1 47.6762C671.813 46.5015 666.342 54.4246 668.096 57.4166C669.724 57.6955 671.352 57.9743 672.987 58.2531C680.032 70.737 662.323 79.1876 663.295 63.7097C663.897 86.5978 637.609 55.6022 660.313 59.2888C657.147 55.9228 658.849 48.2491 663.107 47.6761L663.1 47.6762Z" fill="#FFFFFE"/>
<path d="M600.981 76.9144C605.275 82.505 609.569 88.0957 613.864 93.6864C598.559 110.444 603.294 94.863 601.189 94.7287C599.984 94.6502 596.937 113.741 588.452 90.4221C600.399 86.6936 593.855 77.3355 600.981 76.9144Z" fill="#FFFFFE"/>
<path d="M661.777 101.143C664.548 102.402 661.692 114.975 669.58 101.052C678.033 108.07 682.676 117.398 668.779 116.203C675.21 130.826 658.278 131.323 660.975 116.295C641.579 118.177 660.231 100.44 661.777 101.143Z" fill="#FFFFFE"/>
<path d="M597.704 130.397C599.03 132.759 600.364 135.12 601.69 137.475C602.96 135.083 604.238 132.691 605.508 130.306C606.774 130.033 616.426 137.812 614.447 143.562C611.851 144.188 609.254 144.808 606.665 145.434C607.345 147.803 608.018 150.172 608.699 152.535C607.591 156.997 594.582 157.97 598.861 145.526C581.321 147.963 594.094 130.559 597.704 130.397Z" fill="#FFFFFE"/>
<g filter="url(#filter8_d_4_641)">
<path d="M8.6408 116.472C8.48155 113.659 8.35321 110.949 8.25442 108.224C8.19221 104.183 7.96444 99.9611 9.35796 96.5204C10.0895 94.9183 11.2136 94.4779 12.6396 93.8102C14.1098 93.1081 15.9037 93.4058 17.2216 94.2922C19.9823 95.9416 21.7614 99.4129 25.1136 100.181C27.7803 100.787 29.149 97.7667 30.5396 97.2486C31.6819 97.0929 32.2692 98.3947 33.1812 98.879C35.8205 100.943 39.1707 99.0123 41.1423 96.7176C45.7299 91.3339 40.7658 89.9477 37.4905 86.2227C35.4345 83.8531 34.0267 79.0957 30.4713 79.3679C28.7155 79.7886 27.9111 81.5136 27.1031 82.9403C26.1879 84.7141 24.4707 87.1618 22.5541 87.8081C20.379 88.5795 19.3183 86.8221 19.3829 84.726C19.5677 80.2145 21.8252 75.0548 25.1934 71.4892C36.4558 59.4227 55.2576 59.2973 68.4853 56.4503C72.3832 55.6112 75.8252 54.5402 78.878 52.5854C81.341 51.024 82.8165 50.1388 83.9908 53.346C85.9538 56.0286 95.6283 101.823 82.6374 100.795C73.3045 97.4663 75.1962 76.3078 64.8772 75.0522C61.6486 74.6764 58.7349 76.4532 56.5834 78.6077C52.5592 82.6217 50.8961 87.7812 51.1898 93.1958C51.9323 110.913 52.6453 128.643 53.4324 146.36C53.5785 148.691 53.9303 151.446 55.3617 153.138C55.9344 153.83 56.6538 154.357 57.4904 154.748C62.9426 157.213 70.4245 155.376 73.6508 149.846C75.5693 146.826 76.6477 143.118 77.0227 139.621C77.3759 136.789 76.9344 133.987 77.9227 132.104C80.3948 127.504 88.5995 130.921 91.3542 133.96C94.4431 136.996 93.855 141.967 94.3345 144.843C94.598 146.406 95.0832 147.872 94.8048 149.476C94.038 153.146 90.9657 156.6 88.5957 159.761C69.5429 185.385 31.4989 185.451 20.0725 153.721M26.8047 129.116C24.5574 128.796 19.5568 136.341 19.6097 138.32C19.4536 141.482 23.7333 142.158 25.9156 143.902C28.9819 146.273 27.4527 150.814 29.9505 153.484C31.7879 155.591 35.1059 154.712 36.0734 152.327C36.7553 150.922 36.6974 149.146 36.5684 147.649C36.4867 146.389 36.2262 145.076 37.2854 144.169C38.2413 143.323 40.3986 142.932 42.28 141.825C44.3615 140.668 46.0759 138.614 45.7368 136.305C45.2182 132.623 39.908 128.331 36.1702 128.884C33.9976 129.242 32.9988 131.491 32.0134 132.988C31.7941 133.295 31.5235 133.658 31.1893 133.669C31.0036 133.671 30.8464 133.571 30.7038 133.451C29.7577 132.594 28.657 129.325 26.8642 129.122L26.7899 129.123L26.8047 129.116Z" fill="#A96B35"/>
</g>
<path d="M16.3521 91.7522C17.0134 91.1342 17.6674 90.523 18.3288 89.905C31.7676 90.5341 22.8855 75.5643 33.19 78.7865C34.2248 81.5139 35.2522 84.2345 36.287 86.9619C38.8019 89.8346 52.8989 91.4731 33.4679 102.503C28.1431 82.9955 31.0716 117.361 16.3521 91.7589L16.3521 91.7522Z" fill="#FFFFFE"/>
<path d="M27.7733 128.106C29.1385 131.128 30.5112 134.156 31.8763 137.178C31.4644 121.044 44.3872 134.061 44.8569 136.11C46.7595 144.422 36.0451 141.72 34.9519 143.523C34.6532 144.021 40.8057 151.747 34.0668 153.569C25.3432 155.929 29.3138 144.192 28.9502 143.593C25.6083 142.418 22.2589 141.237 18.917 140.063C21.8716 136.075 24.8187 132.087 27.7732 128.099L27.7733 128.106Z" fill="#FFFFFE"/>
<path d="M28.9861 103.544L32.4952 111.917L41.7485 114.922L32.5682 118.143L29.2562 126.596L25.7471 118.223L16.4938 115.218L25.6742 111.997L28.9861 103.544Z" fill="#DE0905"/>
<g filter="url(#filter9_d_4_641)">
<path d="M169.55 143.33C160.371 142.569 151.508 142.397 141.896 142.926C126.431 143.256 108.405 147.684 116.827 136.658C120.913 131.391 124.637 126.247 124.194 119.493C123.892 97.6569 123.767 75.7623 123.341 53.9347C123.148 50.6667 122.79 47.8456 121.048 45.1537C118.173 40.8717 112.995 37.4431 110.791 34.2693C109.052 31.7752 109.141 29.4715 113.632 27.1304C120.427 23.8299 128.719 22.2071 136.641 20.7298C142.495 19.7289 148.541 18.5632 154.462 18.0489C160.282 17.465 167.029 19.3284 165.92 25.7407C165.123 29.6984 161.87 32.7667 161.738 36.6883C161.521 40.611 163.103 45.5155 163.809 49.6393C168.357 71.8918 152.836 118.345 172.557 122.613C177.476 123.65 183.647 121.968 188.089 119.38C201.068 112.92 197.397 91.4911 201.947 85.5682C203.555 83.4445 206.404 83.5665 207.441 86.1819C209.217 91.1195 209.542 97.7693 210.039 103.873C210.623 113.366 210.896 123.527 210.01 132.409M240.228 133.002L139.452 38.68C136.613 40.1188 134.781 42.9091 133.037 45.3522C130.435 49.1333 127.219 52.7309 128.779 57.0706C129.814 60.1593 135.031 64.9436 138.675 62.8384C139.696 62.1625 140.23 60.8212 140.596 59.7716C140.831 59.2956 140.987 58.1142 141.624 58.3328C142.899 59.4409 143.598 61.6576 145.748 62.925C147.121 63.806 148.877 63.7713 150.323 62.9985C153.799 61.2061 156.95 55.9706 155.326 52.1402C154.351 49.5029 150.669 48.317 148.924 46.6776C147.092 44.8697 147.129 42.1004 145.605 40.0911C144.305 38.1075 141.805 37.4799 139.582 38.6149L139.459 38.6728L240.228 133.002ZM138.159 92.1287C133.769 91.2619 127.024 99.4425 129.047 103.085C130.022 105.065 132.963 105.744 135.154 106.488C139.951 107.718 138.95 113.401 141.037 116.492C141.974 117.921 143.904 117.496 145.106 116.444C147.338 114.701 148.125 111.189 149.559 108.806C151.035 105.97 155.56 105.147 155.907 101.725C156.07 100.451 155.556 98.8398 154.853 97.5837C153.241 94.7844 148.244 88.9663 146.132 91.7386C145.122 92.6687 144.865 97.1993 143.377 96.9412C143.004 96.8255 142.603 96.2793 142.13 95.5785C141.209 94.2119 140.014 92.5802 138.275 92.1485L138.166 92.1216L138.159 92.1287Z" fill="#A96B35"/>
</g>
<path d="M139.178 39.1568C149.575 35.6235 145.688 46.631 146.566 47.6237C148.095 49.3503 160.306 48.0065 152.943 58.9488C144.311 71.7847 142.372 56.2192 141.459 56.2299C140.036 56.2465 143.422 73.1442 127.916 55.4351C131.667 50.009 135.426 44.5758 139.178 39.1498L139.178 39.1568Z" fill="#FFFFFE"/>
<path d="M139.78 90.4625C145.781 110.614 144.102 91.5137 146.024 90.3894C149.183 93.2059 152.334 96.0154 155.493 98.8319C157.843 109.116 150.071 103.578 147.257 106.528C147.969 107.784 148.672 109.047 149.383 110.303C137.398 125.594 141.227 109.65 138.932 106.626C137.738 105.058 115.9 106.945 139.788 90.4625L139.78 90.4625Z" fill="#FFFFFE"/>
<path d="M142.711 65.3174L146.366 74.0388L156.004 77.169L146.442 80.5241L142.992 89.3287L139.337 80.6073L129.699 77.4772L139.261 74.1221L142.711 65.3174Z" fill="#DE0905"/>
<g filter="url(#filter10_d_4_641)">
<path d="M279.751 115.805C278.918 117.238 275.97 117.939 274.133 118.512C263.078 121.523 255.638 122.33 245.16 122.248C235.359 122.118 224.158 120.797 219.313 117.755C216.087 115.889 216.985 112.78 219.805 111.005C224.213 108.279 228.794 108.04 228.562 102.033C227.857 88.8819 226.54 75.7398 225.979 62.5834C225.907 57.9072 226.338 53.2297 226.572 48.5491C226.649 44.8057 227.56 40.7845 226.163 37.2143C224.15 32.3227 217.886 28.7542 214.885 24.4501C210.684 17.9771 221.404 15.5717 226.817 14.7257C235.606 13.1991 244.92 14.3257 253.514 12.6532C258.079 11.9974 270.247 7.98837 272.567 12.8695C274.441 19.9108 264.86 26.4583 265.48 33.6272C269.589 55.3264 251.774 97.392 276.425 112.635C277.615 113.461 280.015 114.313 279.767 115.768L279.75 115.823L279.751 115.805ZM247.136 30.1384C244.512 31.9231 244.314 35.6545 241.842 37.6327C240.032 39.2504 237.096 39.9765 235.948 41.9049C235.216 43.132 235.329 44.5665 235.789 45.8868C236.53 47.9846 239.918 53.1208 242.627 51.1538C243.679 50.2772 244.134 48.5525 245.036 47.5695C246.518 45.9737 248.952 50.7793 251.118 51.5706C252.724 52.4973 254.744 52.0576 255.868 50.6625C257.416 48.989 258.303 45.9484 257.644 43.724C257.103 41.3498 254.738 40.1266 252.589 39.2801C251.658 38.8947 251.317 38.0958 251.39 37.2044C251.426 35.9073 251.933 33.7624 251.393 32.0593C250.986 30.3003 249.07 28.8558 247.228 30.0806L247.143 30.1326L247.136 30.1384ZM239.771 77.1557C237.452 77.7056 232.475 84.2019 233.635 86.3566C234.499 88.1122 237.267 88.3725 238.612 90.1569C240.677 93.1307 241.267 97.4646 243.539 100.268C246.719 103.723 246.997 95.049 248.035 93.4882C248.874 91.3775 250.896 90.0991 253.088 89.0523C254.657 88.2995 256.246 87.3114 256.563 85.6299C257.188 83.0991 253.831 78.1444 250.787 77.4735C248.553 77.1512 246.881 80.8074 245.583 81.2374C243.906 81.6248 243.69 76.0346 239.869 77.1168L239.772 77.1495L239.771 77.1557Z" fill="#A96B35"/>
</g>
<path d="M246.308 30.207C255.842 27.5907 250.281 38.9311 250.338 39.5924C250.385 40.1849 259.878 37.9023 257.25 46.6027C253.082 60.4132 246.269 44.8946 245.427 45.2093C244.685 47.4053 243.95 49.6016 243.209 51.7914C241.708 52.6531 233.432 46.281 235.626 40.5678C238.095 40.1244 240.565 39.6871 243.027 39.2434C244.123 36.2314 245.213 33.2128 246.309 30.2008L246.308 30.207Z" fill="#FFFFFE"/>
<path d="M239.914 76.717C247.732 76.1827 242.632 83.3938 245 83.6416C246.345 81.4739 247.698 79.3066 249.043 77.1452C250.84 76.9125 265.036 89.9438 247.392 89.6072C246.391 114.975 239.944 89.407 239.221 88.3851C237.106 88.0063 234.991 87.6275 232.876 87.2487C235.22 83.736 237.563 80.2232 239.907 76.7105L239.914 76.717Z" fill="#FFFFFE"/>
<path d="M246.241 53.8145L248.906 61.6499L257.162 64.8901L248.572 67.3404L245.003 74.8834L242.338 67.048L234.083 63.8078L242.673 61.3575L246.241 53.8145Z" fill="#DE0905"/>
<g filter="url(#filter11_d_4_641)">
<path d="M361.623 128.242C360.845 129.067 358.885 129.128 357.532 129.124C342.944 129.047 328.272 128.977 313.691 128.88C310.223 128.883 308.355 127.822 309.549 124.344C311.411 118.299 314.223 112.44 315.413 106.243C316.144 85.2087 315.003 64.0692 315.035 43.0178C315.148 38.9222 312.772 36.2438 309.016 34.142C304.464 31.5273 297.901 26.8732 301.116 21.404C302.807 18.6525 306.908 16.8343 311.666 15.6133C317.189 14.2305 322.735 13.6625 328.137 13.2617C332.962 13.1033 336.637 12.3853 341.163 11.0078C371.458 2.47053 388.998 -8.64255 393.855 19.4832C394.7 24.3189 395.12 29.7965 395.229 34.2716C395.267 35.7802 395.437 37.7967 394.727 39.0722C393.097 41.6447 389.624 40.0043 387.345 38.3627C384.353 36.0927 382.502 32.9179 380.588 29.7057C377.992 25.4699 375.734 20.899 370.336 19.8097C366.31 19.1628 361.569 20.651 358.445 23.1073C349.383 30.2432 349.685 49.5142 350.617 55.7562C350.792 57.0594 351.153 58.0867 352.762 58.4308C356.594 59.2264 363.31 58.4155 367.38 59.8769C369.599 60.5513 371.371 62.3453 371.373 64.2874C371.285 69.8664 363.963 71.3084 359.561 73.7096C350.548 77.9159 349.835 86.0683 351.513 94.7722C352.278 99.2969 353.356 103.219 355.032 107.523C356.819 112.361 359.215 118.598 361.1 123.492C361.806 125.407 362.544 127.022 361.664 128.185L361.616 128.236L361.623 128.242ZM329.88 29.905C327.122 32.0577 327.944 36.741 325.134 38.6078C323.263 39.6676 320.561 39.4828 318.805 40.815C317.379 41.7996 317.174 43.3111 317.86 44.7358C318.318 45.7365 319.103 46.6633 319.867 47.514C321.753 49.5549 323.791 52.0271 325.438 52.0397C327.996 51.8187 328.194 47.9449 329.075 46.3172C330.335 43.679 331.664 48.7766 332.511 49.5944C333.286 50.8206 334.801 51.497 336.294 50.9319C339.251 49.7128 342.796 46.2265 342.437 42.9323C342.057 40.2942 338.379 38.9492 336.346 38.1198C335.596 37.8039 334.894 37.43 334.78 36.6227C334.617 34.6761 335.595 31.7993 333.992 30.1052C332.959 28.9202 331.215 28.8706 329.977 29.8466L329.888 29.9177L329.88 29.905ZM327.162 77.1648C326.478 77.1155 325.732 77.6909 324.933 78.6427C323.771 80.089 322.509 81.8994 321.39 83.4535C317.779 88.4051 322.569 88.8202 326.226 90.7385C327.722 91.5488 327.551 93.0981 327.428 94.5004C327.306 95.9409 327.617 97.5037 328.767 98.5918C330.652 100.493 334.998 101.091 335.933 98.1576C336.486 96.5019 335.681 94.4801 335.515 92.8265C335.3 89.9636 339.432 90.7685 341.945 89.058C345.188 87.1862 345.507 83.4956 342.938 80.9851C341.059 78.9759 337.738 76.5187 335.303 77.1267C333.828 77.4687 332.957 78.7397 332.442 79.981C331.984 80.8269 331.9 81.9613 331.2 82.3452C330.83 82.3432 330.63 81.9252 330.431 81.6538C329.524 80.4418 329.045 77.6585 327.218 77.1705L327.149 77.1713L327.162 77.1648Z" fill="#A96B35"/>
</g>
<path d="M329.177 30.0864C338.754 27.0133 333.586 37.2171 333.962 37.7412C334.635 38.6884 352.477 40.8416 333.191 52.3124C327.627 34.1478 330.374 52.4791 325.686 52.4004C322.831 49.2947 319.983 46.1826 317.129 43.0769C317.691 38.0592 326.196 39.9971 326.47 39.5418C327.375 36.3921 328.272 33.2361 329.177 30.0864Z" fill="#FFFFFE"/>
<path d="M327.843 76.3624C329.125 79.1999 330.414 82.0438 331.696 84.8813C331.309 69.7315 343.444 81.9548 343.885 83.8789C345.671 91.6835 335.617 89.1461 334.584 90.8392C334.242 91.4035 341.088 102.409 329.98 98.604C323.76 96.4674 329.19 91.3035 328.948 90.9052C325.81 89.8022 322.665 88.693 319.527 87.59C322.301 83.8453 325.068 80.1007 327.843 76.356L327.843 76.3624Z" fill="#FFFFFE"/>
<path d="M330.417 53.726L333.712 61.5884L342.401 64.4102L333.781 67.4348L330.671 75.3722L327.376 67.5098L318.687 64.6881L327.307 61.6634L330.417 53.726Z" fill="#DE0905"/>
<g filter="url(#filter12_d_4_641)">
<path d="M1408.19 192.59C1411.85 190.243 1416.02 186.64 1419.34 183.687C1422.05 181.286 1424.47 178.899 1425.89 175.688C1428.33 170.321 1428.34 163.691 1427.51 157.911C1426.52 146.737 1414.71 140.176 1403.9 135.678C1396.22 132.367 1386.81 129.312 1379.88 125.766C1373.64 122.512 1369.41 118.821 1372.37 113.272C1376.7 106.174 1385.44 101.176 1394.42 100.727C1403.55 100.035 1408.53 104.975 1410.7 112.636C1411.66 115.535 1412.2 118.998 1413.11 121.804C1413.92 124.964 1417.47 125.562 1419.35 123.009C1420.17 121.81 1420.43 120.17 1420.52 117.987C1420.63 114.339 1420.28 110.268 1420.29 106.754C1420.36 101.612 1420.45 96.6965 1419.68 91.5942C1419.01 87.7193 1418.65 82.9807 1416.79 79.1346C1415.78 77.2787 1413.61 76.508 1412.58 78.5745C1411.4 80.9425 1411.86 84.3381 1410.14 86.6731C1408.02 89.9909 1403.51 92.1325 1399.26 90.9586C1394.09 89.874 1388.89 87.969 1383.53 88.6461C1364.72 91.0783 1338.83 101.029 1338.02 120.31C1333.91 150.545 1364.12 152.668 1384.67 163.431C1390.1 166.479 1391.99 171.175 1391.2 176.949C1389.29 189.971 1368.12 193.758 1357.39 186.005C1353.2 182.712 1351.93 177.262 1349.62 172.816C1348.63 170.7 1347.81 168.473 1346.17 167.008C1344.56 165.371 1341.07 164.62 1339.38 165.707C1337.4 166.846 1338.37 170.987 1338.76 174.025C1339.52 178.71 1340.17 183.273 1340.51 187.977C1340.99 191.727 1340.61 196.061 1343.41 198.815C1345.68 200.897 1349.37 201.487 1352.66 201.572C1356.78 201.75 1361.39 202.123 1365.54 201.534C1373.27 200.568 1381.01 199.573 1388.76 198.593C1395.38 197.852 1402.81 196.079 1408.12 192.636L1408.19 192.59ZM1368.67 136.666C1367.91 137.166 1366.86 136.953 1365.97 136.82C1364.17 136.493 1361.66 135.883 1360.62 135.989C1357.81 136.366 1366.16 139.959 1364.24 142.93C1362.42 146.284 1351.96 147.679 1350.58 143.867C1349.84 141.919 1351.36 139.818 1352.24 138.156C1352.76 137.123 1352.72 136.484 1351.76 135.788C1350.42 134.855 1348.61 134.124 1347.49 132.879C1345.58 131.088 1345.36 128.171 1346.56 126.55C1348.93 123.367 1352.49 127.744 1354.91 128.384C1356.11 128.723 1357.13 128.358 1358.1 127.516C1364.36 120.675 1369.1 127.726 1369.37 134.023C1369.38 134.933 1369.44 135.998 1368.71 136.631L1368.67 136.661L1368.67 136.666ZM1391.68 155.564C1392.73 154.554 1394.67 154.89 1396.1 154.982C1397.07 154.995 1398.03 155.19 1398.7 154.632C1399.39 152.854 1391.05 148.932 1397.64 146.107C1400.48 145.017 1404.57 144.758 1407.53 146.021C1410.26 147.237 1410.37 149.87 1408.23 152.151C1407.61 152.984 1406.12 153.901 1406.19 154.868C1406.28 155.147 1406.69 155.329 1407.4 155.493C1408.21 155.685 1409.39 155.868 1410.44 156.195C1411.89 156.644 1413.27 157.297 1414.31 158.302C1416.56 160.448 1415.35 163.485 1412.91 164.545C1410.19 165.555 1407.49 163.012 1405.39 161.744C1403.92 160.798 1402.76 160.575 1401.84 161.908C1400.13 164.272 1397.13 168.878 1394.39 166.699C1392.27 165.2 1389.71 157.681 1391.63 155.619L1391.68 155.564Z" fill="#A96B35"/>
<path d="M1349.11 125.426C1352.16 125.921 1354.69 130.24 1357.82 127.742C1358.87 126.933 1359.96 125.623 1361.28 125.082C1362.45 124.542 1363.83 124.565 1364.98 125.161C1367.84 126.587 1369.24 130.891 1369.38 133.936C1369.4 134.806 1369.43 135.818 1368.85 136.483C1367.45 137.719 1363.83 136.174 1362.04 136.082C1357.36 135.404 1362.3 138.354 1363.31 139.61C1363.89 140.237 1364.34 140.856 1364.47 141.621C1365.25 146.851 1344.18 149.752 1352.24 138.162C1352.59 137.45 1352.7 136.918 1352.41 136.445C1351.99 135.698 1350.3 134.951 1349.36 134.353C1347.65 133.341 1346.3 131.794 1345.95 130.254C1345.39 128.192 1346.55 125.023 1349.03 125.417L1349.11 125.426Z" fill="#FFFFFE"/>
<path d="M1401.53 145.246C1406.42 144.698 1412.68 146.969 1408.24 152.157C1407.56 152.975 1406.55 153.665 1406.18 154.589C1406.09 155.067 1406.47 155.254 1407.25 155.461C1408.71 155.778 1411.09 156.212 1412.56 157.06C1416.32 158.825 1416.49 162.852 1412.92 164.546C1410.19 165.556 1407.49 163.012 1405.39 161.744C1404.14 161.031 1403.31 160.569 1402.34 161.367C1400.48 163.473 1397.81 168.384 1394.94 167.032C1392.2 165.309 1391.6 161.807 1391.01 158.846C1390.52 155.17 1392.57 154.532 1396.1 154.982C1397.67 155.101 1398.69 154.962 1398.78 154.464C1399.03 153.346 1394.32 150.428 1395.22 148.136C1396.23 146.026 1399.05 145.561 1401.42 145.253L1401.53 145.241L1401.53 145.246Z" fill="#FFFFFE"/>
</g>
<path d="M1370.42 141.613L1377.46 142.625L1382.89 138.409L1381.76 144.832L1386.37 149.781L1379.34 148.769L1373.91 152.985L1375.03 146.562L1370.42 141.613Z" fill="#DE0905"/>
</g>
<defs>
<filter id="filter0_ddd_4_641" x="-5.59797" y="-17.3208" width="1447.41" height="233.474" filterUnits="userSpaceOnUse" color-interpolation-filters="sRGB">
<feFlood flood-opacity="0" result="BackgroundImageFix"/>
<feColorMatrix in="SourceAlpha" type="matrix" values="0 0 0 0 0 0 0 0 0 0 0 0 0 0 0 0 0 0 127 0" result="hardAlpha"/>
<feOffset dy="4"/>
<feGaussianBlur stdDeviation="5.15"/>
<feComposite in2="hardAlpha" operator="out"/>
<feColorMatrix type="matrix" values="0 0 0 0 0 0 0 0 0 0 0 0 0 0 0 0 0 0 0.8 0"/>
<feBlend mode="normal" in2="BackgroundImageFix" result="effect1_dropShadow_4_641"/>
<feColorMatrix in="SourceAlpha" type="matrix" values="0 0 0 0 0 0 0 0 0 0 0 0 0 0 0 0 0 0 127 0" result="hardAlpha"/>
<feOffset dx="6" dy="6"/>
<feGaussianBlur stdDeviation="0.65"/>
<feComposite in2="hardAlpha" operator="out"/>
<feColorMatrix type="matrix" values="0 0 0 0 0 0 0 0 0 0 0 0 0 0 0 0 0 0 1 0"/>
<feBlend mode="normal" in2="effect1_dropShadow_4_641" result="effect2_dropShadow_4_641"/>
<feColorMatrix in="SourceAlpha" type="matrix" values="0 0 0 0 0 0 0 0 0 0 0 0 0 0 0 0 0 0 127 0" result="hardAlpha"/>
<feOffset dy="-5"/>
<feGaussianBlur stdDeviation="6.9"/>
<feComposite in2="hardAlpha" operator="out"/>
<feColorMatrix type="matrix" values="0 0 0 0 0 0 0 0 0 0 0 0 0 0 0 0 0 0 0.62 0"/>
<feBlend mode="normal" in2="effect2_dropShadow_4_641" result="effect3_dropShadow_4_641"/>
<feBlend mode="normal" in="SourceGraphic" in2="effect3_dropShadow_4_641" result="shape"/>
</filter>
<filter id="filter1_d_4_641" x="1078.24" y="31.2795" width="106.628" height="129.217" filterUnits="userSpaceOnUse" color-interpolation-filters="sRGB">
<feFlood flood-opacity="0" result="BackgroundImageFix"/>
<feColorMatrix in="SourceAlpha" type="matrix" values="0 0 0 0 0 0 0 0 0 0 0 0 0 0 0 0 0 0 127 0" result="hardAlpha"/>
<feOffset dy="7"/>
<feComposite in2="hardAlpha" operator="out"/>
<feColorMatrix type="matrix" values="0 0 0 0 0 0 0 0 0 0 0 0 0 0 0 0 0 0 0.8 0"/>
<feBlend mode="normal" in2="BackgroundImageFix" result="effect1_dropShadow_4_641"/>
<feBlend mode="normal" in="SourceGraphic" in2="effect1_dropShadow_4_641" result="shape"/>
</filter>
<filter id="filter2_d_4_641" x="835.663" y="14.2286" width="115.757" height="128.256" filterUnits="userSpaceOnUse" color-interpolation-filters="sRGB">
<feFlood flood-opacity="0" result="BackgroundImageFix"/>
<feColorMatrix in="SourceAlpha" type="matrix" values="0 0 0 0 0 0 0 0 0 0 0 0 0 0 0 0 0 0 127 0" result="hardAlpha"/>
<feOffset dy="7"/>
<feComposite in2="hardAlpha" operator="out"/>
<feColorMatrix type="matrix" values="0 0 0 0 0 0 0 0 0 0 0 0 0 0 0 0 0 0 0.8 0"/>
<feBlend mode="normal" in2="BackgroundImageFix" result="effect1_dropShadow_4_641"/>
<feBlend mode="normal" in="SourceGraphic" in2="effect1_dropShadow_4_641" result="shape"/>
</filter>
<filter id="filter3_d_4_641" x="1183.78" y="27.3156" width="146.546" height="154.771" filterUnits="userSpaceOnUse" color-interpolation-filters="sRGB">
<feFlood flood-opacity="0" result="BackgroundImageFix"/>
<feColorMatrix in="SourceAlpha" type="matrix" values="0 0 0 0 0 0 0 0 0 0 0 0 0 0 0 0 0 0 127 0" result="hardAlpha"/>
<feOffset dy="7"/>
<feComposite in2="hardAlpha" operator="out"/>
<feColorMatrix type="matrix" values="0 0 0 0 0 0 0 0 0 0 0 0 0 0 0 0 0 0 0.8 0"/>
<feBlend mode="normal" in2="BackgroundImageFix" result="effect1_dropShadow_4_641"/>
<feBlend mode="normal" in="SourceGraphic" in2="effect1_dropShadow_4_641" result="shape"/>
</filter>
<filter id="filter4_d_4_641" x="955.159" y="35.4492" width="111.547" height="132.958" filterUnits="userSpaceOnUse" color-interpolation-filters="sRGB">
<feFlood flood-opacity="0" result="BackgroundImageFix"/>
<feColorMatrix in="SourceAlpha" type="matrix" values="0 0 0 0 0 0 0 0 0 0 0 0 0 0 0 0 0 0 127 0" result="hardAlpha"/>
<feOffset dy="7"/>
<feComposite in2="hardAlpha" operator="out"/>
<feColorMatrix type="matrix" values="0 0 0 0 0 0 0 0 0 0 0 0 0 0 0 0 0 0 0.8 0"/>
<feBlend mode="normal" in2="BackgroundImageFix" result="effect1_dropShadow_4_641"/>
<feBlend mode="normal" in="SourceGraphic" in2="effect1_dropShadow_4_641" result="shape"/>
</filter>
<filter id="filter5_d_4_641" x="701.324" y="38.2435" width="154.521" height="133.302" filterUnits="userSpaceOnUse" color-interpolation-filters="sRGB">
<feFlood flood-opacity="0" result="BackgroundImageFix"/>
<feColorMatrix in="SourceAlpha" type="matrix" values="0 0 0 0 0 0 0 0 0 0 0 0 0 0 0 0 0 0 127 0" result="hardAlpha"/>
<feOffset dy="7"/>
<feComposite in2="hardAlpha" operator="out"/>
<feColorMatrix type="matrix" values="0 0 0 0 0 0 0 0 0 0 0 0 0 0 0 0 0 0 0.8 0"/>
<feBlend mode="normal" in2="BackgroundImageFix" result="effect1_dropShadow_4_641"/>
<feBlend mode="normal" in="SourceGraphic" in2="effect1_dropShadow_4_641" result="shape"/>
</filter>
<filter id="filter6_d_4_641" x="360.726" y="22.5811" width="147.128" height="140.25" filterUnits="userSpaceOnUse" color-interpolation-filters="sRGB">
<feFlood flood-opacity="0" result="BackgroundImageFix"/>
<feColorMatrix in="SourceAlpha" type="matrix" values="0 0 0 0 0 0 0 0 0 0 0 0 0 0 0 0 0 0 127 0" result="hardAlpha"/>
<feOffset dy="7"/>
<feComposite in2="hardAlpha" operator="out"/>
<feColorMatrix type="matrix" values="0 0 0 0 0 0 0 0 0 0 0 0 0 0 0 0 0 0 0.8 0"/>
<feBlend mode="normal" in2="BackgroundImageFix" result="effect1_dropShadow_4_641"/>
<feBlend mode="normal" in="SourceGraphic" in2="effect1_dropShadow_4_641" result="shape"/>
</filter>
<filter id="filter7_d_4_641" x="568.588" y="20.2351" width="130.333" height="162.255" filterUnits="userSpaceOnUse" color-interpolation-filters="sRGB">
<feFlood flood-opacity="0" result="BackgroundImageFix"/>
<feColorMatrix in="SourceAlpha" type="matrix" values="0 0 0 0 0 0 0 0 0 0 0 0 0 0 0 0 0 0 127 0" result="hardAlpha"/>
<feOffset dy="7"/>
<feComposite in2="hardAlpha" operator="out"/>
<feColorMatrix type="matrix" values="0 0 0 0 0 0 0 0 0 0 0 0 0 0 0 0 0 0 0.8 0"/>
<feBlend mode="normal" in2="BackgroundImageFix" result="effect1_dropShadow_4_641"/>
<feBlend mode="normal" in="SourceGraphic" in2="effect1_dropShadow_4_641" result="shape"/>
</filter>
<filter id="filter8_d_4_641" x="8.20203" y="51.1771" width="86.6863" height="134.13" filterUnits="userSpaceOnUse" color-interpolation-filters="sRGB">
<feFlood flood-opacity="0" result="BackgroundImageFix"/>
<feColorMatrix in="SourceAlpha" type="matrix" values="0 0 0 0 0 0 0 0 0 0 0 0 0 0 0 0 0 0 127 0" result="hardAlpha"/>
<feOffset dy="7"/>
<feComposite in2="hardAlpha" operator="out"/>
<feColorMatrix type="matrix" values="0 0 0 0 0 0 0 0 0 0 0 0 0 0 0 0 0 0 0.8 0"/>
<feBlend mode="normal" in2="BackgroundImageFix" result="effect1_dropShadow_4_641"/>
<feBlend mode="normal" in="SourceGraphic" in2="effect1_dropShadow_4_641" result="shape"/>
</filter>
<filter id="filter9_d_4_641" x="109.741" y="17.9478" width="130.486" height="133.132" filterUnits="userSpaceOnUse" color-interpolation-filters="sRGB">
<feFlood flood-opacity="0" result="BackgroundImageFix"/>
<feColorMatrix in="SourceAlpha" type="matrix" values="0 0 0 0 0 0 0 0 0 0 0 0 0 0 0 0 0 0 127 0" result="hardAlpha"/>
<feOffset dy="7"/>
<feComposite in2="hardAlpha" operator="out"/>
<feColorMatrix type="matrix" values="0 0 0 0 0 0 0 0 0 0 0 0 0 0 0 0 0 0 0.8 0"/>
<feBlend mode="normal" in2="BackgroundImageFix" result="effect1_dropShadow_4_641"/>
<feBlend mode="normal" in="SourceGraphic" in2="effect1_dropShadow_4_641" result="shape"/>
</filter>
<filter id="filter10_d_4_641" x="213.932" y="10.4824" width="65.8529" height="118.771" filterUnits="userSpaceOnUse" color-interpolation-filters="sRGB">
<feFlood flood-opacity="0" result="BackgroundImageFix"/>
<feColorMatrix in="SourceAlpha" type="matrix" values="0 0 0 0 0 0 0 0 0 0 0 0 0 0 0 0 0 0 127 0" result="hardAlpha"/>
<feOffset dy="7"/>
<feComposite in2="hardAlpha" operator="out"/>
<feColorMatrix type="matrix" values="0 0 0 0 0 0 0 0 0 0 0 0 0 0 0 0 0 0 0.8 0"/>
<feBlend mode="normal" in2="BackgroundImageFix" result="effect1_dropShadow_4_641"/>
<feBlend mode="normal" in="SourceGraphic" in2="effect1_dropShadow_4_641" result="shape"/>
</filter>
<filter id="filter11_d_4_641" x="300.261" y="1.47925" width="95.0132" height="134.645" filterUnits="userSpaceOnUse" color-interpolation-filters="sRGB">
<feFlood flood-opacity="0" result="BackgroundImageFix"/>
<feColorMatrix in="SourceAlpha" type="matrix" values="0 0 0 0 0 0 0 0 0 0 0 0 0 0 0 0 0 0 127 0" result="hardAlpha"/>
<feOffset dy="7"/>
<feComposite in2="hardAlpha" operator="out"/>
<feColorMatrix type="matrix" values="0 0 0 0 0 0 0 0 0 0 0 0 0 0 0 0 0 0 0.8 0"/>
<feBlend mode="normal" in2="BackgroundImageFix" result="effect1_dropShadow_4_641"/>
<feBlend mode="normal" in="SourceGraphic" in2="effect1_dropShadow_4_641" result="shape"/>
</filter>
<filter id="filter12_d_4_641" x="1337.64" y="77.3423" width="90.3693" height="131.511" filterUnits="userSpaceOnUse" color-interpolation-filters="sRGB">
<feFlood flood-opacity="0" result="BackgroundImageFix"/>
<feColorMatrix in="SourceAlpha" type="matrix" values="0 0 0 0 0 0 0 0 0 0 0 0 0 0 0 0 0 0 127 0" result="hardAlpha"/>
<feOffset dy="7"/>
<feComposite in2="hardAlpha" operator="out"/>
<feColorMatrix type="matrix" values="0 0 0 0 0 0 0 0 0 0 0 0 0 0 0 0 0 0 0.8 0"/>
<feBlend mode="normal" in2="BackgroundImageFix" result="effect1_dropShadow_4_641"/>
<feBlend mode="normal" in="SourceGraphic" in2="effect1_dropShadow_4_641" result="shape"/>
</filter>
</defs>
</svg>
