<svg width="1448" height="236" viewBox="0 0 1448 236" fill="none" xmlns="http://www.w3.org/2000/svg">
<g filter="url(#filter0_ddd_26_268)">
<g filter="url(#filter1_d_26_268)">
<path d="M1190.5 137.321C1190.01 133.952 1188.97 130.596 1187.76 127.388C1183.83 116.737 1177.21 109.274 1175.37 120.975C1175.02 123.29 1174.92 125.911 1174.95 128.33C1175.14 133.02 1175.71 137.922 1171.96 141.568C1158.21 154.401 1127.68 138.078 1131.31 121.681C1132.32 116.608 1136.87 113.278 1142.15 111.595C1145.88 110.238 1149.38 109.725 1152.41 107.737C1155.98 105.314 1154.93 100.542 1150.51 99.5193C1147.7 98.8199 1144.37 99.2169 1141.37 99.2521C1131.68 99.8919 1130.62 94.3712 1130.18 86.5759C1129.85 79.452 1129.49 70.8041 1137.23 67.0356C1149 61.9668 1165.46 63.4826 1172.35 73.1986C1173.43 74.6397 1174.57 76.2971 1175.92 77.4367C1178.11 79.4019 1181.01 79.6228 1183.07 77.8195C1188.91 72.6466 1182.78 54.8609 1173.36 50.0079C1170.36 48.5892 1167.61 49.1422 1163.86 49.4519C1147.05 51.5041 1077.04 51.8742 1084.8 67.6446C1088.07 72.1899 1091.9 73.8972 1092.51 80.2096C1093.14 84.8781 1092.67 88.7133 1091.9 92.8613C1090.55 105.581 1096.06 140.613 1095.97 153.693C1095.78 155.458 1095.14 157.163 1094.1 158.694C1093.92 158.973 1093.71 159.252 1093.49 159.521C1091.45 162.843 1082.04 165.958 1084.86 169.245C1095.14 175.384 1112.11 166.078 1130.01 163.226C1134.99 162.3 1140.04 161.579 1144.87 160.741C1160.97 157.933 1194.41 160.796 1190.52 137.456L1190.5 137.326L1190.5 137.321ZM1105.42 81.9514C1107.46 80.1374 1108.2 77.0803 1110.11 75.0996C1111.58 73.4171 1114.16 73.0885 1115.25 75.3377C1116.14 77.0578 1115.9 79.5341 1116.18 81.131C1116.39 83.8409 1119.82 83.5782 1121.89 84.4708C1125.6 85.6966 1125.11 88.9028 1122.88 91.473C1120.16 94.7271 1115.82 98.1954 1112.77 93.5117C1111.33 91.2667 1110.69 93.0208 1109.84 94.5279C1109.22 95.7774 1107.96 97.0181 1106.35 96.4403C1103.8 95.5914 1100.56 91.9896 1099.57 89.213C1098.12 85.4599 1103.11 84.2025 1105.35 82.0228L1105.42 81.9514ZM1116.84 134.3C1116.93 136.837 1118.86 141.898 1116.61 143.936C1114.85 145.411 1112.65 144.438 1110.88 142.078C1109.71 140.464 1108.98 138.449 1107.93 136.851C1105.45 132.225 1098.01 132.855 1102.73 126.887C1104.18 125.167 1107.48 120.832 1109.44 121.558C1110.81 122.578 1110.44 125.007 1110.99 126.362C1111.56 127.917 1112.5 126.61 1113.13 125.664C1114.9 122.714 1117.09 120.432 1120.55 123.028C1122.72 124.787 1126.79 128.78 1125.57 131.561C1124.77 133.095 1121.61 133.089 1119.33 133.083C1118.34 133.116 1116.93 133.084 1116.83 134.235L1116.84 134.289L1116.84 134.3Z" fill="#A96B35"/>
</g>
<path d="M1109.31 75.3417C1120.47 70.4212 1114.63 82.7 1115 83.3031C1115.67 84.3693 1137.04 82.817 1114.36 97.1753C1110.14 81.9009 1111.18 96.8167 1107.97 97.2503C1105.01 94.6107 1102.04 91.9658 1099.08 89.3263C1097.93 82.4345 1105.77 85.0006 1107 83.3968C1107.77 80.7136 1108.54 78.0249 1109.31 75.3417Z" fill="#FFFFFE"/>
<path d="M1112.15 99.2886L1114.95 105.987L1122.35 108.39L1115.01 110.967L1112.36 117.729L1109.55 111.031L1102.15 108.627L1109.5 106.05L1112.15 99.2886Z" fill="#DE0905"/>
<path d="M1109.84 120.582C1112.45 122.043 1108.14 138.572 1116.23 120.507C1138.16 137.776 1115.88 131.723 1115.58 132.92C1115.41 133.595 1122.02 142.907 1114.9 143.874C1108.66 144.723 1109.42 134.332 1108.39 133.736C1105.45 133.039 1102.51 132.346 1099.57 131.648C1102.99 127.958 1106.41 124.272 1109.83 120.582L1109.84 120.582Z" fill="#FFFFFE"/>
<g filter="url(#filter2_d_26_268)">
<path d="M948.891 49.7214C950.339 45.4616 953.902 42.0904 956.356 38.302C957.354 36.9468 958.084 34.8522 956.266 33.8894C953.519 32.5544 949.953 31.7948 946.806 32.0969C943.911 32.4608 940.84 34.3117 937.991 35.7653C935.181 37.2714 932.474 38.7764 929.894 40.6098C926.838 42.6845 923.335 46.1787 927.243 49.1147C929.186 50.7066 931.762 51.8903 932.815 54.0701C934.023 56.3777 933.985 59.2185 934.08 61.7572C934.375 71.5004 934.811 81.2008 935.009 90.951C935.182 93.5418 934.181 97.9908 930.514 96.3308C928.092 95.1158 926.847 92.4904 925.288 90.5051C922.817 87.3873 920.398 84.2453 918.024 81.0616C914.53 76.6063 910.537 72.4751 906.922 68.0978C904.055 64.7372 901.803 60.9804 898.667 57.8291C896.668 55.796 894.47 53.936 892.318 52.0402C884.471 45.2022 879.776 36.8187 867.128 37.9274C860.11 38.4457 856.184 44.4081 851.701 48.6151C849.465 51.1575 846.243 53.3108 844.975 56.4135C844.542 58.6048 848.018 58.2753 849.572 58.6755C852.69 59.1987 854.983 60.9279 856.148 63.3657C861.282 75.6215 862.073 102.354 859.357 114.071C858.253 119.635 851.474 120.74 846.905 123.663C843.472 125.442 839.81 129.669 842.625 133.047C844.027 134.769 847.975 134.523 850.656 134.603C857.626 134.392 880.239 133.119 882.414 129.741C885.652 125.048 879.927 120.825 875.225 119.513C872.391 118.444 868.481 118.13 868.475 114.872C868.412 112.78 867.592 87.9755 872.8 87.7672C874.062 88.0588 875.189 89.4952 876.112 90.5746C895.595 114.112 916.729 167.837 948.156 149.566C949.48 148.443 950.094 146.915 950.094 145.206C945.618 113.703 946.474 81.5002 948.873 49.8336L948.904 49.7271L948.891 49.7214ZM898.75 77.5632C896.759 80.144 894.053 77.2528 891.966 77.6662C890.136 78.5657 891.011 81.5549 889.124 82.5434C886.737 83.7735 880.442 81.5785 879.158 78.8888C877.698 75.9949 881.533 73.8049 881.513 71.0355C881.491 69.156 879.328 66.948 879.173 64.7105C878.691 61.5753 882.603 59.3609 885.471 61.1364C887.902 62.4986 889.016 65.6146 891.857 66.1942C894.232 66.6614 897.164 66.2204 898.872 68.1627C901.084 70.6943 900.467 74.7734 898.813 77.474L898.75 77.5573L898.75 77.5632ZM915.27 115.502C912.477 115.163 908.844 116.962 906.833 114.44C904.924 111.905 905.6 106.21 908.83 105.265C910.398 104.687 912.997 105.028 913.193 102.992C913.277 102.431 913.217 101.713 913.229 101.1C913.064 98.0261 916.115 98.344 918.326 99.149C923.337 100.864 928.822 103.999 925.55 107.898C922.761 111.213 923.535 112.824 925.627 116.17C927.056 118.54 928.191 121.774 924.91 120.569C921.669 119.428 918.669 116.305 915.38 115.524L915.27 115.508L915.27 115.502Z" fill="#A96B35"/>
</g>
<path d="M881.937 60.9826C887.397 59.1685 887.777 65.7108 890.694 67.2205C891.544 67.6584 903.917 62.3927 898.631 77.4338C896.12 84.5816 888.378 66.8646 890.879 83.0756C869.069 79.5775 882.749 73.4597 882.923 71.2774C882.968 70.6758 874.465 63.4626 881.931 60.9827L881.937 60.9826Z" fill="#FFFFFE"/>
<path d="M896.513 81.8007L903.041 86.8147L911.472 85.5467L905.965 91.5164L907.336 99.2085L900.807 94.1946L892.377 95.4626L897.884 89.4929L896.513 81.8007Z" fill="#DE0905"/>
<path d="M913.646 98.6628C914.673 98.1793 936.797 104.249 921.602 110.461C936.915 130.853 916.71 114.967 915.568 114.497C914.595 114.096 901.681 122.197 907.63 104.284C921.452 108.636 909.12 100.802 913.646 98.6628Z" fill="#FFFFFE"/>
<g filter="url(#filter3_d_26_268)">
<path d="M1333.24 165.833C1330.64 165.053 1326.82 165.226 1323.88 164.203C1317.97 162.205 1315.68 156.079 1314.77 150.833C1313.81 145.175 1313.86 139.553 1314.06 133.838C1314.74 124.794 1314.7 114.77 1306.33 108.796C1304.26 107.333 1301.71 106.214 1298.58 105.531C1295.43 104.795 1292.14 104.618 1289.32 103.787C1287.41 103.246 1288.33 102.199 1289.41 101.526C1296.35 97.5141 1309.84 92.5884 1314.76 84.7025C1317.93 80.1392 1318.97 74.5378 1318.39 69.2508C1315.62 44.639 1284.96 41.2561 1263.1 48.449C1247.11 52.4378 1220.69 54.5996 1209.62 56.0449C1207.62 56.3152 1205.45 56.6198 1203.83 57.7018C1199.4 61.4209 1207.37 66.2939 1208.34 69.9497C1208.92 86.1467 1209.82 133.416 1209.12 148.99C1207.44 153.723 1202.33 158.428 1197.79 161.428C1194.66 163.516 1191.41 164.789 1189.93 166.095C1189.72 166.307 1189.64 166.501 1189.91 166.664C1190.26 166.864 1191.23 166.923 1192.61 166.896C1195.53 166.819 1198.68 166.545 1201.65 166.371C1219.58 165.227 1237.79 164.503 1255.69 164.213C1257.06 164.197 1258.78 164.161 1259.97 164.088C1261.3 164.008 1262.12 163.875 1262.23 163.573C1262.34 163.297 1261.86 162.868 1260.91 162.197C1260.21 161.701 1259.26 161.068 1258.22 160.317C1255.17 158.12 1252.38 155.226 1250.65 152.041C1249.18 149.272 1249.05 147.281 1248.95 144.05C1248.88 140.722 1248.86 137.641 1248.82 134.168C1248.79 131.312 1248.75 128.386 1248.72 125.541C1248.84 120.122 1248.04 116.958 1250.48 114.696C1251.95 113.642 1253.93 113.367 1255.82 113.125C1260.7 112.493 1266.21 114.018 1269.03 117.866C1278.57 131.183 1274.84 142.883 1273.95 157.572C1273.66 163.304 1274.17 169.076 1274.12 174.8C1273.49 189.652 1287.19 194.27 1301.5 192.546C1309.95 191.212 1316.39 187.711 1323.3 183.233C1327.18 180.594 1331.2 177.648 1334.12 174.107C1336.81 170.768 1337.47 167.088 1333.34 165.859L1333.25 165.833L1333.24 165.833ZM1218.84 82.7715C1220.25 82.0194 1222.04 81.8481 1223.32 80.9257C1225.64 78.955 1224.95 75.4569 1227.03 72.9306C1227.97 71.6364 1229.78 70.638 1231.42 71.3383C1234.53 72.5904 1234.16 77.2282 1234.62 79.3007C1235.15 81.3079 1237.85 81.2548 1239.56 82.1314C1245.3 84.3836 1240.92 90.7812 1237.28 92.8212C1234.32 94.6491 1232.5 92.4905 1230.73 90.5677C1230.34 90.2178 1230.02 90.0713 1229.71 90.1877C1229.45 90.2821 1229.18 90.5589 1228.9 90.9488C1228.03 92.1885 1226.82 94.3504 1224.81 94.433C1220.29 94.6578 1213.32 85.7355 1218.76 82.81L1218.84 82.7715ZM1235.66 135.949C1235.17 137.339 1235.85 139.619 1235.28 141.607C1234.87 143.824 1232.55 145.558 1230.23 143.899C1227.46 142.053 1227.12 138.153 1225.6 135.594C1224.35 133.584 1221.61 134.25 1219.53 133.297C1217.24 132.261 1217.54 129.75 1218.48 127.838C1219.79 125.085 1222.68 121.26 1226.07 122.525C1227.26 122.957 1228.28 123.928 1229.09 124.745C1230.1 125.818 1230.92 126.474 1231.72 124.832C1232.56 122.97 1233.7 119.896 1236.61 120.861C1240.69 121.962 1246.2 128.652 1241.83 132.381C1240.56 133.55 1238.74 134.146 1237.45 134.617C1236.55 134.95 1235.94 135.296 1235.68 135.895L1235.66 135.943L1235.66 135.949ZM1253.63 78.2297C1256.2 76.4009 1259.38 76.6213 1262.89 76.6661C1265.03 76.7054 1267.19 76.7392 1269.33 76.7839C1273.02 76.9233 1275.99 77.0817 1277.53 79.0718C1281.69 88.7303 1255.48 107.894 1250.97 96.2526C1249 91.9375 1249.32 81.3781 1253.56 78.2842L1253.63 78.2296L1253.63 78.2297ZM1287.35 128.417C1288.89 126.788 1289.84 124.393 1291.48 122.688C1293.35 120.615 1295.87 120.918 1296.97 123.391C1298.06 125.462 1297.49 127.627 1298.72 129.384C1299.89 130.74 1302.02 130.972 1303.42 132.121C1305.5 133.756 1305.53 135.957 1304.11 138.427C1302.86 140.509 1300.52 143.027 1297.66 142.476C1296.6 142.268 1295.64 141.678 1294.85 141.204C1294.04 140.719 1293.41 140.389 1292.78 140.707C1291.45 141.459 1290.53 143.542 1288.74 143.718C1285.55 143.793 1281.79 139.242 1281.21 136.553C1280.27 132.843 1284.97 131.011 1287.28 128.487L1287.35 128.411L1287.35 128.417ZM1300.08 183.172C1298.44 185.124 1298.69 188.584 1297.25 190.341C1296.16 191.781 1294.04 191.264 1293 190.047C1290.88 187.779 1289.96 183.575 1286.94 181.93C1285.25 180.833 1282.92 180.06 1282.53 177.971C1281.87 175.133 1285.14 169.054 1289.3 169.467C1290.67 169.757 1291.66 171.002 1292.61 171.818C1293.12 172.263 1293.59 172.531 1294.08 172.461C1294.55 172.402 1295.07 172.058 1295.67 171.573C1297.33 170.114 1299.63 168.299 1301.96 169.775C1304.48 171.271 1307.18 175.196 1305.86 178.181C1304.75 180.449 1301.6 181.135 1300.13 183.107L1300.08 183.172Z" fill="#A96B35"/>
</g>
<path d="M1230.44 71.2942C1238.08 71.6609 1232.72 81.3719 1232.94 82.0994C1233.12 82.6772 1243.33 78.155 1242.49 86.3203C1239.62 89.0008 1236.75 91.6868 1233.88 94.3673C1230.92 94.5361 1229.63 78.4337 1228.33 93.7075C1225.31 98.1078 1211.26 84.7159 1219.48 81.5323C1221.6 81.9907 1223.72 82.4438 1225.83 82.9022C1226.58 82.7109 1222.48 70.9043 1230.44 71.2888L1230.44 71.2942Z" fill="#FFFFFE"/>
<path d="M1226.27 120.462C1234.71 138.344 1229.54 120.982 1234.18 120.369C1237.1 122.504 1240.03 124.633 1242.96 126.768C1246.33 136.989 1233.74 133.373 1233.55 134.1C1233.4 134.622 1239.61 141.126 1234.45 143.479C1225.8 147.425 1227.65 134.083 1226.42 133.464C1225.31 132.902 1207.82 137.51 1226.27 120.462Z" fill="#FFFFFE"/>
<path d="M1291.19 122.588C1301.48 118.929 1296.47 129.881 1296.83 130.468C1297.41 131.427 1315.25 130.756 1296.19 144.198C1292.61 129.196 1291.81 143.895 1289.86 144.272C1286.93 141.66 1284 139.042 1281.07 136.429C1280.18 129.417 1287.63 132.234 1288.91 130.56C1289.67 127.905 1290.43 125.243 1291.19 122.588Z" fill="#FFFFFE"/>
<path d="M1230.73 98.3534L1233.51 104.983L1240.84 107.362L1233.57 109.913L1230.95 116.605L1228.17 109.976L1220.84 107.597L1228.11 105.046L1230.73 98.3534Z" fill="#DE0905"/>
<path d="M1294.24 147.004L1297.02 153.634L1304.35 156.013L1297.08 158.564L1294.46 165.256L1291.68 158.627L1284.35 156.247L1291.62 153.697L1294.24 147.004Z" fill="#DE0905"/>
<path d="M1290.15 168.83C1294.79 168.642 1291.09 174.849 1293.4 176.014C1294.96 173.59 1296.51 171.161 1298.06 168.738C1302.27 167.996 1314.63 183.265 1297.41 181.024C1303.2 193.638 1288.79 194.419 1290.28 180.383C1276.4 185.48 1284.18 169.067 1290.15 168.825L1290.15 168.83Z" fill="#FFFFFE"/>
<g filter="url(#filter4_d_26_268)">
<path d="M1063.83 154.085C1064.68 151.707 1064.7 148.838 1064.96 146.193C1068.86 112.723 1094.21 120.59 1024.82 127.49C1022.01 127.761 1018.46 128.472 1016.83 130.144C1013.55 133.301 1017.17 137.67 1020.63 139.468C1023.13 141.074 1026.74 141.945 1028.1 144.245C1033.35 154.134 1020.23 165.682 1010.02 161.111C1004.85 158.914 1001.87 153.234 1000.95 148.311C1000.6 129.63 994.357 77.0874 1015.3 67.5199C1018.77 66.3911 1022.83 67.6586 1025.18 70.2379C1031.54 75.8312 1033.78 94.2105 1042.2 93.5591C1057.51 90.4992 1045.11 71.6978 1045.87 60.365C1046.32 55.4776 1044.21 53.9021 1038.43 53.4811C913.113 45.7263 955.543 237.461 1056.41 161.283C1059.15 159.115 1062.58 157.458 1063.78 154.191L1063.81 154.091L1063.83 154.085ZM978.369 91.2928C978.928 90.0875 978.203 88.5714 978.543 86.5773C978.769 84.0841 981.367 81.6388 984.192 82.2574C988.138 83.3342 986.23 88.0991 987.26 90.531C988.448 92.3559 991.798 92.113 993.076 94.0183C995.966 97.9472 990.452 105.664 986.324 104.246C985.063 103.865 984.081 102.765 983.255 101.913C982.907 101.557 982.643 101.356 982.414 101.388C981.672 101.699 981.251 103.287 980.473 103.849C978.119 105.913 974.558 103.406 972.428 101.173C969.976 98.7056 970.404 94.9532 973.778 93.4007C975.596 92.396 977.377 92.6079 978.331 91.3514L978.362 91.2987L978.369 91.2928ZM995.121 141.222C994.377 142.458 992.838 143.279 991.455 143.906C990.136 144.527 988.665 145.149 988.343 146.556C987.994 148.276 988.912 150.5 988.011 152.495C987.046 155.014 983.471 155.708 981.735 153.348C979.926 151.333 980.419 148.167 979.258 146.01C978.98 145.635 978.582 145.425 978.121 145.256C975.748 144.591 971.664 143.702 972.128 140.339C972.194 137.807 976.465 131.187 979.579 131.482C981.645 132.075 981.716 134.832 982.804 136.286C984.485 138.268 984.975 132.222 986.362 131.409C987.732 130.281 989.56 131.261 990.915 132.1C993.71 133.953 996.919 137.971 995.171 141.128L995.115 141.222L995.121 141.222Z" fill="#A96B35"/>
</g>
<path d="M980.199 83.3222C990.7 78.5731 985.845 91.2745 986.304 91.8627C988.309 92.101 990.313 92.3394 992.318 92.5777C998.238 97.2566 985.565 112.552 982.097 98.9587C983.058 110.812 971.413 101.132 970.94 98.3038C969.698 90.8585 978.414 93.631 979.439 91.9431C979.696 91.527 975.563 85.419 980.199 83.3222Z" fill="#FFFFFE"/>
<path d="M983.344 107.372L986.355 114.557L994.296 117.136L986.418 119.9L983.575 127.153L980.564 119.968L972.624 117.39L980.502 114.626L983.344 107.372Z" fill="#DE0905"/>
<path d="M980.75 130.288C984 146.996 984.71 132.575 985.912 131.792C988.595 130.05 997.509 136.713 995.465 141.858C992.622 142.933 989.772 144.014 986.929 145.088C986.679 145.522 992.035 151.61 986.169 153.709C978.767 156.362 980.459 145.653 980.064 145.169C979.074 143.941 962.429 145.544 980.75 130.288Z" fill="#FFFFFE"/>
<g filter="url(#filter5_d_26_268)">
<path d="M848.999 155.989C845.194 150.305 840.772 144.771 837.531 138.8C834.111 132.769 831.19 126.48 828.64 120.08C818.214 94.6047 814.514 60.4659 796.181 56.2647C791.741 55.624 787.105 56.5287 782.491 57.1976C777.099 58.2144 753.832 62.2412 753.784 68.1368C755.208 73.6593 762.597 72.4024 758.367 81.1621C747.819 101.585 735.364 132.045 722.033 148.987C720.583 150.781 718.674 152.529 716.621 153.841C714.404 155.331 711.809 156.35 709.645 157.887C706.116 160.263 706.635 163.869 710.594 165.556C715.175 167.527 720.468 166.762 725.369 166.579C728.673 166.406 752.376 165.841 749.151 160.44C748.559 159.658 747.633 159.078 746.762 158.506C744.044 156.807 741.012 154.952 739.673 152.44C734.011 136.998 767.169 132.911 779.783 133.611C783.7 133.613 787.679 134.84 789.803 138.092C792.459 142.066 793.727 146.66 795.567 150.929C799.467 159.426 803.51 163.406 794.74 171.194C790.711 174.814 785.517 180.279 794.248 181.848C800.547 182.811 806.968 182.175 813.269 181.667C824.901 180.709 836.352 178.284 847.632 175.781C853.162 174.432 867.455 173.137 859.398 165.624C855.719 162.383 851.661 159.982 849.09 156.095L849.019 155.996L848.999 155.989ZM781.736 121.099C775.645 124.271 759.971 123.884 756.954 116.714C754.888 111.386 758.534 104.825 761.935 100.326C766.403 94.4497 770.701 96.2224 774.829 101.275C778.22 105.27 787.717 116.931 781.824 121.033L781.73 121.093L781.736 121.099ZM794.654 105.475C793.057 106.067 791.277 105.344 789.848 104.626C786.534 102.931 783.471 99.6798 785.496 96.4281C786.643 94.6453 788.749 93.2588 789.181 91.1359C789.728 88.9479 788.529 86.1929 789.327 83.9078C790.069 81.2683 793.392 80.3987 795.578 82.2208C797.547 83.6554 798.378 86.4893 800.122 87.8239C802.292 89.562 806.137 88.7486 807.627 91.3188C809.345 94.4433 807.556 99.5419 804.146 100.593C802.255 101.286 799.809 100.45 798.168 101.678C796.916 102.612 796.318 104.83 794.747 105.441L794.647 105.481L794.654 105.475ZM822.129 143.383C821.817 145.499 823.944 147.958 824.026 150.162C824.483 153.522 821.189 155.212 818.197 153.41C814.499 151.198 813.663 147.014 808.894 146.237C806.268 145.725 803.656 144.613 803.031 141.98C802.173 138.544 803.361 133.398 807.146 131.942C808.82 131.354 810.691 131.588 812.404 131.175C813.717 130.89 814.957 130.283 816.253 129.927C819.347 129.021 822.792 130.639 825.112 132.551C826.744 133.893 828.127 136.023 826.91 137.918C825.804 139.83 822.576 141.12 822.141 143.288L822.121 143.389L822.129 143.383Z" fill="#A96B35"/>
</g>
<path d="M802.748 106.201L808.27 112.974L817.506 113.545L810.074 118.6L809.428 127.032L803.906 120.26L794.669 119.689L802.102 114.633L802.748 106.201Z" fill="#DE0905"/>
<path d="M791.891 81.7412C799.666 79.6131 797.577 89.8854 798.912 90.6701C799.874 91.2328 814.258 82.5728 803.854 102.944C790.021 91.1345 800.841 103.425 796.135 106.028C792.177 103.836 788.219 101.644 784.262 99.4521C783.131 92.3761 791.385 94.185 792.18 92.9361C792.535 92.3704 783.418 84.0545 791.884 81.7345L791.891 81.7412Z" fill="#FFFFFE"/>
<path d="M813.646 129.224C841.57 137.407 820.012 141.231 819.481 142.403C819.192 143.042 831.239 151.212 821.656 153.691C814.884 155.437 814.181 145.221 812.755 144.675C811.844 144.326 798.858 151.113 804.841 134.842C809.168 123.08 816.151 144.481 813.653 129.224L813.646 129.224Z" fill="#FFFFFE"/>
<g filter="url(#filter6_d_26_268)">
<path d="M417.491 169.966C417.985 167.923 418.522 165.873 419.586 164.006C421.969 159.837 426.569 157.031 427.601 152.385C428.209 150.078 428.201 147.468 428.202 145.04C428.028 125.159 427.736 105.299 427.518 85.4184C427.467 82.9234 427.414 80.2801 426.743 77.9004C425.013 70.2654 413.064 67.0803 416.158 58.0736C417.205 55.3702 419.326 54.1516 421.985 53.4122C438.582 49.0495 478.466 41.7094 502 40.4152C505.19 40.2294 508.633 40.8028 510.187 43.5364C511.431 45.5655 511.75 48.2192 511.984 50.5771C512.562 57.0047 513.095 63.3789 513.636 69.8273C513.752 72.173 514.784 80.7469 510.168 79.0879C508.027 77.9799 506.707 75.7224 505.473 73.7809C501.685 67.7011 498.678 59.5483 490.589 57.8422C477.718 56.0843 466.965 76.1408 465.34 85.6766C464.636 89.9003 463.868 95.6558 468.062 98.5136C472.06 101.063 478.04 98.6934 482.528 100.172C487.511 101.658 488.269 107.692 484.6 110.528C480.672 113.946 473.396 115.434 469.1 122.128C465.478 127.762 464.482 134.835 465.642 141.087C467.277 150.733 475.475 152.209 484.947 154.02C490.578 155.35 488.029 158.523 484.928 160.583C467.032 172.029 435.399 173.364 413.573 173.634M366.686 161.489L445.51 68.9394C443.367 70.165 442.467 72.833 440.898 75.1378C439.925 76.6398 438.633 77.9364 437.182 79.0326C435.22 80.6001 432.57 82.034 432.282 84.6004C432.012 87.4161 434.726 90.7296 437.532 91.8231C440.501 92.9417 443.054 91.4077 445.858 91.6986C450.75 92.3562 454.279 93.9605 456.506 88.4915C457.912 84.8801 457.054 81.039 455.321 77.5588C453.569 74.3891 450.194 66.9285 445.606 68.8843L445.51 68.9326L366.686 161.489ZM441.216 120.566C437.855 120.626 435.249 124.663 434.622 127.941C433.996 131.861 437.487 135.286 439.734 138.504C441.792 141.353 445.17 145.826 449.347 143.497C451.307 142.382 452.586 139.898 454.009 137.743C455.553 135.237 457.998 133.245 459.521 130.759C462.256 126.484 457.486 119.829 452.609 119.832C449.913 119.884 447.95 122.045 445.635 121.83C444.274 121.738 442.902 120.688 441.312 120.579L441.216 120.58L441.216 120.566Z" fill="#A96B35"/>
</g>
<path d="M445.173 93.8602L448.664 102.188L457.867 105.177L448.736 108.381L445.442 116.788L441.952 108.46L432.748 105.471L441.879 102.268L445.173 93.8602Z" fill="#DE0905"/>
<path d="M444.153 69.8467C452.336 67.0462 448.753 78.4123 457.212 81.4898C449.38 109.2 445.346 73.9671 442.442 93.4591C420.648 79.3419 440.721 80.9075 441.285 79.8622C442.243 76.5259 443.194 73.183 444.153 69.8467Z" fill="#FFFFFE"/>
<path d="M442.741 118.864C444.099 121.869 445.464 124.882 446.822 127.887C447.077 110.558 459.807 126.245 459.754 128.646C459.623 134.448 453.267 132.513 451.868 134.181C451.103 135.094 454.914 145.672 445.004 142.43C440.265 140.88 446.069 134.897 433.932 130.763C436.871 126.797 439.802 122.83 442.741 118.864Z" fill="#FFFFFE"/>
<g filter="url(#filter7_d_26_268)">
<path d="M699.909 151.845C698.844 149.54 698.502 146.935 698.32 144.408C697.182 127.816 695.816 110.889 694.257 94.2152C693.698 88.627 693.835 82.9777 695.469 77.5425C697.743 69.8222 700.447 62.2359 702.918 54.5464C704.262 50.4058 706.44 44.3684 703.164 40.9439C699.84 37.6922 694.083 37.9054 689.415 38.1785C681.309 38.5317 673.651 42.422 666.318 44.3552C659.287 45.9869 651.628 45.5403 644.876 48.142C632.246 52.9843 645.346 57.8695 648.498 63.7385C650.894 67.6433 650.621 72.1952 650.642 76.5317C650.624 82.4246 650.49 88.2858 650.407 94.1795C650.327 97.2791 650.273 100.762 648.585 103.411C646.206 107.166 640.384 108.036 635.853 108.214C629.8 108.61 626.259 104.718 626.719 99.4758C626.849 95.6473 628.204 91.8244 630.59 88.6647C635.439 82.8144 642.652 76.8173 631.563 73.2925C618.958 69.7522 585.559 71.5208 575.779 80.6532C571.33 87.2072 580.097 93.2024 583.732 98.172C585.672 100.937 586.305 104.207 586.518 107.475C587.689 126.318 586.284 145.708 586.477 164.668C587.222 176.908 572.754 187.691 583.761 191.045C591.724 192.766 600.754 192.68 608.689 193.216C616.046 193.295 623.951 193.759 630.772 190.918C639.353 186.567 627.726 179.79 627.031 174.33C626.244 171.584 626.428 168.669 626.619 165.833C627.28 156.569 627.872 147.074 627.454 138.061C627.319 133.905 626.623 128.994 629.805 125.692C632.901 122.511 639.707 121.405 644.762 121.975C649.917 122.338 651.714 127.124 651.577 131.495C651.71 137.962 651.67 144.465 651.79 150.912C651.624 162.163 654.835 166.264 667.325 165.601C677.048 165.216 686.757 165.44 696.471 164.889C699.622 164.574 704.65 163.985 704.837 160.785C704.881 158.348 701.252 155.027 699.961 151.95L699.908 151.838L699.909 151.845ZM606.813 94.4255C611.024 95.2965 615.305 102.212 617.804 105.652C619.363 108.063 620.383 110.951 619.182 113.654C618.089 116.368 614.876 118.888 612.41 118.931C609.33 119.106 607.877 115.269 604.858 117.589C603.511 118.419 601.958 119.603 600.2 119.411C596.366 119.019 593.297 112.798 594.631 109.009C595.335 106.564 597.023 104.531 598.492 102.382C600.738 99.628 602.58 94.0844 606.704 94.4003L606.813 94.4189L606.813 94.4255ZM619.684 160.233C618.819 161.972 617.351 163.565 616.35 165.377C614.733 167.906 614.564 171.47 612.106 173.452C607.691 176.145 604.853 170.988 602.843 167.846C601.046 164.934 597.615 163.074 596.085 160.04C594.52 156.489 596.628 151.274 600.349 149.449C602.653 148.535 605.164 149.916 607.549 149.775C609.87 149.788 612.169 148.476 614.497 149.065C618.246 150.147 621.85 156.262 619.748 160.12L619.691 160.233L619.684 160.233ZM662.863 74.5015C664.629 72.3091 664.954 69.1073 666.786 66.9208C667.965 65.4239 670.255 64.629 671.96 65.8339C674.087 67.2391 675.182 70.9473 676.719 73.3526C678.178 75.8581 680.221 78.1648 680.647 81.0863C681.239 84.5885 679.123 89.685 674.851 89.7483C672.456 89.644 670.145 88.6712 667.728 89.1763C665.889 89.4296 663.794 90.1825 661.73 89.2002C659.841 88.3087 658.442 86.597 657.674 84.805C655.557 79.9899 659.965 77.9254 662.785 74.6017L662.863 74.5015ZM678.266 136.671C676.509 138.97 676.088 142.649 674.406 144.615C670.864 148.126 667.91 143.023 666.22 139.991C665.577 138.919 664.89 137.887 664.059 136.944C661.933 134.446 658.837 132.675 658.398 129.892C657.956 126.236 660.643 122.159 663.804 120.129C666.521 118.628 669.201 120.761 672.002 120.808C676.956 120.776 679.88 120.252 682.643 125.133C685.612 130.885 681.829 132.399 678.345 136.578L678.266 136.685L678.266 136.671Z" fill="#A96B35"/>
</g>
<path d="M606.803 123.184L610.229 131.359L619.264 134.293L610.3 137.438L607.066 145.692L603.64 137.516L594.605 134.582L603.569 131.437L606.803 123.184Z" fill="#DE0905"/>
<path d="M671.019 93.9636L674.446 102.139L683.481 105.073L674.517 108.218L671.283 116.472L667.857 108.296L658.822 105.362L667.785 102.217L671.019 93.9636Z" fill="#DE0905"/>
<path d="M669.06 65.4785C677.773 64.3038 672.302 72.2269 674.056 75.2188C675.684 75.4977 677.312 75.7766 678.948 76.0554C685.992 88.5393 668.283 96.9898 669.255 81.512C669.857 104.4 643.57 73.4044 666.273 77.0911C663.107 73.725 664.809 66.0513 669.067 65.4784L669.06 65.4785Z" fill="#FFFFFE"/>
<path d="M606.941 94.7166C611.235 100.307 615.529 105.898 619.824 111.489C604.519 128.247 609.254 112.665 607.149 112.531C605.944 112.452 602.897 131.543 594.412 108.224C606.359 104.496 599.815 95.1378 606.941 94.7166Z" fill="#FFFFFE"/>
<path d="M667.737 118.946C670.508 120.204 667.652 132.778 675.54 118.854C683.993 125.873 688.636 135.2 674.739 134.006C681.17 148.629 664.239 149.125 666.935 134.097C647.539 135.98 666.191 118.242 667.737 118.946Z" fill="#FFFFFE"/>
<path d="M603.664 148.2C604.99 150.561 606.324 152.922 607.65 155.277C608.92 152.885 610.198 150.493 611.468 148.108C612.734 147.835 622.386 155.614 620.408 161.364C617.811 161.991 615.214 162.61 612.625 163.237C613.305 165.606 613.979 167.975 614.659 170.337C613.551 174.799 600.542 175.772 604.821 163.328C587.281 165.765 600.054 148.361 603.664 148.2Z" fill="#FFFFFE"/>
<g filter="url(#filter8_d_26_268)">
<path d="M14.6009 134.274C14.4416 131.462 14.3133 128.751 14.2145 126.026C14.1523 121.985 13.9245 117.763 15.318 114.323C16.0496 112.721 17.1737 112.28 18.5997 111.612C20.0699 110.91 21.8638 111.208 23.1817 112.094C25.9424 113.744 27.7215 117.215 31.0736 117.983C33.7404 118.589 35.1091 115.569 36.4997 115.051C37.642 114.895 38.2293 116.197 39.1413 116.681C41.7806 118.746 45.1308 116.815 47.1024 114.52C51.69 109.136 46.7259 107.75 43.4505 104.025C41.3946 101.655 39.9867 96.898 36.4314 97.1702C34.6756 97.5908 33.8712 99.3159 33.0632 100.743C32.1479 102.516 30.4308 104.964 28.5142 105.61C26.339 106.382 25.2784 104.624 25.343 102.528C25.5278 98.0167 27.7853 92.8571 31.1535 89.2915C42.4159 77.225 61.2177 77.0996 74.4454 74.2525C78.3433 73.4135 81.7853 72.3424 84.8381 70.3876C87.3011 68.8263 88.7766 67.941 89.9508 71.1482C91.9139 73.8308 101.588 119.625 88.5975 118.597C79.2646 115.269 81.1563 94.11 70.8373 92.8544C67.6086 92.4786 64.6949 94.2555 62.5434 96.4099C58.5193 100.424 56.8562 105.583 57.1499 110.998C57.8924 128.715 58.6054 146.446 59.3924 164.162C59.5386 166.493 59.8904 169.249 61.3217 170.941C61.8945 171.632 62.6138 172.16 63.4505 172.55C68.9027 175.015 76.3846 173.178 79.6109 167.648C81.5294 164.628 82.6078 160.92 82.9828 157.423C83.336 154.591 82.8945 151.789 83.8828 149.906C86.3549 145.307 94.5596 148.723 97.3143 151.763C100.403 154.798 99.8151 159.769 100.295 162.645C100.558 164.208 101.043 165.674 100.765 167.278C99.9981 170.949 96.9258 174.402 94.5557 177.563C75.503 203.188 37.459 203.254 26.0325 171.524M32.7648 146.918C30.5174 146.598 25.5169 154.143 25.5698 156.123C25.4137 159.284 29.6934 159.96 31.8757 161.704C34.942 164.075 33.4128 168.616 35.9106 171.286C37.748 173.394 41.0659 172.514 42.0335 170.129C42.7154 168.724 42.6574 166.948 42.5285 165.451C42.4468 164.191 42.1863 162.878 43.2455 161.971C44.2013 161.126 46.3586 160.734 48.2401 159.627C50.3216 158.47 52.0359 156.416 51.6969 154.108C51.1782 150.425 45.8681 146.134 42.1303 146.686C39.9577 147.044 38.9588 149.293 37.9734 150.79C37.7542 151.098 37.4835 151.46 37.1494 151.471C36.9637 151.473 36.8065 151.373 36.6639 151.253C35.7178 150.396 34.6171 147.127 32.8243 146.924L32.75 146.925L32.7648 146.918Z" fill="#A96B35"/>
</g>
<path d="M22.3121 109.554C22.9735 108.936 23.6275 108.325 24.2889 107.707C37.7276 108.336 28.8456 93.3665 39.15 96.5888C40.1849 99.3161 41.2123 102.037 42.2471 104.764C44.762 107.637 58.8589 109.275 39.4279 120.305C34.1032 100.798 37.0317 135.163 22.3122 109.561L22.3121 109.554Z" fill="#FFFFFE"/>
<path d="M33.7334 145.908C35.0985 148.93 36.4712 151.958 37.8364 154.98C37.4245 138.847 50.3473 151.864 50.817 153.913C52.7196 162.224 42.0052 159.522 40.912 161.325C40.6133 161.824 46.7658 169.549 40.0268 171.371C31.3033 173.731 35.2739 161.995 34.9103 161.395C31.5684 160.221 28.219 159.039 24.8771 157.865C27.8316 153.877 30.7788 149.889 33.7333 145.901L33.7334 145.908Z" fill="#FFFFFE"/>
<path d="M34.9462 121.347L38.4553 129.72L47.7086 132.725L38.5283 135.946L35.2163 144.398L31.7072 136.026L22.4539 133.021L31.6342 129.799L34.9462 121.347Z" fill="#DE0905"/>
<g filter="url(#filter9_d_26_268)">
<path d="M175.51 161.132C166.331 160.371 157.469 160.199 147.856 160.729C132.391 161.058 114.366 165.486 122.787 154.461C126.873 149.193 130.597 144.05 130.154 137.295C129.852 115.459 129.727 93.5645 129.301 71.7369C129.108 68.4689 128.75 65.6478 127.008 62.9559C124.133 58.6739 118.955 55.2454 116.751 52.0715C115.012 49.5774 115.101 47.2737 119.593 44.9326C126.387 41.6321 134.679 40.0093 142.601 38.5321C148.455 37.5311 154.501 36.3655 160.422 35.8511C166.243 35.2673 172.989 37.1306 171.88 43.543C171.083 47.5007 167.83 50.5689 167.698 54.4906C167.481 58.4132 169.063 63.3178 169.769 67.4415C174.317 89.694 158.796 136.147 178.517 140.416C183.436 141.453 189.607 139.77 194.049 137.182C207.028 130.723 203.357 109.293 207.907 103.37C209.515 101.247 212.364 101.369 213.401 103.984C215.177 108.922 215.502 115.572 215.999 121.675C216.583 131.169 216.856 141.33 215.97 150.211M246.188 150.804L145.412 56.4822C142.573 57.9211 140.741 60.7113 138.997 63.1545C136.395 66.9356 133.179 70.5331 134.739 74.8729C135.774 77.9615 140.991 82.7458 144.635 80.6406C145.656 79.9647 146.19 78.6235 146.556 77.5738C146.791 77.0978 146.947 75.9165 147.584 76.135C148.859 77.2431 149.558 79.4599 151.709 80.7273C153.081 81.6082 154.837 81.5735 156.283 80.8008C159.76 79.0084 162.91 73.7729 161.286 69.9424C160.311 67.3051 156.629 66.1193 154.884 64.4798C153.052 62.6719 153.09 59.9027 151.565 57.8934C150.265 55.9097 147.766 55.2821 145.542 56.4171L145.419 56.4751L246.188 150.804ZM144.119 109.931C139.729 109.064 132.984 117.245 135.008 120.887C135.983 122.867 138.923 123.546 141.114 124.29C145.911 125.52 144.91 131.203 146.997 134.294C147.934 135.724 149.864 135.298 151.067 134.246C153.298 132.504 154.085 128.991 155.519 126.608C156.995 123.772 161.52 122.949 161.867 119.527C162.03 118.254 161.516 116.642 160.813 115.386C159.201 112.587 154.204 106.769 152.093 109.541C151.082 110.471 150.826 115.001 149.337 114.743C148.964 114.628 148.563 114.082 148.09 113.381C147.169 112.014 145.974 110.382 144.235 109.951L144.126 109.924L144.119 109.931Z" fill="#A96B35"/>
</g>
<path d="M145.138 56.9591C155.535 53.4257 151.648 64.4332 152.526 65.4259C154.055 67.1526 166.266 65.8088 158.904 76.751C150.271 89.587 148.332 74.0214 147.419 74.0321C145.996 74.0488 149.382 90.9465 133.876 73.2373C137.627 67.8113 141.386 62.3781 145.138 56.952L145.138 56.9591Z" fill="#FFFFFE"/>
<path d="M145.74 108.265C151.741 128.416 150.062 109.316 151.984 108.192C155.143 111.008 158.294 113.818 161.454 116.634C163.803 126.919 156.031 121.381 153.218 124.331C153.929 125.586 154.632 126.85 155.343 128.106C143.358 143.396 147.187 127.452 144.893 124.428C143.698 122.86 121.86 124.747 145.748 108.265L145.74 108.265Z" fill="#FFFFFE"/>
<path d="M148.671 83.1197L152.326 91.8411L161.965 94.9712L152.402 98.3263L148.952 107.131L145.297 98.4096L135.659 95.2794L145.221 91.9243L148.671 83.1197Z" fill="#DE0905"/>
<g filter="url(#filter10_d_26_268)">
<path d="M285.711 133.607C284.878 135.041 281.93 135.741 280.093 136.314C269.038 139.325 261.598 140.132 251.12 140.051C241.319 139.92 230.118 138.599 225.273 135.557C222.047 133.691 222.945 130.583 225.765 128.807C230.173 126.081 234.754 125.842 234.522 119.835C233.818 106.684 232.5 93.5421 231.939 80.3857C231.867 75.7094 232.298 71.0319 232.532 66.3514C232.609 62.608 233.52 58.5867 232.123 55.0166C230.11 50.125 223.846 46.5565 220.845 42.2524C216.645 35.7793 227.364 33.3739 232.778 32.5279C241.567 31.0014 250.88 32.1279 259.474 30.4555C264.039 29.7996 276.207 25.7906 278.527 30.6717C280.401 37.713 270.82 44.2606 271.44 51.4295C275.549 73.1286 257.734 115.194 282.385 130.437C283.575 131.264 285.976 132.116 285.727 133.571L285.71 133.626L285.711 133.607ZM253.096 47.9407C250.472 49.7253 250.274 53.4568 247.802 55.435C245.992 57.0527 243.056 57.7787 241.908 59.7072C241.176 60.9342 241.289 62.3688 241.749 63.689C242.49 65.7868 245.878 70.9231 248.587 68.956C249.639 68.0795 250.094 66.3547 250.996 65.3717C252.478 63.7759 254.912 68.5816 257.078 69.3729C258.684 70.2995 260.704 69.8599 261.828 68.4647C263.376 66.7912 264.263 63.7507 263.604 61.5263C263.063 59.152 260.698 57.9288 258.549 57.0823C257.618 56.6969 257.277 55.898 257.35 55.0066C257.386 53.7095 257.893 51.5647 257.353 49.8616C256.946 48.1026 255.03 46.6581 253.188 47.8828L253.103 47.9348L253.096 47.9407ZM245.731 94.958C243.412 95.5079 238.435 102.004 239.595 104.159C240.459 105.914 243.227 106.175 244.572 107.959C246.637 110.933 247.227 115.267 249.499 118.07C252.679 121.525 252.957 112.851 253.995 111.29C254.834 109.18 256.856 107.901 259.048 106.855C260.617 106.102 262.206 105.114 262.523 103.432C263.148 100.901 259.791 95.9467 256.747 95.2757C254.513 94.9535 252.841 98.6096 251.543 99.0397C249.866 99.4271 249.65 93.8368 245.829 94.919L245.732 94.9518L245.731 94.958Z" fill="#A96B35"/>
</g>
<path d="M252.268 48.0093C261.802 45.393 256.241 56.7334 256.298 57.3947C256.345 57.9872 265.838 55.7046 263.21 64.4049C259.043 78.2154 252.229 62.6969 251.387 63.0116C250.645 65.2075 249.91 67.4038 249.169 69.5936C247.669 70.4553 239.392 64.0833 241.586 58.37C244.055 57.9266 246.525 57.4894 248.987 57.0456C250.083 54.0336 251.173 51.0151 252.269 48.0031L252.268 48.0093Z" fill="#FFFFFE"/>
<path d="M245.874 94.5192C253.692 93.9849 248.592 101.196 250.96 101.444C252.306 99.2762 253.658 97.1089 255.004 94.9474C256.801 94.7148 270.996 107.746 253.352 107.409C252.352 132.777 245.904 107.209 245.181 106.187C243.066 105.809 240.951 105.43 238.836 105.051C241.18 101.538 243.524 98.0255 245.867 94.5127L245.874 94.5192Z" fill="#FFFFFE"/>
<path d="M252.202 71.6167L254.866 79.4521L263.122 82.6924L254.532 85.1426L250.963 92.6856L248.299 84.8503L240.043 81.61L248.633 79.1598L252.202 71.6167Z" fill="#DE0905"/>
<g filter="url(#filter11_d_26_268)">
<path d="M367.583 146.045C366.805 146.869 364.845 146.93 363.492 146.927C348.904 146.849 334.232 146.779 319.651 146.683C316.183 146.685 314.315 145.624 315.509 142.147C317.371 136.101 320.183 130.242 321.374 124.045C322.104 103.011 320.963 81.8714 320.995 60.82C321.108 56.7244 318.733 54.0461 314.976 51.9442C310.424 49.3296 303.861 44.6754 307.076 39.2062C308.767 36.4548 312.868 34.6365 317.626 33.4155C323.149 32.0327 328.695 31.4647 334.097 31.0639C338.922 30.9055 342.597 30.1875 347.123 28.81C377.418 20.2728 394.958 9.15969 399.816 37.2854C400.66 42.1212 401.08 47.5987 401.189 52.0738C401.227 53.5825 401.397 55.599 400.687 56.8744C399.057 59.4469 395.584 57.8066 393.305 56.165C390.313 53.895 388.462 50.7202 386.548 47.5079C383.952 43.2721 381.694 38.7012 376.296 37.6119C372.27 36.9651 367.53 38.4533 364.405 40.9096C355.343 48.0455 355.645 67.3164 356.577 73.5584C356.752 74.8617 357.113 75.889 358.722 76.2331C362.554 77.0287 369.27 76.2177 373.34 77.6792C375.559 78.3536 377.331 80.1476 377.333 82.0896C377.245 87.6686 369.923 89.1107 365.521 91.5119C356.508 95.7182 355.795 103.871 357.473 112.574C358.238 117.099 359.316 121.022 360.992 125.326C362.779 130.163 365.175 136.401 367.06 141.294C367.766 143.209 368.504 144.824 367.625 145.987L367.576 146.038L367.583 146.045ZM335.841 47.7073C333.082 49.86 333.905 54.5432 331.094 56.41C329.223 57.4698 326.521 57.285 324.765 58.6173C323.339 59.6019 323.134 61.1134 323.82 62.538C324.278 63.5387 325.063 64.4655 325.827 65.3162C327.713 67.3572 329.751 69.8294 331.398 69.8419C333.956 69.6209 334.154 65.7471 335.035 64.1195C336.295 61.4813 337.624 66.5788 338.471 67.3967C339.246 68.6229 340.761 69.2992 342.254 68.7341C345.211 67.5151 348.756 64.0287 348.397 60.7346C348.017 58.0965 344.339 56.7515 342.306 55.922C341.556 55.6061 340.854 55.2323 340.74 54.4249C340.577 52.4784 341.555 49.6015 339.952 47.9075C338.919 46.7225 337.175 46.6729 335.938 47.6488L335.848 47.72L335.841 47.7073ZM333.123 94.967C332.438 94.9177 331.692 95.4932 330.894 96.4449C329.731 97.8912 328.469 99.7017 327.35 101.256C323.739 106.207 328.529 106.622 332.186 108.541C333.682 109.351 333.512 110.9 333.388 112.303C333.266 113.743 333.577 115.306 334.727 116.394C336.612 118.295 340.958 118.893 341.893 115.96C342.446 114.304 341.641 112.282 341.475 110.629C341.26 107.766 345.393 108.571 347.905 106.86C351.148 104.988 351.467 101.298 348.899 98.7873C347.019 96.7781 343.698 94.321 341.263 94.9289C339.788 95.271 338.917 96.5419 338.402 97.7833C337.944 98.6291 337.86 99.7636 337.16 100.147C336.79 100.145 336.59 99.7275 336.391 99.456C335.484 98.2441 335.005 95.4607 333.178 94.9727L333.109 94.9736L333.123 94.967Z" fill="#A96B35"/>
</g>
<path d="M335.137 47.8886C344.714 44.8156 339.546 55.0194 339.922 55.5434C340.596 56.4907 358.437 58.6439 339.151 70.1147C333.587 51.9501 336.334 70.2814 331.646 70.2026C328.791 67.0969 325.943 63.9848 323.089 60.8792C323.651 55.8615 332.156 57.7993 332.43 57.3441C333.335 54.1943 334.232 51.0383 335.137 47.8886Z" fill="#FFFFFE"/>
<path d="M333.803 94.1646C335.085 97.0022 336.374 99.846 337.656 102.684C337.269 87.5338 349.404 99.757 349.845 101.681C351.632 109.486 341.577 106.948 340.544 108.641C340.202 109.206 347.048 120.211 335.94 116.406C329.721 114.27 335.15 109.106 334.908 108.707C331.77 107.604 328.625 106.495 325.487 105.392C328.261 101.648 331.029 97.9029 333.803 94.1582L333.803 94.1646Z" fill="#FFFFFE"/>
<path d="M336.377 71.5283L339.672 79.3906L348.361 82.2124L339.741 85.237L336.631 93.1744L333.336 85.3121L324.647 82.4903L333.267 79.4657L336.377 71.5283Z" fill="#DE0905"/>
<g filter="url(#filter12_d_26_268)">
<path d="M1414.15 210.393C1417.81 208.045 1421.98 204.443 1425.3 201.489C1428.01 199.088 1430.43 196.701 1431.85 193.49C1434.29 188.124 1434.3 181.493 1433.47 175.713C1432.48 164.539 1420.67 157.979 1409.86 153.48C1402.18 150.169 1392.77 147.114 1385.84 143.569C1379.6 140.314 1375.37 136.624 1378.33 131.075C1382.66 123.976 1391.4 118.978 1400.38 118.529C1409.51 117.837 1414.49 122.777 1416.66 130.439C1417.62 133.337 1418.16 136.801 1419.07 139.606C1419.88 142.767 1423.43 143.364 1425.31 140.811C1426.13 139.612 1426.39 137.972 1426.48 135.789C1426.59 132.141 1426.25 128.07 1426.25 124.556C1426.32 119.415 1426.41 114.499 1425.64 109.396C1424.97 105.522 1424.61 100.783 1422.75 96.9369C1421.74 95.081 1419.57 94.3102 1418.54 96.3767C1417.36 98.7447 1417.82 102.14 1416.1 104.475C1413.98 107.793 1409.47 109.935 1405.22 108.761C1400.05 107.676 1394.85 105.771 1389.49 106.448C1370.68 108.881 1344.79 118.832 1343.98 138.112C1339.87 168.347 1370.08 170.47 1390.64 181.233C1396.06 184.281 1397.95 188.977 1397.16 194.751C1395.25 207.773 1374.08 211.56 1363.35 203.808C1359.16 200.514 1357.89 195.064 1355.58 190.619C1354.59 188.502 1353.77 186.276 1352.13 184.81C1350.52 183.173 1347.03 182.423 1345.34 183.509C1343.36 184.648 1344.33 188.79 1344.72 191.827C1345.48 196.512 1346.13 201.075 1346.47 205.779C1346.95 209.529 1346.57 213.863 1349.37 216.617C1351.64 218.699 1355.33 219.29 1358.62 219.374C1362.74 219.552 1367.35 219.925 1371.5 219.336C1379.23 218.371 1386.97 217.376 1394.72 216.395C1401.34 215.654 1408.77 213.881 1414.08 210.438L1414.15 210.393ZM1374.63 154.468C1373.87 154.969 1372.82 154.755 1371.93 154.623C1370.13 154.295 1367.62 153.685 1366.58 153.791C1363.77 154.168 1372.12 157.761 1370.2 160.732C1368.38 164.086 1357.92 165.481 1356.54 161.669C1355.8 159.722 1357.32 157.62 1358.2 155.958C1358.72 154.925 1358.68 154.287 1357.72 153.59C1356.38 152.657 1354.57 151.926 1353.45 150.681C1351.54 148.89 1351.32 145.973 1352.52 144.352C1354.89 141.169 1358.45 145.546 1360.87 146.186C1362.07 146.526 1363.09 146.16 1364.06 145.318C1370.32 138.477 1375.06 145.528 1375.33 151.826C1375.34 152.735 1375.4 153.801 1374.67 154.433L1374.63 154.463L1374.63 154.468ZM1397.64 173.366C1398.69 172.356 1400.63 172.692 1402.06 172.784C1403.03 172.797 1403.99 172.992 1404.66 172.434C1405.35 170.656 1397.01 166.734 1403.6 163.909C1406.44 162.819 1410.53 162.56 1413.49 163.823C1416.22 165.039 1416.33 167.672 1414.2 169.953C1413.57 170.786 1412.08 171.703 1412.15 172.67C1412.24 172.95 1412.65 173.131 1413.36 173.295C1414.17 173.487 1415.35 173.67 1416.4 173.997C1417.85 174.447 1419.23 175.099 1420.27 176.104C1422.52 178.25 1421.31 181.287 1418.87 182.348C1416.15 183.358 1413.45 180.814 1411.35 179.546C1409.88 178.6 1408.72 178.377 1407.8 179.71C1406.09 182.075 1403.09 186.681 1400.35 184.501C1398.23 183.002 1395.67 175.483 1397.59 173.421L1397.64 173.366Z" fill="#A96B35"/>
<path d="M1355.07 143.228C1358.12 143.723 1360.65 148.043 1363.78 145.544C1364.83 144.735 1365.92 143.425 1367.24 142.884C1368.41 142.344 1369.79 142.367 1370.94 142.963C1373.8 144.389 1375.2 148.693 1375.34 151.739C1375.36 152.608 1375.39 153.62 1374.81 154.286C1373.41 155.521 1369.79 153.976 1368 153.884C1363.32 153.206 1368.26 156.156 1369.27 157.412C1369.85 158.04 1370.3 158.659 1370.43 159.424C1371.21 164.654 1350.14 167.554 1358.2 155.965C1358.55 155.253 1358.66 154.721 1358.37 154.247C1357.95 153.5 1356.27 152.753 1355.32 152.155C1353.61 151.143 1352.26 149.596 1351.91 148.057C1351.35 145.994 1352.51 142.825 1354.99 143.219L1355.07 143.228Z" fill="#FFFFFE"/>
<path d="M1407.49 163.049C1412.38 162.5 1418.64 164.771 1414.2 169.959C1413.52 170.778 1412.51 171.468 1412.14 172.391C1412.05 172.869 1412.43 173.056 1413.21 173.263C1414.67 173.58 1417.05 174.014 1418.52 174.862C1422.28 176.627 1422.45 180.655 1418.88 182.348C1416.15 183.358 1413.45 180.814 1411.35 179.546C1410.1 178.834 1409.27 178.371 1408.3 179.169C1406.44 181.275 1403.77 186.187 1400.9 184.834C1398.16 183.112 1397.56 179.61 1396.97 176.648C1396.48 172.973 1398.53 172.334 1402.06 172.784C1403.63 172.904 1404.65 172.764 1404.74 172.266C1404.99 171.148 1400.28 168.23 1401.18 165.939C1402.19 163.828 1405.01 163.363 1407.38 163.055L1407.5 163.044L1407.49 163.049Z" fill="#FFFFFE"/>
</g>
<path d="M1376.38 159.415L1383.42 160.428L1388.85 156.211L1387.72 162.634L1392.33 167.583L1385.3 166.571L1379.87 170.787L1380.99 164.365L1376.38 159.415Z" fill="#DE0905"/>
</g>
<defs>
<filter id="filter0_ddd_26_268" x="0.362048" y="0.481494" width="1447.41" height="233.474" filterUnits="userSpaceOnUse" color-interpolation-filters="sRGB">
<feFlood flood-opacity="0" result="BackgroundImageFix"/>
<feColorMatrix in="SourceAlpha" type="matrix" values="0 0 0 0 0 0 0 0 0 0 0 0 0 0 0 0 0 0 127 0" result="hardAlpha"/>
<feOffset dy="4"/>
<feGaussianBlur stdDeviation="5.15"/>
<feComposite in2="hardAlpha" operator="out"/>
<feColorMatrix type="matrix" values="0 0 0 0 0 0 0 0 0 0 0 0 0 0 0 0 0 0 0.8 0"/>
<feBlend mode="normal" in2="BackgroundImageFix" result="effect1_dropShadow_26_268"/>
<feColorMatrix in="SourceAlpha" type="matrix" values="0 0 0 0 0 0 0 0 0 0 0 0 0 0 0 0 0 0 127 0" result="hardAlpha"/>
<feOffset dx="6" dy="6"/>
<feGaussianBlur stdDeviation="0.65"/>
<feComposite in2="hardAlpha" operator="out"/>
<feColorMatrix type="matrix" values="0 0 0 0 0 0 0 0 0 0 0 0 0 0 0 0 0 0 1 0"/>
<feBlend mode="normal" in2="effect1_dropShadow_26_268" result="effect2_dropShadow_26_268"/>
<feColorMatrix in="SourceAlpha" type="matrix" values="0 0 0 0 0 0 0 0 0 0 0 0 0 0 0 0 0 0 127 0" result="hardAlpha"/>
<feOffset dy="-5"/>
<feGaussianBlur stdDeviation="6.9"/>
<feComposite in2="hardAlpha" operator="out"/>
<feColorMatrix type="matrix" values="0 0 0 0 0 0 0 0 0 0 0 0 0 0 0 0 0 0 0.62 0"/>
<feBlend mode="normal" in2="effect2_dropShadow_26_268" result="effect3_dropShadow_26_268"/>
<feBlend mode="normal" in="SourceGraphic" in2="effect3_dropShadow_26_268" result="shape"/>
</filter>
<filter id="filter1_d_26_268" x="1084.2" y="49.0818" width="106.629" height="129.217" filterUnits="userSpaceOnUse" color-interpolation-filters="sRGB">
<feFlood flood-opacity="0" result="BackgroundImageFix"/>
<feColorMatrix in="SourceAlpha" type="matrix" values="0 0 0 0 0 0 0 0 0 0 0 0 0 0 0 0 0 0 127 0" result="hardAlpha"/>
<feOffset dy="7"/>
<feComposite in2="hardAlpha" operator="out"/>
<feColorMatrix type="matrix" values="0 0 0 0 0 0 0 0 0 0 0 0 0 0 0 0 0 0 0.8 0"/>
<feBlend mode="normal" in2="BackgroundImageFix" result="effect1_dropShadow_26_268"/>
<feBlend mode="normal" in="SourceGraphic" in2="effect1_dropShadow_26_268" result="shape"/>
</filter>
<filter id="filter2_d_26_268" x="841.623" y="32.0309" width="115.757" height="128.256" filterUnits="userSpaceOnUse" color-interpolation-filters="sRGB">
<feFlood flood-opacity="0" result="BackgroundImageFix"/>
<feColorMatrix in="SourceAlpha" type="matrix" values="0 0 0 0 0 0 0 0 0 0 0 0 0 0 0 0 0 0 127 0" result="hardAlpha"/>
<feOffset dy="7"/>
<feComposite in2="hardAlpha" operator="out"/>
<feColorMatrix type="matrix" values="0 0 0 0 0 0 0 0 0 0 0 0 0 0 0 0 0 0 0.8 0"/>
<feBlend mode="normal" in2="BackgroundImageFix" result="effect1_dropShadow_26_268"/>
<feBlend mode="normal" in="SourceGraphic" in2="effect1_dropShadow_26_268" result="shape"/>
</filter>
<filter id="filter3_d_26_268" x="1189.74" y="45.1178" width="146.546" height="154.771" filterUnits="userSpaceOnUse" color-interpolation-filters="sRGB">
<feFlood flood-opacity="0" result="BackgroundImageFix"/>
<feColorMatrix in="SourceAlpha" type="matrix" values="0 0 0 0 0 0 0 0 0 0 0 0 0 0 0 0 0 0 127 0" result="hardAlpha"/>
<feOffset dy="7"/>
<feComposite in2="hardAlpha" operator="out"/>
<feColorMatrix type="matrix" values="0 0 0 0 0 0 0 0 0 0 0 0 0 0 0 0 0 0 0.8 0"/>
<feBlend mode="normal" in2="BackgroundImageFix" result="effect1_dropShadow_26_268"/>
<feBlend mode="normal" in="SourceGraphic" in2="effect1_dropShadow_26_268" result="shape"/>
</filter>
<filter id="filter4_d_26_268" x="961.119" y="53.2515" width="111.547" height="132.958" filterUnits="userSpaceOnUse" color-interpolation-filters="sRGB">
<feFlood flood-opacity="0" result="BackgroundImageFix"/>
<feColorMatrix in="SourceAlpha" type="matrix" values="0 0 0 0 0 0 0 0 0 0 0 0 0 0 0 0 0 0 127 0" result="hardAlpha"/>
<feOffset dy="7"/>
<feComposite in2="hardAlpha" operator="out"/>
<feColorMatrix type="matrix" values="0 0 0 0 0 0 0 0 0 0 0 0 0 0 0 0 0 0 0.8 0"/>
<feBlend mode="normal" in2="BackgroundImageFix" result="effect1_dropShadow_26_268"/>
<feBlend mode="normal" in="SourceGraphic" in2="effect1_dropShadow_26_268" result="shape"/>
</filter>
<filter id="filter5_d_26_268" x="707.284" y="56.0458" width="154.521" height="133.302" filterUnits="userSpaceOnUse" color-interpolation-filters="sRGB">
<feFlood flood-opacity="0" result="BackgroundImageFix"/>
<feColorMatrix in="SourceAlpha" type="matrix" values="0 0 0 0 0 0 0 0 0 0 0 0 0 0 0 0 0 0 127 0" result="hardAlpha"/>
<feOffset dy="7"/>
<feComposite in2="hardAlpha" operator="out"/>
<feColorMatrix type="matrix" values="0 0 0 0 0 0 0 0 0 0 0 0 0 0 0 0 0 0 0.8 0"/>
<feBlend mode="normal" in2="BackgroundImageFix" result="effect1_dropShadow_26_268"/>
<feBlend mode="normal" in="SourceGraphic" in2="effect1_dropShadow_26_268" result="shape"/>
</filter>
<filter id="filter6_d_26_268" x="366.686" y="40.3833" width="147.128" height="140.25" filterUnits="userSpaceOnUse" color-interpolation-filters="sRGB">
<feFlood flood-opacity="0" result="BackgroundImageFix"/>
<feColorMatrix in="SourceAlpha" type="matrix" values="0 0 0 0 0 0 0 0 0 0 0 0 0 0 0 0 0 0 127 0" result="hardAlpha"/>
<feOffset dy="7"/>
<feComposite in2="hardAlpha" operator="out"/>
<feColorMatrix type="matrix" values="0 0 0 0 0 0 0 0 0 0 0 0 0 0 0 0 0 0 0.8 0"/>
<feBlend mode="normal" in2="BackgroundImageFix" result="effect1_dropShadow_26_268"/>
<feBlend mode="normal" in="SourceGraphic" in2="effect1_dropShadow_26_268" result="shape"/>
</filter>
<filter id="filter7_d_26_268" x="574.548" y="38.0374" width="130.333" height="162.255" filterUnits="userSpaceOnUse" color-interpolation-filters="sRGB">
<feFlood flood-opacity="0" result="BackgroundImageFix"/>
<feColorMatrix in="SourceAlpha" type="matrix" values="0 0 0 0 0 0 0 0 0 0 0 0 0 0 0 0 0 0 127 0" result="hardAlpha"/>
<feOffset dy="7"/>
<feComposite in2="hardAlpha" operator="out"/>
<feColorMatrix type="matrix" values="0 0 0 0 0 0 0 0 0 0 0 0 0 0 0 0 0 0 0.8 0"/>
<feBlend mode="normal" in2="BackgroundImageFix" result="effect1_dropShadow_26_268"/>
<feBlend mode="normal" in="SourceGraphic" in2="effect1_dropShadow_26_268" result="shape"/>
</filter>
<filter id="filter8_d_26_268" x="14.162" y="68.9794" width="86.6863" height="134.13" filterUnits="userSpaceOnUse" color-interpolation-filters="sRGB">
<feFlood flood-opacity="0" result="BackgroundImageFix"/>
<feColorMatrix in="SourceAlpha" type="matrix" values="0 0 0 0 0 0 0 0 0 0 0 0 0 0 0 0 0 0 127 0" result="hardAlpha"/>
<feOffset dy="7"/>
<feComposite in2="hardAlpha" operator="out"/>
<feColorMatrix type="matrix" values="0 0 0 0 0 0 0 0 0 0 0 0 0 0 0 0 0 0 0.8 0"/>
<feBlend mode="normal" in2="BackgroundImageFix" result="effect1_dropShadow_26_268"/>
<feBlend mode="normal" in="SourceGraphic" in2="effect1_dropShadow_26_268" result="shape"/>
</filter>
<filter id="filter9_d_26_268" x="115.701" y="35.75" width="130.486" height="133.132" filterUnits="userSpaceOnUse" color-interpolation-filters="sRGB">
<feFlood flood-opacity="0" result="BackgroundImageFix"/>
<feColorMatrix in="SourceAlpha" type="matrix" values="0 0 0 0 0 0 0 0 0 0 0 0 0 0 0 0 0 0 127 0" result="hardAlpha"/>
<feOffset dy="7"/>
<feComposite in2="hardAlpha" operator="out"/>
<feColorMatrix type="matrix" values="0 0 0 0 0 0 0 0 0 0 0 0 0 0 0 0 0 0 0.8 0"/>
<feBlend mode="normal" in2="BackgroundImageFix" result="effect1_dropShadow_26_268"/>
<feBlend mode="normal" in="SourceGraphic" in2="effect1_dropShadow_26_268" result="shape"/>
</filter>
<filter id="filter10_d_26_268" x="219.892" y="28.2847" width="65.8529" height="118.771" filterUnits="userSpaceOnUse" color-interpolation-filters="sRGB">
<feFlood flood-opacity="0" result="BackgroundImageFix"/>
<feColorMatrix in="SourceAlpha" type="matrix" values="0 0 0 0 0 0 0 0 0 0 0 0 0 0 0 0 0 0 127 0" result="hardAlpha"/>
<feOffset dy="7"/>
<feComposite in2="hardAlpha" operator="out"/>
<feColorMatrix type="matrix" values="0 0 0 0 0 0 0 0 0 0 0 0 0 0 0 0 0 0 0.8 0"/>
<feBlend mode="normal" in2="BackgroundImageFix" result="effect1_dropShadow_26_268"/>
<feBlend mode="normal" in="SourceGraphic" in2="effect1_dropShadow_26_268" result="shape"/>
</filter>
<filter id="filter11_d_26_268" x="306.221" y="19.2815" width="95.0132" height="134.645" filterUnits="userSpaceOnUse" color-interpolation-filters="sRGB">
<feFlood flood-opacity="0" result="BackgroundImageFix"/>
<feColorMatrix in="SourceAlpha" type="matrix" values="0 0 0 0 0 0 0 0 0 0 0 0 0 0 0 0 0 0 127 0" result="hardAlpha"/>
<feOffset dy="7"/>
<feComposite in2="hardAlpha" operator="out"/>
<feColorMatrix type="matrix" values="0 0 0 0 0 0 0 0 0 0 0 0 0 0 0 0 0 0 0.8 0"/>
<feBlend mode="normal" in2="BackgroundImageFix" result="effect1_dropShadow_26_268"/>
<feBlend mode="normal" in="SourceGraphic" in2="effect1_dropShadow_26_268" result="shape"/>
</filter>
<filter id="filter12_d_26_268" x="1343.6" y="95.1445" width="90.3691" height="131.511" filterUnits="userSpaceOnUse" color-interpolation-filters="sRGB">
<feFlood flood-opacity="0" result="BackgroundImageFix"/>
<feColorMatrix in="SourceAlpha" type="matrix" values="0 0 0 0 0 0 0 0 0 0 0 0 0 0 0 0 0 0 127 0" result="hardAlpha"/>
<feOffset dy="7"/>
<feComposite in2="hardAlpha" operator="out"/>
<feColorMatrix type="matrix" values="0 0 0 0 0 0 0 0 0 0 0 0 0 0 0 0 0 0 0.8 0"/>
<feBlend mode="normal" in2="BackgroundImageFix" result="effect1_dropShadow_26_268"/>
<feBlend mode="normal" in="SourceGraphic" in2="effect1_dropShadow_26_268" result="shape"/>
</filter>
</defs>
</svg>
