<svg width="946" height="499" viewBox="0 0 946 499" fill="none" xmlns="http://www.w3.org/2000/svg">
<path d="M28.5336 472.206C20.8824 471.989 11.9809 469.41 2.07325 464.547L928.54 26.8247L943.618 53.4525C941.317 52.188 938.457 51.4714 935.237 51.3802C930.996 51.26 926.367 52.2564 922.175 54.1878C913.939 57.9931 908.457 64.8287 908.544 71.0533C906.237 69.9526 903.452 69.3305 900.434 69.2449C896.138 69.1232 891.623 70.0511 887.366 71.9191C879.4 75.4143 873.596 81.8205 872.651 88.0364C870.217 86.4093 867.027 85.4989 863.336 85.3943C858.938 85.2697 854.149 86.3435 849.839 88.4151C841.952 92.2201 836.7 98.8777 836.728 104.906C834.246 103.359 831.054 102.49 827.431 102.387C822.584 102.25 817.418 103.498 812.871 105.911C805.634 109.745 800.923 116.069 800.845 121.889C798.398 120.313 795.219 119.423 791.595 119.321C787.478 119.204 783.155 120.096 779.08 121.898C770.679 125.616 765.049 132.489 765.053 138.865C762.622 137.463 759.574 136.68 756.152 136.583C751.406 136.449 746.309 137.657 741.777 139.979C734.43 143.738 729.494 150.045 729.191 155.9C726.76 154.499 723.69 153.704 720.257 153.607C715.522 153.473 710.414 154.671 705.872 156.972C698.435 160.738 693.397 167.064 693.036 172.968C690.578 171.381 687.399 170.492 683.753 170.388C679.153 170.258 674.192 171.409 669.776 173.641C662.065 177.533 657.111 184.046 657.207 190.045C654.984 189.09 652.353 188.554 649.537 188.475C645.162 188.351 640.557 189.297 636.208 191.203C628.311 194.669 622.573 200.811 621.336 207.008C618.903 205.361 615.691 204.439 611.989 204.335C607.591 204.21 602.802 205.284 598.492 207.355C590.616 211.15 585.376 217.808 585.381 223.826C582.956 222.26 579.81 221.382 576.198 221.279C571.946 221.159 567.305 222.155 563.113 224.097C554.945 227.873 549.5 234.628 549.488 240.809C547.074 239.233 543.928 238.355 540.316 238.253C536.064 238.132 531.412 239.138 527.219 241.09C519.085 244.867 513.685 251.613 513.719 257.764C511.226 256.218 508.046 255.349 504.422 255.246C499.575 255.109 494.397 256.366 489.851 258.78C482.625 262.613 477.913 268.938 477.836 274.758C475.389 273.192 472.209 272.313 468.585 272.21C464.423 272.092 460.055 273.004 455.934 274.835C447.532 278.584 441.901 285.477 441.916 291.853C439.535 290.607 436.619 289.899 433.388 289.807C428.586 289.671 423.41 290.888 418.821 293.239C411.531 296.968 406.615 303.041 406.088 308.889C403.642 307.6 400.647 306.869 397.36 306.776C393.49 306.667 389.408 307.433 385.566 308.984C377.109 312.394 370.874 319.239 370.082 325.859C367.648 324.242 364.458 323.342 360.789 323.238C356.347 323.112 351.5 324.205 347.167 326.317C339.381 330.114 334.186 336.743 334.193 342.729C331.768 341.174 328.621 340.296 325.009 340.193C320.723 340.072 316.026 341.087 311.788 343.058C303.642 346.845 298.185 353.61 298.162 359.79C295.692 358.234 292.512 357.355 288.899 357.252C284.793 357.136 280.482 358.018 276.409 359.789C267.952 363.496 262.231 370.386 262.132 376.821C259.719 375.235 256.561 374.357 252.938 374.254C248.54 374.129 243.75 375.203 239.441 377.275C231.553 381.08 226.302 387.737 226.329 393.765C223.836 392.219 220.656 391.36 217.043 391.257C212.208 391.12 207.03 392.368 202.473 394.771C195.168 398.613 190.399 404.966 190.309 410.827C187.828 409.26 184.637 408.38 181.002 408.277C176.212 408.142 171.08 409.38 166.568 411.753C159.286 415.596 154.563 421.92 154.519 427.762C152.037 426.215 148.845 425.346 145.222 425.243C140.409 425.107 135.265 426.345 130.72 428.717C123.37 432.568 118.579 438.931 118.488 444.802C115.986 443.214 112.772 442.324 109.126 442.22C105.48 442.117 101.286 442.88 97.5005 444.443C88.7781 448.04 82.6839 455.33 82.7214 462.004C78.4806 460.654 74.2851 459.91 70.2239 459.795C67.7333 459.724 65.2678 459.89 62.8726 460.284C56.263 461.378 52.0947 463.894 48.0643 466.322C45.5608 467.84 43.1952 469.269 40.3035 470.346C36.7513 471.67 32.7871 472.285 28.5351 472.165L28.5336 472.206Z" fill="#FFE54D"/>
<path d="M928.34 27.4057L942.521 52.4398C940.42 51.5397 937.957 51.0394 935.253 50.9627C930.945 50.8407 926.225 51.855 921.964 53.8152C913.877 57.553 908.391 64.1835 908.086 70.3867C905.852 69.4521 903.243 68.9169 900.439 68.8374C896.074 68.7138 891.481 69.6497 887.155 71.5567C879.337 74.9844 873.575 81.1868 872.295 87.3214C869.877 85.8895 866.818 85.0853 863.34 84.9868C858.864 84.8599 853.984 85.9517 849.606 88.0623C841.901 91.7802 836.669 98.1924 836.272 104.168C833.828 102.827 830.811 102.086 827.434 101.99C822.509 101.85 817.241 103.126 812.626 105.568C805.56 109.314 800.858 115.393 800.401 121.141C797.991 119.781 794.987 119.019 791.599 118.923C787.414 118.805 783.012 119.715 778.869 121.546C770.628 125.197 765.006 131.844 764.607 138.168C762.237 136.963 759.353 136.287 756.166 136.196C751.342 136.06 746.143 137.286 741.543 139.636C734.356 143.318 729.417 149.42 728.779 155.214C726.386 153.998 723.48 153.311 720.271 153.22C715.458 153.084 710.259 154.3 705.637 156.639C698.372 160.318 693.354 166.419 692.636 172.252C690.204 170.871 687.178 170.098 683.767 170.002C679.089 169.869 674.038 171.038 669.553 173.31C661.979 177.134 657.009 183.461 656.746 189.44C654.608 188.631 652.154 188.172 649.552 188.098C645.098 187.972 640.414 188.926 635.996 190.871C628.247 194.28 622.527 200.238 621.013 206.345C618.584 204.883 615.503 204.067 612.003 203.968C607.526 203.841 602.646 204.933 598.268 207.044C590.575 210.752 585.355 217.154 584.936 223.108C582.548 221.769 579.566 221.008 576.212 220.913C571.892 220.791 567.161 221.805 562.9 223.775C554.927 227.465 549.491 233.964 549.043 240.091C546.655 238.742 543.684 237.981 540.318 237.886C535.988 237.763 531.256 238.788 526.995 240.768C519.044 244.459 513.653 250.959 513.262 257.057C510.817 255.727 507.801 254.975 504.425 254.879C499.488 254.739 494.22 256.015 489.604 258.467C482.55 262.214 477.847 268.293 477.391 274.041C474.97 272.68 471.976 271.929 468.588 271.833C464.359 271.713 459.9 272.633 455.722 274.503C447.468 278.185 441.845 284.863 441.457 291.197C439.149 290.127 436.398 289.516 433.391 289.431C428.5 289.292 423.244 290.527 418.575 292.916C411.422 296.578 406.513 302.477 405.673 308.255C403.289 307.121 400.437 306.487 397.352 306.399C393.414 306.288 389.264 307.062 385.355 308.642C377.046 311.995 370.841 318.625 369.704 325.164C367.285 323.742 364.237 322.948 360.793 322.851C356.26 322.722 351.346 323.834 346.944 325.985C339.215 329.753 334.135 336.006 333.749 341.991C331.36 340.653 328.378 339.902 325.035 339.807C320.671 339.683 315.894 340.717 311.587 342.716C303.625 346.417 298.187 352.946 297.739 359.063C295.306 357.723 292.302 356.962 288.925 356.866C284.752 356.748 280.351 357.638 276.219 359.448C267.945 363.068 262.234 369.722 261.721 376.094C259.333 374.735 256.351 373.974 252.974 373.878C248.498 373.751 243.618 374.843 239.24 376.954C231.535 380.672 226.304 387.084 225.906 393.059C223.462 391.729 220.445 390.987 217.08 390.892C212.155 390.752 206.898 392.018 202.26 394.459C195.138 398.214 190.378 404.332 189.898 410.121C187.454 408.77 184.427 408.008 181.039 407.912C176.159 407.773 170.947 409.03 166.355 411.442C159.245 415.187 154.53 421.286 154.107 427.055C151.663 425.715 148.646 424.974 145.269 424.878C140.378 424.739 135.132 425.995 130.518 428.417C123.351 432.17 118.557 438.298 118.087 444.107C115.622 442.735 112.584 441.962 109.173 441.865C105.28 441.755 101.187 442.531 97.3329 444.123C88.7134 447.672 82.6023 454.807 82.2808 461.471C78.2046 460.228 74.1643 459.54 70.2602 459.429C67.7472 459.358 65.2368 459.523 62.8076 459.925C56.0962 461.037 51.8935 463.573 47.8284 466.031C45.348 467.529 42.994 468.948 40.1475 470.016C36.6522 471.321 32.756 471.918 28.5826 471.8C21.2007 471.59 12.6417 469.165 3.11737 464.569L892.025 44.5613L928.34 27.4057ZM928.741 26.2485C619.523 172.343 310.305 318.437 1.08603 464.532C12.6335 470.312 21.5743 472.431 28.5299 472.628C33.4438 472.768 37.3482 471.945 40.4793 470.773C48.1643 467.906 52.4054 462.47 62.958 460.729C65.4777 460.308 67.908 460.183 70.2079 460.248C75.3685 460.394 79.864 461.536 83.2151 462.646C82.7759 455.899 88.9199 448.477 97.6991 444.861C101.496 443.298 105.464 442.58 109.121 442.684C112.947 442.792 116.425 443.803 118.994 445.721C118.584 439.733 123.408 433.094 130.964 429.126C135.544 426.734 140.617 425.576 145.217 425.707C148.997 425.814 152.454 426.793 155.025 428.67C154.568 422.732 159.312 416.112 166.801 412.172C171.346 409.78 176.408 408.621 180.986 408.751C184.778 408.858 188.234 409.848 190.793 411.745C190.382 405.778 195.171 399.148 202.694 395.189C207.274 392.777 212.393 391.61 217.015 391.741C220.796 391.848 224.253 392.827 226.835 394.695C226.249 388.579 231.489 381.634 239.65 377.703C244.017 375.603 248.703 374.608 252.921 374.727C256.724 374.835 260.146 375.844 262.614 377.76C262.156 371.237 267.991 363.981 276.596 360.217C280.658 358.436 284.945 357.604 288.86 357.715C292.776 357.826 296.109 358.822 298.645 360.709C298.11 354.441 303.59 347.369 311.975 343.476C316.27 341.476 320.842 340.539 324.97 340.656C328.762 340.763 332.185 341.762 334.676 343.658C334.101 337.563 339.294 330.668 347.355 326.724C351.745 324.583 356.476 323.569 360.74 323.69C364.543 323.798 367.965 324.807 370.456 326.723C370.804 319.947 377.103 312.888 385.731 309.412C389.583 307.86 393.607 307.144 397.321 307.249C400.776 307.347 403.959 308.155 406.498 309.672C406.657 303.772 411.604 297.455 419.03 293.657C423.654 291.287 428.749 290.15 433.36 290.28C436.77 290.377 439.92 291.174 442.402 292.689C441.884 286.268 447.593 279.07 456.121 275.273C460.23 273.442 464.585 272.581 468.546 272.693C472.506 272.805 475.794 273.801 478.308 275.696C477.884 269.76 482.617 263.159 490.072 259.208C494.652 256.776 499.76 255.608 504.393 255.74C508.174 255.847 511.642 256.826 514.212 258.714C513.62 252.485 519.054 245.423 527.416 241.539C531.677 239.558 536.203 238.63 540.287 238.746C544.09 238.854 547.512 239.863 549.992 241.779C549.434 235.51 554.926 228.418 563.322 224.546C567.571 222.575 572.097 221.658 576.18 221.773C579.983 221.881 583.406 222.89 585.897 224.786C585.311 218.67 590.551 211.725 598.713 207.794C603.079 205.694 607.765 204.699 611.983 204.819C615.786 204.926 619.208 205.936 621.677 207.851C622.557 201.561 628.372 195.166 636.407 191.631C640.733 189.724 645.325 188.819 649.521 188.938C652.539 189.023 655.347 189.636 657.708 190.789C657.186 184.758 662.184 177.99 669.997 174.05C674.459 171.798 679.328 170.727 683.725 170.851C687.517 170.959 690.962 171.958 693.476 173.864C693.369 167.844 698.404 161.283 706.081 157.39C710.669 155.07 715.685 153.951 720.229 154.08C723.819 154.182 727.111 155.064 729.644 156.746C729.49 150.786 734.433 144.273 741.998 140.397C746.564 138.056 751.591 136.938 756.135 137.067C759.736 137.169 763.039 138.062 765.56 139.763C765.019 133.331 770.751 126.123 779.278 122.347C783.353 120.545 787.651 119.703 791.566 119.814C795.381 119.922 798.814 120.932 801.328 122.838C800.904 116.891 805.637 110.301 813.103 106.34C817.672 103.917 822.791 102.74 827.414 102.871C831.194 102.978 834.663 103.958 837.233 105.845C836.647 99.7294 841.887 92.7844 850.048 88.8539C854.415 86.7533 859.1 85.7585 863.319 85.878C867.122 85.9857 870.544 86.995 873.012 88.9101C873.558 82.5599 879.381 75.9492 887.564 72.3576C891.81 70.4893 896.311 69.6123 900.417 69.7286C903.637 69.8199 906.621 70.5297 909.054 71.8595C908.486 65.5905 913.989 58.4992 922.384 54.6266C926.633 52.6661 931.136 51.7482 935.22 51.8639C939.023 51.9716 942.445 52.9809 944.936 54.8863L928.751 26.3L928.741 26.2485Z" fill="black"/>
<path d="M220.256 376.732L217.24 378.163L217.691 379.334C217.852 379.236 217.989 379.168 218.184 379.071C218.926 378.723 219.765 378.511 220.514 378.615C221.308 378.699 222 379.118 222.464 379.941C223.213 381.264 222.632 383.02 220.53 384.006C219.582 384.451 218.688 384.63 218.138 384.625L217.751 383.231C218.19 383.222 219.003 383.081 219.712 382.743C220.466 382.385 221.076 381.675 220.654 380.925C220.232 380.175 219.35 380.047 217.796 380.782C217.362 380.985 217.075 381.151 216.776 381.348L215.18 377.387L219.464 375.356L220.234 376.721L220.256 376.732Z" fill="black"/>
<path d="M253.6 360.088C253.383 360.174 253.108 360.32 252.832 360.507C251.323 361.541 251.077 363.051 251.56 364.304L251.594 364.285C251.706 363.663 252.147 362.989 253.003 362.582C254.375 361.935 255.863 362.376 256.644 363.762C257.382 365.064 257.086 366.716 255.475 367.48C253.864 368.244 252.057 367.609 251.012 365.765C250.221 364.369 250.147 363.004 250.523 361.948C250.835 361.066 251.504 360.295 252.411 359.726C252.699 359.54 252.951 359.404 253.145 359.307L253.588 360.088L253.6 360.088ZM255.613 364.317C255.043 363.306 254.055 362.991 253.084 363.446C252.456 363.746 252.073 364.38 252.072 365.036C252.067 365.18 252.094 365.344 252.189 365.521C252.877 366.679 253.945 367.262 255.053 366.74C255.967 366.305 256.182 365.337 255.613 364.317Z" fill="black"/>
<path d="M290.33 341.992L290.689 342.627L290.957 350.681L289.871 351.193L289.698 343.327L289.698 343.307L285.882 345.105L285.428 344.313L290.33 341.992Z" fill="black"/>
<path d="M324.565 332.355C324.059 331.46 324.283 330.554 325.031 329.724L324.999 329.693C323.931 329.734 323.217 329.294 322.869 328.679C322.236 327.554 322.843 326.3 324.203 325.652C325.711 324.936 326.95 325.443 327.446 326.328C327.783 326.932 327.833 327.723 327.105 328.594L327.126 328.625C328.298 328.515 329.241 328.849 329.726 329.714C330.422 330.943 329.731 332.327 328.246 333.023C326.623 333.797 325.134 333.376 324.555 332.335L324.565 332.355ZM328.726 330.331C328.241 329.467 327.346 329.37 326.137 329.592C325.36 330.266 325.186 331.041 325.565 331.717C325.942 332.456 326.896 332.801 327.889 332.337C328.883 331.873 329.137 331.07 328.726 330.331ZM323.82 328.152C324.221 328.861 325.025 328.966 326.044 328.759C326.591 328.231 326.862 327.552 326.493 326.916C326.176 326.354 325.473 325.934 324.525 326.379C323.656 326.795 323.472 327.538 323.82 328.152Z" fill="black"/>
<path d="M73.4064 445.795L73.3839 445.794L72.404 447.109L71.787 446.477L73.0145 444.841L73.917 444.416L77.9259 451.499L76.9089 451.982L73.4067 445.785L73.4064 445.795Z" fill="black"/>
<path d="M111.066 435.82L110.728 435.226L111.139 434.1C112.146 431.433 112.532 430.101 111.931 429.018C111.519 428.299 110.762 427.817 109.608 428.368C108.899 428.707 108.496 429.31 108.3 429.746L107.578 429.233C107.883 428.565 108.469 427.895 109.371 427.47C111.051 426.677 112.35 427.39 112.919 428.4C113.657 429.713 113.219 431.258 112.398 433.469L112.076 434.291L112.075 434.311L115.583 432.658L116.037 433.45L111.077 435.8L111.066 435.82Z" fill="black"/>
<path d="M146.079 417.706C146.483 417.738 147.327 417.68 148.058 417.342C149.406 416.704 149.386 415.719 149.037 415.135C148.466 414.145 147.241 414.182 146.224 414.666L145.641 414.947L145.229 414.228L145.812 413.947C146.578 413.59 147.337 412.771 146.863 411.927C146.546 411.365 145.862 411.048 144.891 411.502C144.274 411.792 143.816 412.333 143.6 412.706L142.936 412.134C143.189 411.669 143.819 411.021 144.664 410.625C146.196 409.899 147.356 410.404 147.842 411.258C148.253 411.987 148.132 412.834 147.352 413.601L147.351 413.622C148.417 413.345 149.563 413.633 150.133 414.623C150.777 415.759 150.364 417.213 148.502 418.092C147.633 418.509 146.72 418.616 146.205 418.571L146.069 417.696L146.079 417.706Z" fill="black"/>
<path d="M185.219 400.729L184.122 398.801L180.511 400.513L180.152 399.878L181.062 393.713L182.193 393.171L184.694 397.577L185.779 397.065L186.201 397.815L185.116 398.327L186.213 400.255L185.219 400.729ZM183.7 398.041L182.36 395.677C182.149 395.302 181.95 394.927 181.762 394.542L181.727 394.562C181.719 395.084 181.694 395.483 181.678 395.913L181.142 399.219L181.141 399.24L183.701 398.031L183.7 398.041Z" fill="black"/>
<path d="M361.353 316.367C361.592 316.282 361.844 316.135 362.189 315.929C362.752 315.566 363.197 315.066 363.421 314.468C363.692 313.799 363.71 313 363.384 312.099L363.349 312.119C363.19 312.801 362.731 313.382 361.954 313.75C360.56 314.407 359.108 313.874 358.434 312.666C357.674 311.323 358.072 309.643 359.66 308.888C361.249 308.134 362.896 308.847 363.919 310.659C364.805 312.222 364.846 313.576 364.46 314.62C364.16 315.442 363.528 316.152 362.735 316.642C362.379 316.878 362.058 317.043 361.796 317.159L361.353 316.377L361.353 316.367ZM359.431 312.11C359.926 312.995 360.868 313.34 361.782 312.905C362.491 312.566 362.86 311.992 362.891 311.44C362.895 311.327 362.878 311.193 362.793 311.047C362.107 309.839 361.088 309.144 359.991 309.666C359.089 310.092 358.872 311.11 359.431 312.11Z" fill="black"/>
<path d="M393.674 294.797L393.652 294.797L392.536 296.149L391.532 295.044L393.092 293.202L394.601 292.487L398.609 299.57L396.85 300.401L393.675 294.787L393.674 294.797Z" fill="black"/>
<path d="M404.902 292.078C406.147 294.266 406.031 296.23 404.043 297.168C402.055 298.106 400.212 296.896 399.073 294.896C397.912 292.844 397.943 290.764 399.954 289.816C402.033 288.83 403.805 290.141 404.902 292.078ZM400.89 294.025C401.796 295.659 402.662 296.227 403.371 295.889C404.079 295.55 404.003 294.564 403.085 292.949C402.167 291.334 401.358 290.727 400.627 291.076C399.952 291.395 399.939 292.378 400.89 294.025Z" fill="black"/>
<path d="M429.864 277.096L429.842 277.095L428.862 278.41L428.245 277.777L429.472 276.142L430.375 275.716L434.384 282.799L433.367 283.283L429.865 277.085L429.864 277.096Z" fill="black"/>
<path d="M436.001 274.192L435.979 274.192L434.999 275.507L434.382 274.874L435.609 273.238L436.512 272.813L440.52 279.896L439.503 280.38L436.001 274.182L436.001 274.192Z" fill="black"/>
<path d="M465.312 260.322L465.29 260.321L464.31 261.636L463.693 261.004L464.92 259.368L465.823 258.942L469.832 266.026L468.815 266.509L465.312 260.312L465.312 260.322Z" fill="black"/>
<path d="M472.676 264.694L472.339 264.1L472.75 262.974C473.757 260.307 474.142 258.976 473.542 257.893C473.13 257.174 472.373 256.691 471.219 257.243C470.51 257.581 470.106 258.185 469.911 258.62L469.188 258.107C469.493 257.44 470.079 256.77 470.982 256.344C472.661 255.551 473.96 256.265 474.53 257.275C475.268 258.587 474.83 260.133 474.008 262.344L473.686 263.165L473.686 263.185L477.193 261.532L477.647 262.324L472.688 264.674L472.676 264.694Z" fill="black"/>
<path d="M500.686 243.43L500.664 243.43L499.684 244.745L499.067 244.112L500.294 242.476L501.197 242.051L505.206 249.134L504.188 249.618L500.686 243.42L500.686 243.43Z" fill="black"/>
<path d="M507.68 246.578C508.083 246.61 508.927 246.552 509.658 246.214C511.007 245.575 510.986 244.591 510.637 244.007C510.067 243.017 508.842 243.054 507.825 243.538L507.242 243.819L506.83 243.1L507.413 242.819C508.178 242.461 508.938 241.643 508.463 240.799C508.147 240.236 507.462 239.92 506.491 240.374C505.874 240.664 505.417 241.205 505.201 241.578L504.537 241.005C504.79 240.541 505.42 239.893 506.265 239.496C507.796 238.771 508.957 239.275 509.442 240.13C509.854 240.859 509.733 241.706 508.953 242.473L508.952 242.494C510.017 242.216 511.164 242.505 511.734 243.495C512.377 244.63 511.965 246.084 510.103 246.964C509.234 247.38 508.321 247.488 507.806 247.442L507.669 246.567L507.68 246.578Z" fill="black"/>
<path d="M537.202 226.291L537.18 226.29L536.2 227.605L535.583 226.973L536.81 225.337L537.713 224.912L541.722 231.995L540.705 232.478L537.203 226.281L537.202 226.291Z" fill="black"/>
<path d="M547.814 229.127L546.716 227.2L543.105 228.912L542.747 228.277L543.656 222.112L544.788 221.57L547.288 225.976L548.374 225.464L548.796 226.214L547.71 226.726L548.808 228.653L547.814 229.127ZM546.295 226.44L544.955 224.075C544.744 223.7 544.544 223.326 544.356 222.941L544.322 222.961C544.314 223.483 544.288 223.882 544.272 224.312L543.736 227.618L543.736 227.638L546.295 226.43L546.295 226.44Z" fill="black"/>
<path d="M571.911 210.444L571.888 210.444L570.772 211.806L569.768 210.701L571.328 208.86L572.837 208.144L576.845 215.227L575.086 216.059L571.911 210.444Z" fill="black"/>
<path d="M581.365 205.833L578.348 207.264L578.799 208.435C578.96 208.337 579.097 208.269 579.292 208.172C580.034 207.825 580.873 207.613 581.622 207.716C582.416 207.8 583.108 208.219 583.572 209.042C584.321 210.365 583.741 212.122 581.639 213.107C580.69 213.552 579.797 213.732 579.247 213.726L578.86 212.332C579.298 212.324 580.111 212.183 580.82 211.844C581.574 211.486 582.184 210.776 581.762 210.026C581.34 209.276 580.458 209.148 578.904 209.883C578.47 210.086 578.183 210.252 577.884 210.449L576.288 206.488L580.573 204.457L581.343 205.822L581.365 205.833Z" fill="black"/>
<path d="M608.024 192.626L608.002 192.625L607.022 193.94L606.405 193.308L607.632 191.672L608.535 191.246L612.544 198.33L611.527 198.813L608.025 192.615L608.024 192.626Z" fill="black"/>
<path d="M616.193 188.491C615.976 188.577 615.701 188.723 615.425 188.91C613.916 189.944 613.671 191.454 614.153 192.707L614.187 192.688C614.299 192.066 614.739 191.392 615.596 190.985C616.968 190.338 618.456 190.779 619.237 192.165C619.975 193.467 619.679 195.119 618.068 195.883C616.457 196.647 614.65 196.012 613.605 194.168C612.814 192.772 612.74 191.407 613.116 190.351C613.428 189.469 614.097 188.698 615.004 188.13C615.292 187.943 615.544 187.807 615.738 187.71L616.181 188.491L616.193 188.491ZM618.206 192.72C617.636 191.709 616.648 191.394 615.677 191.849C615.049 192.149 614.666 192.784 614.665 193.439C614.66 193.583 614.687 193.748 614.782 193.924C615.47 195.082 616.538 195.665 617.646 195.143C618.56 194.708 618.775 193.74 618.206 192.72Z" fill="black"/>
<path d="M644.541 175.499L644.518 175.499L643.538 176.814L642.921 176.181L644.149 174.545L645.051 174.12L649.06 181.203L648.043 181.687L644.541 175.489L644.541 175.499Z" fill="black"/>
<path d="M652.936 170.386L653.294 171.021L653.562 179.075L652.477 179.587L652.303 171.721L652.304 171.7L648.488 173.499L648.034 172.707L652.936 170.386Z" fill="black"/>
<path d="M681.914 157.659L681.891 157.658L680.911 158.973L680.294 158.341L681.522 156.705L682.424 156.279L686.433 163.363L685.416 163.846L681.914 157.649L681.914 157.659Z" fill="black"/>
<path d="M688.164 160.275C687.658 159.379 687.882 158.474 688.631 157.644L688.598 157.612C687.53 157.654 686.816 157.213 686.468 156.599C685.835 155.474 686.442 154.22 687.802 153.572C689.311 152.856 690.55 153.363 691.045 154.248C691.383 154.852 691.432 155.643 690.704 156.514L690.726 156.545C691.898 156.435 692.84 156.769 693.325 157.634C694.021 158.863 693.331 160.247 691.845 160.943C690.223 161.717 688.733 161.296 688.154 160.254L688.164 160.275ZM692.325 158.251C691.84 157.387 690.946 157.289 689.736 157.511C688.959 158.186 688.785 158.96 689.164 159.637C689.542 160.376 690.495 160.721 691.489 160.257C692.483 159.793 692.736 158.99 692.325 158.251ZM687.419 156.072C687.82 156.781 688.625 156.885 689.643 156.679C690.19 156.151 690.462 155.472 690.092 154.836C689.775 154.274 689.072 153.854 688.124 154.299C687.255 154.715 687.071 155.458 687.419 156.072Z" fill="black"/>
<path d="M716.357 141.367L716.334 141.366L715.354 142.681L714.737 142.049L715.965 140.413L716.856 139.987L720.865 147.07L719.848 147.554L716.346 141.356L716.357 141.367Z" fill="black"/>
<path d="M723.958 144.762C724.197 144.676 724.45 144.53 724.794 144.324C725.358 143.961 725.802 143.461 726.026 142.863C726.298 142.194 726.316 141.395 725.989 140.494L725.955 140.514C725.795 141.196 725.336 141.777 724.559 142.145C723.165 142.802 721.714 142.269 721.039 141.061C720.28 139.717 720.678 138.038 722.266 137.283C723.854 136.529 725.501 137.242 726.525 139.054C727.411 140.617 727.451 141.971 727.065 143.015C726.766 143.837 726.133 144.547 725.341 145.037C724.995 145.273 724.664 145.438 724.401 145.553L723.958 144.772L723.958 144.762ZM722.025 140.505C722.521 141.39 723.462 141.735 724.377 141.299C725.085 140.961 725.454 140.387 725.486 139.834C725.49 139.722 725.472 139.588 725.388 139.442C724.702 138.234 723.683 137.539 722.586 138.061C721.694 138.487 721.466 139.505 722.025 140.505Z" fill="black"/>
<path d="M751.993 132.347L751.423 131.347L751.954 130.04C752.865 127.852 753.245 126.663 752.793 125.82C752.465 125.247 751.824 124.963 750.922 125.388C750.248 125.707 749.845 126.29 749.592 126.765L748.402 125.819C748.764 125.142 749.487 124.384 750.539 123.881C752.298 123.049 753.797 123.532 754.525 124.814C755.2 126.001 754.79 127.394 754.187 128.842L753.784 129.723L753.784 129.743L756.731 128.361L757.501 129.726L751.982 132.337L751.993 132.347Z" fill="black"/>
<path d="M762.354 122.898C763.6 125.086 763.483 127.05 761.495 127.988C759.507 128.926 757.665 127.716 756.525 125.716C755.364 123.663 755.395 121.584 757.406 120.636C759.417 119.689 761.257 120.961 762.354 122.898ZM758.342 124.855C759.248 126.49 760.114 127.057 760.823 126.719C761.531 126.38 761.455 125.394 760.537 123.779C759.619 122.165 758.81 121.557 758.078 121.906C757.404 122.225 757.391 123.208 758.342 124.855Z" fill="black"/>
<path d="M790.532 114.26L790.194 113.666L790.606 112.54C791.613 109.873 791.998 108.541 791.397 107.458C790.986 106.739 790.229 106.256 789.074 106.808C788.366 107.147 787.962 107.75 787.766 108.185L787.044 107.673C787.349 107.005 787.935 106.335 788.838 105.91C790.517 105.117 791.816 105.83 792.386 106.84C793.124 108.153 792.686 109.698 791.864 111.909L791.542 112.73L791.541 112.751L795.049 111.098L795.503 111.889L790.544 114.24L790.532 114.26Z" fill="black"/>
<path d="M795.453 104.081L795.43 104.081L794.45 105.395L793.833 104.763L795.061 103.127L795.963 102.702L799.972 109.785L798.955 110.269L795.453 104.071L795.453 104.081Z" fill="black"/>
<path d="M824.987 97.9534L824.649 97.3596L825.061 96.2336C826.068 93.5665 826.453 92.2347 825.852 91.1518C825.441 90.4329 824.684 89.9502 823.529 90.5017C822.821 90.8404 822.417 91.4439 822.221 91.8791L821.499 91.3666C821.804 90.6988 822.39 90.0287 823.293 89.6033C824.972 88.8104 826.271 89.5237 826.841 90.534C827.579 91.8464 827.141 93.3919 826.319 95.603L825.997 96.4241L825.996 96.4446L829.504 94.7913L829.958 95.5831L824.999 97.9333L824.987 97.9534Z" fill="black"/>
<path d="M831.124 95.0426L830.787 94.4488L831.198 93.3228C832.205 90.6557 832.591 89.324 831.99 88.241C831.578 87.5221 830.821 87.0394 829.667 87.5909C828.958 87.9296 828.555 88.5331 828.359 88.9683L827.637 88.4559C827.942 87.788 828.528 87.1179 829.43 86.6925C831.11 85.8997 832.409 86.6129 832.978 87.6233C833.716 88.9356 833.278 90.4811 832.457 92.6923L832.135 93.5133L832.134 93.5338L835.642 91.8805L836.096 92.6724L831.136 95.0225L831.124 95.0426Z" fill="black"/>
<path d="M861.366 80.5889L861.029 79.9951L861.44 78.8691C862.447 76.202 862.833 74.8702 862.232 73.7872C861.82 73.0684 861.063 72.5857 859.909 73.1372C859.2 73.4759 858.796 74.0794 858.601 74.5146L857.879 74.0021C858.184 73.3343 858.769 72.6642 859.672 72.2388C861.352 71.4459 862.651 72.1592 863.22 73.1695C863.958 74.4819 863.52 76.0274 862.699 78.2385L862.377 79.0596L862.376 79.0801L865.883 77.4268L866.337 78.2186L861.378 80.5687L861.366 80.5889Z" fill="black"/>
<path d="M867.131 76.4608C867.535 76.4928 868.379 76.4347 869.11 76.0967C870.458 75.4584 870.438 74.4739 870.088 73.89C869.518 72.9002 868.293 72.9372 867.276 73.4208L866.693 73.7016L866.281 72.9827L866.864 72.702C867.63 72.3444 868.389 71.5255 867.915 70.6818C867.598 70.1194 866.914 69.8027 865.943 70.257C865.326 70.547 864.868 71.0875 864.652 71.4606L863.988 70.8883C864.241 70.424 864.871 69.7756 865.716 69.3793C867.248 68.654 868.408 69.1584 868.894 70.0126C869.305 70.7417 869.184 71.589 868.404 72.3561L868.403 72.3766C869.469 72.0993 870.615 72.388 871.185 73.3779C871.829 74.5133 871.416 75.9673 869.554 76.8472C868.685 77.2633 867.772 77.3707 867.257 77.3254L867.121 76.4503L867.131 76.4608Z" fill="black"/>
<path d="M896.876 63.9379L896.538 63.3441L896.95 62.2181C897.956 59.551 898.342 58.2192 897.741 57.1362C897.329 56.4174 896.572 55.9347 895.418 56.4862C894.709 56.8249 894.306 57.4284 894.11 57.8636L893.388 57.3511C893.693 56.6833 894.279 56.0132 895.181 55.5878C896.861 54.7949 898.16 55.5082 898.729 56.5185C899.468 57.8309 899.029 59.3764 898.208 61.5875L897.886 62.4086L897.885 62.4291L901.393 60.7758L901.847 61.5676L896.888 63.9177L896.876 63.9379Z" fill="black"/>
<path d="M906.27 59.4873L905.172 57.56L901.561 59.2719L901.203 58.6365L902.112 52.4716L903.244 51.9296L905.744 56.336L906.83 55.8236L907.252 56.5735L906.166 57.086L907.264 59.0132L906.27 59.4873ZM904.75 56.8101L903.41 54.4455C903.199 54.0705 903 53.6959 902.812 53.3113L902.777 53.3309C902.769 53.8534 902.744 54.2524 902.728 54.6824L902.192 57.9881L902.191 58.0085L904.751 56.7999L904.75 56.8101Z" fill="black"/>
<path d="M926.239 49.8869L925.669 48.8868L926.2 47.5797C927.11 45.3916 927.491 44.2032 927.039 43.3601C926.711 42.7871 926.07 42.5025 925.168 42.9279C924.494 43.247 924.091 43.8301 923.838 44.3046L922.648 43.3587C923.01 42.6822 923.733 41.9238 924.785 41.4206C926.544 40.589 928.043 41.0722 928.771 42.3535C929.446 43.5411 929.036 44.9337 928.433 46.3823L928.03 47.2626L928.03 47.283L930.977 45.9009L931.747 47.2654L926.228 49.8764L926.239 49.8869Z" fill="black"/>
<path d="M934.828 38.5584L931.812 39.9899L932.263 41.1608C932.424 41.0629 932.561 40.9951 932.755 40.8981C933.498 40.5501 934.337 40.3381 935.085 40.4414C935.879 40.5254 936.572 40.9447 937.036 41.7676C937.785 43.0905 937.204 44.8472 935.102 45.8331C934.154 46.2777 933.26 46.4574 932.71 46.452L932.323 45.0574C932.761 45.0493 933.575 44.9083 934.284 44.5697C935.038 44.2118 935.647 43.5014 935.226 42.7515C934.804 42.0016 933.921 41.8741 932.367 42.609C931.933 42.8119 931.647 42.978 931.347 43.1746L929.751 39.214L934.036 37.183L934.806 38.5475L934.828 38.5584Z" fill="black"/>
<path d="M45.7946 462.029C47.0398 464.216 46.9233 466.181 44.9353 467.119C42.9473 468.057 41.1049 466.846 39.9651 464.846C38.8047 462.794 38.8356 460.714 40.8464 459.767C42.8573 458.819 44.6974 460.091 45.7946 462.029ZM41.7819 463.985C42.688 465.62 43.5544 466.188 44.2629 465.849C44.9715 465.511 44.8951 464.524 43.977 462.91C43.059 461.295 42.2502 460.688 41.5188 461.036C40.8447 461.355 40.8313 462.339 41.7819 463.985Z" fill="black"/>
<path d="M924.682 27.8849L929.271 35.9993" stroke="black" stroke-width="5.94" stroke-miterlimit="10"/>
<path d="M33.3618 450.05L37.9619 458.164" stroke="black" stroke-width="5.94" stroke-miterlimit="10"/>
<path d="M66.9927 434.139L71.5815 442.254" stroke="black" stroke-width="1.49" stroke-miterlimit="10"/>
<path d="M102.612 417.287L107.201 425.402" stroke="black" stroke-width="1.49" stroke-miterlimit="10"/>
<path d="M138.231 400.427L142.82 408.542" stroke="black" stroke-width="1.49" stroke-miterlimit="10"/>
<path d="M174.844 383.095L179.444 391.21" stroke="black" stroke-width="1.49" stroke-miterlimit="10"/>
<path d="M210.465 366.236L215.054 374.36" stroke="black" stroke-width="5.94" stroke-miterlimit="10"/>
<path d="M246.083 349.383L250.672 357.508" stroke="black" stroke-width="1.49" stroke-miterlimit="10"/>
<path d="M281.703 332.525L286.291 340.65" stroke="black" stroke-width="1.49" stroke-miterlimit="10"/>
<path d="M318.316 315.203L322.916 323.318" stroke="black" stroke-width="1.49" stroke-miterlimit="10"/>
<path d="M353.936 298.341L358.525 306.456" stroke="black" stroke-width="1.49" stroke-miterlimit="10"/>
<path d="M390.55 281.01L395.15 289.124" stroke="black" stroke-width="5.94" stroke-miterlimit="10"/>
<path d="M426.17 264.154L430.77 272.268" stroke="black" stroke-width="1.49" stroke-miterlimit="10"/>
<path d="M461.789 247.298L466.389 255.412" stroke="black" stroke-width="1.49" stroke-miterlimit="10"/>
<path d="M497.409 230.434L501.998 238.548" stroke="black" stroke-width="1.49" stroke-miterlimit="10"/>
<path d="M534.023 213.106L538.622 221.231" stroke="black" stroke-width="1.49" stroke-miterlimit="10"/>
<path d="M569.641 196.254L574.241 204.379" stroke="black" stroke-width="5.94" stroke-miterlimit="10"/>
<path d="M605.26 179.386L609.86 187.511" stroke="black" stroke-width="1.49" stroke-miterlimit="10"/>
<path d="M640.881 162.534L645.48 170.659" stroke="black" stroke-width="1.49" stroke-miterlimit="10"/>
<path d="M677.494 145.208L682.094 153.323" stroke="black" stroke-width="1.49" stroke-miterlimit="10"/>
<path d="M713.114 128.356L717.714 136.47" stroke="black" stroke-width="1.49" stroke-miterlimit="10"/>
<path d="M748.734 111.494L753.334 119.609" stroke="black" stroke-width="5.94" stroke-miterlimit="10"/>
<path d="M785.346 94.1678L789.947 102.283" stroke="black" stroke-width="1.49" stroke-miterlimit="10"/>
<path d="M820.966 77.306L825.566 85.4207" stroke="black" stroke-width="1.49" stroke-miterlimit="10"/>
<path d="M856.585 60.4519L861.185 68.5769" stroke="black" stroke-width="1.49" stroke-miterlimit="10"/>
<path d="M893.198 43.1182L897.798 51.2431" stroke="black" stroke-width="1.49" stroke-miterlimit="10"/>
</svg>
