<svg width="946" height="498" viewBox="0 0 946 498" fill="none" xmlns="http://www.w3.org/2000/svg">
<path d="M27.7141 471.763C20.0629 471.546 11.1613 468.967 1.2537 464.104L927.721 26.3817L942.798 53.0095C940.497 51.745 937.637 51.0284 934.418 50.9372C930.177 50.817 925.547 51.8134 921.355 53.7447C913.12 57.5501 907.637 64.3857 907.725 70.6103C905.418 69.5096 902.633 68.8874 899.615 68.8019C895.318 68.6802 890.803 69.6081 886.546 71.4761C878.58 74.9713 872.776 81.3775 871.831 87.5934C869.397 85.9663 866.207 85.0559 862.516 84.9513C858.119 84.8267 853.329 85.9005 849.02 87.9721C841.132 91.7771 835.881 98.4347 835.908 104.463C833.426 102.916 830.235 102.047 826.611 101.944C821.765 101.807 816.598 103.055 812.052 105.468C804.814 109.302 800.103 115.626 800.026 121.446C797.579 119.87 794.399 118.98 790.776 118.878C786.658 118.761 782.336 119.653 778.261 121.455C769.86 125.173 764.23 132.046 764.233 138.422C761.803 137.02 758.754 136.237 755.332 136.14C750.587 136.006 745.489 137.214 740.957 139.536C733.61 143.294 728.675 149.602 728.372 155.457C725.941 154.056 722.87 153.261 719.437 153.164C714.703 153.03 709.594 154.228 705.052 156.529C697.615 160.295 692.578 166.621 692.217 172.525C689.759 170.938 686.579 170.049 682.933 169.945C678.334 169.815 673.373 170.966 668.956 173.198C661.245 177.09 656.291 183.603 656.387 189.602C654.165 188.647 651.534 188.111 648.718 188.032C644.342 187.908 639.737 188.854 635.389 190.76C627.491 194.226 621.753 200.368 620.517 206.565C618.084 204.918 614.872 203.996 611.169 203.891C606.772 203.767 601.982 204.841 597.673 206.912C589.797 210.707 584.556 217.365 584.562 223.383C582.137 221.817 578.991 220.939 575.378 220.836C571.126 220.716 566.486 221.712 562.293 223.654C554.126 227.43 548.68 234.185 548.668 240.366C546.255 238.79 543.109 237.912 539.496 237.81C535.244 237.689 530.592 238.695 526.399 240.647C518.266 244.424 512.865 251.17 512.899 257.321C510.406 255.775 507.226 254.906 503.602 254.803C498.756 254.666 493.578 255.923 489.031 258.336C481.805 262.17 477.094 268.495 477.016 274.315C474.569 272.749 471.389 271.87 467.766 271.767C463.603 271.649 459.235 272.561 455.114 274.391C446.712 278.141 441.082 285.034 441.096 291.41C438.716 290.164 435.799 289.456 432.568 289.364C427.767 289.228 422.59 290.445 418.001 292.796C410.711 296.525 405.796 302.598 405.268 308.446C402.822 307.157 399.828 306.426 396.541 306.333C392.67 306.224 388.588 306.99 384.747 308.541C376.29 311.951 370.054 318.796 369.263 325.416C366.829 323.799 363.638 322.899 359.97 322.795C355.527 322.669 350.681 323.762 346.347 325.874C338.561 329.671 333.367 336.3 333.373 342.286C330.948 340.731 327.802 339.853 324.189 339.75C319.904 339.629 315.206 340.644 310.968 342.615C302.823 346.402 297.365 353.167 297.342 359.347C294.872 357.791 291.692 356.912 288.08 356.809C283.974 356.693 279.663 357.575 275.589 359.346C267.132 363.053 261.412 369.943 261.312 376.378C258.899 374.792 255.742 373.914 252.118 373.811C247.72 373.686 242.931 374.76 238.621 376.832C230.734 380.637 225.482 387.294 225.51 393.322C223.017 391.776 219.836 390.917 216.224 390.814C211.389 390.677 206.211 391.925 201.653 394.328C194.348 398.17 189.58 404.523 189.49 410.384C187.009 408.817 183.818 407.937 180.183 407.834C175.392 407.699 170.26 408.937 165.749 411.31C158.466 415.153 153.743 421.477 153.699 427.319C151.217 425.772 148.026 424.903 144.402 424.8C139.589 424.664 134.446 425.902 129.901 428.274C122.551 432.125 117.759 438.488 117.669 444.359C115.166 442.771 111.953 441.881 108.307 441.777C104.661 441.674 100.466 442.437 96.6809 444C87.9586 447.597 81.8643 454.887 81.9018 461.561C77.661 460.211 73.4656 459.467 69.4044 459.352C66.9138 459.281 64.4483 459.447 62.0531 459.841C55.4435 460.935 51.2751 463.451 47.2448 465.879C44.7412 467.397 42.3757 468.826 39.4839 469.903C35.9318 471.227 31.9675 471.842 27.7156 471.722L27.7141 471.763Z" fill="#FFE54D"/>
<path d="M927.52 26.9627L941.702 51.9967C939.601 51.0967 937.137 50.5963 934.433 50.5197C930.125 50.3977 925.405 51.412 921.145 53.3721C913.057 57.11 907.571 63.7404 907.267 69.9437C905.032 69.0091 902.424 68.4739 899.619 68.3944C895.255 68.2708 890.661 69.2067 886.335 71.1137C878.518 74.5414 872.755 80.7438 871.476 86.8784C869.057 85.4465 865.998 84.6423 862.52 84.5438C858.044 84.4169 853.164 85.5087 848.786 87.6193C841.081 91.3372 835.85 97.7494 835.452 103.724C833.008 102.384 829.992 101.643 826.615 101.547C821.69 101.407 816.421 102.683 811.806 105.125C804.741 108.871 800.038 114.95 799.582 120.698C797.172 119.338 794.167 118.576 790.779 118.48C786.595 118.362 782.193 119.272 778.05 121.103C769.808 124.754 764.187 131.401 763.788 137.725C761.417 136.52 758.533 135.844 755.347 135.753C750.523 135.617 745.323 136.843 740.723 139.193C733.536 142.875 728.597 148.977 727.959 154.771C725.566 153.555 722.66 152.868 719.452 152.777C714.639 152.641 709.44 153.857 704.817 156.196C697.552 159.875 692.534 165.976 691.816 171.809C689.385 170.428 686.358 169.655 682.948 169.559C678.27 169.426 673.218 170.595 668.733 172.866C661.159 176.691 656.19 183.018 655.927 188.997C653.789 188.188 651.335 187.729 648.732 187.655C644.278 187.529 639.594 188.483 635.177 190.428C627.427 193.837 621.707 199.795 620.193 205.902C617.765 204.44 614.683 203.624 611.183 203.525C606.707 203.398 601.827 204.49 597.449 206.601C589.756 210.309 584.536 216.711 584.117 222.665C581.728 221.326 578.747 220.565 575.392 220.47C571.073 220.348 566.342 221.362 562.081 223.332C554.108 227.022 548.671 233.521 548.223 239.648C545.835 238.299 542.865 237.538 539.499 237.443C535.168 237.32 530.437 238.345 526.176 240.325C518.225 244.016 512.833 250.516 512.442 256.614C509.998 255.284 506.982 254.532 503.605 254.436C498.669 254.296 493.4 255.572 488.785 258.024C481.73 261.771 477.028 267.85 476.571 273.598C474.15 272.237 471.157 271.486 467.769 271.39C463.539 271.27 459.081 272.19 454.902 274.06C446.649 277.742 441.026 284.42 440.638 290.754C438.33 289.684 435.578 289.073 432.571 288.988C427.68 288.849 422.424 290.084 417.755 292.473C410.603 296.135 405.693 302.034 404.854 307.812C402.469 306.678 399.617 306.044 396.532 305.956C392.595 305.845 388.445 306.619 384.535 308.199C376.226 311.552 370.021 318.182 368.884 324.721C366.465 323.299 363.417 322.505 359.973 322.408C355.441 322.279 350.526 323.391 346.124 325.542C338.395 329.31 333.316 335.563 332.929 341.548C330.541 340.21 327.558 339.459 324.215 339.364C319.851 339.24 315.074 340.274 310.768 342.273C302.805 345.974 297.367 352.503 296.92 358.62C294.487 357.28 291.482 356.519 288.106 356.423C283.932 356.305 279.531 357.195 275.4 359.005C267.126 362.625 261.414 369.279 260.901 375.651C258.514 374.292 255.532 373.531 252.155 373.435C247.678 373.308 242.798 374.4 238.42 376.511C230.715 380.229 225.484 386.641 225.087 392.616C222.642 391.286 219.626 390.544 216.26 390.449C211.335 390.309 206.078 391.575 201.441 394.016C194.319 397.771 189.558 403.889 189.078 409.678C186.634 408.327 183.607 407.565 180.219 407.469C175.339 407.33 170.127 408.587 165.536 410.999C158.425 414.744 153.711 420.843 153.287 426.612C150.843 425.272 147.827 424.531 144.45 424.435C139.558 424.296 134.313 425.552 129.699 427.974C122.532 431.727 117.738 437.855 117.268 443.664C114.802 442.292 111.764 441.519 108.354 441.422C104.461 441.312 100.367 442.088 96.5133 443.68C87.8938 447.229 81.7828 454.364 81.4613 461.028C77.385 459.785 73.3447 459.097 69.4406 458.986C66.9276 458.915 64.4172 459.08 61.988 459.482C55.2766 460.594 51.0739 463.13 47.0088 465.587C44.5284 467.086 42.1745 468.505 39.328 469.573C35.8327 470.878 31.9364 471.475 27.763 471.357C20.3811 471.147 11.8221 468.721 2.29779 464.126L891.205 44.1183L927.52 26.9627ZM927.922 25.8055C618.703 171.9 309.485 317.994 0.266446 464.089C11.814 469.869 20.7547 471.988 27.7104 472.185C32.6242 472.325 36.5286 471.502 39.6597 470.33C47.3447 467.463 51.5858 462.027 62.1384 460.286C64.6581 459.865 67.0884 459.74 69.3883 459.805C74.5489 459.951 79.0444 461.093 82.3955 462.203C81.9564 455.456 88.1003 448.034 96.8795 444.418C100.676 442.855 104.644 442.137 108.302 442.241C112.127 442.349 115.605 443.36 118.175 445.278C117.764 439.29 122.588 432.651 130.145 428.683C134.724 426.291 139.797 425.133 144.397 425.264C148.178 425.371 151.635 426.35 154.205 428.227C153.748 422.289 158.493 415.669 165.981 411.729C170.527 409.337 175.589 408.178 180.166 408.308C183.958 408.415 187.415 409.405 189.973 411.302C189.562 405.335 194.352 398.705 201.875 394.746C206.455 392.334 211.573 391.167 216.195 391.298C219.976 391.405 223.433 392.384 226.015 394.252C225.43 388.136 230.669 381.191 238.831 377.26C243.197 375.16 247.883 374.165 252.101 374.284C255.904 374.392 259.327 375.401 261.795 377.316C261.336 370.794 267.171 363.538 275.776 359.774C279.839 357.993 284.126 357.161 288.041 357.272C291.956 357.383 295.289 358.379 297.826 360.266C297.29 353.998 302.77 346.926 311.155 343.033C315.451 341.033 320.022 340.096 324.151 340.213C327.943 340.32 331.365 341.319 333.857 343.215C333.281 337.12 338.474 330.225 346.535 326.281C350.926 324.14 355.657 323.126 359.92 323.247C363.723 323.355 367.145 324.364 369.636 326.28C369.984 319.504 376.283 312.445 384.911 308.969C388.764 307.417 392.788 306.701 396.501 306.806C399.957 306.904 403.139 307.712 405.678 309.229C405.837 303.329 410.784 297.011 418.211 293.214C422.834 290.844 427.929 289.707 432.54 289.837C435.951 289.934 439.1 290.731 441.583 292.246C441.065 285.825 446.774 278.627 455.301 274.83C459.411 272.999 463.766 272.138 467.726 272.25C471.686 272.362 474.974 273.357 477.488 275.253C477.064 269.316 481.797 262.716 489.252 258.765C493.833 256.333 498.94 255.165 503.574 255.296C507.354 255.404 510.822 256.383 513.393 258.271C512.8 252.042 518.235 244.979 526.597 241.096C530.858 239.115 535.384 238.187 539.468 238.303C543.271 238.411 546.693 239.42 549.172 241.336C548.615 235.067 554.106 227.975 562.502 224.103C566.751 222.132 571.277 221.215 575.361 221.33C579.164 221.438 582.586 222.447 585.078 224.343C584.492 218.227 589.731 211.282 597.893 207.351C602.26 205.251 606.945 204.256 611.163 204.376C614.967 204.483 618.389 205.493 620.857 207.408C621.738 201.118 627.552 194.723 635.587 191.188C639.913 189.281 644.506 188.376 648.701 188.495C651.719 188.58 654.527 189.193 656.888 190.346C656.367 184.315 661.364 177.547 669.178 173.607C673.64 171.355 678.508 170.284 682.906 170.408C686.698 170.516 690.143 171.515 692.656 173.421C692.55 167.401 697.584 160.84 705.262 156.947C709.85 154.627 714.866 153.508 719.409 153.637C722.999 153.739 726.291 154.621 728.824 156.303C728.671 150.343 733.614 143.83 741.178 139.954C745.744 137.613 750.772 136.495 755.315 136.624C758.916 136.726 762.219 137.619 764.74 139.32C764.2 132.888 769.932 125.68 778.458 121.904C782.533 120.102 786.831 119.26 790.747 119.371C794.561 119.479 797.995 120.489 800.508 122.395C800.085 116.448 804.817 109.858 812.284 105.897C816.853 103.474 821.972 102.297 826.594 102.428C830.375 102.535 833.843 103.515 836.413 105.402C835.828 99.2864 841.067 92.3414 849.229 88.4109C853.595 86.3102 858.281 85.3154 862.499 85.435C866.302 85.5427 869.725 86.552 872.193 88.467C872.739 82.1169 878.561 75.5062 886.744 71.9146C890.99 70.0463 895.492 69.1693 899.598 69.2856C902.817 69.3768 905.801 70.0867 908.235 71.4164C907.666 65.1475 913.169 58.0562 921.564 54.1836C925.814 52.2231 930.317 51.3051 934.4 51.4208C938.204 51.5286 941.626 52.5379 944.117 54.4433L927.931 25.857L927.922 25.8055Z" fill="black"/>
<path d="M219.437 376.289L216.42 377.72L216.872 378.891C217.032 378.793 217.17 378.725 217.364 378.628C218.107 378.28 218.945 378.068 219.694 378.171C220.488 378.255 221.18 378.675 221.644 379.498C222.393 380.821 221.813 382.577 219.711 383.563C218.763 384.008 217.869 384.187 217.319 384.182L216.932 382.787C217.37 382.779 218.184 382.638 218.892 382.3C219.646 381.942 220.256 381.232 219.834 380.482C219.413 379.732 218.53 379.604 216.976 380.339C216.542 380.542 216.255 380.708 215.956 380.905L214.36 376.944L218.645 374.913L219.415 376.278L219.437 376.289Z" fill="black"/>
<path d="M252.78 359.645C252.564 359.731 252.289 359.877 252.012 360.064C250.504 361.098 250.258 362.608 250.74 363.861L250.774 363.842C250.887 363.22 251.327 362.546 252.184 362.139C253.555 361.491 255.044 361.933 255.824 363.319C256.563 364.621 256.267 366.273 254.655 367.037C253.044 367.801 251.237 367.166 250.193 365.322C249.401 363.926 249.328 362.561 249.703 361.505C250.016 360.623 250.684 359.852 251.592 359.283C251.879 359.097 252.131 358.96 252.326 358.864L252.769 359.645L252.78 359.645ZM254.793 363.874C254.224 362.863 253.236 362.548 252.265 363.003C251.636 363.303 251.254 363.937 251.252 364.593C251.247 364.737 251.275 364.901 251.369 365.078C252.057 366.236 253.125 366.819 254.233 366.297C255.147 365.862 255.362 364.894 254.793 363.874Z" fill="black"/>
<path d="M289.511 341.549L289.869 342.184L290.137 350.238L289.052 350.75L288.878 342.884L288.879 342.864L285.063 344.662L284.609 343.87L289.511 341.549Z" fill="black"/>
<path d="M323.745 331.912C323.239 331.017 323.463 330.111 324.212 329.281L324.179 329.25C323.111 329.291 322.397 328.851 322.049 328.236C321.416 327.111 322.023 325.857 323.383 325.209C324.892 324.493 326.131 325 326.626 325.885C326.964 326.489 327.013 327.28 326.285 328.151L326.307 328.182C327.479 328.072 328.421 328.406 328.906 329.271C329.602 330.5 328.912 331.884 327.427 332.58C325.804 333.354 324.315 332.933 323.735 331.892L323.745 331.912ZM327.907 329.888C327.422 329.024 326.527 328.927 325.317 329.149C324.54 329.823 324.366 330.597 324.746 331.274C325.123 332.013 326.076 332.358 327.07 331.894C328.064 331.43 328.318 330.627 327.907 329.888ZM323 327.709C323.401 328.418 324.206 328.523 325.224 328.316C325.771 327.788 326.043 327.109 325.673 326.473C325.357 325.911 324.653 325.491 323.705 325.936C322.836 326.352 322.652 327.095 323 327.709Z" fill="black"/>
<path d="M72.5868 445.352L72.5644 445.351L71.5844 446.666L70.9674 446.034L72.1949 444.398L73.0975 443.973L77.1063 451.056L76.0893 451.539L72.5872 445.342L72.5868 445.352Z" fill="black"/>
<path d="M110.246 435.377L109.908 434.783L110.32 433.657C111.327 430.99 111.712 429.658 111.111 428.575C110.7 427.856 109.942 427.374 108.788 427.925C108.08 428.264 107.676 428.867 107.48 429.302L106.758 428.79C107.063 428.122 107.649 427.452 108.552 427.027C110.231 426.234 111.53 426.947 112.1 427.957C112.838 429.27 112.4 430.815 111.578 433.026L111.256 433.848L111.255 433.868L114.763 432.215L115.217 433.007L110.258 435.357L110.246 435.377Z" fill="black"/>
<path d="M145.26 417.263C145.663 417.295 146.507 417.237 147.238 416.899C148.587 416.261 148.566 415.276 148.217 414.692C147.647 413.702 146.421 413.739 145.404 414.223L144.821 414.504L144.41 413.785L144.993 413.504C145.758 413.147 146.518 412.328 146.043 411.484C145.727 410.922 145.042 410.605 144.071 411.059C143.454 411.349 142.997 411.89 142.781 412.263L142.117 411.691C142.37 411.226 143 410.578 143.845 410.182C145.376 409.456 146.537 409.961 147.022 410.815C147.433 411.544 147.313 412.391 146.532 413.158L146.532 413.179C147.597 412.902 148.743 413.19 149.314 414.18C149.957 415.316 149.545 416.77 147.682 417.649C146.814 418.066 145.9 418.173 145.386 418.128L145.249 417.253L145.26 417.263Z" fill="black"/>
<path d="M184.4 400.286L183.302 398.358L179.691 400.07L179.333 399.435L180.242 393.27L181.374 392.728L183.874 397.134L184.96 396.622L185.382 397.372L184.296 397.884L185.394 399.811L184.4 400.286ZM182.881 397.598L181.541 395.234C181.33 394.859 181.13 394.484 180.942 394.099L180.908 394.119C180.9 394.641 180.874 395.04 180.858 395.47L180.322 398.776L180.322 398.797L182.881 397.588L182.881 397.598Z" fill="black"/>
<path d="M360.533 315.924C360.772 315.839 361.025 315.692 361.369 315.486C361.933 315.123 362.377 314.623 362.601 314.025C362.873 313.356 362.891 312.557 362.564 311.656L362.53 311.676C362.37 312.358 361.911 312.939 361.134 313.307C359.74 313.964 358.289 313.431 357.614 312.223C356.855 310.879 357.253 309.2 358.841 308.445C360.429 307.691 362.076 308.404 363.1 310.216C363.986 311.779 364.026 313.133 363.64 314.177C363.341 314.999 362.708 315.709 361.916 316.199C361.559 316.435 361.239 316.6 360.976 316.715L360.533 315.934L360.533 315.924ZM358.611 311.667C359.107 312.552 360.049 312.897 360.963 312.462C361.671 312.123 362.04 311.549 362.072 310.997C362.076 310.884 362.058 310.75 361.974 310.604C361.288 309.396 360.269 308.701 359.172 309.223C358.269 309.649 358.053 310.667 358.611 311.667Z" fill="black"/>
<path d="M392.855 294.354L392.832 294.354L391.716 295.706L390.712 294.601L392.273 292.759L393.781 292.044L397.79 299.127L396.03 299.958L392.855 294.344L392.855 294.354Z" fill="black"/>
<path d="M404.082 291.635C405.328 293.823 405.211 295.787 403.223 296.725C401.235 297.663 399.393 296.453 398.253 294.453C397.093 292.4 397.123 290.321 399.134 289.373C401.214 288.387 402.985 289.698 404.082 291.635ZM400.07 293.582C400.976 295.216 401.843 295.784 402.551 295.446C403.26 295.107 403.183 294.121 402.265 292.506C401.347 290.891 400.538 290.284 399.807 290.633C399.133 290.952 399.12 291.935 400.07 293.582Z" fill="black"/>
<path d="M429.045 276.653L429.022 276.652L428.042 277.967L427.425 277.334L428.653 275.699L429.556 275.273L433.564 282.356L432.547 282.84L429.045 276.642L429.045 276.653Z" fill="black"/>
<path d="M435.181 273.749L435.159 273.749L434.179 275.064L433.562 274.431L434.789 272.795L435.692 272.37L439.701 279.453L438.684 279.937L435.182 273.739L435.181 273.749Z" fill="black"/>
<path d="M464.492 259.879L464.47 259.878L463.49 261.193L462.873 260.561L464.1 258.925L465.003 258.499L469.012 265.583L467.995 266.066L464.493 259.869L464.492 259.879Z" fill="black"/>
<path d="M471.857 264.251L471.519 263.657L471.931 262.531C472.937 259.864 473.323 258.532 472.722 257.45C472.31 256.731 471.553 256.248 470.399 256.799C469.69 257.138 469.287 257.742 469.091 258.177L468.369 257.664C468.674 256.997 469.26 256.326 470.162 255.901C471.842 255.108 473.141 255.821 473.71 256.832C474.449 258.144 474.01 259.69 473.189 261.901L472.867 262.722L472.866 262.742L476.374 261.089L476.828 261.881L471.869 264.231L471.857 264.251Z" fill="black"/>
<path d="M499.866 242.987L499.844 242.987L498.864 244.302L498.247 243.669L499.474 242.033L500.377 241.608L504.386 248.691L503.369 249.175L499.867 242.977L499.866 242.987Z" fill="black"/>
<path d="M506.86 246.135C507.264 246.167 508.108 246.109 508.839 245.771C510.187 245.132 510.167 244.148 509.818 243.564C509.247 242.574 508.022 242.611 507.005 243.095L506.422 243.376L506.01 242.657L506.593 242.376C507.359 242.018 508.118 241.2 507.644 240.356C507.327 239.793 506.643 239.477 505.672 239.931C505.055 240.221 504.597 240.762 504.381 241.135L503.717 240.562C503.97 240.098 504.6 239.45 505.445 239.053C506.977 238.328 508.137 238.832 508.623 239.687C509.034 240.416 508.913 241.263 508.133 242.03L508.132 242.051C509.198 241.773 510.344 242.062 510.914 243.052C511.558 244.187 511.145 245.641 509.283 246.521C508.414 246.937 507.501 247.045 506.986 246.999L506.85 246.124L506.86 246.135Z" fill="black"/>
<path d="M536.383 225.848L536.36 225.847L535.38 227.162L534.763 226.53L535.991 224.894L536.893 224.468L540.902 231.552L539.885 232.035L536.383 225.838L536.383 225.848Z" fill="black"/>
<path d="M546.994 228.684L545.896 226.757L542.286 228.469L541.927 227.834L542.837 221.669L543.968 221.127L546.469 225.533L547.554 225.021L547.976 225.771L546.891 226.283L547.988 228.21L546.994 228.684ZM545.475 225.997L544.135 223.632C543.924 223.257 543.724 222.883 543.536 222.498L543.502 222.518C543.494 223.04 543.468 223.439 543.453 223.869L542.917 227.175L542.916 227.195L545.475 225.987L545.475 225.997Z" fill="black"/>
<path d="M571.091 210.001L571.069 210.001L569.952 211.363L568.948 210.258L570.509 208.417L572.017 207.701L576.026 214.784L574.266 215.616L571.091 210.001Z" fill="black"/>
<path d="M580.545 205.39L577.528 206.821L577.98 207.992C578.141 207.894 578.278 207.827 578.472 207.73C579.215 207.382 580.053 207.17 580.802 207.273C581.596 207.357 582.288 207.776 582.753 208.599C583.502 209.922 582.921 211.679 580.819 212.665C579.871 213.109 578.977 213.289 578.427 213.284L578.04 211.889C578.478 211.881 579.292 211.74 580 211.401C580.755 211.043 581.364 210.333 580.942 209.583C580.521 208.833 579.638 208.706 578.084 209.44C577.65 209.643 577.363 209.81 577.064 210.006L575.468 206.045L579.753 204.015L580.523 205.379L580.545 205.39Z" fill="black"/>
<path d="M607.205 192.183L607.182 192.182L606.202 193.497L605.585 192.865L606.813 191.229L607.715 190.803L611.724 197.886L610.707 198.37L607.205 192.172L607.205 192.183Z" fill="black"/>
<path d="M615.373 188.048C615.157 188.134 614.882 188.28 614.606 188.467C613.097 189.501 612.851 191.011 613.333 192.264L613.367 192.245C613.48 191.623 613.92 190.949 614.777 190.542C616.148 189.894 617.637 190.336 618.417 191.722C619.156 193.024 618.86 194.676 617.248 195.44C615.637 196.204 613.83 195.569 612.786 193.725C611.994 192.329 611.921 190.964 612.296 189.908C612.609 189.026 613.277 188.255 614.185 187.686C614.472 187.5 614.724 187.364 614.919 187.267L615.362 188.048L615.373 188.048ZM617.386 192.277C616.817 191.266 615.829 190.951 614.858 191.406C614.229 191.706 613.847 192.34 613.845 192.996C613.84 193.14 613.868 193.304 613.962 193.481C614.65 194.639 615.718 195.222 616.826 194.7C617.74 194.265 617.955 193.297 617.386 192.277Z" fill="black"/>
<path d="M643.721 175.056L643.699 175.056L642.719 176.37L642.102 175.738L643.329 174.102L644.232 173.677L648.241 180.76L647.224 181.244L643.722 175.046L643.721 175.056Z" fill="black"/>
<path d="M652.116 169.943L652.475 170.578L652.743 178.632L651.657 179.144L651.484 171.278L651.484 171.257L647.668 173.056L647.214 172.264L652.116 169.943Z" fill="black"/>
<path d="M681.094 157.216L681.072 157.215L680.092 158.53L679.475 157.898L680.702 156.262L681.605 155.836L685.614 162.92L684.597 163.403L681.094 157.206L681.094 157.216Z" fill="black"/>
<path d="M687.345 159.832C686.838 158.936 687.062 158.031 687.811 157.201L687.779 157.169C686.71 157.211 685.996 156.77 685.648 156.156C685.016 155.031 685.623 153.777 686.983 153.129C688.491 152.413 689.73 152.92 690.226 153.805C690.563 154.409 690.613 155.2 689.885 156.071L689.906 156.102C691.078 155.992 692.02 156.326 692.505 157.191C693.202 158.42 692.511 159.804 691.026 160.5C689.403 161.274 687.914 160.853 687.334 159.811L687.345 159.832ZM691.506 157.808C691.021 156.944 690.126 156.846 688.916 157.068C688.139 157.743 687.965 158.517 688.345 159.194C688.722 159.933 689.675 160.278 690.669 159.814C691.663 159.35 691.917 158.547 691.506 157.808ZM686.6 155.629C687 156.338 687.805 156.442 688.823 156.236C689.37 155.708 689.642 155.029 689.272 154.393C688.956 153.831 688.252 153.411 687.304 153.856C686.436 154.272 686.251 155.015 686.6 155.629Z" fill="black"/>
<path d="M715.537 140.924L715.515 140.923L714.535 142.238L713.918 141.606L715.145 139.97L716.036 139.544L720.045 146.627L719.028 147.111L715.526 140.913L715.537 140.924Z" fill="black"/>
<path d="M723.139 144.319C723.378 144.234 723.63 144.087 723.975 143.881C724.538 143.518 724.983 143.018 725.207 142.42C725.478 141.751 725.496 140.952 725.17 140.051L725.135 140.071C724.976 140.753 724.516 141.334 723.74 141.702C722.346 142.359 720.894 141.826 720.219 140.618C719.46 139.275 719.858 137.595 721.446 136.84C723.035 136.086 724.682 136.799 725.705 138.611C726.591 140.174 726.632 141.528 726.246 142.572C725.946 143.394 725.314 144.104 724.521 144.594C724.176 144.83 723.844 144.995 723.582 145.111L723.138 144.329L723.139 144.319ZM721.205 140.062C721.701 140.947 722.643 141.292 723.557 140.856C724.266 140.518 724.635 139.944 724.666 139.391C724.67 139.279 724.652 139.145 724.568 138.999C723.882 137.791 722.863 137.096 721.766 137.618C720.875 138.044 720.647 139.062 721.205 140.062Z" fill="black"/>
<path d="M751.174 131.904L750.604 130.904L751.134 129.597C752.045 127.409 752.425 126.22 751.973 125.377C751.646 124.804 751.005 124.52 750.102 124.945C749.428 125.264 749.025 125.847 748.772 126.322L747.583 125.376C747.944 124.699 748.668 123.941 749.719 123.438C751.479 122.606 752.977 123.089 753.705 124.371C754.381 125.558 753.971 126.951 753.368 128.399L752.965 129.28L752.964 129.3L755.912 127.918L756.682 129.283L751.163 131.894L751.174 131.904Z" fill="black"/>
<path d="M761.535 122.455C762.78 124.643 762.663 126.607 760.675 127.545C758.687 128.483 756.845 127.273 755.705 125.273C754.545 123.221 754.576 121.141 756.587 120.193C758.597 119.246 760.437 120.518 761.535 122.455ZM757.522 124.412C758.428 126.047 759.294 126.614 760.003 126.276C760.712 125.937 760.635 124.951 759.717 123.336C758.799 121.722 757.99 121.115 757.259 121.463C756.585 121.782 756.571 122.765 757.522 124.412Z" fill="black"/>
<path d="M789.712 113.817L789.375 113.223L789.786 112.097C790.793 109.43 791.178 108.098 790.578 107.015C790.166 106.296 789.409 105.814 788.255 106.365C787.546 106.704 787.142 107.307 786.947 107.742L786.224 107.23C786.529 106.562 787.115 105.892 788.018 105.467C789.697 104.674 790.997 105.387 791.566 106.397C792.304 107.71 791.866 109.255 791.044 111.466L790.723 112.287L790.722 112.308L794.229 110.655L794.683 111.446L789.724 113.797L789.712 113.817Z" fill="black"/>
<path d="M794.633 103.638L794.61 103.638L793.631 104.952L793.014 104.32L794.241 102.684L795.144 102.259L799.152 109.342L798.135 109.826L794.633 103.628L794.633 103.638Z" fill="black"/>
<path d="M824.167 97.5105L823.83 96.9167L824.241 95.7906C825.248 93.1235 825.633 91.7918 825.033 90.7088C824.621 89.9899 823.864 89.5072 822.71 90.0588C822.001 90.3974 821.597 91.0009 821.402 91.4361L820.679 90.9237C820.984 90.2559 821.57 89.5857 822.473 89.1603C824.153 88.3675 825.452 89.0807 826.021 90.0911C826.759 91.4034 826.321 92.949 825.499 95.1601L825.178 95.9812L825.177 96.0016L828.684 94.3484L829.138 95.1402L824.179 97.4903L824.167 97.5105Z" fill="black"/>
<path d="M830.305 94.5996L829.967 94.0058L830.379 92.8797C831.386 90.2126 831.771 88.8809 831.17 87.7979C830.759 87.079 830.001 86.5964 828.847 87.1479C828.139 87.4865 827.735 88.0901 827.539 88.5252L826.817 88.0128C827.122 87.345 827.708 86.6749 828.61 86.2495C830.29 85.4566 831.589 86.1699 832.159 87.1802C832.897 88.4926 832.459 90.0381 831.637 92.2492L831.315 93.0703L831.314 93.0907L834.822 91.4375L835.276 92.2293L830.317 94.5794L830.305 94.5996Z" fill="black"/>
<path d="M860.547 80.1459L860.209 79.5521L860.621 78.426C861.628 75.7589 862.013 74.4272 861.412 73.3442C861.001 72.6253 860.243 72.1426 859.089 72.6941C858.381 73.0328 857.977 73.6363 857.781 74.0715L857.059 73.5591C857.364 72.8913 857.95 72.2211 858.852 71.7957C860.532 71.0029 861.831 71.7161 862.401 72.7265C863.139 74.0388 862.701 75.5843 861.879 77.7955L861.557 78.6165L861.556 78.637L865.064 76.9837L865.518 77.7756L860.559 80.1257L860.547 80.1459Z" fill="black"/>
<path d="M866.312 76.0179C866.715 76.0498 867.559 75.9917 868.29 75.6537C869.638 75.0154 869.618 74.0309 869.269 73.447C868.699 72.4572 867.473 72.4942 866.456 72.9778L865.873 73.2586L865.462 72.5397L866.045 72.259C866.81 71.9014 867.57 71.0825 867.095 70.2388C866.779 69.6764 866.094 69.3598 865.123 69.814C864.506 70.104 864.049 70.6445 863.833 71.0176L863.169 70.4453C863.421 69.981 864.051 69.3326 864.897 68.9363C866.428 68.211 867.589 68.7154 868.074 69.5696C868.485 70.2987 868.365 71.146 867.584 71.9131L867.584 71.9336C868.649 71.6563 869.795 71.945 870.366 72.9349C871.009 74.0703 870.597 75.5243 868.734 76.4042C867.866 76.8203 866.952 76.9277 866.438 76.8824L866.301 76.0073L866.312 76.0179Z" fill="black"/>
<path d="M896.056 63.4949L895.718 62.9011L896.13 61.7751C897.137 59.108 897.522 57.7762 896.922 56.6932C896.51 55.9744 895.753 55.4917 894.598 56.0432C893.89 56.3818 893.486 56.9854 893.291 57.4206L892.568 56.9081C892.873 56.2403 893.459 55.5702 894.362 55.1448C896.041 54.3519 897.34 55.0652 897.91 56.0755C898.648 57.3879 898.21 58.9334 897.388 61.1445L897.066 61.9656L897.066 61.9861L900.573 60.3328L901.027 61.1246L896.068 63.4747L896.056 63.4949Z" fill="black"/>
<path d="M905.45 59.0442L904.352 57.117L900.742 58.8288L900.383 58.1935L901.293 52.0285L902.424 51.4866L904.925 55.893L906.01 55.3805L906.432 56.1305L905.347 56.6429L906.444 58.5702L905.45 59.0442ZM903.931 56.3671L902.591 54.0025C902.38 53.6275 902.18 53.2529 901.992 52.8683L901.958 52.8878C901.95 53.4103 901.924 53.8093 901.908 54.2394L901.372 57.545L901.372 57.5655L903.931 56.3568L903.931 56.3671Z" fill="black"/>
<path d="M925.42 49.4439L924.85 48.4438L925.38 47.1366C926.291 44.9485 926.671 43.7601 926.219 42.9171C925.892 42.3441 925.251 42.0594 924.348 42.4848C923.674 42.804 923.271 43.387 923.018 43.8616L921.828 42.9157C922.19 42.2392 922.914 41.4807 923.965 40.9776C925.725 40.146 927.223 40.6291 927.951 41.9105C928.627 43.098 928.216 44.4906 927.613 45.9392L927.211 46.8195L927.21 46.84L930.158 45.4578L930.927 46.8223L925.409 49.4333L925.42 49.4439Z" fill="black"/>
<path d="M934.009 38.1154L930.992 39.5469L931.443 40.7179C931.604 40.6199 931.741 40.5521 931.936 40.4551C932.678 40.1071 933.517 39.8952 934.266 39.9984C935.06 40.0824 935.752 40.5017 936.216 41.3246C936.965 42.6475 936.385 44.4042 934.282 45.3901C933.334 45.8347 932.441 46.0144 931.891 46.009L931.503 44.6144C931.942 44.6063 932.755 44.4654 933.464 44.1267C934.218 43.7689 934.828 43.0584 934.406 42.3085C933.984 41.5586 933.102 41.4311 931.548 42.166C931.114 42.369 930.827 42.5351 930.528 42.7316L928.932 38.771L933.217 36.7401L933.987 38.1046L934.009 38.1154Z" fill="black"/>
<path d="M44.975 461.586C46.2203 463.773 46.1037 465.738 44.1157 466.676C42.1277 467.614 40.2854 466.403 39.1455 464.403C37.9851 462.351 38.016 460.271 40.0268 459.324C42.0377 458.376 43.8778 459.648 44.975 461.586ZM40.9623 463.542C41.8684 465.177 42.7348 465.745 43.4433 465.406C44.1519 465.068 44.0755 464.081 43.1575 462.467C42.2394 460.852 41.4306 460.245 40.6992 460.593C40.0251 460.912 40.0117 461.896 40.9623 463.542Z" fill="black"/>
<path d="M923.862 27.4419L928.451 35.5563" stroke="black" stroke-width="5.94" stroke-miterlimit="10"/>
<path d="M32.5423 449.607L37.1423 457.721" stroke="black" stroke-width="5.94" stroke-miterlimit="10"/>
<path d="M66.1731 433.696L70.7619 441.811" stroke="black" stroke-width="1.49" stroke-miterlimit="10"/>
<path d="M101.793 416.844L106.382 424.959" stroke="black" stroke-width="1.49" stroke-miterlimit="10"/>
<path d="M137.411 399.984L142 408.099" stroke="black" stroke-width="1.49" stroke-miterlimit="10"/>
<path d="M174.025 382.652L178.625 390.767" stroke="black" stroke-width="1.49" stroke-miterlimit="10"/>
<path d="M209.646 365.793L214.234 373.917" stroke="black" stroke-width="5.94" stroke-miterlimit="10"/>
<path d="M245.264 348.94L249.852 357.065" stroke="black" stroke-width="1.49" stroke-miterlimit="10"/>
<path d="M280.883 332.082L285.472 340.207" stroke="black" stroke-width="1.49" stroke-miterlimit="10"/>
<path d="M317.497 314.76L322.097 322.875" stroke="black" stroke-width="1.49" stroke-miterlimit="10"/>
<path d="M353.116 297.898L357.705 306.013" stroke="black" stroke-width="1.49" stroke-miterlimit="10"/>
<path d="M389.73 280.567L394.33 288.681" stroke="black" stroke-width="5.94" stroke-miterlimit="10"/>
<path d="M425.35 263.711L429.951 271.825" stroke="black" stroke-width="1.49" stroke-miterlimit="10"/>
<path d="M460.969 246.855L465.569 254.969" stroke="black" stroke-width="1.49" stroke-miterlimit="10"/>
<path d="M496.59 229.991L501.179 238.105" stroke="black" stroke-width="1.49" stroke-miterlimit="10"/>
<path d="M533.203 212.663L537.803 220.788" stroke="black" stroke-width="1.49" stroke-miterlimit="10"/>
<path d="M568.822 195.811L573.421 203.936" stroke="black" stroke-width="5.94" stroke-miterlimit="10"/>
<path d="M604.441 178.943L609.04 187.068" stroke="black" stroke-width="1.49" stroke-miterlimit="10"/>
<path d="M640.061 162.091L644.661 170.216" stroke="black" stroke-width="1.49" stroke-miterlimit="10"/>
<path d="M676.674 144.765L681.274 152.88" stroke="black" stroke-width="1.49" stroke-miterlimit="10"/>
<path d="M712.294 127.913L716.894 136.027" stroke="black" stroke-width="1.49" stroke-miterlimit="10"/>
<path d="M747.914 111.051L752.514 119.166" stroke="black" stroke-width="5.94" stroke-miterlimit="10"/>
<path d="M784.527 93.7249L789.127 101.84" stroke="black" stroke-width="1.49" stroke-miterlimit="10"/>
<path d="M820.147 76.863L824.747 84.9778" stroke="black" stroke-width="1.49" stroke-miterlimit="10"/>
<path d="M855.766 60.0089L860.365 68.1339" stroke="black" stroke-width="1.49" stroke-miterlimit="10"/>
<path d="M892.379 42.6752L896.979 50.8001" stroke="black" stroke-width="1.49" stroke-miterlimit="10"/>
</svg>
