<svg width="87" height="181" viewBox="0 0 87 181" fill="none" xmlns="http://www.w3.org/2000/svg">
<path d="M65.6635 31.3628C67.1192 31.435 68.575 31.5095 70.0329 31.5817C77.5066 33.298 82.4365 35.614 84.5577 43.4992C81.4273 40.3469 76.0202 36.7195 71.7799 35.5177C67.9467 34.4319 65.5847 34.7691 61.9507 36.3934C54.8558 39.561 51.8414 46.6647 51.2482 46.2334C50.4076 44.1888 54.8033 37.7594 56.1627 36.2839C58.0388 34.248 62.949 31.6824 65.6635 31.3628Z" fill="white"/>
<path d="M16.6246 39.4555C12.4938 45.5018 6.014 50.3879 4.72024 58.0432C7.29025 52.2771 13.3081 44.4663 18.3715 40.8762C16.9377 39.6591 17.6491 39.0592 16.6246 39.4555C17.2069 38.3259 17.7892 37.1963 18.3715 36.0667C19.1027 34.8649 20.8474 33.8535 20.5563 32.3496C20.46 31.8483 17.3711 28.7507 17.9359 22.7285C11.7626 20.8633 17.752 16.3647 20.3396 13.9808C20.0484 12.0478 20.5388 9.80831 21.4319 8.07673C21.3662 5.66214 20.0331 -0.176226 22.4148 2.06324C22.938 0.738822 23.7874 2.79002 24.3807 2.71997C24.7659 2.674 25.0374 0.333837 31.5894 2.50106C37.4978 -2.4135 38.704 7.90817 40.8734 11.5771C39.9321 16.5376 46.379 18.0678 45.024 20.9794C44.0279 23.1181 40.6764 22.1352 40.4378 22.5095C40.2911 23.8208 40.1466 25.1343 40 26.4456C41.5214 30.2087 43.3712 37.4371 36.8323 33.9892C35.4247 37.0146 36.0421 38.6105 32.3534 39.346C35.0745 43.0784 34.7811 48.8117 36.285 50.7163C37.1585 51.4452 38.032 52.1742 38.9054 52.9032C40.348 54.6764 40.6742 58.2993 44.2578 56.7298C44.3672 56.8392 44.4767 56.9487 44.5862 57.0581C43.8484 57.6404 45.0897 59.2538 45.3502 59.3545C51.3571 57.8593 57.364 56.3664 63.3709 54.8712C62.3267 49.8669 64.6012 50.3419 64.6822 50.0595C64.3911 49.6217 64.0999 49.1839 63.8088 48.7482C63.2264 46.1016 65.2076 46.5438 65.3368 46.3424C64.9361 42.9537 64.5355 39.5627 64.1349 36.174C58.1959 37.8136 53.3426 43.2908 50.8098 48.6388C49.4175 42.4086 56.6241 33.3632 62.6047 31.5812C63.7869 27.1855 67.9593 26.5879 69.1568 30.9245C78.7144 32.7984 83.4582 34.9459 85.4306 45.0289C84.9293 45.7667 83.4035 42.6756 80.9517 40.7646C78.1124 38.5514 72.1449 35.7011 68.5 35.2983C67.9462 38.987 68.6401 42.6625 69.0451 46.3424C72.771 44.1533 72.6637 46.9597 72.8673 47.1086C73.3401 47.2181 73.813 47.3275 74.288 47.437C74.4697 47.9842 74.6514 48.5293 74.8331 49.0766C75.3366 49.394 76.7771 48.028 76.0349 51.5919C79.6535 52.2355 77.1908 54.8471 77.1273 55.0901C76.2976 58.2556 76.6632 60.6132 70.4658 62.4149C71.0854 69.8863 71.7027 77.3578 72.3222 84.8292C73.9597 93.8286 74.8463 103.016 75.816 112.165V116.538C76.4706 121.131 77.1273 125.722 77.7819 130.315C78.1453 134.907 78.5108 139.498 78.8742 144.091C79.0209 144.31 79.1654 144.528 79.312 144.747C76.0546 148.309 76.7048 145.03 75.5993 141.904C73.3949 126.948 71.8713 111.941 70.7942 96.8562C69.5048 90.1575 68.8984 83.3318 68.3906 76.5193C66.9348 71.9528 66.9852 67.0339 66.2058 62.3054C57.1757 65.079 53.2594 73.2094 42.397 76.3004C43.8068 78.8332 46.1776 82.5022 43.9251 85.0481C43.7215 87.2876 45.267 90.3042 43.2705 91.39C42.7429 97.4144 45.6523 93.3886 47.0927 98.9336C51.0834 98.9533 54.6189 98.3448 57.0313 102.103C57.3706 106.545 57.2327 111.077 55.5033 115.225C55.477 120.788 53.6863 126.177 53.0996 131.626C52.9529 131.773 52.8085 131.917 52.6618 132.064C53.2441 134.397 53.8264 136.729 54.4087 139.062C54.759 141.799 53.7476 148.386 56.484 148.138C58.3119 147.972 59.3036 141.129 65.6586 142.453C67.8411 142.909 67.5368 146.245 68.0622 146.389C68.4847 146.505 69.0407 145.36 69.0451 147.155C69.0517 149.373 67.4164 148.591 67.2982 149.123C67.2544 149.318 69.1677 151.488 66.2058 151.748C65.6739 154.296 65.05 152.379 64.1306 152.733C63.3293 153.534 62.5281 154.338 61.7269 155.139C59.5334 156.472 55.2603 156.446 56.1578 160.06C49.2774 165.48 51.0572 162.621 49.932 161.919C49.7875 161.829 48.5003 162 46.8738 160.608C42.5984 156.945 46.6811 152.591 44.3629 148.033C45.0524 142.915 41.1646 133.616 43.9251 133.6C43.2683 128.706 44.9102 123.894 44.3629 118.949C44.5621 116.887 47.0423 109.522 45.3458 110.092C44.9999 110.208 44.6584 113.285 41.0858 115.886C39.7329 118.907 38.958 124.08 35.1883 124.415C34.6585 130.573 30.0702 139.377 29.5097 145.19C29.4375 150.001 29.3631 154.811 29.2908 159.622C29.4375 159.914 29.582 160.205 29.7287 160.498C27.6468 163.401 24.477 167.308 27.8723 170.229C28.8837 167.05 31.8915 165.697 34.8621 167.385C37.986 169.16 35.6349 172.753 35.845 173.398C35.9567 173.744 36.9462 173.744 36.7185 174.491C36.5762 174.957 29.3784 178.771 28.7457 180.067C28.4546 179.92 28.1634 179.775 27.8723 179.629C21.9573 179.802 24.7222 179.011 22.5199 175.802C21.3903 174.891 20.2629 173.981 19.1333 173.068C18.0848 172.926 17.6842 174.791 17.3864 174.817C15.6746 173.687 13.9649 172.558 12.253 171.428C13.2337 167.444 9.70922 161.882 16.8392 161.807C17.7126 159.692 18.5861 157.58 19.4595 155.465C19.3282 147.061 19.7945 138.528 21.8632 130.317C22.5177 128.277 23.1745 126.234 23.829 124.194C16.9026 122.418 20.5847 117.773 18.4766 115.993C17.4193 115.1 10.6484 114.428 8.10023 109.104C4.74213 102.086 7.00129 93.3908 4.71367 94.562C3.6016 95.1312 3.51404 97.8478 3.07621 91.6089C5.44921 91.6133 2.67123 87.9377 2.20276 86.1427C1.76493 82.9356 1.3293 79.7286 0.891479 76.5215C1.3293 72.2943 1.76493 68.0672 2.20276 63.8378C3.95843 58.3672 5.56523 52.8069 8.97368 48.0937C11.5218 45.215 14.0699 42.3363 16.6181 39.4555H16.6246ZM21.5392 2.06105C20.5672 2.3719 22.4433 4.46907 22.3032 4.79525L21.3203 4.46688C20.3023 5.03605 22.6928 6.62097 22.741 6.76326C22.949 7.38934 20.5869 7.04565 23.1788 8.07454C23.065 9.1275 25.6766 12.0062 26.3465 10.5898C26.5479 11.5793 27.0163 11.7282 26.8916 10.9182C25.5803 8.87794 24.2712 6.8355 22.9599 4.79525C22.8833 4.65295 22.3907 1.7896 21.5392 2.06105ZM22.8483 2.06105C23.0322 5.51765 25.2432 6.78953 25.797 7.63671C26.3136 8.42698 27.3907 12.363 28.7457 11.4633C28.4174 9.67697 28.0912 7.89065 27.7628 6.10653C26.8412 5.51328 26.9156 7.08506 26.561 7.09163C25.9371 7.10257 26.5304 2.58862 25.4686 6.21598C24.8666 6.19409 25.2913 4.12976 25.1403 3.70069C24.5339 1.97348 24.6236 5.11486 24.3763 5.12142C23.7458 4.4625 24.3872 2.66962 22.8483 2.06105ZM26.7821 16.9317C25.5759 17.2141 27.2944 18.0503 27.3272 18.1335C27.3513 18.1948 26.9244 19.3353 27.4367 19.3353C27.6271 19.3353 27.684 17.6607 28.529 19.9921C29.1661 18.3415 30.5167 20.4058 30.6043 20.7583C30.9918 22.3169 29.6214 24.7797 29.4025 24.8037C29.293 24.8147 28.9231 23.9325 28.0912 24.147C25.9765 28.3961 27.9927 22.8532 26.1254 22.3979C25.6876 22.4701 25.2519 22.5446 24.8141 22.6168C22.4455 24.0572 26.0269 28.7879 24.4857 27.5379C24.35 27.4285 23.8334 25.1255 22.8483 25.2416C22.3382 25.9705 21.8281 26.6995 21.3203 27.4285C21.1167 27.4285 20.2082 24.4973 20.3374 28.1947C17.5769 27.1045 21.4363 32.5729 21.4297 33.0063C21.4232 33.4945 19.2669 33.6893 21.4297 36.9424C24.0151 39.311 26.5982 41.6796 29.1836 44.0482C29.4375 42.4808 29.6936 40.9134 29.9476 39.346C29.1464 38.3981 28.3451 37.4502 27.5439 36.5024C29.0719 36.5221 29.0347 39.3241 32.6774 38.7987C34.3849 38.5535 35.057 37.5575 35.6261 36.0645C35.6086 35.4319 32.6402 34.9087 31.1472 31.5812C29.8841 34.0374 30.6109 30.5151 31.2567 30.1605C32.4169 29.5213 30.5977 31.1412 33.2225 33.6587C36.5981 36.8986 36.2084 33.1815 36.8258 33.1114C41.8432 37.019 41.8498 31.3142 39.3367 26.4412C40.1269 23.3064 39.6519 21.5792 39.1178 18.5691C38.6602 17.7592 30.6634 17.9168 29.3981 17.803C28.5246 17.5118 27.6512 17.2206 26.7777 16.9273L26.7821 16.9317ZM19.7923 34.8627C15.5826 40.318 18.5292 39.4817 19.6828 42.1875C20.2192 43.444 21.2152 49.5648 22.9599 52.4654H23.3977C28.0649 41.0272 31.4799 52.8463 32.2439 52.3559C31.4033 47.6406 28.4261 43.895 25.0352 40.5478C23.4218 38.9542 21.7143 38.9279 19.7923 34.8627ZM30.9305 39.2366C30.7488 39.346 30.5671 39.4555 30.3854 39.5649C30.5671 42.1612 28.3276 45.3639 31.0399 46.7802C31.0859 46.1344 31.5193 41.1148 32.4607 41.6424C32.2067 42.772 31.9506 43.9016 31.6967 45.0311C33.8464 46.2767 34.9935 49.4356 34.7549 46.9991C34.6279 45.6988 32.6971 38.7922 30.9327 39.2366H30.9305ZM19.1355 43.1726C5.33757 55.5695 1.30303 68.0496 3.2995 86.5805C5.10114 89.1811 8.56213 92.583 11.7101 93.2507C16.5568 94.2796 12.5354 91.5191 12.4741 90.5165C12.3734 88.8878 14.221 92.8632 15.6417 93.9053C16.7735 94.7349 21.1276 96.3505 22.4126 96.0922C24.1968 94.5248 25.9809 92.9574 27.765 91.39C28.7851 87.3817 29.8031 83.3712 30.8232 79.363C30.74 78.958 26.2852 75.7225 31.0421 76.7382C30.6634 73.842 32.8262 71.642 32.789 68.8662C34.1725 68.2839 35.5561 67.6994 36.9396 67.1171C33.3341 60.4994 33.4501 64.9915 31.9156 66.4604C31.6967 66.5326 31.4778 66.607 31.261 66.6793C35.4729 59.2779 31.758 64.8141 29.1858 67.0076C26.8916 68.6473 24.5996 70.2869 22.3054 71.9288C20.7949 74.293 23.8509 75.4007 25.0352 75.0986C25.8495 74.8906 28.1481 69.3347 28.4218 71.0531C28.4896 71.4866 25.0615 75.7947 26.1276 76.191C29.1113 77.3008 29.9541 71.9003 30.7138 72.2549C30.3613 74.7812 27.0251 79.028 25.2519 75.5342C23.2117 75.7137 20.8781 74.7396 21.4297 72.3644C21.699 71.1998 29.1048 66.5851 30.7138 65.0396C33.1678 62.6819 31.9506 60.7577 36.0661 64.4923C38.1064 69.0698 37.9181 65.9262 36.285 63.6167C34.0762 60.4972 31.7996 62.0121 31.0421 60.992C30.4992 59.7989 25.6087 50.9658 25.0352 50.8235C23.9866 50.563 23.7918 54.2626 22.9599 53.5577C22.0142 51.1519 21.0663 48.7461 20.1206 46.3424C19.882 45.6222 19.9061 43.1419 19.1377 43.1726H19.1355ZM71.3415 46.0162C69.0998 45.8805 67.9309 50.7907 68.7211 51.0468C69.0473 51.1519 73.8852 46.1717 71.3415 46.0162ZM64.5706 46.8897C63.1739 47.3122 65.2054 50.0639 65.1157 50.2784C61.3526 51.8152 64.9734 56.0993 65.1157 56.6203C65.8906 59.4355 62.7864 58.8641 60.6367 59.5734C56.2454 61.0204 51.8847 62.6097 47.3116 63.5094C40.8997 67.0755 33.9383 66.0094 35.5167 72.476C34.2601 70.6065 36.458 67.0448 33.9887 68.54C33.1305 69.0588 33.4589 70.6306 33.2247 71.2742C32.7868 72.2221 32.3512 73.17 31.9134 74.1179C30.7816 80.5889 37.6204 78.6471 40.7596 75.9764C51.4162 74.1004 56.6482 65.0987 65.2229 61.9814C65.2952 61.8348 65.3696 61.6903 65.4418 61.5436C72.2784 63.7218 67.9155 60.6417 67.736 59.4661C67.8455 58.6277 67.9549 57.7893 68.0644 56.9508C68.8678 56.3707 68.2154 58.6934 68.3928 59.4661C69.0845 60.3046 69.7763 61.143 70.468 61.9814C71.4728 62.1741 77.1164 59.1903 76.475 55.5301C70.2929 57.8681 72.0858 56.5327 71.1226 55.6396C71 55.5257 68.6554 55.3594 70.1397 53.3432C68.9313 53.295 68.3752 51.1256 68.0644 51.0468C67.215 50.8323 68.9138 54.0153 65.5535 50.7184C65.8008 49.8297 65.884 46.4935 64.5706 46.8919V46.8897ZM72.8695 47.5464C72.1142 47.7106 67.0092 53.8839 70.6848 52.577C71.8143 51.5197 72.9417 50.4623 74.0713 49.4072C74.3909 48.5184 73.8174 47.3428 72.8695 47.5486V47.5464ZM34.4265 48.4199C33.7873 48.8227 35.3985 51.0643 35.6283 51.5897C36.5018 53.7044 37.3752 55.8169 38.2487 57.9316C39.711 62.0887 39.3235 66.977 42.2898 65.2563C43.5923 64.5011 45.302 57.2902 43.9272 59.0239C43.3581 59.7442 42.3204 64.1377 41.7425 63.1789C41.3857 62.5856 46.1952 55.5082 42.0709 57.6032C41.4886 58.5511 40.9063 59.499 40.324 60.4469C39.6782 60.0528 41.4711 58.0257 41.3069 57.277C41.2193 56.8764 37.2767 51.165 36.0639 51.1541C35.7159 50.0333 35.289 49.2101 34.4265 48.4199ZM75.492 49.5144C74.2486 49.6436 70.1397 53.4154 70.1397 54.2166C70.1397 54.7245 71.0197 55.4119 71.7771 54.9828C72.0814 54.8099 77.02 50.4733 75.4899 49.5166L75.492 49.5144ZM75.9277 52.1392C74.1961 52.3296 68.3096 59.0809 75.4899 55.1996C78.8501 53.3848 77.1536 52.0035 75.9277 52.1392ZM32.8963 54.1072C32.9335 54.6545 32.9685 55.1996 33.0058 55.7468C32.9576 55.8979 30.0373 57.1895 33.1152 56.7319C33.194 59.8492 34.0697 57.01 34.2076 56.9508C34.2798 56.9202 35.44 57.5901 35.6283 56.8414C35.7597 56.3204 34.2426 56.7363 34.8643 54.545C33.6275 55.1076 33.3735 53.7591 32.8985 54.1072H32.8963ZM63.0404 55.1996C57.1429 56.7297 51.2454 58.2599 45.348 59.7923C44.7197 60.1645 42.9947 64.7266 44.0367 64.604C45.2013 64.0939 46.3659 63.5839 47.5305 63.0738C53.0646 61.5436 58.5987 60.0134 64.1306 58.481C65.617 57.9797 64.286 55.1317 63.0382 55.2017L63.0404 55.1996ZM42.0709 76.6288C41.1624 78.5705 43.3734 81.7863 43.8178 84.2819C45.4136 81.5784 43.2355 79.0631 42.0709 76.6288ZM39.4505 77.5044C34.884 79.028 38.6799 82.6795 37.7036 88.6558C39.3104 88.4412 40.3896 87.3751 41.7447 86.5783C41.6812 85.4224 39.9168 77.5723 39.4505 77.5022V77.5044ZM36.3923 78.8157C34.8446 78.8179 33.7501 79.4812 32.3512 80.0175C32.9335 83.6339 33.1196 87.2 33.1152 90.8427C40.1707 91.1229 36.0836 82.8831 36.9374 78.9252C36.7557 78.8879 36.574 78.8529 36.3923 78.8157ZM41.852 87.1256C40.0941 88.6032 38.1896 88.9206 37.4825 89.3125C37.0447 89.8226 36.609 90.3326 36.1712 90.8427C35.3569 91.2805 32.3096 91.2039 32.5679 92.0445C35.5079 94.2358 38.9492 94.6058 42.5065 94.9976C42.7867 93.9118 42.8393 87.3204 41.852 87.1256ZM5.15587 89.5314C5.70096 91.7555 6.24824 93.9775 6.79333 96.2016C5.96584 100.685 7.27055 104.971 8.75915 109.104C12.358 115.672 27.082 117.561 34.0981 117.414C33.3429 115.367 32.6292 113.213 32.8963 110.963C30.5737 111.188 20.0068 109.419 18.6977 108.995C13.8532 107.419 11.4233 98.2112 11.3795 93.5791C7.04507 92.2547 5.51926 89.3979 5.15368 89.5336L5.15587 89.5314ZM27.4367 92.3751C25.9087 93.7608 24.3785 95.1443 22.8505 96.53C20.3965 97.2612 15.4031 94.1132 14.9872 94.1242C13.503 94.1636 17.0187 98.5527 17.6075 99.1547C22.5812 104.218 27.1214 104.144 33.7719 103.748C35.2189 100.521 38.0539 98.0098 39.9978 95.3282C39.8621 94.956 33.9142 94.3321 32.6796 92.594C32.4826 94.1876 30.937 95.8689 29.4025 96.0922C25.7598 96.6263 28.7457 92.3181 27.4367 92.3751ZM29.6214 92.8107C27.9336 93.0427 26.7186 96.3549 29.8403 95.4354C31.9659 94.8094 32.0404 92.478 29.6214 92.8107ZM41.1974 97.6224C39.109 100.475 36.8104 103.237 35.845 106.698C37.4431 107.729 40.7399 108.712 42.7254 109.214C42.9246 109.264 46.2608 109.222 46.5476 110.199C45.8931 113.478 45.2363 116.76 44.5818 120.039C45.5056 122.71 43.4369 131.899 44.144 133.16C44.3979 133.123 44.654 133.088 44.908 133.051C45.3129 133.268 44.6518 134.102 46.2192 133.051C48.2201 134.089 52.2918 133.625 52.8807 130.536C54.4919 124.275 54.3146 117.605 56.3745 111.51C58.8023 96.6394 52.1933 100.166 47.0905 99.3737C45.1247 98.7914 43.1589 98.2069 41.193 97.6246L41.1974 97.6224ZM19.963 104.082C19.8645 104.325 19.7682 104.571 19.6697 104.814C17.52 104.42 19.2559 105.381 19.3041 105.473L19.523 106.569C19.6697 106.374 19.8164 106.18 19.9608 105.985C20.0769 105.994 20.6767 107.388 20.5453 105.691C22.6119 106.541 20.5607 105.481 20.9109 104.595C19.639 105.247 20.6132 103.894 19.9608 104.082H19.963ZM19.1355 116.21C19.442 119.632 22.1259 117.13 20.8825 116.648C20.3001 116.501 19.7178 116.357 19.1355 116.21ZM40.324 116.21C33.2115 120.133 29.3127 115.847 39.0127 120.146C39.2272 119.146 41.042 116.169 40.324 116.21ZM24.8163 119.708C25.5015 123.793 23.9385 124.586 23.1788 127.252C21.3071 133.819 19.6565 141.433 20.1206 148.246C21.9617 150.82 21.3903 149.454 21.977 149.666C22.1237 149.885 22.2682 150.104 22.4148 150.323C22.614 150.4 23.3255 149.502 23.9428 150.98C24.5251 150.908 25.1074 150.833 25.6897 150.761C26.7821 151.052 27.8745 151.343 28.9668 151.637C29.0041 149.778 29.0391 147.919 29.0763 146.061C29.6849 139.581 32.9598 133.058 34.1003 128.568C34.7527 125.995 35.2518 122.351 33.5552 120.367C30.6437 120.148 27.73 119.929 24.8185 119.711L24.8163 119.708ZM52.3378 132.83C52.1649 133.504 52.502 135.623 51.7927 134.47C51.2542 133.596 51.5979 131.545 51.0287 135.236C50.5208 135.244 50.5734 131.996 49.7174 135.017C49.4263 134.653 49.1351 134.288 48.844 133.924C47.4583 137.922 48.4434 131.656 46.6592 135.236C45.5253 130.86 46.7227 138.587 44.9123 133.924C44.6212 134.362 44.33 134.8 44.0389 135.236C43.8616 135.247 42.9093 132.243 43.2749 136.438C43.4938 137.458 43.7127 138.478 43.9294 139.498C46.7643 138.379 50.2844 137.096 53.2135 136.983C53.4061 136.886 52.8238 133.228 52.34 132.828L52.3378 132.83ZM51.9 137.639C50.372 138.003 48.8418 138.368 47.3138 138.732C43.2158 140.03 43.9557 140.496 44.9102 144.636C46.4053 144.511 53.6381 141.921 53.9753 140.809C54.2883 139.774 54.0256 137.469 51.9 137.639ZM20.2279 149.012C20.0812 150.47 19.9368 151.928 19.7901 153.386C22.7147 154.763 25.8474 155.892 29.0741 156.12C29.2865 154.025 28.6976 149.69 27.4367 153.605C26.6311 153.611 27.6337 151.074 26.6727 151.527C26.6267 154.163 26.5107 153.46 25.9087 151.418C25.2716 151.376 24.9236 155.321 24.5974 151.418C24.234 151.855 23.8684 152.293 23.505 152.729C22.984 147.359 22.7169 154.953 21.7581 150.323C20.3549 152.924 20.8759 150.065 20.2301 149.012H20.2279ZM19.7923 153.821C18.5007 156.963 26.5216 160.776 28.3101 160.163C29.096 159.894 29.0106 156.75 28.7479 156.665C25.97 156.481 22.0952 155.389 19.7923 153.821Z" fill="#A77C50"/>
<mask id="mask0_1_2469" style="mask-type:luminance" maskUnits="userSpaceOnUse" x="0" y="1" width="86" height="180">
<path d="M16.6244 39.456C12.4935 45.5023 6.01376 50.3884 4.71999 58.0437C7.29001 52.2776 13.3079 44.4668 18.3713 40.8767C16.9374 39.6595 17.6489 39.0597 16.6244 39.456C17.2067 38.3264 17.789 37.1968 18.3713 36.0672C19.1025 34.8654 20.8472 33.854 20.556 32.3501C20.4597 31.8488 17.3709 28.7512 17.9357 22.7289C11.7624 20.8638 17.7518 16.3652 20.3393 13.9813C20.0482 12.0483 20.5385 9.8088 21.4317 8.07721C21.366 5.66262 20.0328 -0.175738 22.4146 2.06372C22.9378 0.739311 23.7872 2.79051 24.3804 2.72046C24.7657 2.67449 25.0371 0.334325 31.5892 2.50155C37.4976 -2.41301 38.7038 7.90865 40.8732 11.5776C39.9319 16.5381 46.3788 18.0683 45.0237 20.9798C44.0277 23.1186 40.6762 22.1357 40.4375 22.51C40.2909 23.8213 40.1464 25.1348 39.9997 26.4461C41.5212 30.2091 43.371 37.4376 36.8321 33.9897C35.4245 37.0151 36.0418 38.611 32.3532 39.3465C35.0742 43.0789 34.7809 48.8122 36.2848 50.7167C37.1583 51.4457 38.0317 52.1747 38.9052 52.9037C40.3478 54.6769 40.674 58.2998 44.2575 56.7302C44.367 56.8397 44.4765 56.9492 44.5859 57.0586C43.8482 57.6409 45.0894 59.2543 45.3499 59.355C51.3568 57.8598 57.3638 56.3668 63.3707 54.8717C62.3265 49.8674 64.601 50.3424 64.682 50.06C64.3908 49.6222 64.0997 49.1844 63.8085 48.7487C63.2262 46.1021 65.2074 46.5443 65.3365 46.3429C64.9359 42.9542 64.5353 39.5632 64.1347 36.1745C58.1956 37.8141 53.3424 43.2913 50.8096 48.6393C49.4173 42.4091 56.6238 33.3637 62.6045 31.5817C63.7866 27.186 67.9591 26.5883 69.1565 30.925C78.7142 32.7989 83.458 34.9464 85.4304 45.0294C84.9291 45.7672 83.4033 42.6761 80.9514 40.765C78.1122 38.5519 72.1446 35.7016 68.4998 35.2988C67.9459 38.9875 68.6399 42.663 69.0449 46.3429C72.7707 44.1538 72.6635 46.9602 72.8671 47.1091C73.3399 47.2185 73.8128 47.328 74.2878 47.4375C74.4695 47.9847 74.6512 48.5298 74.8329 49.0771C75.3364 49.3945 76.7768 48.0285 76.0347 51.5924C79.6533 52.236 77.1906 54.8476 77.1271 55.0906C76.2974 58.256 76.663 60.6137 70.4656 62.4154C71.0851 69.8868 71.7025 77.3582 72.322 84.8297C73.9594 93.8291 74.846 103.017 75.8158 112.165V116.539C76.4703 121.132 77.1271 125.722 77.7816 130.315C78.145 134.908 78.5106 139.498 78.874 144.091C79.0207 144.31 79.1651 144.529 79.3118 144.748C76.0544 148.31 76.7046 145.03 75.5991 141.904C73.3946 126.948 71.871 111.942 70.794 96.8567C69.5046 90.158 68.8982 83.3323 68.3903 76.5198C66.9346 71.9533 66.9849 67.0344 66.2056 62.3059C57.1755 65.0795 53.2592 73.2099 42.3968 76.3009C43.8066 78.8337 46.1774 82.5027 43.9248 85.0486C43.7212 87.2881 45.2667 90.3047 43.2703 91.3905C42.7427 97.4149 45.652 93.3891 47.0925 98.9341C51.0832 98.9538 54.6186 98.3453 57.031 102.104C57.3703 106.546 57.2324 111.077 55.503 115.226C55.4767 120.788 53.6861 126.178 53.0994 131.626C52.9527 131.773 52.8082 131.917 52.6616 132.064C53.2439 134.398 53.8262 136.729 54.4085 139.063C54.7587 141.799 53.7474 148.386 56.4837 148.139C58.3116 147.972 59.3033 141.129 65.6583 142.454C67.8409 142.909 67.5366 146.245 68.062 146.39C68.4845 146.506 69.0405 145.361 69.0449 147.156C69.0514 149.373 67.4162 148.592 67.298 149.124C67.2542 149.319 69.1675 151.488 66.2056 151.749C65.6736 154.297 65.0497 152.379 64.1303 152.734C63.3291 153.535 62.5279 154.338 61.7267 155.14C59.5332 156.473 55.26 156.446 56.1576 160.061C49.2772 165.481 51.0569 162.622 49.9317 161.919C49.7872 161.83 48.5001 162 46.8735 160.608C42.5982 156.946 46.6809 152.591 44.3626 148.034C45.0522 142.916 41.1643 133.616 43.9248 133.601C43.2681 128.706 44.9099 123.894 44.3626 118.949C44.5618 116.887 47.0421 109.523 45.3455 110.092C44.9997 110.208 44.6582 113.286 41.0855 115.887C39.7327 118.908 38.9577 124.08 35.1881 124.415C34.6583 130.573 30.0699 139.378 29.5095 145.19C29.4373 150.002 29.3628 154.811 29.2906 159.623C29.4373 159.914 29.5817 160.205 29.7284 160.499C27.6466 163.401 24.4767 167.309 27.872 170.229C28.8834 167.051 31.8913 165.698 34.8619 167.385C37.9857 169.161 35.6346 172.753 35.8448 173.399C35.9564 173.745 36.9459 173.745 36.7182 174.491C36.576 174.958 29.3782 178.771 28.7455 180.067C28.4543 179.92 28.1632 179.776 27.872 179.629C21.9571 179.802 24.7219 179.012 22.5197 175.803C21.3901 174.892 20.2627 173.981 19.1331 173.068C18.0845 172.926 17.6839 174.791 17.3862 174.818C15.6743 173.688 13.9646 172.558 12.2527 171.429C13.2335 167.445 9.70898 161.882 16.8389 161.808C17.7124 159.693 18.5858 157.58 19.4593 155.466C19.3279 147.062 19.7942 138.529 21.8629 130.317C22.5175 128.277 23.1742 126.235 23.8288 124.194C16.9024 122.419 20.5845 117.774 18.4764 115.994C17.419 115.101 10.6481 114.429 8.09998 109.105C4.74188 102.086 7.00105 93.3913 4.71342 94.5625C3.60136 95.1316 3.51379 97.8483 3.07597 91.6094C5.44897 91.6137 2.67098 87.9382 2.20251 86.1432C1.76469 82.9361 1.32906 79.729 0.891235 76.522C1.32906 72.2948 1.76469 68.0677 2.20251 63.8383C3.95818 58.3677 5.56499 52.8073 8.97344 48.0942C11.5216 45.2155 14.0697 42.3368 16.6178 39.456H16.6244ZM21.5389 2.06153C20.567 2.37239 22.443 4.46956 22.3029 4.79574L21.32 4.46737C20.3021 5.03654 22.6926 6.62145 22.7408 6.76375C22.9487 7.38983 20.5867 7.04614 23.1786 8.07503C23.0648 9.12799 25.6764 12.0067 26.3462 10.5903C26.5476 11.5798 27.0161 11.7287 26.8913 10.9187C25.58 8.87843 24.271 6.83599 22.9597 4.79574C22.8831 4.65344 22.3905 1.79008 21.5389 2.06153ZM22.848 2.06153C23.0319 5.51814 25.2429 6.79002 25.7968 7.6372C26.3134 8.42747 27.3904 12.3635 28.7455 11.4638C28.4171 9.67746 28.091 7.89114 27.7626 6.10701C26.841 5.51376 26.9154 7.08555 26.5608 7.09211C25.9369 7.10306 26.5301 2.58911 25.4684 6.21647C24.8664 6.19458 25.2911 4.13025 25.14 3.70118C24.5336 1.97397 24.6234 5.11535 24.376 5.12191C23.7456 4.46299 24.387 2.67011 22.848 2.06153ZM26.7819 16.9322C25.5757 17.2146 27.2941 18.0508 27.327 18.134C27.351 18.1953 26.9242 19.3358 27.4364 19.3358C27.6269 19.3358 27.6838 17.6611 28.5288 19.9926C29.1658 18.342 30.5165 20.4063 30.6041 20.7587C30.9915 22.3174 29.6211 24.7801 29.4022 24.8042C29.2928 24.8152 28.9228 23.933 28.091 24.1475C25.9763 28.3966 27.9924 22.8537 26.1251 22.3984C25.6873 22.4706 25.2517 22.5451 24.8139 22.6173C22.4452 24.0577 26.0266 28.7884 24.4855 27.5384C24.3498 27.429 23.8331 25.126 22.848 25.242C22.338 25.971 21.8279 26.7 21.32 27.429C21.1164 27.429 20.208 24.4977 20.3371 28.1952C17.5766 27.105 21.4361 32.5734 21.4295 33.0068C21.4229 33.495 19.2666 33.6898 21.4295 36.9429C24.0148 39.3115 26.598 41.6801 29.1833 44.0487C29.4373 42.4813 29.6934 40.9139 29.9473 39.3465C29.1461 38.3986 28.3449 37.4507 27.5437 36.5028C29.0717 36.5225 29.0345 39.3246 32.6771 38.7992C34.3847 38.554 35.0567 37.558 35.6259 36.065C35.6084 35.4324 32.6399 34.9092 31.147 31.5817C29.8838 34.0379 30.6106 30.5156 31.2564 30.161C32.4166 29.5218 30.5975 31.1417 33.2222 33.6592C36.5978 36.8991 36.2082 33.182 36.8255 33.1119C41.843 37.0195 41.8495 31.3146 39.3364 26.4417C40.1267 23.3069 39.6517 21.5797 39.1175 18.5696C38.66 17.7597 30.6632 17.9173 29.3979 17.8034C28.5244 17.5123 27.6509 17.2211 26.7775 16.9278L26.7819 16.9322ZM19.792 34.8632C15.5824 40.3185 18.5289 39.4822 19.6826 42.188C20.2189 43.4445 21.215 49.5653 22.9597 52.4658H23.3975C28.0647 41.0277 31.4797 52.8468 32.2437 52.3564C31.4031 47.641 28.4259 43.8955 25.035 40.5483C23.4216 38.9546 21.7141 38.9284 19.792 34.8632ZM30.9302 39.237C30.7485 39.3465 30.5668 39.456 30.3851 39.5654C30.5668 42.1617 28.3274 45.3644 31.0397 46.7807C31.0857 46.1349 31.5191 41.1153 32.4604 41.6429C32.2065 42.7725 31.9504 43.902 31.6964 45.0316C33.8461 46.2772 34.9932 49.4361 34.7546 46.9996C34.6276 45.6993 32.6968 38.7927 30.9324 39.237H30.9302ZM19.1353 43.1731C5.33732 55.57 1.30279 68.0501 3.29926 86.581C5.1009 89.1816 8.56188 92.5835 11.7098 93.2512C16.5565 94.2801 12.5351 91.5196 12.4738 90.517C12.3731 88.8883 14.2207 92.8637 15.6415 93.9057C16.7732 94.7354 21.1274 96.351 22.4124 96.0927C24.1965 94.5253 25.9807 92.9579 27.7648 91.3905C28.7849 87.3822 29.8028 83.3717 30.823 79.3635C30.7398 78.9585 26.2849 75.723 31.0419 76.7387C30.6632 73.8425 32.826 71.6425 32.7888 68.8667C34.1723 68.2844 35.5558 67.6999 36.9393 67.1176C33.3339 60.4999 33.4499 64.9919 31.9153 66.4608C31.6964 66.5331 31.4775 66.6075 31.2608 66.6798C35.4726 59.2784 31.7577 64.8146 29.1855 67.0081C26.8913 68.6478 24.5993 70.2874 22.3051 71.9292C20.7946 74.2935 23.8506 75.4012 25.035 75.0991C25.8493 74.8911 28.1479 69.3351 28.4215 71.0536C28.4894 71.487 25.0612 75.7952 26.1273 76.1914C29.1111 77.3013 29.9539 71.9008 30.7135 72.2554C30.3611 74.7817 27.0249 79.0285 25.2517 75.5347C23.2114 75.7142 20.8778 74.7401 21.4295 72.3649C21.6987 71.2003 29.1045 66.5856 30.7135 65.0401C33.1675 62.6824 31.9504 60.7582 36.0659 64.4928C38.1061 69.0703 37.9179 65.9267 36.2848 63.6172C34.076 60.4977 31.7993 62.0126 31.0419 60.9924C30.499 59.7994 25.6085 50.9663 25.035 50.824C23.9864 50.5635 23.7915 54.2631 22.9597 53.5582C22.014 51.1524 21.0661 48.7465 20.1204 46.3429C19.8818 45.6227 19.9059 43.1424 19.1375 43.1731H19.1353ZM71.3412 46.0167C69.0996 45.881 67.9306 50.7912 68.7209 51.0473C69.0471 51.1524 73.885 46.1721 71.3412 46.0167ZM64.5703 46.8902C63.1737 47.3127 65.2052 50.0644 65.1154 50.2789C61.3523 51.8157 64.9731 56.0998 65.1154 56.6208C65.8904 59.436 62.7862 58.8646 60.6365 59.5739C56.2451 61.0209 51.8844 62.6102 47.3114 63.5099C40.8995 67.076 33.9381 66.0099 35.5164 72.4765C34.2599 70.607 36.4577 67.0453 33.9884 68.5405C33.1303 69.0593 33.4587 70.6311 33.2244 71.2747C32.7866 72.2226 32.351 73.1705 31.9131 74.1184C30.7814 80.5894 37.6202 78.6476 40.7593 75.9769C51.4159 74.1008 56.6479 65.0992 65.2227 61.9819C65.2949 61.8352 65.3693 61.6908 65.4416 61.5441C72.2782 63.7223 67.9153 60.6422 67.7358 59.4666C67.8452 58.6282 67.9547 57.7898 68.0641 56.9513C68.8675 56.3712 68.2152 58.6939 68.3925 59.4666C69.0843 60.3051 69.776 61.1435 70.4678 61.9819C71.4726 62.1746 77.1161 59.1908 76.4747 55.5306C70.2927 57.8686 72.0855 56.5332 71.1223 55.6401C70.9997 55.5262 68.6552 55.3599 70.1394 53.3437C68.931 53.2955 68.375 51.1261 68.0641 51.0473C67.2148 50.8328 68.9135 54.0157 65.5532 50.7189C65.8006 49.8302 65.8838 46.4939 64.5703 46.8924V46.8902ZM72.8692 47.5469C72.114 47.7111 67.009 53.8844 70.6845 52.5775C71.8141 51.5202 72.9415 50.4628 74.0711 49.4077C74.3907 48.5189 73.8171 47.3433 72.8692 47.5491V47.5469ZM34.4262 48.4204C33.787 48.8232 35.3982 51.0648 35.6281 51.5902C36.5015 53.7049 37.375 55.8174 38.2484 57.9321C39.7108 62.0892 39.3233 66.9775 42.2895 65.2568C43.5921 64.5016 45.3018 57.2906 43.927 59.0244C43.3578 59.7446 42.3202 64.1382 41.7423 63.1794C41.3854 62.5861 46.1949 55.5087 42.0706 57.6037C41.4883 58.5516 40.906 59.4995 40.3237 60.4473C39.6779 60.0533 41.4708 58.0262 41.3066 57.2775C41.2191 56.8769 37.2765 51.1655 36.0637 51.1546C35.7156 50.0337 35.2888 49.2106 34.4262 48.4204ZM75.4918 49.5149C74.2484 49.6441 70.1394 53.4159 70.1394 54.2171C70.1394 54.725 71.0194 55.4124 71.7769 54.9833C72.0812 54.8104 77.0198 50.4738 75.4896 49.5171L75.4918 49.5149ZM75.9274 52.1397C74.1958 52.3301 68.3093 59.0813 75.4896 55.2C78.8499 53.3853 77.1533 52.0039 75.9274 52.1397ZM32.8961 54.1077C32.9333 54.655 32.9683 55.2 33.0055 55.7473C32.9574 55.8984 30.0371 57.1899 33.115 56.7324C33.1938 59.8497 34.0694 57.0104 34.2073 56.9513C34.2796 56.9207 35.4398 57.5906 35.6281 56.8419C35.7594 56.3209 34.2424 56.7368 34.8641 54.5455C33.6272 55.1081 33.3733 53.7596 32.8982 54.1077H32.8961ZM63.0401 55.2C57.1427 56.7302 51.2452 58.2604 45.3477 59.7928C44.7195 60.165 42.9944 64.7271 44.0364 64.6045C45.2011 64.0944 46.3657 63.5843 47.5303 63.0743C53.0643 61.5441 58.5984 60.0139 64.1303 58.4815C65.6167 57.9802 64.2857 55.1322 63.0379 55.2022L63.0401 55.2ZM42.0706 76.6293C41.1621 78.571 43.3731 81.7868 43.8175 84.2824C45.4134 81.5789 43.2352 79.0636 42.0706 76.6293ZM39.4503 77.5049C34.8838 79.0285 38.6797 82.68 37.7033 88.6563C39.3102 88.4417 40.3894 87.3756 41.7444 86.5788C41.681 85.4229 39.9165 77.5728 39.4503 77.5027V77.5049ZM36.3921 78.8162C34.8444 78.8184 33.7498 79.4817 32.351 80.018C32.9333 83.6344 33.1193 87.2005 33.115 90.8432C40.1705 91.1234 36.0834 82.8836 36.9372 78.9256C36.7555 78.8884 36.5738 78.8534 36.3921 78.8162ZM41.8517 87.1261C40.0939 88.6037 38.1893 88.9211 37.4822 89.313C37.0444 89.8231 36.6088 90.3331 36.171 90.8432C35.3566 91.281 32.3094 91.2044 32.5677 92.045C35.5077 94.2363 38.949 94.6063 42.5063 94.9981C42.7865 93.9123 42.839 87.3209 41.8517 87.1261ZM5.15563 89.5319C5.70072 91.756 6.24799 93.978 6.79308 96.2021C5.9656 100.685 7.27031 104.972 8.7589 109.105C12.3578 115.672 27.0818 117.561 34.0979 117.415C33.3426 115.368 32.629 113.214 32.8961 110.963C30.5734 111.189 20.0066 109.42 18.6975 108.995C13.853 107.419 11.4231 98.2117 11.3793 93.5796C7.04483 92.2552 5.51902 89.3984 5.15344 89.5341L5.15563 89.5319ZM27.4364 92.3756C25.9084 93.7613 24.3782 95.1448 22.8502 96.5305C20.3962 97.2617 15.4029 94.1137 14.9869 94.1247C13.5027 94.1641 17.0184 98.5532 17.6073 99.1552C22.581 104.219 27.1212 104.144 33.7717 103.748C35.2187 100.521 38.0536 98.0103 39.9975 95.3287C39.8618 94.9565 33.914 94.3326 32.6793 92.5945C32.4823 94.1881 30.9368 95.8694 29.4022 96.0927C25.7595 96.6268 28.7455 92.3186 27.4364 92.3756ZM29.6211 92.8112C27.9333 93.0432 26.7184 96.3554 29.8401 95.4359C31.9657 94.8098 32.0401 92.4784 29.6211 92.8112ZM41.1972 97.6229C39.1088 100.475 36.8102 103.238 35.8448 106.699C37.4428 107.73 40.7396 108.713 42.7252 109.214C42.9244 109.265 46.2606 109.223 46.5474 110.199C45.8928 113.479 45.2361 116.76 44.5815 120.039C45.5053 122.71 43.4366 131.9 44.1437 133.161C44.3977 133.124 44.6538 133.089 44.9077 133.051C45.3127 133.268 44.6516 134.102 46.219 133.051C48.2198 134.089 52.2916 133.625 52.8805 130.536C54.4917 124.275 54.3143 117.605 56.3743 111.511C58.802 96.6399 52.1931 100.167 47.0903 99.3741C45.1244 98.7918 43.1586 98.2074 41.1928 97.625L41.1972 97.6229ZM19.9628 104.083C19.8643 104.326 19.768 104.571 19.6694 104.814C17.5197 104.42 19.2557 105.381 19.3039 105.473L19.5228 106.57C19.6694 106.375 19.8161 106.18 19.9606 105.985C20.0766 105.994 20.6764 107.388 20.5451 105.692C22.6116 106.541 20.5604 105.482 20.9107 104.595C19.6388 105.248 20.6129 103.895 19.9606 104.083H19.9628ZM19.1353 116.211C19.4418 119.632 22.1256 117.13 20.8822 116.648C20.2999 116.502 19.7176 116.357 19.1353 116.211ZM40.3237 116.211C33.2113 120.133 29.3125 115.847 39.0124 120.147C39.227 119.146 41.0417 116.169 40.3237 116.211ZM24.816 119.709C25.5012 123.794 23.9382 124.586 23.1786 127.252C21.3069 133.82 19.6563 141.434 20.1204 148.246C21.9614 150.82 21.3901 149.454 21.9768 149.667C22.1234 149.886 22.2679 150.105 22.4146 150.324C22.6138 150.4 23.3253 149.503 23.9426 150.98C24.5249 150.908 25.1072 150.834 25.6895 150.761C26.7819 151.053 27.8742 151.344 28.9666 151.637C29.0038 149.778 29.0388 147.92 29.0761 146.061C29.6846 139.582 32.9595 133.058 34.1001 128.568C34.7524 125.996 35.2515 122.351 33.555 120.368C30.6435 120.149 27.7297 119.93 24.8182 119.711L24.816 119.709ZM52.3376 132.83C52.1646 133.505 52.5017 135.624 51.7925 134.47C51.254 133.597 51.5976 131.545 51.0285 135.236C50.5206 135.245 50.5731 131.996 49.7172 135.017C49.426 134.654 49.1349 134.288 48.8437 133.925C47.458 137.922 48.4431 131.657 46.659 135.236C45.525 130.86 46.7225 138.588 44.9121 133.925C44.6209 134.363 44.3298 134.801 44.0386 135.236C43.8613 135.247 42.9091 132.244 43.2746 136.438C43.4936 137.458 43.7125 138.478 43.9292 139.498C46.7641 138.38 50.2842 137.097 53.2132 136.983C53.4058 136.887 52.8235 133.229 52.3398 132.828L52.3376 132.83ZM51.8997 137.64C50.3717 138.003 48.8415 138.369 47.3135 138.732C43.2155 140.03 43.9555 140.497 44.9099 144.636C46.4051 144.511 53.6379 141.922 53.975 140.81C54.2881 139.774 54.0254 137.469 51.8997 137.64ZM20.2277 149.012C20.081 150.47 19.9365 151.928 19.7898 153.386C22.7145 154.763 25.8471 155.893 29.0739 156.12C29.2862 154.025 28.6973 149.691 27.4364 153.605C26.6308 153.612 27.6334 151.074 26.6724 151.528C26.6264 154.163 26.5104 153.461 25.9084 151.418C25.2714 151.377 24.9233 155.321 24.5971 151.418C24.2337 151.856 23.8682 152.294 23.5048 152.729C22.9838 147.359 22.7167 154.954 21.7579 150.324C20.3546 152.924 20.8756 150.065 20.2299 149.012H20.2277ZM19.792 153.822C18.5005 156.963 26.5214 160.777 28.3099 160.164C29.0958 159.894 29.0104 156.751 28.7477 156.665C25.9697 156.482 22.095 155.389 19.792 153.822Z" fill="white"/>
</mask>
<g mask="url(#mask0_1_2469)">
<path d="M46.3726 151.635H4.72034V188.208H46.3726V151.635Z" fill="#826E59"/>
<path d="M80.6472 134.465H40.9893V169.049H80.6472V134.465Z" fill="#826E59"/>
<path d="M35.2757 157.711L19.0885 149.757L16.8331 154.346L33.0204 162.301L35.2757 157.711Z" fill="#450000"/>
<path d="M62.254 132.59L40.1613 139.871L40.9979 142.409L63.0906 135.128L62.254 132.59Z" fill="#803538"/>
<path d="M36.7208 95.078L11.8357 90.0874L7.59881 111.214L32.4839 116.205L36.7208 95.078Z" fill="#803538"/>
<path d="M29.0985 47.4132L16.8298 36.9458L-15.4574 74.7894L-3.18871 85.2568L29.0985 47.4132Z" fill="#803538"/>
<path d="M8.52044 74.6592H-5.10022V95.5959H8.52044V74.6592Z" fill="#803538"/>
<path d="M40.3239 46.8555H24.9213V60.4455H40.3239V46.8555Z" fill="#803538"/>
<path d="M41.8543 58.043H28.748V67.3314H41.8543V58.043Z" fill="#803538"/>
<path d="M45.6173 75.4599L35.9806 78.6357L40.8954 93.5493L50.5322 90.3734L45.6173 75.4599Z" fill="#803538"/>
<path d="M36.2982 80.3183L29.6079 78.9766L26.3369 95.2869L33.0272 96.6286L36.2982 80.3183Z" fill="#803538"/>
<path d="M39.9979 99.7856H33.2183V103.472H39.9979V99.7856Z" fill="#803538"/>
<path d="M49.1243 94.6636H37.5504V101.583H49.1243V94.6636Z" fill="#803538"/>
<path d="M39.4352 102.197L34.9553 99.6104L27.5649 112.411L32.0447 114.997L39.4352 102.197Z" fill="#803538"/>
<path d="M36.0639 105.152H30.1664V117.98H36.0639V105.152Z" fill="#803538"/>
<path d="M40.6437 116.209H14.6239V123.944H40.6437V116.209Z" fill="#803538"/>
<path d="M45.3481 103.281H32.3513V111.608H45.3481V103.281Z" fill="#803538"/>
<path d="M43.1175 108.523H32.4193V117.094H43.1175V108.523Z" fill="#803538"/>
<path d="M45.3477 108.945H40.3237V116.209H45.3477V108.945Z" fill="#803538"/>
<path d="M59.1564 98.5389L46.9397 96.9956L42.1004 135.303L54.317 136.846L59.1564 98.5389Z" fill="black"/>
<path d="M36.4613 126.293L19.7706 124.185L16.2801 151.815L32.9708 153.923L36.4613 126.293Z" fill="black"/>
<path d="M65.8291 54.2642H41.7445V78.1999H65.8291V54.2642Z" fill="black"/>
<path d="M39.9978 67.1167H33.5071V91.0612H39.9978V67.1167Z" fill="black"/>
<path d="M29.3368 58.043H11.5459V78.7148H29.3368V58.043Z" fill="black"/>
<path d="M38.8376 67.5589L28.2059 63.8877L23.7095 76.9093L34.3412 80.5805L38.8376 67.5589Z" fill="black"/>
<path d="M34.9063 62.0942H29.335V67.6655H34.9063V62.0942Z" fill="black"/>
<path d="M36.8542 64.147H33.6713V67.3299H36.8542V64.147Z" fill="black"/>
<path d="M17.5984 81.1177H0.332886V93.9612H17.5984V81.1177Z" fill="black"/>
<path d="M8.46377 91.0605H-0.673584V98.1401H8.46377V91.0605Z" fill="black"/>
<path d="M10.9769 96.9307H3.78125V116.21H10.9769V96.9307Z" fill="black"/>
<path d="M19.1377 108.925H8.46362V116.21H19.1377V108.925Z" fill="black"/>
<path d="M45.125 22.3496H20.6179V46.8567H45.125V22.3496Z" fill="black"/>
<path d="M49.1243 13.4353L14.6239 13.0457L15.5784 11.2134L49.1243 11.6512V13.4353Z" fill="#731D00" stroke="black" stroke-miterlimit="10"/>
<path d="M17.868 23.9837C18.2489 21.8537 18.6889 19.5814 20.7182 18.0665C23.1219 16.2692 26.0772 16.788 26.782 16.9325C29.4112 18.2679 30.2759 19.8659 30.6042 20.7591C32.87 26.893 23.4086 36.1902 19.7922 34.8635C17.2112 33.9179 17.2528 27.4381 17.868 23.9859V23.9837Z" fill="black"/>
<path d="M18.4901 9.66962C17.1176 7.25941 18.9236 3.84002 19.6898 2.38864C21.0864 -0.258001 23.0916 -4.06049 26.8854 -4.80698C32.1152 -5.83586 37.0735 -0.330241 38.9627 3.8444C40.6396 7.55056 40.3747 11.2567 40.1623 11.2961C39.9828 11.3312 39.3918 8.8509 37.6777 5.04184C36.6882 2.83959 36.1869 2.11719 35.3638 1.87201C33.803 1.40791 32.1283 2.97532 31.7671 3.32777C30.8477 2.67979 29.3635 1.88733 27.5706 1.95738C26.9204 1.98365 25.8871 2.02305 25.4931 2.71262C25.1056 3.39344 25.5719 4.3063 25.6857 4.5274C26.0995 5.33518 26.8 5.69639 27.0561 5.81241C27.3517 5.75768 27.8136 5.72266 28.1704 5.98316C28.652 6.3378 28.6651 7.03831 28.6848 7.52429C28.7199 8.40651 28.8227 9.64773 29.1139 11.2939C28.5885 11.4866 27.5137 11.7974 26.2024 11.5501C25.3836 11.3968 24.3175 11.1976 23.7177 10.3504C23.2055 9.62803 23.3149 8.82901 22.6035 8.46561C22.2751 8.29705 22.054 8.3671 21.8438 8.13068C21.4279 7.66221 21.7213 6.74935 21.7453 6.75154C21.776 6.75592 21.7037 8.15914 21.3163 9.49231C21.0667 10.3526 20.8675 11.04 20.4012 11.1648C19.7554 11.3377 18.8864 10.357 18.4901 9.66306V9.66962Z" fill="black"/>
<path d="M19.403 172.984C17.4218 171.684 15.3838 170.487 13.2997 169.361C13.21 169.3 13.1224 169.237 13.0327 169.175C12.8904 169.077 12.7481 169.02 12.6123 168.996C12.4701 168.921 12.3299 168.845 12.1877 168.77C10.9399 168.118 9.83217 170.007 11.0822 170.659C11.4543 170.854 11.8243 171.051 12.192 171.251C14.1644 172.63 16.0033 174.164 17.7217 175.85C18.5864 176.697 19.8474 175.677 19.5518 174.747C19.994 174.289 20.0969 173.44 19.4008 172.984H19.403Z" fill="black"/>
<path d="M36.4955 172.707C34.9369 173.988 33.4089 175.5 31.6773 176.547C29.9939 177.565 28.4834 178.567 26.997 179.874C25.9374 180.807 27.4895 182.35 28.5447 181.422C29.3743 180.693 30.204 179.953 31.1431 179.362C31.8765 178.9 32.6711 178.548 33.3804 178.044C35.0069 176.888 36.5043 175.518 38.0432 174.253C39.1334 173.357 37.577 171.816 36.4955 172.705V172.707Z" fill="black"/>
<path d="M68.8196 144.881C68.4278 144.925 68.0535 145.153 67.8783 145.612C66.7312 148.631 64.9974 151.437 63.4585 154.27C62.7864 155.509 64.6757 156.615 65.3477 155.376C65.4068 155.268 65.4637 155.161 65.5228 155.056C65.7002 155.012 65.8775 154.907 66.0351 154.728C67.1187 153.489 68.0688 152.145 68.8087 150.669C69.1568 149.977 69.4632 149.259 69.7281 148.53C69.9952 147.793 70.1068 146.919 70.5053 146.247C71.1642 145.133 69.6318 144.117 68.8196 144.885V144.881Z" fill="black"/>
<path d="M56.9552 157.805C54.3655 159.112 52.1545 161.047 49.5757 162.362C49.3808 162.435 49.1838 162.505 48.9868 162.57C48.7285 162.656 48.5424 162.807 48.4198 162.989C48.1615 163.26 48.1418 163.63 48.2753 163.96C48.3979 164.409 48.7613 164.777 49.2801 164.74C49.4662 164.76 49.6654 164.731 49.869 164.641C50.0748 164.552 50.2762 164.455 50.4754 164.357C51.559 163.945 52.6142 163.457 53.6146 162.87C54.8755 162.13 56.016 160.929 57.4171 160.473C57.8593 160.329 58.0891 160 58.1548 159.644C59.2559 158.963 58.1767 157.192 56.9552 157.807V157.805Z" fill="black"/>
<path d="M43.3007 107.956C42.9416 107.921 42.5936 107.961 42.2499 108.022C41.7617 107.845 41.175 107.847 40.6584 107.829C40.1615 107.814 39.5157 107.711 38.8984 107.698C38.6006 107.545 38.2963 107.42 37.9592 107.422C37.8804 107.422 37.8016 107.431 37.725 107.446C37.6506 106.378 35.9124 106.032 35.5731 107.251C35.1243 108.869 34.912 110.557 35.0302 112.236C35.1309 113.641 35.2535 115.441 37.0639 115.388C39.7828 115.307 42.39 113.059 43.6312 110.795C43.756 110.568 43.7866 110.327 43.7472 110.099C44.6798 109.777 44.5244 108.072 43.3007 107.956Z" fill="black"/>
<path d="M35.0001 119.966C34.2098 119.705 33.1809 119.749 32.3512 119.67C31.2085 119.559 30.0658 119.458 28.9209 119.386C27.7979 119.316 26.6705 119.333 25.5497 119.259C24.7857 119.208 23.9779 118.81 23.2161 118.97C22.4849 119.123 22.0077 119.81 22.15 120.544C22.3163 121.404 23.2007 121.789 23.91 122.124C24.6521 122.474 25.3286 122.07 25.4862 121.439C25.6394 121.448 25.7927 121.454 25.9459 121.459C26.8675 121.487 27.7869 121.507 28.7064 121.562C29.6367 121.619 30.5649 121.693 31.4931 121.778C31.9222 121.818 32.349 121.859 32.7781 121.903C32.8219 121.908 32.8722 121.91 32.9248 121.912C32.835 122.744 33.6516 123.622 34.4988 123.009C35.0745 122.591 35.7947 122.464 35.9873 121.649C36.1625 120.901 35.7115 120.202 35.0022 119.968L35.0001 119.966Z" fill="black"/>
<path d="M33.8352 78.0432C33.4696 77.8966 33.0997 77.7805 32.7253 77.6842C31.8803 77.3777 31.0682 76.999 30.2801 76.5415C29.0586 75.8344 27.9553 77.7236 29.1746 78.4307C29.4526 78.5927 29.7372 78.7437 30.0218 78.8904C30.1706 79.2472 30.4881 79.5384 30.9719 79.5822C31.3309 79.6128 31.6833 79.6763 32.0292 79.7595C32.432 79.904 32.8392 80.0375 33.2529 80.1535C34.6408 80.5432 35.1137 78.5511 33.8352 78.0432Z" fill="black"/>
<path d="M7.373 94.198C7.23728 93.9726 7.12782 93.7537 7.03807 93.5304C7.11688 93.0028 7.02275 92.4511 6.79727 91.952C6.7907 91.8404 6.78194 91.7309 6.76881 91.6302C6.76224 91.5842 6.75567 91.5383 6.74473 91.4945C7.12125 91.1618 7.33579 90.5729 7.10812 90.0584C6.40323 88.467 5.55166 86.9696 4.54248 85.5532C4.47462 85.4569 4.38705 85.3737 4.29073 85.3037C4.29073 85.1964 4.27541 85.0804 4.24038 84.9578C4.00177 84.1435 3.73908 83.34 3.45449 82.541C3.42603 81.3698 3.32314 80.2074 3.15896 79.0428C3.553 76.3874 3.99301 73.7386 4.48994 71.1007C4.78328 69.5465 5.09195 67.9966 5.42031 66.4489C5.69833 65.1398 5.80779 63.3775 6.83886 62.4121C7.86993 61.4467 6.31785 59.9012 5.29116 60.8644C4.28416 61.8101 3.91858 63.082 3.62962 64.3911C3.24215 66.1446 2.88094 67.9068 2.54163 69.6712C1.86301 73.2001 1.27851 76.7486 0.779395 80.3081C0.713722 80.7788 0.91731 81.1597 1.2216 81.4005C1.22816 81.5121 1.23692 81.6238 1.2413 81.7354C1.16249 81.8755 1.10338 82.0353 1.0793 82.2214C0.982983 82.9526 1.06179 83.6312 1.30041 84.3273C1.35951 84.5025 1.45364 84.6426 1.5631 84.7564C1.61345 84.9556 1.66599 85.157 1.71852 85.3562C1.63972 85.5532 1.62439 85.7853 1.71196 86.0436C1.92649 86.6784 2.14102 87.3111 2.35556 87.9459C1.65723 88.1298 1.12528 89.0909 1.76231 89.8176C1.93087 90.0103 2.10381 90.1942 2.28113 90.3715C2.13227 90.6167 2.025 90.8903 1.96808 91.1749C1.83893 91.8338 1.91117 92.5475 2.14102 93.2042C2.13446 93.7953 2.28769 94.3425 2.75179 94.6621C2.65547 94.9314 2.54163 95.1262 2.43655 94.9927C1.55872 93.8916 0.0197732 95.448 0.888851 96.5404C1.97027 97.8976 3.94923 97.2015 4.64756 95.8443C4.71542 95.7107 4.77891 95.5662 4.83582 95.4218C5.0613 95.4261 5.2824 95.3955 5.49693 95.3364C6.24123 96.49 8.09541 95.3999 7.36644 94.2024L7.373 94.198Z" fill="black"/>
<path d="M32.8091 103.237C28.9869 103.662 24.9042 103.487 21.4739 101.567C18.5492 99.9295 16.2353 96.9961 16.0318 93.5702C15.9486 92.1691 13.7573 92.1604 13.8426 93.5702C14.0813 97.5587 16.4696 101.02 19.8058 103.123C23.6411 105.54 28.4068 105.917 32.8091 105.429C34.1948 105.275 34.2101 103.084 32.8091 103.239V103.237Z" fill="#AFA730"/>
<path d="M31.572 109.569C26.6575 109.352 21.2022 109.126 17.2114 105.858C15.4645 104.429 14.313 102.603 13.8293 100.398C13.2951 97.9576 13.2448 95.4992 12.2071 93.1853C11.6314 91.9025 9.74437 93.0146 10.3179 94.2908C11.4387 96.7886 11.1958 99.641 12.0517 102.218C12.7982 104.468 14.2736 106.348 16.141 107.785C20.5454 111.173 26.2306 111.526 31.5742 111.76C32.9818 111.821 32.9796 109.632 31.5742 109.571L31.572 109.569Z" fill="#AFA730"/>
<path d="M82.1422 143.494C82.0437 143.49 81.9474 143.494 81.8511 143.494C81.7963 143.391 81.7197 143.293 81.6125 143.207C81.492 143.111 81.3695 143.024 81.2447 142.94C82.2188 142.605 82.3721 141.274 81.2622 140.859C81.1571 140.819 81.0498 140.784 80.9426 140.747C80.9251 140.517 80.8353 140.294 80.6624 140.114C80.7565 140.075 80.8506 140.038 80.947 139.998C81.8401 139.615 81.5271 138.216 80.6865 137.997C80.6098 137.978 80.5332 137.96 80.4566 137.94C80.3318 137.551 80.0013 137.238 79.4562 137.238C79.2657 137.238 79.0775 137.238 78.887 137.238C78.841 137.095 78.7688 136.962 78.6659 136.852C79.0337 136.524 79.0599 136.003 78.8345 135.587H78.841C79.5656 135.482 79.7867 134.587 79.5087 133.993C80.1326 133.488 79.813 132.255 78.9483 132.069C78.9242 131.949 78.8826 131.831 78.8257 131.719C79.1957 131.393 79.2854 130.872 79.0906 130.454C79.373 130.005 79.1782 129.313 78.7141 128.948C79.0381 128.873 79.3599 128.801 79.6838 128.726C80.9667 128.435 80.5485 126.688 79.3927 126.577L78.8301 126.522C78.9111 126.211 78.8804 125.878 78.7163 125.627C79.2022 125.29 79.4452 124.611 79.2176 124.142C79.3883 123.543 79.0337 122.763 78.2106 122.656C78.1602 122.65 78.1077 122.645 78.0573 122.639C78.1734 122.293 78.1471 121.894 77.9544 121.605C78.4601 121.038 78.4733 120.071 77.5035 119.863L76.444 119.637C76.7723 119.607 77.1007 119.58 77.4312 119.558C78.6659 119.482 78.8257 117.833 77.8603 117.45C78.0486 117.122 78.1033 116.735 77.9698 116.43C78.4142 116.343 78.8564 116.255 79.3007 116.165C80.3406 115.96 80.3493 114.254 79.3007 114.055C78.8016 113.961 78.3025 113.882 77.8012 113.812C77.8406 113.63 77.8384 113.449 77.7903 113.282C78.1646 113.208 78.3791 112.987 78.4623 112.711C79.57 112.409 79.605 110.861 78.4667 110.601C79.6729 110.601 80.8791 110.609 82.0831 110.631C83.5214 110.658 83.4491 108.593 82.0831 108.442C80.3865 108.254 78.6878 108.136 76.989 108.081C77.2189 107.744 77.278 107.282 77.1313 106.921C77.4444 106.562 77.5516 106.034 77.359 105.644C77.8713 105.119 77.7509 104.121 76.9869 103.854C77.5232 103.372 77.6107 102.433 76.9146 102.092C76.9102 101.962 76.8818 101.833 76.8336 101.715C77.5889 101.614 77.8625 100.853 77.6567 100.257C77.8187 99.6485 77.486 98.9086 76.6432 98.867C76.6147 98.867 76.5862 98.8648 76.56 98.8626C76.5884 98.7313 76.5928 98.5912 76.5709 98.4533C76.6541 98.346 76.7132 98.2256 76.7526 98.0986C77.5954 97.7309 77.5516 96.4415 76.6651 96.0934C76.6213 95.7891 76.4483 95.522 76.1156 95.4016C76.1769 95.209 76.1835 95.001 76.1375 94.804C76.2382 94.445 76.155 94.0334 75.8923 93.7379C76.8883 93.6503 77.8844 93.5628 78.8804 93.4774C79.8743 93.3898 80.1523 92.4573 79.7692 91.8334C80.0604 91.1964 79.7495 90.2813 78.8213 90.2507C78.2237 90.231 77.6261 90.2134 77.0284 90.1937C77.0328 90.15 77.0328 90.104 77.0328 90.0602C77.3349 89.421 77.0197 88.4622 76.0871 88.4337C76.0455 88.4337 76.0039 88.4337 75.9624 88.4337C75.8901 87.9149 75.4895 87.3961 74.8963 87.3457C74.7386 87.3326 74.5832 87.3194 74.4256 87.3063C74.4672 86.7743 74.152 86.2117 73.4865 86.1176C73.4865 85.8571 73.4077 85.5922 73.261 85.3821C73.6047 85.3405 73.9484 85.2967 74.2899 85.2551C75.4983 85.1062 75.6887 83.6286 74.7562 83.1864C75.1546 82.6829 75.0451 81.7744 74.4387 81.4833C75.2356 81.3585 76.0324 81.2337 76.8292 81.1089C77.8822 80.9447 77.7859 79.7057 77.1073 79.1847C77.3678 78.5258 77.0591 77.6611 76.144 77.707C74.5526 77.788 72.9742 77.7377 71.4112 77.5582C72.4948 77.2911 73.5981 77.1072 74.7167 77.0175C75.8529 76.9255 76.3104 75.0845 75.0079 74.8678C74.9072 74.8503 74.8065 74.8371 74.708 74.8218C74.7649 74.2614 74.4103 73.6419 73.6616 73.5652C72.9917 73.4952 72.324 73.4251 71.6542 73.3551C71.9453 73.3069 72.2387 73.2631 72.532 73.2194C73.62 73.0596 73.5302 71.3389 72.532 71.1091C71.941 70.9733 71.3499 70.8442 70.7566 70.7238C71.3543 70.6384 71.9563 70.564 72.5583 70.5005C73.7032 70.3801 74.141 68.6594 72.8494 68.3508C72.2912 68.2172 71.7308 68.0925 71.1704 67.9764C71.2908 67.9392 71.4112 67.9042 71.5294 67.867C72.5364 67.5605 72.6064 66.0303 71.5294 65.7567C71.1047 65.6494 70.68 65.5509 70.2531 65.4568C70.61 65.3802 70.969 65.3101 71.328 65.2466C72.2715 65.0802 72.2912 64.0601 71.7855 63.4866C72.1971 63.3903 72.6064 63.2896 73.0158 63.1845C73.8674 62.9656 74.1563 61.5842 73.2763 61.1836C73.1778 61.1377 73.0793 61.0982 72.9808 61.0567C73.1472 60.4371 72.7422 59.6512 71.9475 59.6096L68.55 59.428C68.4296 59.2112 68.2085 59.0492 67.867 59.0033C66.8622 58.8675 66.026 58.977 65.1131 59.4236C64.0755 59.9336 64.66 61.4091 65.6648 61.4638L68.4537 61.6127C68.4887 61.7265 68.5413 61.836 68.6091 61.9367C67.2891 62.1928 65.9603 62.403 64.6249 62.5671C63.2414 62.7357 63.1955 64.638 64.6249 64.7563C64.7125 64.7628 64.8001 64.7716 64.8876 64.7781C63.8412 65.2773 64.058 66.7681 65.2773 66.8797C65.7611 66.9235 66.2427 66.9804 66.7221 67.0439C66.5098 67.1096 66.2974 67.173 66.0873 67.2387C64.9183 67.5955 65.1591 69.0338 66.1551 69.3403C65.5509 69.4716 64.9489 69.6117 64.3491 69.7649C63.0597 70.0933 63.4954 71.7724 64.6403 71.9147C65.2467 71.9913 65.853 72.0745 66.4594 72.1664C65.7939 72.3262 65.1306 72.4948 64.4717 72.6743C63.2108 73.018 63.5895 74.7014 64.7629 74.824C65.1744 74.8678 65.5838 74.9094 65.9953 74.9531C65.7742 75.6011 66.1726 76.514 67.0089 76.4921C67.2519 76.4855 67.4949 76.4833 67.7379 76.479C67.3745 76.6256 67.0111 76.7789 66.6499 76.9452C66.0041 77.2408 65.9888 78.0617 66.3653 78.5652L66.2164 78.5783C64.8942 78.6943 64.7957 80.612 66.0479 80.7543C65.4524 81.3125 65.8968 82.6019 66.8556 82.6654C66.8666 82.6654 66.8775 82.6654 66.8863 82.6676C66.3718 82.9303 66.304 83.541 66.5426 84.0314C65.4437 84.1934 65.2138 85.4806 65.945 85.9994C65.54 86.3781 65.6188 87.1093 66.0194 87.5515C65.9734 88.1382 66.4047 88.8321 67.0921 88.889C67.2978 88.9065 67.5036 88.9241 67.7094 88.9394C67.5168 89.4407 67.7335 90.1259 68.2392 90.4039C67.7597 91.0409 67.994 92.1005 69.0535 92.1333C69.1017 92.1333 69.1476 92.1355 69.1958 92.1377C68.1822 92.2252 67.1687 92.315 66.1551 92.4026C65.216 92.4857 64.9117 93.3548 65.2182 93.9765C64.6972 94.4034 64.6819 95.2966 65.1766 95.7103C65.1262 96.2335 65.413 96.7676 66.0522 96.8508C65.7633 97.3259 65.8487 98.0154 66.3127 98.3482C66.4266 98.7729 66.7637 99.1385 67.3241 99.1691C67.7466 99.191 68.1691 99.2151 68.5916 99.237C68.5675 99.3377 68.5566 99.4449 68.561 99.5522C68.2829 99.5522 68.0027 99.5522 67.7247 99.5522C66.3171 99.5631 66.3127 101.743 67.7247 101.741C68.2238 101.737 68.7208 101.741 69.2177 101.752C69.0929 101.984 69.0535 102.265 69.1017 102.532C69.0272 102.538 68.9528 102.543 68.8806 102.549C68.0071 102.619 67.6744 103.405 67.8889 104.018C67.6043 104.447 67.6415 105.06 68.0071 105.426C68.0181 105.566 68.0531 105.704 68.1144 105.831C67.1577 106.262 67.3022 107.81 68.5456 107.91C68.6135 107.917 68.6814 107.919 68.7492 107.926C68.9047 108.024 69.0995 108.085 69.3337 108.085H70.008C69.9292 108.144 69.8613 108.219 69.8022 108.3C69.5307 108.339 69.3228 108.464 69.1783 108.637C68.9178 108.65 68.6595 108.661 68.399 108.674C66.9914 108.746 66.987 110.795 68.399 110.863C68.7602 110.881 69.1236 110.898 69.4848 110.916C69.4848 110.933 69.4826 110.951 69.4804 110.971C68.5982 111.415 68.7711 112.982 69.9817 113.041C69.9905 113.041 69.997 113.041 70.0036 113.041C70.0167 113.271 70.0933 113.506 70.2269 113.707C69.3797 114.112 69.4454 115.511 70.4283 115.749C69.846 116.047 69.7803 116.844 70.1196 117.356C70.0846 117.363 70.0474 117.369 70.0123 117.376C69.0469 117.564 69.0338 118.768 69.6511 119.287C69.5264 119.83 69.7628 120.456 70.3976 120.592C70.5399 120.622 70.6822 120.653 70.8223 120.682C70.6187 120.708 70.4173 120.736 70.2137 120.763C68.8674 120.942 68.758 122.978 70.2137 122.952C70.2641 122.952 70.3166 122.952 70.367 122.952C70.17 123.576 70.4852 124.34 71.363 124.353C71.4834 124.353 71.6038 124.361 71.7242 124.364C71.7133 124.591 71.768 124.821 71.8753 125.018C71.5535 125.257 71.4221 125.649 71.4637 126.021C70.5574 126.505 70.9821 127.956 72.0438 128.059C72.2168 128.076 72.3919 128.092 72.5648 128.109C72.532 128.116 72.4992 128.124 72.4642 128.131C71.1682 128.427 71.6148 130.149 72.7553 130.281L72.9961 130.309C72.9961 130.368 72.9961 130.43 73.0071 130.489C72.2759 130.778 72.0767 131.693 72.4795 132.218C72.1839 132.575 72.2124 133.149 72.4882 133.56C72.4204 133.796 72.4423 134.064 72.5386 134.311C72.4423 134.324 72.3459 134.339 72.2518 134.353C70.923 134.545 71.4375 136.369 72.543 136.502C72.6612 136.515 72.7772 136.531 72.8954 136.544C72.486 137.109 72.6787 138.039 73.4668 138.262C73.5543 138.286 73.6397 138.308 73.7273 138.33C73.7426 138.455 73.7776 138.573 73.8323 138.683C73.9484 139.096 74.2855 139.438 74.8415 139.44C74.9269 139.44 75.0101 139.442 75.0933 139.444C74.4365 139.83 74.3227 140.762 74.8328 141.215C74.859 141.318 74.8963 141.419 74.9488 141.511C74.7649 141.859 74.7518 142.31 74.94 142.654C74.6204 142.993 74.5723 143.518 74.778 143.925C74.697 144.028 74.616 144.133 74.5416 144.245C74.4475 144.383 74.3993 144.556 74.3928 144.735C74.0753 145.423 74.3752 146.399 75.3166 146.299C75.5858 146.27 75.8485 146.228 76.1068 146.18C76.109 146.18 76.1134 146.18 76.1156 146.182C76.0828 146.213 76.0499 146.242 76.0193 146.272C74.9816 147.268 76.4943 148.685 77.567 147.82C78.2018 147.308 78.8629 146.787 79.5744 146.388C79.7495 146.36 79.9225 146.327 80.0998 146.285C80.3822 146.22 80.5814 146.075 80.7083 145.889C81.1615 145.747 81.6365 145.67 82.1422 145.688C83.552 145.738 83.5498 143.549 82.1422 143.499V143.494Z" fill="#684836"/>
<path d="M70.006 47.0112C69.7323 47.0068 69.4609 47.0025 69.1873 46.9981C69.1873 46.9959 69.1873 46.9937 69.1894 46.9915C69.6316 46.9193 70.0717 46.8427 70.5095 46.7551C71.523 46.5537 71.4771 45.365 70.8357 44.8527C70.9342 44.5463 70.8991 44.2026 70.7306 43.9268C70.7262 43.8567 70.7153 43.7866 70.6977 43.7166C70.8313 43.2 70.6167 42.598 69.96 42.4009C69.7586 42.3396 69.5572 42.2849 69.3536 42.2302C69.7389 41.6523 69.6667 40.8051 68.7866 40.6234C68.7253 40.6102 68.6641 40.6015 68.6049 40.5884C68.6728 40.1308 68.4889 39.6251 68.0642 39.4106C68.5677 39.1611 68.7232 38.5284 68.5437 38.0293C68.6225 37.8279 68.6465 37.6046 68.6159 37.3923C70.0235 37.3835 70.0257 35.1966 68.6159 35.2031C66.4727 35.2141 64.2639 35.3958 62.6506 36.9654C61.996 37.6024 62.4141 38.4737 63.0643 38.7429C62.5674 39.1961 62.4689 40.0542 63.0183 40.4504C62.8914 40.6803 62.8717 40.9627 62.9417 41.232C61.9895 41.5516 61.9413 42.784 62.7819 43.2153C62.4667 43.8611 62.7622 44.8002 63.6816 44.8068C63.802 44.96 63.9684 45.0782 64.1829 45.1439L63.4868 45.3628C62.8147 45.5752 62.5958 46.2822 62.7841 46.8295C62.6922 46.8624 62.6002 46.8952 62.5105 46.9302C61.4006 47.3527 61.4991 49.0602 62.8016 49.0799C63.0643 49.0843 63.327 49.0887 63.5897 49.0931C63.605 49.2463 63.6466 49.3995 63.7167 49.5418C62.5083 49.8198 62.5367 51.6193 63.8962 51.6981C65.4417 51.7879 66.9697 51.6434 68.4627 51.2778C68.8523 51.2428 69.242 51.2056 69.6316 51.1705C70.7393 51.0676 70.9736 49.6578 70.3103 49.1544C71.5384 48.9136 71.2056 47.0265 70.0082 47.0068L70.006 47.0112Z" fill="#684836"/>
<path d="M69.4236 28.6744C69.3207 28.6679 69.2178 28.6613 69.115 28.6547C69.4083 28.0681 69.2638 27.2668 68.4735 27.1289C66.5537 26.794 64.6864 26.9013 62.8453 27.5624C62.6965 27.6149 62.5695 27.6981 62.4601 27.7988C61.8909 27.7857 61.3239 27.7791 60.7547 27.7791C59.566 27.7791 59.2092 29.7515 60.4636 29.9288C60.4636 29.9288 60.4658 29.9288 60.468 29.9288C60.468 29.9726 60.4702 30.0142 60.4745 30.058C60.1878 30.6928 60.7219 31.6385 61.4968 31.6516C62.3615 31.667 63.2175 31.6144 64.0669 31.5006C64.8133 31.4984 65.5576 31.494 66.3041 31.4918C66.5865 31.4918 66.812 31.4021 66.9828 31.262C67.8978 31.1525 68.8085 31.008 69.717 30.8263C70.9866 30.5724 70.597 28.7511 69.4258 28.6766L69.4236 28.6744Z" fill="#684836"/>
<path d="M86.4903 44.8613C86.8406 44.5439 86.996 43.9988 86.753 43.4844C83.9378 37.5256 78.6949 31.4771 71.5365 31.9697C71.5693 31.3983 71.2212 30.8072 70.4835 30.8226C68.371 30.8598 66.2673 30.9911 64.1657 31.2166C64.0191 31.2319 63.8855 31.2779 63.7629 31.3458C62.4035 31.4596 61.0572 31.6522 59.7262 31.9324C59.1965 31.58 58.4193 31.6303 58.1719 32.3024C57.7385 32.4162 57.3051 32.5344 56.876 32.668C56.0813 32.9132 55.9172 33.9355 56.3397 34.4806C55.6764 34.717 55.0415 35.1242 54.5074 35.5248C52.9597 36.685 51.6528 38.0554 50.5013 39.6053C50.1861 40.03 50.2561 40.4481 50.5101 40.7458C49.3651 41.9104 48.5814 43.596 48.0517 44.9686C47.6861 45.9143 47.1038 47.2672 47.94 48.1275C48.7084 48.9178 49.8117 48.5872 50.6983 48.2129C52.4233 47.4861 53.9119 46.3412 55.0787 44.9336C55.8602 44.3797 56.5761 43.7296 57.189 43.005C58.1107 41.9148 59.4657 39.8154 59.7963 37.8934C60.0064 37.8343 60.1816 37.7248 60.337 37.5869C60.3961 37.5803 60.4574 37.5716 60.5209 37.5541C63.1325 36.8601 65.7879 36.4048 68.487 36.245C70.2799 36.1399 72.1516 36.0961 73.8985 36.5449C73.9139 36.5755 73.927 36.6084 73.9467 36.639C75.4791 39.0646 78.0381 40.2401 80.6279 41.2143C81.3349 41.9082 82.042 42.6 82.7929 43.2392C82.817 43.3027 82.8411 43.3662 82.8651 43.4318C82.6747 43.92 82.7579 44.5111 83.3051 44.765C83.3095 44.7672 83.3139 44.7694 83.3205 44.7716C83.662 45.6801 84.1458 46.455 85.3432 46.6455C86.313 46.7987 87.0026 45.9428 86.5801 45.0365C86.5516 44.9774 86.5188 44.9204 86.4881 44.8613H86.4903ZM54.8204 41.2865C54.8292 41.142 54.8335 40.9954 54.8335 40.8509C54.9518 40.667 55.0765 40.4765 55.2079 40.2905C55.0962 40.6298 54.9671 40.9625 54.8204 41.2865ZM56.6724 36.6806C56.714 36.6609 56.7578 36.6412 56.7994 36.6259C57.3357 36.4245 57.4539 36.3938 57.6115 36.8973C57.6312 36.9565 57.64 37.0221 57.6466 37.0922C57.4211 36.8185 57.0467 36.6762 56.6724 36.6828V36.6806Z" fill="#77767A"/>
<path d="M71.9983 40.4553C71.8516 40.4224 71.705 40.3874 71.5583 40.3546C72.7338 40.1488 72.6178 38.2946 71.3175 38.1852L69.4896 38.0297C69.5553 38.0035 69.6231 37.9838 69.6888 37.9553C70.4265 37.6467 70.93 36.3726 69.9493 35.9545C69.8595 35.9151 69.7676 35.8822 69.6778 35.8494C69.5158 35.5648 69.2137 35.3722 68.7694 35.4094C68.5439 35.4291 68.3206 35.4532 68.0973 35.4794C66.8035 35.3525 65.5163 35.6524 64.4174 36.3857C64.3561 36.4098 64.297 36.4295 64.2357 36.4536C63.9336 36.574 63.7366 36.7841 63.6228 37.0249C63.5855 37.06 63.5461 37.0928 63.5111 37.13C63.4389 37.2023 63.382 37.2789 63.336 37.3555C63.3207 37.3555 63.3075 37.3555 63.2922 37.3555C62.9792 37.3774 62.6683 37.3993 62.3553 37.4234C60.9433 37.5241 60.952 39.4943 62.3553 39.6125C63.0405 39.6716 63.7235 39.7285 64.4086 39.7876C64.2751 40.348 64.5247 40.9916 65.1551 41.1339L66.519 41.4448C66.3854 41.5061 66.2541 41.5717 66.1249 41.6527C65.2843 42.1759 65.512 43.334 66.3854 43.6536L67.307 43.9907C66.6569 44.1089 66.0045 44.2271 65.3543 44.3453C64.4152 44.5161 64.3911 45.615 64.9275 46.1798C64.737 46.263 64.5487 46.3571 64.3627 46.4732C63.7957 46.8278 63.5987 47.7056 64.1416 48.1916C64.3758 48.4018 64.6144 48.601 64.8574 48.798C64.505 48.9403 64.1503 49.0826 63.7979 49.2249C62.7997 49.6277 62.7252 50.9565 63.7979 51.3352C65.0238 51.7686 66.2497 52.2043 67.4734 52.6377C68.8044 53.1084 69.3757 50.9937 68.0557 50.5274L67.1647 50.2122C67.2392 50.1815 67.3114 50.1531 67.3858 50.1224C68.2462 49.7765 68.4957 48.6623 67.6463 48.1216C67.4887 48.023 67.3355 47.9202 67.1844 47.8151C68.3403 47.6772 69.5947 47.8063 70.6892 47.5261C71.8691 47.2262 71.6065 45.777 70.6608 45.4399C71.0876 45.2057 71.4116 44.8532 71.5955 44.2994C71.7925 43.7061 71.3635 43.1479 70.8315 42.9531L70.7593 42.9268C71.2715 42.8327 71.7619 42.686 72.2588 42.4518C73.1104 42.0511 72.8761 40.6523 71.9983 40.4509V40.4553Z" fill="#6F4631"/>
<path opacity="0.65" d="M59.3584 34.5773C59.2621 34.5335 59.2162 34.4481 59.2052 34.4065C59.0388 33.879 61.935 32.4122 64.6867 31.8299C69.3408 30.8448 73.5176 32.4101 75.5579 33.1763C78.4803 34.2708 80.2973 35.6346 80.1857 35.8076C80.155 35.8535 79.877 35.9761 79.877 35.9783C74.6012 33.1587 72.318 32.583 72.318 32.583C71.1008 32.2765 68.0383 31.5016 65.0151 32.2853C62.9486 32.8216 61.9153 33.0887 61.0047 33.7717C60.6522 34.0344 59.7656 34.7677 59.3584 34.5773Z" fill="white"/>
<path d="M80.0133 44.3694L69.215 43.707L68.2812 58.93L79.0795 59.5923L80.0133 44.3694Z" fill="black"/>
<path d="M77.4624 54.5498H65.6763V61.96H77.4624V54.5498Z" fill="black"/>
<path d="M65.3736 46.2524H61.7769V54.2646H65.3736V46.2524Z" fill="black"/>
<path opacity="0.65" d="M80.7086 36.3968C80.5838 36.4909 80.8268 37.0338 81.0523 37.3666C81.2165 37.6117 81.5449 38.0036 81.6806 37.9379C81.7988 37.8788 81.7484 37.487 81.6237 37.1958C81.396 36.6682 80.84 36.2983 80.7108 36.3968H80.7086Z" fill="white"/>
<path d="M58.0647 36.3607C57.7845 35.8616 57.0577 35.6514 56.5674 35.9689C56.5433 35.9842 56.5258 36.0017 56.5039 36.0192C56.3288 35.947 56.1383 35.9076 55.9501 35.9119C55.3656 35.9229 55.0131 36.2994 54.8051 36.8029C54.7044 37.0459 54.7482 37.3239 54.873 37.5647C54.8402 37.6413 54.8139 37.7267 54.7986 37.823C54.5249 39.4014 53.4764 40.5572 52.419 41.6934C51.4317 42.7529 52.8831 44.0883 53.9667 43.2411C54.7504 42.6303 55.4422 41.9451 56.0617 41.1702C56.3091 40.8593 56.3616 40.5113 56.2894 40.1982C56.4382 39.9093 56.5674 39.6094 56.6747 39.3007C56.8016 39.3576 56.9417 39.3904 57.1015 39.3904C57.4912 39.3904 57.848 39.1803 58.0472 38.8475C58.5047 38.0835 58.5004 37.1357 58.0669 36.3629L58.0647 36.3607Z" fill="#75777A"/>
<path d="M72.6337 29.8381C72.4804 29.7461 72.2943 29.6914 72.0711 29.6914C71.7777 29.6914 71.5457 29.7877 71.3749 29.9388C71.0925 30.1424 70.9502 30.4839 70.9459 30.8254C70.9108 31.3967 71.2633 31.9943 72.001 31.9943C72.0601 31.9943 72.117 31.99 72.1696 31.9812C72.2112 31.9878 72.2528 31.9922 72.2987 31.9922C72.3797 32.0097 72.4651 32.0206 72.557 32.0206C73.9384 32.0206 73.9668 29.9147 72.6337 29.8359V29.8381Z" fill="#75777A"/>
<path d="M69.5224 28.9045C69.3801 28.8147 69.2115 28.7534 69.0123 28.7359C68.6052 28.6987 68.2024 28.6877 67.7996 28.6987C67.6179 28.6768 67.434 28.668 67.2545 28.6899C67.1691 28.7009 67.0859 28.7184 67.0049 28.7425C66.8429 28.7556 66.6809 28.7731 66.5189 28.7906C65.9695 28.7994 65.4266 28.8388 64.9012 28.9439C64.7698 28.9701 64.6582 29.0139 64.5597 29.0686C64.54 29.0686 64.5203 29.0643 64.5006 29.0643C63.8832 29.0643 63.2878 29.1256 62.7515 29.362C62.6398 29.3226 62.515 29.3007 62.3771 29.3007C61.2563 29.3007 61.0265 30.6864 61.6898 31.2512C61.7686 31.3453 61.8649 31.4241 61.9809 31.4832C62.1517 31.6255 62.3771 31.7175 62.6617 31.7175C62.7843 31.7175 62.8938 31.6978 62.9945 31.6671C63.0098 31.6649 63.0251 31.6584 63.0404 31.654C63.0492 31.6518 63.0579 31.6496 63.0667 31.6452C63.1214 31.6299 63.1762 31.6102 63.2309 31.5883C64.5553 31.4241 65.814 31.0892 67.1166 30.9491C67.5106 30.96 67.9046 30.9819 68.2921 31.0016C68.5855 31.0345 68.8766 31.0432 69.1765 31.0345C69.7676 31.0191 70.2711 30.5419 70.2711 29.9399C70.2711 29.4758 69.9515 29.0446 69.5202 28.8979L69.5224 28.9045Z" fill="#6E4730"/>
<path d="M68.4498 35.0944C67.1079 35.1973 65.871 35.3352 64.6386 35.8431C63.3382 35.9525 63.3711 38.0278 64.7458 38.0278C64.8706 38.0278 64.9866 38.0103 65.0895 37.9775C65.1924 37.9599 65.2975 37.9293 65.4048 37.8789C66.3745 37.4214 67.3969 37.3645 68.4498 37.2857C69.8465 37.1784 69.8574 34.9893 68.4498 35.0966V35.0944Z" fill="#6E4730"/>
</g>
<path d="M16.6246 39.4555C12.4938 45.5018 6.014 50.3879 4.72024 58.0432C7.29025 52.2771 13.3081 44.4663 18.3715 40.8762C16.9377 39.6591 17.6491 39.0592 16.6246 39.4555ZM16.6246 39.4555C17.2069 38.3259 17.7892 37.1963 18.3715 36.0667C19.1027 34.8649 20.8474 33.8535 20.5563 32.3496C20.46 31.8483 17.3711 28.7507 17.9359 22.7285C11.7626 20.8633 17.752 16.3647 20.3396 13.9808C20.0484 12.0478 20.5388 9.80831 21.4319 8.07673C21.3662 5.66214 20.0331 -0.176226 22.4148 2.06324C22.938 0.738822 23.7874 2.79002 24.3807 2.71997C24.7659 2.674 25.0374 0.333837 31.5894 2.50106C37.4978 -2.4135 38.704 7.90817 40.8734 11.5771C39.9321 16.5376 46.379 18.0678 45.024 20.9794C44.0279 23.1181 40.6764 22.1352 40.4378 22.5095C40.2911 23.8208 40.1466 25.1343 40 26.4456C41.5214 30.2087 43.3712 37.4371 36.8323 33.9892C35.4247 37.0146 36.0421 38.6105 32.3534 39.346C35.0745 43.0784 34.7811 48.8117 36.285 50.7163C37.1585 51.4452 38.032 52.1742 38.9054 52.9032C40.348 54.6764 40.6742 58.2993 44.2578 56.7298C44.3672 56.8392 44.4767 56.9487 44.5862 57.0581C43.8484 57.6404 45.0897 59.2538 45.3502 59.3545C51.3571 57.8593 57.364 56.3664 63.3709 54.8712C62.3267 49.8669 64.6012 50.3419 64.6822 50.0595C64.3911 49.6217 64.0999 49.1839 63.8088 48.7482C63.2264 46.1016 65.2076 46.5438 65.3368 46.3424C64.9361 42.9537 64.5355 39.5627 64.1349 36.174C58.1959 37.8136 53.3426 43.2908 50.8098 48.6388C49.4175 42.4086 56.6241 33.3632 62.6047 31.5812C63.7869 27.1855 67.9593 26.5879 69.1568 30.9245C78.7144 32.7984 83.4582 34.9459 85.4306 45.0289C84.9293 45.7667 83.4035 42.6756 80.9517 40.7646C78.1124 38.5514 72.1449 35.7011 68.5 35.2983C67.9462 38.987 68.6401 42.6625 69.0451 46.3424C72.771 44.1533 72.6637 46.9597 72.8673 47.1086C73.3401 47.2181 73.813 47.3275 74.288 47.437C74.4697 47.9842 74.6514 48.5293 74.8331 49.0766C75.3366 49.394 76.7771 48.028 76.0349 51.5919C79.6535 52.2355 77.1908 54.8471 77.1273 55.0901C76.2976 58.2556 76.6632 60.6132 70.4658 62.4149C71.0854 69.8863 71.7027 77.3578 72.3222 84.8292C73.9597 93.8286 74.8463 103.016 75.816 112.165V116.538C76.4706 121.131 77.1273 125.722 77.7819 130.315C78.1453 134.907 78.5108 139.498 78.8742 144.091C79.0209 144.31 79.1654 144.528 79.312 144.747C76.0546 148.309 76.7048 145.03 75.5993 141.904C73.3949 126.948 71.8713 111.941 70.7942 96.8562C69.5048 90.1575 68.8984 83.3318 68.3906 76.5193C66.9348 71.9528 66.9852 67.0339 66.2058 62.3054C57.1757 65.079 53.2594 73.2094 42.397 76.3004C43.8068 78.8332 46.1776 82.5022 43.9251 85.0481C43.7215 87.2876 45.267 90.3042 43.2705 91.39C42.7429 97.4144 45.6523 93.3886 47.0927 98.9336C51.0834 98.9533 54.6189 98.3448 57.0313 102.103C57.3706 106.545 57.2327 111.077 55.5033 115.225C55.477 120.788 53.6863 126.177 53.0996 131.626C52.9529 131.773 52.8085 131.917 52.6618 132.064C53.2441 134.397 53.8264 136.729 54.4087 139.062C54.759 141.799 53.7476 148.386 56.484 148.138C58.3119 147.972 59.3036 141.129 65.6586 142.453C67.8411 142.909 67.5368 146.245 68.0622 146.389C68.4847 146.505 69.0407 145.36 69.0451 147.155C69.0517 149.373 67.4164 148.591 67.2982 149.123C67.2544 149.318 69.1677 151.488 66.2058 151.748C65.6739 154.296 65.05 152.379 64.1306 152.733C63.3293 153.534 62.5281 154.338 61.7269 155.139C59.5334 156.472 55.2603 156.446 56.1578 160.06C49.2774 165.48 51.0572 162.621 49.932 161.919C49.7875 161.829 48.5003 162 46.8738 160.608C42.5984 156.945 46.6811 152.591 44.3629 148.033C45.0524 142.915 41.1646 133.616 43.9251 133.6C43.2683 128.706 44.9102 123.894 44.3629 118.949C44.5621 116.887 47.0423 109.522 45.3458 110.092C44.9999 110.208 44.6584 113.285 41.0858 115.886C39.7329 118.907 38.958 124.08 35.1883 124.415C34.6585 130.573 30.0702 139.377 29.5097 145.19C29.4375 150.001 29.3631 154.811 29.2908 159.622C29.4375 159.914 29.582 160.205 29.7287 160.498C27.6468 163.401 24.477 167.308 27.8723 170.229C28.8837 167.05 31.8915 165.697 34.8621 167.385C37.986 169.16 35.6349 172.753 35.845 173.398C35.9567 173.744 36.9462 173.744 36.7185 174.491C36.5762 174.957 29.3784 178.771 28.7457 180.067C28.4546 179.92 28.1634 179.775 27.8723 179.629C21.9573 179.802 24.7222 179.011 22.5199 175.802C21.3903 174.891 20.2629 173.981 19.1333 173.068C18.0848 172.926 17.6842 174.791 17.3864 174.817C15.6746 173.687 13.9649 172.558 12.253 171.428C13.2337 167.444 9.70922 161.882 16.8392 161.807C17.7126 159.692 18.5861 157.58 19.4595 155.465C19.3282 147.061 19.7945 138.528 21.8632 130.317C22.5177 128.277 23.1745 126.234 23.829 124.194C16.9026 122.418 20.5847 117.773 18.4766 115.993C17.4193 115.1 10.6484 114.428 8.10023 109.104C4.74213 102.086 7.00129 93.3908 4.71367 94.562C3.6016 95.1312 3.51404 97.8478 3.07621 91.6089C5.44921 91.6133 2.67123 87.9377 2.20276 86.1427C1.76493 82.9356 1.3293 79.7286 0.891479 76.5215C1.3293 72.2943 1.76493 68.0672 2.20276 63.8378C3.95843 58.3672 5.56523 52.8069 8.97368 48.0937C11.5218 45.215 14.0699 42.3363 16.6181 39.4555H16.6246ZM21.5392 2.06105C20.5672 2.3719 22.4433 4.46907 22.3032 4.79525L21.3203 4.46688C20.3023 5.03605 22.6928 6.62097 22.741 6.76326C22.949 7.38934 20.5869 7.04565 23.1788 8.07454C23.065 9.1275 25.6766 12.0062 26.3465 10.5898C26.5479 11.5793 27.0163 11.7282 26.8916 10.9182C25.5803 8.87794 24.2712 6.8355 22.9599 4.79525C22.8833 4.65295 22.3907 1.7896 21.5392 2.06105ZM22.8483 2.06105C23.0322 5.51765 25.2432 6.78953 25.797 7.63671C26.3136 8.42698 27.3907 12.363 28.7457 11.4633C28.4174 9.67697 28.0912 7.89065 27.7628 6.10653C26.8412 5.51328 26.9156 7.08506 26.561 7.09163C25.9371 7.10257 26.5304 2.58862 25.4686 6.21598C24.8666 6.19409 25.2913 4.12976 25.1403 3.70069C24.5339 1.97348 24.6236 5.11486 24.3763 5.12142C23.7458 4.4625 24.3872 2.66962 22.8483 2.06105ZM26.7821 16.9317C25.5759 17.2141 27.2944 18.0503 27.3272 18.1335C27.3513 18.1948 26.9244 19.3353 27.4367 19.3353C27.6271 19.3353 27.684 17.6607 28.529 19.9921C29.1661 18.3415 30.5167 20.4058 30.6043 20.7583C30.9918 22.3169 29.6214 24.7797 29.4025 24.8037C29.293 24.8147 28.9231 23.9325 28.0912 24.147C25.9765 28.3961 27.9927 22.8532 26.1254 22.3979C25.6876 22.4701 25.2519 22.5446 24.8141 22.6168C22.4455 24.0572 26.0269 28.7879 24.4857 27.5379C24.35 27.4285 23.8334 25.1255 22.8483 25.2416C22.3382 25.9705 21.8281 26.6995 21.3203 27.4285C21.1167 27.4285 20.2082 24.4973 20.3374 28.1947C17.5769 27.1045 21.4363 32.5729 21.4297 33.0063C21.4232 33.4945 19.2669 33.6893 21.4297 36.9424C24.0151 39.311 26.5982 41.6796 29.1836 44.0482C29.4375 42.4808 29.6936 40.9134 29.9476 39.346C29.1464 38.3981 28.3451 37.4502 27.5439 36.5024C29.0719 36.5221 29.0347 39.3241 32.6774 38.7987C34.3849 38.5535 35.057 37.5575 35.6261 36.0645C35.6086 35.4319 32.6402 34.9087 31.1472 31.5812C29.8841 34.0374 30.6109 30.5151 31.2567 30.1605C32.4169 29.5213 30.5977 31.1412 33.2225 33.6587C36.5981 36.8986 36.2084 33.1815 36.8258 33.1114C41.8432 37.019 41.8498 31.3142 39.3367 26.4412C40.1269 23.3064 39.6519 21.5792 39.1178 18.5691C38.6602 17.7592 30.6634 17.9168 29.3981 17.803C28.5246 17.5118 27.6512 17.2206 26.7777 16.9273L26.7821 16.9317ZM19.7923 34.8627C15.5826 40.318 18.5292 39.4817 19.6828 42.1875C20.2192 43.444 21.2152 49.5648 22.9599 52.4654H23.3977C28.0649 41.0272 31.4799 52.8463 32.2439 52.3559C31.4033 47.6406 28.4261 43.895 25.0352 40.5478C23.4218 38.9542 21.7143 38.9279 19.7923 34.8627ZM30.9305 39.2366C30.7488 39.346 30.5671 39.4555 30.3854 39.5649C30.5671 42.1612 28.3276 45.3639 31.0399 46.7802C31.0859 46.1344 31.5193 41.1148 32.4607 41.6424C32.2067 42.772 31.9506 43.9016 31.6967 45.0311C33.8464 46.2767 34.9935 49.4356 34.7549 46.9991C34.6279 45.6988 32.6971 38.7922 30.9327 39.2366H30.9305ZM19.1355 43.1726C5.33757 55.5695 1.30303 68.0496 3.2995 86.5805C5.10114 89.1811 8.56213 92.583 11.7101 93.2507C16.5568 94.2796 12.5354 91.5191 12.4741 90.5165C12.3734 88.8878 14.221 92.8632 15.6417 93.9053C16.7735 94.7349 21.1276 96.3505 22.4126 96.0922C24.1968 94.5248 25.9809 92.9574 27.765 91.39C28.7851 87.3817 29.8031 83.3712 30.8232 79.363C30.74 78.958 26.2852 75.7225 31.0421 76.7382C30.6634 73.842 32.8262 71.642 32.789 68.8662C34.1725 68.2839 35.5561 67.6994 36.9396 67.1171C33.3341 60.4994 33.4501 64.9915 31.9156 66.4604C31.6967 66.5326 31.4778 66.607 31.261 66.6793C35.4729 59.2779 31.758 64.8141 29.1858 67.0076C26.8916 68.6473 24.5996 70.2869 22.3054 71.9288C20.7949 74.293 23.8509 75.4007 25.0352 75.0986C25.8495 74.8906 28.1481 69.3347 28.4218 71.0531C28.4896 71.4866 25.0615 75.7947 26.1276 76.191C29.1113 77.3008 29.9541 71.9003 30.7138 72.2549C30.3613 74.7812 27.0251 79.028 25.2519 75.5342C23.2117 75.7137 20.8781 74.7396 21.4297 72.3644C21.699 71.1998 29.1048 66.5851 30.7138 65.0396C33.1678 62.6819 31.9506 60.7577 36.0661 64.4923C38.1064 69.0698 37.9181 65.9262 36.285 63.6167C34.0762 60.4972 31.7996 62.0121 31.0421 60.992C30.4992 59.7989 25.6087 50.9658 25.0352 50.8235C23.9866 50.563 23.7918 54.2626 22.9599 53.5577C22.0142 51.1519 21.0663 48.7461 20.1206 46.3424C19.882 45.6222 19.9061 43.1419 19.1377 43.1726H19.1355ZM71.3415 46.0162C69.0998 45.8805 67.9309 50.7907 68.7211 51.0468C69.0473 51.1519 73.8852 46.1717 71.3415 46.0162ZM64.5706 46.8897C63.1739 47.3122 65.2054 50.0639 65.1157 50.2784C61.3526 51.8152 64.9734 56.0993 65.1157 56.6203C65.8906 59.4355 62.7864 58.8641 60.6367 59.5734C56.2454 61.0204 51.8847 62.6097 47.3116 63.5094C40.8997 67.0755 33.9383 66.0094 35.5167 72.476C34.2601 70.6065 36.458 67.0448 33.9887 68.54C33.1305 69.0588 33.4589 70.6306 33.2247 71.2742C32.7868 72.2221 32.3512 73.17 31.9134 74.1179C30.7816 80.5889 37.6204 78.6471 40.7596 75.9764C51.4162 74.1004 56.6482 65.0987 65.2229 61.9814C65.2952 61.8348 65.3696 61.6903 65.4418 61.5436C72.2784 63.7218 67.9155 60.6417 67.736 59.4661C67.8455 58.6277 67.9549 57.7893 68.0644 56.9508C68.8678 56.3707 68.2154 58.6934 68.3928 59.4661C69.0845 60.3046 69.7763 61.143 70.468 61.9814C71.4728 62.1741 77.1164 59.1903 76.475 55.5301C70.2929 57.8681 72.0858 56.5327 71.1226 55.6396C71 55.5257 68.6554 55.3594 70.1397 53.3432C68.9313 53.295 68.3752 51.1256 68.0644 51.0468C67.215 50.8323 68.9138 54.0153 65.5535 50.7184C65.8008 49.8297 65.884 46.4935 64.5706 46.8919V46.8897ZM72.8695 47.5464C72.1142 47.7106 67.0092 53.8839 70.6848 52.577C71.8143 51.5197 72.9417 50.4623 74.0713 49.4072C74.3909 48.5184 73.8174 47.3428 72.8695 47.5486V47.5464ZM34.4265 48.4199C33.7873 48.8227 35.3985 51.0643 35.6283 51.5897C36.5018 53.7044 37.3752 55.8169 38.2487 57.9316C39.711 62.0887 39.3235 66.977 42.2898 65.2563C43.5923 64.5011 45.302 57.2902 43.9272 59.0239C43.3581 59.7442 42.3204 64.1377 41.7425 63.1789C41.3857 62.5856 46.1952 55.5082 42.0709 57.6032C41.4886 58.5511 40.9063 59.499 40.324 60.4469C39.6782 60.0528 41.4711 58.0257 41.3069 57.277C41.2193 56.8764 37.2767 51.165 36.0639 51.1541C35.7159 50.0333 35.289 49.2101 34.4265 48.4199ZM75.492 49.5144C74.2486 49.6436 70.1397 53.4154 70.1397 54.2166C70.1397 54.7245 71.0197 55.4119 71.7771 54.9828C72.0814 54.8099 77.02 50.4733 75.4899 49.5166L75.492 49.5144ZM75.9277 52.1392C74.1961 52.3296 68.3096 59.0809 75.4899 55.1996C78.8501 53.3848 77.1536 52.0035 75.9277 52.1392ZM32.8963 54.1072C32.9335 54.6545 32.9685 55.1996 33.0058 55.7468C32.9576 55.8979 30.0373 57.1895 33.1152 56.7319C33.194 59.8492 34.0697 57.01 34.2076 56.9508C34.2798 56.9202 35.44 57.5901 35.6283 56.8414C35.7597 56.3204 34.2426 56.7363 34.8643 54.545C33.6275 55.1076 33.3735 53.7591 32.8985 54.1072H32.8963ZM63.0404 55.1996C57.1429 56.7297 51.2454 58.2599 45.348 59.7923C44.7197 60.1645 42.9947 64.7266 44.0367 64.604C45.2013 64.0939 46.3659 63.5839 47.5305 63.0738C53.0646 61.5436 58.5987 60.0134 64.1306 58.481C65.617 57.9797 64.286 55.1317 63.0382 55.2017L63.0404 55.1996ZM42.0709 76.6288C41.1624 78.5705 43.3734 81.7863 43.8178 84.2819C45.4136 81.5784 43.2355 79.0631 42.0709 76.6288ZM39.4505 77.5044C34.884 79.028 38.6799 82.6795 37.7036 88.6558C39.3104 88.4412 40.3896 87.3751 41.7447 86.5783C41.6812 85.4224 39.9168 77.5723 39.4505 77.5022V77.5044ZM36.3923 78.8157C34.8446 78.8179 33.7501 79.4812 32.3512 80.0175C32.9335 83.6339 33.1196 87.2 33.1152 90.8427C40.1707 91.1229 36.0836 82.8831 36.9374 78.9252C36.7557 78.8879 36.574 78.8529 36.3923 78.8157ZM41.852 87.1256C40.0941 88.6032 38.1896 88.9206 37.4825 89.3125C37.0447 89.8226 36.609 90.3326 36.1712 90.8427C35.3569 91.2805 32.3096 91.2039 32.5679 92.0445C35.5079 94.2358 38.9492 94.6058 42.5065 94.9976C42.7867 93.9118 42.8393 87.3204 41.852 87.1256ZM5.15587 89.5314C5.70096 91.7555 6.24824 93.9775 6.79333 96.2016C5.96584 100.685 7.27055 104.971 8.75915 109.104C12.358 115.672 27.082 117.561 34.0981 117.414C33.3429 115.367 32.6292 113.213 32.8963 110.963C30.5737 111.188 20.0068 109.419 18.6977 108.995C13.8532 107.419 11.4233 98.2112 11.3795 93.5791C7.04507 92.2547 5.51926 89.3979 5.15368 89.5336L5.15587 89.5314ZM27.4367 92.3751C25.9087 93.7608 24.3785 95.1443 22.8505 96.53C20.3965 97.2612 15.4031 94.1132 14.9872 94.1242C13.503 94.1636 17.0187 98.5527 17.6075 99.1547C22.5812 104.218 27.1214 104.144 33.7719 103.748C35.2189 100.521 38.0539 98.0098 39.9978 95.3282C39.8621 94.956 33.9142 94.3321 32.6796 92.594C32.4826 94.1876 30.937 95.8689 29.4025 96.0922C25.7598 96.6263 28.7457 92.3181 27.4367 92.3751ZM29.6214 92.8107C27.9336 93.0427 26.7186 96.3549 29.8403 95.4354C31.9659 94.8094 32.0404 92.478 29.6214 92.8107ZM41.1974 97.6224C39.109 100.475 36.8104 103.237 35.845 106.698C37.4431 107.729 40.7399 108.712 42.7254 109.214C42.9246 109.264 46.2608 109.222 46.5476 110.199C45.8931 113.478 45.2363 116.76 44.5818 120.039C45.5056 122.71 43.4369 131.899 44.144 133.16C44.3979 133.123 44.654 133.088 44.908 133.051C45.3129 133.268 44.6518 134.102 46.2192 133.051C48.2201 134.089 52.2918 133.625 52.8807 130.536C54.4919 124.275 54.3146 117.605 56.3745 111.51C58.8023 96.6394 52.1933 100.166 47.0905 99.3737C45.1247 98.7914 43.1589 98.2069 41.193 97.6246L41.1974 97.6224ZM19.963 104.082C19.8645 104.325 19.7682 104.571 19.6697 104.814C17.52 104.42 19.2559 105.381 19.3041 105.473L19.523 106.569C19.6697 106.374 19.8164 106.18 19.9608 105.985C20.0769 105.994 20.6767 107.388 20.5453 105.691C22.6119 106.541 20.5607 105.481 20.9109 104.595C19.639 105.247 20.6132 103.894 19.9608 104.082H19.963ZM19.1355 116.21C19.442 119.632 22.1259 117.13 20.8825 116.648C20.3001 116.501 19.7178 116.357 19.1355 116.21ZM40.324 116.21C33.2115 120.133 29.3127 115.847 39.0127 120.146C39.2272 119.146 41.042 116.169 40.324 116.21ZM24.8163 119.708C25.5015 123.793 23.9385 124.586 23.1788 127.252C21.3071 133.819 19.6565 141.433 20.1206 148.246C21.9617 150.82 21.3903 149.454 21.977 149.666C22.1237 149.885 22.2682 150.104 22.4148 150.323C22.614 150.4 23.3255 149.502 23.9428 150.98C24.5251 150.908 25.1074 150.833 25.6897 150.761C26.7821 151.052 27.8745 151.343 28.9668 151.637C29.0041 149.778 29.0391 147.919 29.0763 146.061C29.6849 139.581 32.9598 133.058 34.1003 128.568C34.7527 125.995 35.2518 122.351 33.5552 120.367C30.6437 120.148 27.73 119.929 24.8185 119.711L24.8163 119.708ZM52.3378 132.83C52.1649 133.504 52.502 135.623 51.7927 134.47C51.2542 133.596 51.5979 131.545 51.0287 135.236C50.5208 135.244 50.5734 131.996 49.7174 135.017C49.4263 134.653 49.1351 134.288 48.844 133.924C47.4583 137.922 48.4434 131.656 46.6592 135.236C45.5253 130.86 46.7227 138.587 44.9123 133.924C44.6212 134.362 44.33 134.8 44.0389 135.236C43.8616 135.247 42.9093 132.243 43.2749 136.438C43.4938 137.458 43.7127 138.478 43.9294 139.498C46.7643 138.379 50.2844 137.096 53.2135 136.983C53.4061 136.886 52.8238 133.228 52.34 132.828L52.3378 132.83ZM51.9 137.639C50.372 138.003 48.8418 138.368 47.3138 138.732C43.2158 140.03 43.9557 140.496 44.9102 144.636C46.4053 144.511 53.6381 141.921 53.9753 140.809C54.2883 139.774 54.0256 137.469 51.9 137.639ZM20.2279 149.012C20.0812 150.47 19.9368 151.928 19.7901 153.386C22.7147 154.763 25.8474 155.892 29.0741 156.12C29.2865 154.025 28.6976 149.69 27.4367 153.605C26.6311 153.611 27.6337 151.074 26.6727 151.527C26.6267 154.163 26.5107 153.46 25.9087 151.418C25.2716 151.376 24.9236 155.321 24.5974 151.418C24.234 151.855 23.8684 152.293 23.505 152.729C22.984 147.359 22.7169 154.953 21.7581 150.323C20.3549 152.924 20.8759 150.065 20.2301 149.012H20.2279ZM19.7923 153.821C18.5007 156.963 26.5216 160.776 28.3101 160.163C29.096 159.894 29.0106 156.75 28.7479 156.665C25.97 156.481 22.0952 155.389 19.7923 153.821Z" stroke="black" stroke-width="1.34" stroke-miterlimit="10"/>
<path d="M21.5394 2.0609C22.3909 1.78726 22.8813 4.65062 22.9601 4.7951C24.2714 6.83535 25.5805 8.8778 26.8917 10.918C27.0165 11.728 26.5459 11.5792 26.3466 10.5897C25.6768 12.006 23.0652 9.12954 23.179 8.07439C20.5871 7.04551 22.9513 7.3892 22.7412 6.76311C22.693 6.62082 20.3025 5.0359 21.3204 4.46673L22.3034 4.7951C22.4435 4.46892 20.5674 2.37394 21.5394 2.0609Z" fill="white"/>
<path d="M22.8485 2.06006C24.3896 2.67082 23.746 4.4637 24.3765 5.12044C24.6239 5.11168 24.5341 1.97249 25.1405 3.6997C25.2916 4.12658 24.8647 6.1931 25.4689 6.21499C26.5306 2.58763 25.9373 7.09939 26.5612 7.09064C26.9137 7.08407 26.8415 5.51229 27.7631 6.10554C28.0914 7.89185 28.4176 9.67817 28.746 11.4623C27.3887 12.362 26.3139 8.426 25.7972 7.63573C25.2434 6.78635 23.0324 5.51448 22.8485 2.06006Z" fill="white"/>
<path d="M19.1357 116.21C19.718 116.357 20.3003 116.502 20.8827 116.648C22.1261 117.13 19.4422 119.632 19.1357 116.21Z" fill="white"/>
<path d="M40.3239 116.211C41.0442 116.169 39.2272 119.146 39.0127 120.147C29.3127 115.847 33.2115 120.134 40.3239 116.211Z" fill="white"/>
<path d="M26.7825 16.9307C27.656 17.2218 28.5294 17.513 29.4029 17.8063C30.6704 17.9201 38.665 17.7603 39.1225 18.5725C39.6567 21.5825 40.1295 23.3097 39.3415 26.4445C41.8546 31.3175 41.8458 37.0223 36.8305 33.1148C36.2132 33.1848 36.6007 36.9019 33.2273 33.662C30.6025 31.1424 32.4217 29.5246 31.2614 30.1638C30.6156 30.5185 29.8889 34.0408 31.152 31.5846C32.645 34.912 35.6134 35.433 35.6309 36.0679C35.0617 37.5587 34.3897 38.5547 32.6822 38.8021C29.0395 39.3275 29.0767 36.5276 27.5487 36.5057C28.3499 37.4536 29.1511 38.4015 29.9523 39.3494C29.6984 40.9168 29.4423 42.4842 29.1883 44.0516C26.603 41.683 24.0199 39.3143 21.4345 36.9457C19.2717 33.6927 21.4279 33.4979 21.4345 33.0097C21.4411 32.5762 17.5817 27.1078 20.3421 28.198C20.213 24.5028 21.1215 27.4318 21.3251 27.4318C21.8351 26.7029 22.3452 25.9739 22.8531 25.2449C23.8382 25.1289 24.357 27.4318 24.4905 27.5413C26.0295 28.7913 22.4503 24.0606 24.8189 22.6202C25.2567 22.5479 25.6923 22.4735 26.1302 22.4013C27.9975 22.8588 25.9813 28.3994 28.096 24.1504C28.9257 23.9336 29.2956 24.818 29.4073 24.8071C29.6262 24.783 30.9966 22.3203 30.6091 20.7616C30.5215 20.4092 29.1708 18.3448 28.5338 19.9954C27.6888 17.664 27.6319 19.3387 27.4414 19.3387C26.9292 19.3387 27.3561 18.1982 27.332 18.1369C27.2991 18.0537 25.5785 17.2174 26.7869 16.935L26.7825 16.9307ZM35.7382 19.991C35.0464 20.8295 34.3547 21.6679 33.6629 22.5063C32.4129 28.001 39.1444 28.8394 38.0324 22.7252C40.6199 20.4639 33.8249 24.494 34.1007 22.5063C34.2649 21.3286 36.465 19.4832 37.8134 20.5383C38.0127 19.9757 36.1038 19.8838 35.7382 19.991ZM25.2523 23.7103C25.0838 24.945 25.2304 27.9747 26.0163 25.35C25.7624 24.8027 25.5063 24.2576 25.2523 23.7103Z" fill="#FAAD81"/>
<path d="M35.7382 19.9915C36.1038 19.8843 38.0127 19.974 37.8134 20.5388C36.465 19.4836 34.2627 21.3291 34.1007 22.5068C33.8249 24.4945 40.6199 20.4644 38.0324 22.7257C39.1466 28.8399 32.4151 28.0015 33.6629 22.5068C34.3547 21.6684 35.0464 20.83 35.7382 19.9915ZM36.8283 23.0541C36.2088 23.227 36.5065 25.1272 34.3174 25.5694C37.0779 28.9165 39.2517 22.3777 36.8283 23.0541Z" fill="black"/>
<path d="M36.8278 23.0544C39.2512 22.3779 37.0752 28.9168 34.3169 25.5697C36.506 25.1275 36.2083 23.2273 36.8278 23.0544Z" fill="white"/>
<path d="M25.2519 23.7104C25.5058 24.2577 25.7619 24.8028 26.0159 25.3501C25.23 27.9748 25.0833 24.9451 25.2519 23.7104Z" fill="#AD8671" stroke="black" stroke-miterlimit="10"/>
<path d="M71.3417 46.0145C73.8855 46.1699 69.0476 51.1501 68.7214 51.0451C67.9311 50.7889 69.1001 45.8788 71.3417 46.0145Z" fill="#FAAD81"/>
<path d="M64.5709 46.889C65.8844 46.4928 65.8012 49.8268 65.5539 50.7156C68.9163 54.0102 67.2176 50.8294 68.0648 51.0439C68.3756 51.1227 68.9317 53.2922 70.14 53.3403C68.6558 55.3543 71.0004 55.5229 71.123 55.6367C72.0862 56.5299 70.2933 57.8652 76.4753 55.5272C77.1167 59.1852 71.4732 62.1712 70.4684 61.9786C69.7767 61.1401 69.0849 60.3017 68.3931 59.4633C68.218 58.6927 68.8704 56.3701 68.0648 56.948C67.9553 57.7864 67.8459 58.6248 67.7364 59.4633C67.9159 60.6388 72.2788 63.7189 65.4422 61.5407C65.37 61.6874 65.2955 61.8319 65.2233 61.9786C56.6485 65.0958 51.4144 74.0975 40.76 75.9735C37.6208 78.6443 30.782 80.586 31.9138 74.115C32.3516 73.1671 32.7872 72.2192 33.225 71.2713C33.4593 70.6277 33.1309 69.0581 33.989 68.5371C36.4584 67.042 34.2627 70.6037 35.517 72.4732C33.9387 66.0065 40.9001 67.0748 47.312 63.5066C51.885 62.6068 56.2457 61.0175 60.6371 59.5705C62.7868 58.8634 65.891 59.4348 65.116 56.6174C64.9737 56.0964 61.3529 51.8123 65.116 50.2756C65.2058 50.0588 63.1743 47.3071 64.5709 46.8868V46.889Z" fill="#FAAD81"/>
<path d="M72.8696 47.5448C73.8175 47.3412 74.391 48.5146 74.0714 49.4033C72.9418 50.4607 71.8145 51.518 70.6849 52.5732C67.0094 53.8801 72.1122 47.7068 72.8696 47.5426V47.5448Z" fill="#FAAD81"/>
<path d="M75.4922 49.5139C77.0223 50.4706 72.0837 54.8072 71.7794 54.9801C71.022 55.4114 70.142 54.7218 70.142 54.2139C70.142 53.4127 74.2509 49.6409 75.4944 49.5117L75.4922 49.5139Z" fill="#FAAD81"/>
<path d="M75.9279 52.1381C77.156 52.0024 78.8503 53.3837 75.49 55.1985C68.3098 59.0798 74.1963 52.3286 75.9279 52.1381Z" fill="#FAAD81"/>
<path d="M63.0404 55.199C64.2882 55.1289 65.6192 57.9791 64.1328 58.4783C58.5987 60.0084 53.0647 61.5386 47.5328 63.071C46.3682 63.5811 45.2036 64.0911 44.0389 64.6012C42.9969 64.726 44.7219 60.1617 45.3502 59.7895C51.2477 58.2593 57.1452 56.7292 63.0426 55.1968L63.0404 55.199Z" fill="#FAAD81"/>
<path d="M41.1975 97.6213C43.1633 98.2036 45.1291 98.7881 47.095 99.3704C52.1978 100.163 58.8045 96.6362 56.379 111.507C54.3168 117.601 54.4942 124.269 52.8852 130.532C52.2963 133.621 48.2245 134.085 46.2237 133.048C44.6563 134.099 45.3174 133.264 44.9124 133.048C44.6585 133.085 44.4024 133.12 44.1484 133.157C43.4391 131.896 45.51 122.706 44.5862 120.036C45.2408 116.756 45.8975 113.475 46.5521 110.196C46.2653 109.221 42.9291 109.261 42.7299 109.21C40.7443 108.709 37.4475 107.726 35.8495 106.695C36.8127 103.236 39.1135 100.474 41.2019 97.6191L41.1975 97.6213Z" fill="#FAAD81"/>
<path d="M24.8164 119.707C27.7279 119.926 30.6416 120.145 33.5531 120.364C35.2497 122.347 34.7527 125.992 34.0982 128.564C32.9577 133.056 29.6828 139.58 29.0742 146.057C29.037 147.916 29.0019 149.774 28.9647 151.633C27.8724 151.342 26.78 151.05 25.6876 150.757C25.1053 150.829 24.523 150.904 23.9407 150.976C23.3212 149.498 22.6119 150.396 22.4127 150.319C22.266 150.1 22.1216 149.882 21.9749 149.663C21.386 149.45 21.9596 150.816 20.1185 148.242C19.6544 141.432 21.305 133.816 23.1767 127.248C23.9363 124.582 25.4994 123.787 24.8142 119.705L24.8164 119.707Z" fill="#FAAD81"/>
<path d="M52.3384 132.83C52.8222 133.231 53.4045 136.889 53.2118 136.985C50.2828 137.099 46.7627 138.382 43.9278 139.5C43.7089 138.48 43.49 137.46 43.2733 136.44C42.9077 132.243 43.86 135.247 44.0373 135.238C44.3284 134.8 44.6196 134.362 44.9107 133.927C46.7211 138.592 45.5237 130.864 46.6576 135.238C48.4418 131.659 47.4567 137.924 48.8424 133.927C49.1335 134.29 49.4247 134.656 49.7158 135.019C50.5718 131.998 50.5192 135.247 51.0271 135.238C51.5963 131.549 51.2526 133.598 51.7911 134.472C52.5026 135.626 52.1633 133.507 52.3362 132.832L52.3384 132.83Z" fill="white"/>
<path d="M51.9005 137.639C54.0262 137.469 54.2889 139.776 53.9758 140.809C53.6387 141.921 46.4059 144.513 44.9107 144.636C43.9563 140.496 43.2163 140.03 47.3144 138.732C48.8424 138.368 50.3725 138.003 51.9005 137.639Z" fill="white"/>
<path d="M20.2283 149.011C20.8763 150.064 20.3553 152.925 21.7563 150.322C22.7174 154.952 22.9822 147.358 23.5033 152.728C23.8666 152.29 24.2322 151.852 24.5956 151.417C24.9196 155.32 25.2699 151.375 25.9069 151.417C26.5089 153.459 26.6271 154.162 26.6709 151.526C27.6319 151.073 26.6315 153.61 27.4349 153.604C28.6958 149.689 29.2847 154.024 29.0724 156.119C25.8456 155.891 22.713 154.764 19.7883 153.385C19.935 151.927 20.0795 150.469 20.2262 149.011H20.2283Z" fill="white"/>
<path d="M19.7928 153.822C22.0957 155.39 25.9705 156.482 28.7484 156.666C29.0133 156.751 29.0965 159.895 28.3106 160.164C26.5199 160.777 18.5012 156.964 19.7928 153.822Z" fill="white"/>
<path d="M19.7927 34.8599C21.7148 38.925 23.4223 38.9513 25.0357 40.545C28.4244 43.8943 31.4038 47.6399 32.2444 52.3531C31.4804 52.8434 28.0654 41.0244 23.3982 52.4625H22.9604C21.2157 49.5619 20.2196 43.4412 19.6833 42.1846C18.5274 39.4789 15.5831 40.3129 19.7927 34.8599Z" fill="#AFAFAF"/>
<path d="M16.6255 39.4523C17.65 39.0583 16.9385 39.6581 18.3724 40.8731C13.309 44.4632 7.29109 52.274 4.72107 58.0401C6.01483 50.3848 12.4946 45.4987 16.6255 39.4523Z" fill="#ADAFAD"/>
<path d="M30.931 39.2339C32.6955 38.7895 34.6263 45.6962 34.7532 46.9965C34.994 49.433 33.8448 46.2741 31.695 45.0285C31.949 43.8989 32.2051 42.7693 32.459 41.6397C31.5199 41.1143 31.0865 46.134 31.0383 46.7776C28.326 45.359 30.5633 42.1586 30.3838 39.5623C30.5655 39.4528 30.7472 39.3434 30.9289 39.2339H30.931Z" fill="#AEAEAE"/>
<path d="M19.136 43.1702C19.9044 43.1396 19.8803 45.6198 20.1189 46.34C21.0646 48.7459 22.0125 51.1517 22.9582 53.5553C23.7901 54.2624 23.9849 50.5606 25.0335 50.8212C25.607 50.9634 30.4975 59.7965 31.0404 60.9896C31.7979 62.0097 34.0745 60.4927 36.2833 63.6143C37.9164 65.9216 38.1047 69.0652 36.0644 64.49C31.9489 60.7553 33.1682 62.6774 30.7121 65.0372C29.1031 66.5828 21.6995 71.1974 21.428 72.362C20.8764 74.7372 23.21 75.7114 25.2502 75.5319C27.0212 79.0257 30.3574 74.7766 30.7121 72.2526C29.9502 71.8979 29.1074 77.2985 26.1259 76.1886C25.0576 75.7924 28.4879 71.4842 28.4201 71.0507C28.1486 69.3323 25.8479 74.8882 25.0335 75.0962C23.847 75.3983 20.7932 74.2884 22.3037 71.9264C24.5979 70.2867 26.8899 68.6471 29.1841 67.0053C31.7563 64.8118 35.469 59.2755 31.2593 66.6769C31.4782 66.6047 31.6972 66.5302 31.9139 66.458C33.4484 64.9869 33.3302 60.497 36.9379 67.1147C35.5544 67.697 34.1709 68.2815 32.7873 68.8638C32.8246 71.6396 30.6595 73.8419 31.0404 76.7359C26.2857 75.7179 30.7405 78.9556 30.8215 79.3606C29.8014 83.3689 28.7835 87.3793 27.7633 91.3876C25.9792 92.955 24.1951 94.5224 22.4109 96.0898C21.1237 96.3481 16.7718 94.7326 15.64 93.9029C14.2193 92.8609 12.3717 88.8854 12.4724 90.5141C12.5337 91.5168 16.5551 94.2772 11.7084 93.2483C8.56262 92.5807 5.09944 89.1788 3.2978 86.5781C1.30352 68.0495 5.33586 55.5693 19.1338 43.1702H19.136ZM15.8611 56.2896C15.8983 57.7847 15.9334 59.2777 15.9706 60.7729C12.0805 58.7851 13.8296 60.6962 16.1895 61.6485C17.4001 65.1073 20.3072 67.824 21.9775 71.1602C22.4547 71.1733 21.7673 69.8708 21.2135 68.8638C19.7577 66.8236 18.302 64.7811 16.844 62.7409C16.5157 60.5912 16.1895 58.4393 15.8611 56.2896Z" fill="#AFAFAF"/>
<path d="M34.4267 48.4165C35.2914 49.2046 35.7161 50.0299 36.0642 51.1507C37.2748 51.1617 41.2196 56.873 41.3071 57.2737C41.4713 58.0245 39.6784 60.0516 40.3242 60.4435C40.9065 59.4956 41.4888 58.5477 42.0711 57.5998C46.1954 55.5048 41.3859 62.5844 41.7428 63.1755C42.3207 64.1343 43.3561 59.7408 43.9275 59.0206C45.3001 57.2868 43.5926 64.4977 42.29 65.253C39.3238 66.9736 39.7113 62.0853 38.2489 57.9282C37.3755 55.8135 36.502 53.701 35.6286 51.5863C35.3987 51.061 33.7897 48.8193 34.4267 48.4165Z" fill="#ABAFAD"/>
<path d="M32.8963 54.1033C33.3713 53.7552 33.6253 55.1015 34.8621 54.5411C34.2404 56.7324 35.7575 56.3165 35.6261 56.8375C35.4379 57.5862 34.2798 56.9163 34.2054 56.9469C34.0675 57.006 33.1918 59.8453 33.113 56.728C30.0351 57.1855 32.9554 55.894 33.0036 55.7429C32.9664 55.1956 32.9313 54.6506 32.8941 54.1033H32.8963Z" fill="#AA993E"/>
<path d="M15.8608 56.2896C16.1892 58.4393 16.5154 60.5912 16.8437 62.7409C18.2995 64.7811 19.7553 66.8236 21.2132 68.8638C21.7692 69.8708 22.4544 71.1711 21.9772 71.1602C20.3069 67.8218 17.3998 65.1073 16.1892 61.6485C13.8293 60.6984 12.0802 58.7851 15.9703 60.7728C15.9331 59.2777 15.898 57.7847 15.8608 56.2896Z" fill="black"/>
<path d="M42.0712 76.626C43.238 79.0625 45.4139 81.5756 43.8181 84.2791C43.3737 81.7835 41.1627 78.5677 42.0712 76.626Z" fill="#AFAFAF"/>
<path d="M39.451 77.5015C39.9173 77.5693 41.6817 85.4195 41.7452 86.5775C40.3901 87.3744 39.3131 88.4405 37.7041 88.655C38.6804 82.6765 34.8867 79.0251 39.451 77.5036V77.5015Z" fill="#AFAFAF"/>
<path d="M36.3932 78.812C36.5748 78.8492 36.7565 78.8843 36.9382 78.9215C36.0845 82.8794 40.1716 91.1192 33.1161 90.839C33.1204 87.1963 32.9322 83.6324 32.3521 80.0138C33.7509 79.4753 34.8455 78.8142 36.3932 78.812Z" fill="#AFAFAF"/>
<path d="M41.8518 87.1221C42.8412 87.3169 42.7865 93.9083 42.5063 94.9941C38.949 94.6023 35.5077 94.2345 32.5677 92.041C32.3116 91.2004 35.3588 91.2748 36.171 90.8392C36.6088 90.3291 37.0445 89.8191 37.4823 89.309C38.1872 88.9171 40.0939 88.6019 41.8518 87.1221Z" fill="#777777"/>
<path d="M5.15649 89.5291C5.51989 89.3934 7.04789 92.2501 11.3823 93.5746C11.4261 98.2067 13.856 107.416 18.7005 108.99C20.0074 109.415 30.5743 111.184 32.8991 110.958C32.6299 113.209 33.3457 115.363 34.1009 117.41C27.087 117.558 12.3631 115.667 8.76196 109.1C7.27337 104.967 5.96865 100.68 6.79614 96.1971C6.25105 93.973 5.70377 91.751 5.15868 89.5269L5.15649 89.5291Z" fill="#777777"/>
<path d="M27.437 92.3731C28.7461 92.3162 25.7601 96.6244 29.4028 96.0902C30.9352 95.8648 32.4829 94.1857 32.6799 92.592C33.9124 94.3302 39.8624 94.9519 39.9981 95.3262C38.0542 98.0079 35.2193 100.519 33.7723 103.746C27.1218 104.142 22.5815 104.216 17.6079 99.1528C17.0168 98.5508 13.5011 94.1616 14.9875 94.1222C15.4034 94.1113 20.3968 97.2592 22.8508 96.5281C24.3788 95.1423 25.909 93.7588 27.437 92.3731Z" fill="#777777"/>
<path d="M29.622 92.8072C32.041 92.4745 31.9665 94.8059 29.8409 95.432C26.7192 96.3514 27.9342 93.0415 29.622 92.8072Z" fill="white"/>
<path d="M19.9743 104.281C20.5193 104.123 19.705 105.255 20.7689 104.71C20.4777 105.454 22.194 106.339 20.4624 105.629C20.5719 107.048 20.0706 105.881 19.9743 105.875C19.8517 106.039 19.7291 106.201 19.6065 106.365L19.4226 105.445C19.3832 105.369 17.9296 104.563 19.7291 104.894C19.8101 104.69 19.8911 104.487 19.9743 104.281Z" fill="white"/>
<path d="M43.9109 166.48L44.3606 158.988L37.6474 162.345L43.9109 166.48Z" fill="#E80A0D"/>
</svg>
