<svg width="77" height="160" viewBox="0 0 77 160" fill="none" xmlns="http://www.w3.org/2000/svg">
<path d="M58.2151 27.6461C59.501 27.7099 60.787 27.7756 62.0748 27.8394C68.6765 29.3555 73.0313 31.4013 74.9051 38.3666C72.1398 35.5821 67.3635 32.3779 63.6179 31.3163C60.232 30.3571 58.1455 30.6549 54.9355 32.0898C48.6683 34.8878 46.0056 41.1628 45.4815 40.7818C44.739 38.9757 48.6219 33.2964 49.8227 31.9931C51.4799 30.1947 55.8173 27.9284 58.2151 27.6461Z" fill="white"/>
<path d="M14.8977 34.7931C11.2487 40.1341 5.52491 44.4501 4.38208 51.2124C6.65227 46.1189 11.9681 39.2194 16.4408 36.0481C15.1742 34.973 15.8026 34.4431 14.8977 34.7931C15.412 33.7953 15.9264 32.7975 16.4408 31.7997C17.0866 30.7381 18.6278 29.8447 18.3706 28.5163C18.2855 28.0734 15.5571 25.3372 16.056 20.0176C10.6029 18.37 15.8935 14.3962 18.1792 12.2904C17.922 10.5829 18.3552 8.60473 19.1441 7.07515C19.0861 4.94226 17.9085 -0.214981 20.0124 1.76322C20.4745 0.593315 21.2248 2.40521 21.7488 2.34333C22.0892 2.30273 22.329 0.235577 28.1166 2.14996C33.3357 -2.19125 34.4012 6.92626 36.3175 10.1672C35.486 14.549 41.1808 15.9007 39.9838 18.4725C39.104 20.3618 36.1435 19.4935 35.9327 19.8242C35.8031 20.9825 35.6755 22.1427 35.546 23.301C36.8899 26.6251 38.5239 33.0102 32.7479 29.9646C31.5045 32.637 32.0498 34.0467 28.7915 34.6964C31.1951 37.9934 30.936 43.0579 32.2644 44.7402C33.036 45.3841 33.8075 46.0281 34.5791 46.672C35.8534 48.2383 36.1415 51.4386 39.307 50.0521C39.4037 50.1488 39.5004 50.2455 39.5971 50.3422C38.9454 50.8566 40.0419 52.2817 40.272 52.3707C45.5781 51.0499 50.8842 49.7311 56.1904 48.4104C55.268 43.9899 57.2771 44.4095 57.3487 44.1601C57.0915 43.7733 56.8343 43.3866 56.5771 43.0018C56.0627 40.6639 57.8128 41.0545 57.9269 40.8766C57.573 37.8832 57.2191 34.8879 56.8652 31.8945C51.6191 33.3428 47.332 38.181 45.0947 42.9051C43.8648 37.4017 50.2306 29.4116 55.5136 27.8375C56.5578 23.9546 60.2435 23.4267 61.3012 27.2574C69.7438 28.9127 73.9342 30.8097 75.6765 39.7164C75.2337 40.3681 73.8859 37.6376 71.7201 35.9495C69.2121 33.9945 63.9407 31.4768 60.7211 31.121C60.2319 34.3793 60.8448 37.626 61.2026 40.8766C64.4938 38.9429 64.399 41.4219 64.5789 41.5534C64.9965 41.6501 65.4142 41.7468 65.8338 41.8435C65.9943 42.3269 66.1548 42.8084 66.3153 43.2918C66.7601 43.5722 68.0325 42.3656 67.377 45.5137C70.5734 46.0822 68.398 48.3891 68.3419 48.6038C67.609 51.3999 67.9319 53.4826 62.4576 55.074C63.0048 61.6738 63.5501 68.2736 64.0974 74.8734C65.5438 82.8229 66.3269 90.9388 67.1836 99.0198V102.883C67.7618 106.94 68.3419 110.995 68.9201 115.052C69.2411 119.109 69.564 123.164 69.885 127.221C70.0146 127.415 70.1422 127.608 70.2717 127.801C67.3944 130.947 67.9687 128.051 66.9922 125.289C65.0449 112.078 63.699 98.8226 62.7476 85.4973C61.6087 79.5801 61.073 73.5507 60.6244 67.533C59.3385 63.4992 59.383 59.1542 58.6945 54.9773C50.7179 57.4274 47.2585 64.6092 37.6634 67.3396C38.9087 69.5769 41.0029 72.8179 39.0131 75.0668C38.8333 77.045 40.1985 79.7096 38.4349 80.6688C37.9689 85.9904 40.5388 82.4343 41.8112 87.3324C45.3364 87.3498 48.4594 86.8122 50.5903 90.1324C50.89 94.0559 50.7682 98.0587 49.2406 101.723C49.2174 106.637 47.6356 111.398 47.1174 116.211C46.9878 116.34 46.8602 116.468 46.7306 116.597C47.245 118.659 47.7593 120.718 48.2737 122.779C48.5831 125.197 47.6897 131.015 50.1069 130.797C51.7215 130.65 52.5975 124.605 58.2111 125.775C60.139 126.177 59.8702 129.124 60.3343 129.252C60.7075 129.354 61.1987 128.343 61.2026 129.928C61.2084 131.887 59.7639 131.197 59.6595 131.667C59.6208 131.839 61.3109 133.755 58.6945 133.985C58.2247 136.236 57.6735 134.542 56.8614 134.856C56.1536 135.563 55.4459 136.273 54.7381 136.981C52.8006 138.158 49.0259 138.135 49.8188 141.328C43.7411 146.116 45.3132 143.59 44.3193 142.969C44.1916 142.89 43.0546 143.041 41.6178 141.811C37.8413 138.576 41.4477 134.73 39.3999 130.704C40.009 126.183 36.5747 117.968 39.0131 117.955C38.433 113.631 39.8833 109.381 39.3999 105.012C39.5758 103.191 41.7667 96.6858 40.2681 97.1886C39.9626 97.291 39.6609 100.01 36.5051 102.307C35.31 104.976 34.6255 109.545 31.2956 109.841C30.8277 115.28 26.7746 123.058 26.2796 128.192C26.2157 132.442 26.15 136.691 26.0862 140.941C26.2157 141.198 26.3434 141.455 26.4729 141.714C24.634 144.279 21.8339 147.73 24.8331 150.31C25.7265 147.502 28.3834 146.307 31.0075 147.798C33.7669 149.366 31.6901 152.539 31.8757 153.11C31.9744 153.415 32.8484 153.415 32.6473 154.075C32.5216 154.487 26.1635 157.855 25.6047 159C25.3475 158.87 25.0903 158.743 24.8331 158.613C19.6082 158.766 22.0505 158.068 20.1052 155.233C19.1074 154.429 18.1115 153.624 17.1137 152.818C16.1875 152.692 15.8336 154.34 15.5706 154.363C14.0584 153.365 12.5482 152.367 11.036 151.37C11.9023 147.85 8.78903 142.937 15.0872 142.871C15.8587 141.003 16.6303 139.137 17.4018 137.269C17.2858 129.845 17.6977 122.308 19.5251 115.054C20.1032 113.252 20.6834 111.448 21.2615 109.646C15.1432 108.077 18.3958 103.974 16.5336 102.402C15.5996 101.613 9.6186 101.019 7.36775 96.3164C4.40142 90.1169 6.39702 82.4362 4.37628 83.4707C3.39395 83.9735 3.3166 86.3732 2.92986 80.8621C5.02601 80.866 2.57212 77.6193 2.1583 76.0336C1.77155 73.2007 1.38674 70.3678 1 67.5349C1.38674 63.8009 1.77155 60.0669 2.1583 56.3309C3.70914 51.4986 5.1285 46.5869 8.1393 42.4236C10.3902 39.8808 12.641 37.3379 14.8919 34.7931H14.8977ZM19.2389 1.76128C18.3803 2.03587 20.0375 3.88838 19.9137 4.1765L19.0455 3.88644C18.1463 4.38921 20.2579 5.78923 20.3005 5.91492C20.4842 6.46796 18.3977 6.16437 20.6872 7.07322C20.5867 8.00334 22.8936 10.5462 23.4853 9.29507C23.6632 10.1691 24.077 10.3006 23.9668 9.58512C22.8085 7.7829 21.6522 5.97873 20.4939 4.1765C20.4262 4.05081 19.9911 1.5215 19.2389 1.76128ZM20.3952 1.76128C20.5577 4.81463 22.5107 5.93812 23 6.68647C23.4563 7.38455 24.4077 10.8614 25.6047 10.0666C25.3146 8.4887 25.0265 6.91079 24.7364 5.3348C23.9223 4.81076 23.9881 6.19918 23.6748 6.20498C23.1237 6.21465 23.6478 2.22731 22.7099 5.43149C22.1781 5.41215 22.5533 3.58865 22.4198 3.20964C21.8842 1.68393 21.9635 4.45883 21.745 4.46463C21.1881 3.88258 21.7546 2.29886 20.3952 1.76128ZM23.8701 14.8971C22.8047 15.1465 24.3226 15.8852 24.3516 15.9587C24.3729 16.0128 23.9958 17.0203 24.4483 17.0203C24.6166 17.0203 24.6668 15.541 25.4132 17.6004C25.976 16.1424 27.1691 17.9659 27.2464 18.2772C27.5887 19.654 26.3782 21.8295 26.1848 21.8507C26.0881 21.8604 25.7613 21.0811 25.0265 21.2706C23.1585 25.024 24.9395 20.1278 23.29 19.7256C22.9033 19.7894 22.5185 19.8551 22.1317 19.9189C20.0394 21.1913 23.203 25.3701 21.8417 24.2659C21.7218 24.1693 21.2654 22.135 20.3952 22.2375C19.9447 22.8814 19.4941 23.5253 19.0455 24.1693C18.8657 24.1693 18.0632 21.58 18.1773 24.8461C15.7388 23.8831 19.148 28.7135 19.1422 29.0964C19.1364 29.5276 17.2317 29.6997 19.1422 32.5732C21.4259 34.6655 23.7077 36.7578 25.9914 38.8501C26.2157 37.4655 26.442 36.081 26.6663 34.6964C25.9586 33.8591 25.2508 33.0218 24.5431 32.1845C25.8928 32.2019 25.8599 34.6771 29.0777 34.213C30.586 33.9964 31.1796 33.1166 31.6824 31.7978C31.6669 31.239 29.0448 30.7768 27.726 27.8375C26.6102 30.0072 27.2522 26.8958 27.8227 26.5825C28.8475 26.0179 27.2406 27.4489 29.5591 29.6726C32.5409 32.5345 32.1967 29.2511 32.7421 29.1892C37.1741 32.6409 37.1799 27.6016 34.96 23.2972C35.6581 20.5281 35.2385 19.0024 34.7667 16.3435C34.3625 15.628 27.2986 15.7672 26.1809 15.6667C25.4094 15.4095 24.6378 15.1523 23.8663 14.8932L23.8701 14.8971ZM17.6958 30.7362C13.9772 35.555 16.58 34.8163 17.5991 37.2064C18.0728 38.3164 18.9527 43.7231 20.4939 46.2852H20.8806C25.0033 36.1815 28.0199 46.6217 28.6948 46.1886C27.9522 42.0233 25.3224 38.7147 22.327 35.7581C20.9019 34.3503 19.3936 34.3271 17.6958 30.7362ZM27.5345 34.5998C27.374 34.6964 27.2135 34.7931 27.053 34.8898C27.2135 37.1832 25.2353 40.0122 27.6312 41.2634C27.6718 40.6929 28.0547 36.2589 28.8862 36.7249C28.6619 37.7227 28.4357 38.7205 28.2113 39.7183C30.1103 40.8186 31.1235 43.609 30.9128 41.4567C30.8006 40.3081 29.0951 34.2072 27.5365 34.5998H27.5345ZM17.1156 38.0766C4.92739 49.0273 1.36354 60.0514 3.12709 76.4204C4.71855 78.7176 7.77576 81.7226 10.5565 82.3124C14.8377 83.2213 11.2855 80.7829 11.2313 79.8972C11.1424 78.4585 12.7744 81.9702 14.0294 82.8906C15.0292 83.6235 18.8753 85.0506 20.0104 84.8224C21.5864 83.4379 23.1624 82.0533 24.7384 80.6688C25.6395 77.1281 26.5387 73.5855 27.4398 70.0449C27.3663 69.6872 23.4312 66.8291 27.6332 67.7264C27.2986 65.168 29.2091 63.2247 29.1763 60.7727C30.3984 60.2583 31.6205 59.742 32.8426 59.2276C29.6578 53.382 29.7603 57.35 28.4047 58.6475C28.2113 58.7113 28.018 58.7771 27.8265 58.8409C31.547 52.303 28.2655 57.1934 25.9934 59.131C23.9668 60.5793 21.9422 62.0277 19.9157 63.478C18.5814 65.5664 21.2809 66.5449 22.327 66.278C23.0464 66.0943 25.0768 61.1865 25.3185 62.7045C25.3784 63.0874 22.3502 66.8929 23.292 67.2429C25.9276 68.2233 26.6721 63.4528 27.3431 63.7661C27.0318 65.9976 24.0848 69.749 22.5185 66.6628C20.7162 66.8214 18.6549 65.9609 19.1422 63.8628C19.38 62.834 25.9218 58.7578 27.3431 57.3925C29.5108 55.3099 28.4357 53.6102 32.0711 56.9091C33.8733 60.9525 33.707 58.1757 32.2644 56.1356C30.3133 53.3801 28.3022 54.7182 27.6332 53.8171C27.1536 52.7632 22.8337 44.9606 22.327 44.835C21.4008 44.6048 21.2287 47.8728 20.4939 47.2502C19.6585 45.125 18.8212 42.9999 17.9858 40.8766C17.775 40.2404 17.7963 38.0495 17.1176 38.0766H17.1156ZM63.2311 40.5885C61.2509 40.4686 60.2183 44.8059 60.9164 45.0322C61.2045 45.125 65.478 40.7258 63.2311 40.5885ZM57.2501 41.3601C56.0163 41.7333 57.8108 44.164 57.7316 44.3535C54.4075 45.7109 57.6059 49.4952 57.7316 49.9555C58.4161 52.4422 55.6741 51.9375 53.7752 52.564C49.8961 53.8422 46.0441 55.2461 42.0046 56.0409C36.3407 59.1909 30.1915 58.2492 31.5857 63.9614C30.4757 62.31 32.4172 59.1638 30.236 60.4846C29.4779 60.9429 29.768 62.3313 29.5611 62.8998C29.1743 63.7371 28.7895 64.5744 28.4028 65.4117C27.403 71.1278 33.444 69.4126 36.217 67.0534C45.6303 65.3962 50.2519 57.4448 57.8263 54.6911C57.8901 54.5616 57.9559 54.434 58.0197 54.3044C64.0587 56.2284 60.2048 53.5077 60.0462 52.4693C60.1429 51.7287 60.2396 50.9881 60.3363 50.2474C61.046 49.735 60.4697 51.7867 60.6263 52.4693C61.2374 53.2099 61.8484 53.9505 62.4595 54.6911C63.3471 54.8613 68.3322 52.2256 67.7656 48.9925C62.3048 51.0577 63.8885 49.8781 63.0377 49.0891C62.9294 48.9886 60.8584 48.8416 62.1694 47.0607C61.102 47.0181 60.6109 45.1018 60.3363 45.0322C59.586 44.8427 61.0866 47.6543 58.1183 44.7421C58.3368 43.957 58.4103 41.01 57.2501 41.362V41.3601ZM64.5808 41.9402C63.9137 42.0852 59.4042 47.5383 62.6509 46.3839C63.6487 45.4499 64.6446 44.5159 65.6424 43.5838C65.9247 42.7987 65.4181 41.7603 64.5808 41.9421V41.9402ZM30.6227 42.7117C30.058 43.0675 31.4813 45.0477 31.6843 45.5118C32.4559 47.3797 33.2274 49.2458 33.999 51.1138C35.2907 54.7859 34.9484 59.1039 37.5686 57.584C38.7192 56.9169 40.2294 50.5472 39.015 52.0787C38.5123 52.7149 37.5957 56.5959 37.0852 55.7489C36.77 55.2248 41.0184 48.9731 37.3753 50.8237C36.8609 51.661 36.3465 52.4983 35.8321 53.3356C35.2617 52.9875 36.8454 51.1969 36.7004 50.5356C36.623 50.1817 33.1404 45.1366 32.0691 45.1269C31.7617 44.1369 31.3846 43.4098 30.6227 42.7117ZM66.8974 43.6786C65.799 43.7927 62.1694 47.1245 62.1694 47.8322C62.1694 48.2808 62.9468 48.888 63.6159 48.509C63.8847 48.3563 68.2471 44.5256 66.8955 43.6805L66.8974 43.6786ZM67.2822 45.9971C65.7526 46.1654 60.5529 52.129 66.8955 48.7005C69.8637 47.0974 68.3651 45.8772 67.2822 45.9971ZM29.271 47.7355C29.3039 48.219 29.3348 48.7005 29.3677 49.1839C29.3252 49.3173 26.7456 50.4582 29.4644 50.0541C29.534 52.8077 30.3075 50.2997 30.4293 50.2474C30.4931 50.2204 31.518 50.8121 31.6843 50.1508C31.8003 49.6905 30.4603 50.0579 31.0094 48.1223C29.9169 48.6192 29.6926 47.4281 29.273 47.7355H29.271ZM55.8984 48.7005C50.6889 50.0521 45.4795 51.4038 40.27 52.7574C39.7151 53.0861 38.1913 57.116 39.1117 57.0077C40.1405 56.5572 41.1692 56.1066 42.198 55.6561C47.0864 54.3044 51.9749 52.9527 56.8614 51.5991C58.1744 51.1563 56.9987 48.6405 55.8965 48.7024L55.8984 48.7005ZM37.3753 67.6297C36.5728 69.3449 38.5258 72.1855 38.9184 74.39C40.328 72.0018 38.404 69.78 37.3753 67.6297ZM35.0606 68.4032C31.0268 69.749 34.3799 72.9745 33.5175 78.2535C34.9368 78.064 35.8902 77.1223 37.0871 76.4184C37.0311 75.3974 35.4725 68.4631 35.0606 68.4012V68.4032ZM32.3592 69.5615C30.992 69.5634 30.0252 70.1493 28.7895 70.6231C29.3039 73.8176 29.4683 76.9676 29.4644 80.1853C35.6968 80.4329 32.0865 73.1543 32.8407 69.6581C32.6802 69.6253 32.5197 69.5943 32.3592 69.5615ZM37.1819 76.9019C35.6291 78.2071 33.9468 78.4875 33.3222 78.8337C32.9354 79.2842 32.5506 79.7348 32.1639 80.1853C31.4445 80.5721 28.7528 80.5044 28.981 81.2469C31.578 83.1826 34.6178 83.5094 37.7601 83.8555C38.0076 82.8964 38.054 77.074 37.1819 76.9019ZM4.76689 79.027C5.24839 80.9917 5.73182 82.9544 6.21332 84.9191C5.48237 88.8794 6.63487 92.6656 7.9498 96.3164C11.1288 102.118 24.1351 103.786 30.3326 103.657C29.6655 101.849 29.0351 99.946 29.271 97.9582C27.2193 98.1573 17.8853 96.5949 16.7289 96.2198C12.4496 94.8275 10.3031 86.6942 10.2645 82.6025C6.43569 81.4326 5.08789 78.9091 4.76496 79.029L4.76689 79.027ZM24.4483 81.5389C23.0986 82.763 21.7469 83.9851 20.3972 85.2091C18.2295 85.855 13.8186 83.0743 13.4512 83.084C12.1402 83.1188 15.2457 86.9959 15.7659 87.5277C20.1593 92.0004 24.1699 91.9346 30.0445 91.5846C31.3227 88.7343 33.8269 86.5163 35.544 84.1475C35.4241 83.8188 30.1702 83.2677 29.0796 81.7323C28.9055 83.1401 27.5403 84.6252 26.1848 84.8224C22.9671 85.2942 25.6047 81.4887 24.4483 81.5389ZM26.3782 81.9237C24.8873 82.1287 23.8141 85.0544 26.5715 84.2423C28.4492 83.6892 28.5149 81.6298 26.3782 81.9237ZM36.6037 86.1741C34.7589 88.6937 32.7285 91.1341 31.8757 94.1913C33.2874 95.1021 36.1996 95.9703 37.9534 96.4131C38.1294 96.4576 41.0764 96.4209 41.3297 97.2833C40.7515 100.18 40.1714 103.079 39.5932 105.975C40.4093 108.335 38.5819 116.452 39.2065 117.566C39.4308 117.533 39.657 117.502 39.8814 117.469C40.2391 117.661 39.6551 118.398 41.0397 117.469C42.8071 118.386 46.4038 117.976 46.924 115.248C48.3472 109.717 48.1906 103.825 50.0102 98.4416C52.1547 85.3058 46.3168 88.4211 41.8093 87.7211C40.0728 87.2067 38.3363 86.6904 36.5998 86.176L36.6037 86.1741ZM17.8466 91.8805C17.7596 92.0951 17.6745 92.3117 17.5875 92.5264C15.6886 92.1783 17.222 93.0272 17.2645 93.1084L17.4579 94.0772C17.5875 93.9051 17.717 93.733 17.8447 93.5609C17.9471 93.5686 18.477 94.8004 18.361 93.3018C20.1864 94.0521 18.3745 93.1161 18.6839 92.333C17.5604 92.9092 18.4209 91.7142 17.8447 91.8805H17.8466ZM17.1156 102.593C17.3864 105.616 19.7571 103.405 18.6588 102.98C18.1444 102.85 17.63 102.723 17.1156 102.593ZM35.8321 102.593C29.5495 106.059 26.1055 102.272 34.6738 106.07C34.8634 105.186 36.4664 102.557 35.8321 102.593ZM22.1337 105.683C22.7389 109.292 21.3582 109.992 20.6872 112.347C19.0339 118.148 17.5759 124.874 17.9858 130.891C19.6121 133.165 19.1074 131.959 19.6256 132.146C19.7552 132.34 19.8828 132.533 20.0124 132.727C20.1883 132.794 20.8168 132.001 21.3621 133.307C21.8765 133.243 22.3908 133.177 22.9052 133.113C23.8701 133.37 24.8351 133.628 25.8 133.887C25.8329 132.245 25.8638 130.603 25.8967 128.962C26.4343 123.238 29.3271 117.475 30.3346 113.509C30.9108 111.237 31.3517 108.017 29.8531 106.265C27.2812 106.072 24.7074 105.879 22.1356 105.685L22.1337 105.683ZM46.4444 117.274C46.2917 117.87 46.5894 119.742 45.9629 118.722C45.4872 117.951 45.7908 116.139 45.288 119.399C44.8394 119.407 44.8858 116.537 44.1297 119.206C43.8726 118.885 43.6154 118.562 43.3582 118.241C42.1341 121.772 43.0043 116.238 41.4283 119.399C40.4267 115.534 41.4844 122.36 39.8852 118.241C39.628 118.628 39.3709 119.014 39.1137 119.399C38.957 119.409 38.1159 116.756 38.4388 120.461C38.6322 121.362 38.8255 122.263 39.017 123.164C41.5212 122.176 44.6306 121.043 47.2179 120.942C47.3881 120.857 46.8737 117.626 46.4463 117.272L46.4444 117.274ZM46.0577 121.523C44.7079 121.844 43.3563 122.166 42.0065 122.487C38.3866 123.634 39.0402 124.046 39.8833 127.703C41.204 127.592 47.593 125.305 47.8908 124.323C48.1674 123.408 47.9353 121.372 46.0577 121.523ZM18.0806 131.568C17.951 132.856 17.8234 134.144 17.6938 135.432C20.2773 136.648 23.0444 137.646 25.8947 137.847C26.0823 135.996 25.5621 132.168 24.4483 135.625C23.7367 135.631 24.6224 133.39 23.7734 133.79C23.7328 136.118 23.6304 135.498 23.0986 133.693C22.5359 133.657 22.2284 137.141 21.9403 133.693C21.6193 134.08 21.2964 134.467 20.9754 134.852C20.5151 130.108 20.2792 136.816 19.4322 132.727C18.1927 135.024 18.653 132.498 18.0825 131.568H18.0806ZM17.6958 135.817C16.5549 138.591 23.64 141.96 25.2199 141.419C25.9141 141.181 25.8387 138.404 25.6066 138.329C23.1527 138.166 19.73 137.201 17.6958 135.817Z" fill="#A77C50"/>
<mask id="mask0_4_709" style="mask-type:luminance" maskUnits="userSpaceOnUse" x="1" y="1" width="75" height="158">
<path d="M14.8977 34.7931C11.2487 40.1341 5.52491 44.4501 4.38208 51.2124C6.65227 46.1189 11.9681 39.2194 16.4408 36.0481C15.1742 34.973 15.8026 34.4431 14.8977 34.7931C15.412 33.7953 15.9264 32.7975 16.4408 31.7997C17.0866 30.7381 18.6278 29.8447 18.3706 28.5163C18.2855 28.0734 15.5571 25.3372 16.056 20.0176C10.6029 18.37 15.8935 14.3962 18.1792 12.2904C17.922 10.5829 18.3552 8.60473 19.1441 7.07515C19.0861 4.94226 17.9085 -0.214981 20.0124 1.76322C20.4745 0.593315 21.2248 2.40521 21.7488 2.34333C22.0892 2.30273 22.329 0.235577 28.1166 2.14996C33.3357 -2.19125 34.4012 6.92626 36.3175 10.1672C35.486 14.549 41.1808 15.9007 39.9838 18.4725C39.104 20.3618 36.1435 19.4935 35.9327 19.8242C35.8031 20.9825 35.6755 22.1427 35.546 23.301C36.8899 26.6251 38.5239 33.0102 32.7479 29.9646C31.5045 32.637 32.0498 34.0467 28.7915 34.6964C31.1951 37.9934 30.936 43.0579 32.2644 44.7402C33.036 45.3841 33.8075 46.0281 34.5791 46.672C35.8534 48.2383 36.1415 51.4386 39.307 50.0521C39.4037 50.1488 39.5004 50.2455 39.5971 50.3422C38.9454 50.8566 40.0419 52.2817 40.272 52.3707C45.5781 51.0499 50.8842 49.7311 56.1904 48.4104C55.268 43.9899 57.2771 44.4095 57.3487 44.1601C57.0915 43.7733 56.8343 43.3866 56.5771 43.0018C56.0627 40.6639 57.8128 41.0545 57.9269 40.8766C57.573 37.8832 57.2191 34.8879 56.8652 31.8945C51.6191 33.3428 47.332 38.181 45.0947 42.9051C43.8648 37.4017 50.2306 29.4116 55.5136 27.8375C56.5578 23.9546 60.2435 23.4267 61.3012 27.2574C69.7438 28.9127 73.9342 30.8097 75.6765 39.7164C75.2337 40.3681 73.8859 37.6376 71.7201 35.9495C69.2121 33.9945 63.9407 31.4768 60.7211 31.121C60.2319 34.3793 60.8448 37.626 61.2026 40.8766C64.4938 38.9429 64.399 41.4219 64.5789 41.5534C64.9965 41.6501 65.4142 41.7468 65.8338 41.8435C65.9943 42.3269 66.1548 42.8084 66.3153 43.2918C66.7601 43.5722 68.0325 42.3656 67.377 45.5137C70.5734 46.0822 68.398 48.3891 68.3419 48.6038C67.609 51.3999 67.9319 53.4826 62.4576 55.074C63.0048 61.6738 63.5501 68.2736 64.0974 74.8734C65.5438 82.8229 66.3269 90.9388 67.1836 99.0198V102.883C67.7618 106.94 68.3419 110.995 68.9201 115.052C69.2411 119.109 69.564 123.164 69.885 127.221C70.0146 127.415 70.1422 127.608 70.2717 127.801C67.3944 130.947 67.9687 128.051 66.9922 125.289C65.0449 112.078 63.699 98.8226 62.7476 85.4973C61.6087 79.5801 61.073 73.5507 60.6244 67.533C59.3385 63.4992 59.383 59.1542 58.6945 54.9773C50.7179 57.4274 47.2585 64.6092 37.6634 67.3396C38.9087 69.5769 41.0029 72.8179 39.0131 75.0668C38.8333 77.045 40.1985 79.7096 38.4349 80.6688C37.9689 85.9904 40.5388 82.4343 41.8112 87.3324C45.3364 87.3498 48.4594 86.8122 50.5903 90.1324C50.89 94.0559 50.7682 98.0587 49.2406 101.723C49.2174 106.637 47.6356 111.398 47.1174 116.211C46.9878 116.34 46.8602 116.468 46.7306 116.597C47.245 118.659 47.7593 120.718 48.2737 122.779C48.5831 125.197 47.6897 131.015 50.1069 130.797C51.7215 130.65 52.5975 124.605 58.2111 125.775C60.139 126.177 59.8702 129.124 60.3343 129.252C60.7075 129.354 61.1987 128.343 61.2026 129.928C61.2084 131.887 59.7639 131.197 59.6595 131.667C59.6208 131.839 61.3109 133.755 58.6945 133.985C58.2247 136.236 57.6735 134.542 56.8614 134.856C56.1536 135.563 55.4459 136.273 54.7381 136.981C52.8006 138.158 49.0259 138.135 49.8188 141.328C43.7411 146.116 45.3132 143.59 44.3193 142.969C44.1916 142.89 43.0546 143.041 41.6178 141.811C37.8413 138.576 41.4477 134.73 39.3999 130.704C40.009 126.183 36.5747 117.968 39.0131 117.955C38.433 113.631 39.8833 109.381 39.3999 105.012C39.5758 103.191 41.7667 96.6858 40.2681 97.1886C39.9626 97.291 39.6609 100.01 36.5051 102.307C35.31 104.976 34.6255 109.545 31.2956 109.841C30.8277 115.28 26.7746 123.058 26.2796 128.192C26.2157 132.442 26.15 136.691 26.0862 140.941C26.2157 141.198 26.3434 141.455 26.4729 141.714C24.634 144.279 21.8339 147.73 24.8331 150.31C25.7265 147.502 28.3834 146.307 31.0075 147.798C33.7669 149.366 31.6901 152.539 31.8757 153.11C31.9744 153.415 32.8484 153.415 32.6473 154.075C32.5216 154.487 26.1635 157.855 25.6047 159C25.3475 158.87 25.0903 158.743 24.8331 158.613C19.6082 158.766 22.0505 158.068 20.1052 155.233C19.1074 154.429 18.1115 153.624 17.1137 152.818C16.1875 152.692 15.8336 154.34 15.5706 154.363C14.0584 153.365 12.5482 152.367 11.036 151.37C11.9023 147.85 8.78903 142.937 15.0872 142.871C15.8587 141.003 16.6303 139.137 17.4018 137.269C17.2858 129.845 17.6977 122.308 19.5251 115.054C20.1032 113.252 20.6834 111.448 21.2615 109.646C15.1432 108.077 18.3958 103.974 16.5336 102.402C15.5996 101.613 9.6186 101.019 7.36775 96.3164C4.40142 90.1169 6.39702 82.4362 4.37628 83.4707C3.39395 83.9735 3.3166 86.3732 2.92986 80.8621C5.02601 80.866 2.57212 77.6193 2.1583 76.0336C1.77155 73.2007 1.38674 70.3678 1 67.5349C1.38674 63.8009 1.77155 60.0669 2.1583 56.3309C3.70914 51.4986 5.1285 46.5869 8.1393 42.4236C10.3902 39.8808 12.641 37.3379 14.8919 34.7931H14.8977ZM19.2389 1.76128C18.3803 2.03587 20.0375 3.88838 19.9137 4.1765L19.0455 3.88644C18.1463 4.38921 20.2579 5.78923 20.3005 5.91492C20.4842 6.46796 18.3977 6.16437 20.6872 7.07322C20.5867 8.00334 22.8936 10.5462 23.4853 9.29507C23.6632 10.1691 24.077 10.3006 23.9668 9.58512C22.8085 7.7829 21.6522 5.97873 20.4939 4.1765C20.4262 4.05081 19.9911 1.5215 19.2389 1.76128ZM20.3952 1.76128C20.5577 4.81463 22.5107 5.93812 23 6.68647C23.4563 7.38455 24.4077 10.8614 25.6047 10.0666C25.3146 8.4887 25.0265 6.91079 24.7364 5.3348C23.9223 4.81076 23.9881 6.19918 23.6748 6.20498C23.1237 6.21465 23.6478 2.22731 22.7099 5.43149C22.1781 5.41215 22.5533 3.58865 22.4198 3.20964C21.8842 1.68393 21.9635 4.45883 21.745 4.46463C21.1881 3.88258 21.7546 2.29886 20.3952 1.76128ZM23.8701 14.8971C22.8047 15.1465 24.3226 15.8852 24.3516 15.9587C24.3729 16.0128 23.9958 17.0203 24.4483 17.0203C24.6166 17.0203 24.6668 15.541 25.4132 17.6004C25.976 16.1424 27.1691 17.9659 27.2464 18.2772C27.5887 19.654 26.3782 21.8295 26.1848 21.8507C26.0881 21.8604 25.7613 21.0811 25.0265 21.2706C23.1585 25.024 24.9395 20.1278 23.29 19.7256C22.9033 19.7894 22.5185 19.8551 22.1317 19.9189C20.0394 21.1913 23.203 25.3701 21.8417 24.2659C21.7218 24.1693 21.2654 22.135 20.3952 22.2375C19.9447 22.8814 19.4941 23.5253 19.0455 24.1693C18.8657 24.1693 18.0632 21.58 18.1773 24.8461C15.7388 23.8831 19.148 28.7135 19.1422 29.0964C19.1364 29.5276 17.2317 29.6997 19.1422 32.5732C21.4259 34.6655 23.7077 36.7578 25.9914 38.8501C26.2157 37.4655 26.442 36.081 26.6663 34.6964C25.9586 33.8591 25.2508 33.0218 24.5431 32.1845C25.8928 32.2019 25.8599 34.6771 29.0777 34.213C30.586 33.9964 31.1796 33.1166 31.6824 31.7978C31.6669 31.239 29.0448 30.7768 27.726 27.8375C26.6102 30.0072 27.2522 26.8958 27.8227 26.5825C28.8475 26.0179 27.2406 27.4489 29.5591 29.6726C32.5409 32.5345 32.1967 29.2511 32.7421 29.1892C37.1741 32.6409 37.1799 27.6016 34.96 23.2972C35.6581 20.5281 35.2385 19.0024 34.7667 16.3435C34.3625 15.628 27.2986 15.7672 26.1809 15.6667C25.4094 15.4095 24.6378 15.1523 23.8663 14.8932L23.8701 14.8971ZM17.6958 30.7362C13.9772 35.555 16.58 34.8163 17.5991 37.2064C18.0728 38.3164 18.9527 43.7231 20.4939 46.2852H20.8806C25.0033 36.1815 28.0199 46.6217 28.6948 46.1886C27.9522 42.0233 25.3224 38.7147 22.327 35.7581C20.9019 34.3503 19.3936 34.3271 17.6958 30.7362ZM27.5345 34.5998C27.374 34.6964 27.2135 34.7931 27.053 34.8898C27.2135 37.1832 25.2353 40.0122 27.6312 41.2634C27.6718 40.6929 28.0547 36.2589 28.8862 36.7249C28.6619 37.7227 28.4357 38.7205 28.2113 39.7183C30.1103 40.8186 31.1235 43.609 30.9128 41.4567C30.8006 40.3081 29.0951 34.2072 27.5365 34.5998H27.5345ZM17.1156 38.0766C4.92739 49.0273 1.36354 60.0514 3.12709 76.4204C4.71855 78.7176 7.77576 81.7226 10.5565 82.3124C14.8377 83.2213 11.2855 80.7829 11.2313 79.8972C11.1424 78.4585 12.7744 81.9702 14.0294 82.8906C15.0292 83.6235 18.8753 85.0506 20.0104 84.8224C21.5864 83.4379 23.1624 82.0533 24.7384 80.6688C25.6395 77.1281 26.5387 73.5855 27.4398 70.0449C27.3663 69.6872 23.4312 66.8291 27.6332 67.7264C27.2986 65.168 29.2091 63.2247 29.1763 60.7727C30.3984 60.2583 31.6205 59.742 32.8426 59.2276C29.6578 53.382 29.7603 57.35 28.4047 58.6475C28.2113 58.7113 28.018 58.7771 27.8265 58.8409C31.547 52.303 28.2655 57.1934 25.9934 59.131C23.9668 60.5793 21.9422 62.0277 19.9157 63.478C18.5814 65.5664 21.2809 66.5449 22.327 66.278C23.0464 66.0943 25.0768 61.1865 25.3185 62.7045C25.3784 63.0874 22.3502 66.8929 23.292 67.2429C25.9276 68.2233 26.6721 63.4528 27.3431 63.7661C27.0318 65.9976 24.0848 69.749 22.5185 66.6628C20.7162 66.8214 18.6549 65.9609 19.1422 63.8628C19.38 62.834 25.9218 58.7578 27.3431 57.3925C29.5108 55.3099 28.4357 53.6102 32.0711 56.9091C33.8733 60.9525 33.707 58.1757 32.2644 56.1356C30.3133 53.3801 28.3022 54.7182 27.6332 53.8171C27.1536 52.7632 22.8337 44.9606 22.327 44.835C21.4008 44.6048 21.2287 47.8728 20.4939 47.2502C19.6585 45.125 18.8212 42.9999 17.9858 40.8766C17.775 40.2404 17.7963 38.0495 17.1176 38.0766H17.1156ZM63.2311 40.5885C61.2509 40.4686 60.2183 44.8059 60.9164 45.0322C61.2045 45.125 65.478 40.7258 63.2311 40.5885ZM57.2501 41.3601C56.0163 41.7333 57.8108 44.164 57.7316 44.3535C54.4075 45.7109 57.6059 49.4952 57.7316 49.9555C58.4161 52.4422 55.6741 51.9375 53.7752 52.564C49.8961 53.8422 46.0441 55.2461 42.0046 56.0409C36.3407 59.1909 30.1915 58.2492 31.5857 63.9614C30.4757 62.31 32.4172 59.1638 30.236 60.4846C29.4779 60.9429 29.768 62.3313 29.5611 62.8998C29.1743 63.7371 28.7895 64.5744 28.4028 65.4117C27.403 71.1278 33.444 69.4126 36.217 67.0534C45.6303 65.3962 50.2519 57.4448 57.8263 54.6911C57.8901 54.5616 57.9559 54.434 58.0197 54.3044C64.0587 56.2284 60.2048 53.5077 60.0462 52.4693C60.1429 51.7287 60.2396 50.9881 60.3363 50.2474C61.046 49.735 60.4697 51.7867 60.6263 52.4693C61.2374 53.2099 61.8484 53.9505 62.4595 54.6911C63.3471 54.8613 68.3322 52.2256 67.7656 48.9925C62.3048 51.0577 63.8885 49.8781 63.0377 49.0891C62.9294 48.9886 60.8584 48.8416 62.1694 47.0607C61.102 47.0181 60.6109 45.1018 60.3363 45.0322C59.586 44.8427 61.0866 47.6543 58.1183 44.7421C58.3368 43.957 58.4103 41.01 57.2501 41.362V41.3601ZM64.5808 41.9402C63.9137 42.0852 59.4042 47.5383 62.6509 46.3839C63.6487 45.4499 64.6446 44.5159 65.6424 43.5838C65.9247 42.7987 65.4181 41.7603 64.5808 41.9421V41.9402ZM30.6227 42.7117C30.058 43.0675 31.4813 45.0477 31.6843 45.5118C32.4559 47.3797 33.2274 49.2458 33.999 51.1138C35.2907 54.7859 34.9484 59.1039 37.5686 57.584C38.7192 56.9169 40.2294 50.5472 39.015 52.0787C38.5123 52.7149 37.5957 56.5959 37.0852 55.7489C36.77 55.2248 41.0184 48.9731 37.3753 50.8237C36.8609 51.661 36.3465 52.4983 35.8321 53.3356C35.2617 52.9875 36.8454 51.1969 36.7004 50.5356C36.623 50.1817 33.1404 45.1366 32.0691 45.1269C31.7617 44.1369 31.3846 43.4098 30.6227 42.7117ZM66.8974 43.6786C65.799 43.7927 62.1694 47.1245 62.1694 47.8322C62.1694 48.2808 62.9468 48.888 63.6159 48.509C63.8847 48.3563 68.2471 44.5256 66.8955 43.6805L66.8974 43.6786ZM67.2822 45.9971C65.7526 46.1654 60.5529 52.129 66.8955 48.7005C69.8637 47.0974 68.3651 45.8772 67.2822 45.9971ZM29.271 47.7355C29.3039 48.219 29.3348 48.7005 29.3677 49.1839C29.3252 49.3173 26.7456 50.4582 29.4644 50.0541C29.534 52.8077 30.3075 50.2997 30.4293 50.2474C30.4931 50.2204 31.518 50.8121 31.6843 50.1508C31.8003 49.6905 30.4603 50.0579 31.0094 48.1223C29.9169 48.6192 29.6926 47.4281 29.273 47.7355H29.271ZM55.8984 48.7005C50.6889 50.0521 45.4795 51.4038 40.27 52.7574C39.7151 53.0861 38.1913 57.116 39.1117 57.0077C40.1405 56.5572 41.1692 56.1066 42.198 55.6561C47.0864 54.3044 51.9749 52.9527 56.8614 51.5991C58.1744 51.1563 56.9987 48.6405 55.8965 48.7024L55.8984 48.7005ZM37.3753 67.6297C36.5728 69.3449 38.5258 72.1855 38.9184 74.39C40.328 72.0018 38.404 69.78 37.3753 67.6297ZM35.0606 68.4032C31.0268 69.749 34.3799 72.9745 33.5175 78.2535C34.9368 78.064 35.8902 77.1223 37.0871 76.4184C37.0311 75.3974 35.4725 68.4631 35.0606 68.4012V68.4032ZM32.3592 69.5615C30.992 69.5634 30.0252 70.1493 28.7895 70.6231C29.3039 73.8176 29.4683 76.9676 29.4644 80.1853C35.6968 80.4329 32.0865 73.1543 32.8407 69.6581C32.6802 69.6253 32.5197 69.5943 32.3592 69.5615ZM37.1819 76.9019C35.6291 78.2071 33.9468 78.4875 33.3222 78.8337C32.9354 79.2842 32.5506 79.7348 32.1639 80.1853C31.4445 80.5721 28.7528 80.5044 28.981 81.2469C31.578 83.1826 34.6178 83.5094 37.7601 83.8555C38.0076 82.8964 38.054 77.074 37.1819 76.9019ZM4.76689 79.027C5.24839 80.9917 5.73182 82.9544 6.21332 84.9191C5.48237 88.8794 6.63487 92.6656 7.9498 96.3164C11.1288 102.118 24.1351 103.786 30.3326 103.657C29.6655 101.849 29.0351 99.946 29.271 97.9582C27.2193 98.1573 17.8853 96.5949 16.7289 96.2198C12.4496 94.8275 10.3031 86.6942 10.2645 82.6025C6.43569 81.4326 5.08789 78.9091 4.76496 79.029L4.76689 79.027ZM24.4483 81.5389C23.0986 82.763 21.7469 83.9851 20.3972 85.2091C18.2295 85.855 13.8186 83.0743 13.4512 83.084C12.1402 83.1188 15.2457 86.9959 15.7659 87.5277C20.1593 92.0004 24.1699 91.9346 30.0445 91.5846C31.3227 88.7343 33.8269 86.5163 35.544 84.1475C35.4241 83.8188 30.1702 83.2677 29.0796 81.7323C28.9055 83.1401 27.5403 84.6252 26.1848 84.8224C22.9671 85.2942 25.6047 81.4887 24.4483 81.5389ZM26.3782 81.9237C24.8873 82.1287 23.8141 85.0544 26.5715 84.2423C28.4492 83.6892 28.5149 81.6298 26.3782 81.9237ZM36.6037 86.1741C34.7589 88.6937 32.7285 91.1341 31.8757 94.1913C33.2874 95.1021 36.1996 95.9703 37.9534 96.4131C38.1294 96.4576 41.0764 96.4209 41.3297 97.2833C40.7515 100.18 40.1714 103.079 39.5932 105.975C40.4093 108.335 38.5819 116.452 39.2065 117.566C39.4308 117.533 39.657 117.502 39.8814 117.469C40.2391 117.661 39.6551 118.398 41.0397 117.469C42.8071 118.386 46.4038 117.976 46.924 115.248C48.3472 109.717 48.1906 103.825 50.0102 98.4416C52.1547 85.3058 46.3168 88.4211 41.8093 87.7211C40.0728 87.2067 38.3363 86.6904 36.5998 86.176L36.6037 86.1741ZM17.8466 91.8805C17.7596 92.0951 17.6745 92.3117 17.5875 92.5264C15.6886 92.1783 17.222 93.0272 17.2645 93.1084L17.4579 94.0772C17.5875 93.9051 17.717 93.733 17.8447 93.5609C17.9471 93.5686 18.477 94.8004 18.361 93.3018C20.1864 94.0521 18.3745 93.1161 18.6839 92.333C17.5604 92.9092 18.4209 91.7142 17.8447 91.8805H17.8466ZM17.1156 102.593C17.3864 105.616 19.7571 103.405 18.6588 102.98C18.1444 102.85 17.63 102.723 17.1156 102.593ZM35.8321 102.593C29.5495 106.059 26.1055 102.272 34.6738 106.07C34.8634 105.186 36.4664 102.557 35.8321 102.593ZM22.1337 105.683C22.7389 109.292 21.3582 109.992 20.6872 112.347C19.0339 118.148 17.5759 124.874 17.9858 130.891C19.6121 133.165 19.1074 131.959 19.6256 132.146C19.7552 132.34 19.8828 132.533 20.0124 132.727C20.1883 132.794 20.8168 132.001 21.3621 133.307C21.8765 133.243 22.3908 133.177 22.9052 133.113C23.8701 133.37 24.8351 133.628 25.8 133.887C25.8329 132.245 25.8638 130.603 25.8967 128.962C26.4343 123.238 29.3271 117.475 30.3346 113.509C30.9108 111.237 31.3517 108.017 29.8531 106.265C27.2812 106.072 24.7074 105.879 22.1356 105.685L22.1337 105.683ZM46.4444 117.274C46.2917 117.87 46.5894 119.742 45.9629 118.722C45.4872 117.951 45.7908 116.139 45.288 119.399C44.8394 119.407 44.8858 116.537 44.1297 119.206C43.8726 118.885 43.6154 118.562 43.3582 118.241C42.1341 121.772 43.0043 116.238 41.4283 119.399C40.4267 115.534 41.4844 122.36 39.8852 118.241C39.628 118.628 39.3709 119.014 39.1137 119.399C38.957 119.409 38.1159 116.756 38.4388 120.461C38.6322 121.362 38.8255 122.263 39.017 123.164C41.5212 122.176 44.6306 121.043 47.2179 120.942C47.3881 120.857 46.8737 117.626 46.4463 117.272L46.4444 117.274ZM46.0577 121.523C44.7079 121.844 43.3563 122.166 42.0065 122.487C38.3866 123.634 39.0402 124.046 39.8833 127.703C41.204 127.592 47.593 125.305 47.8908 124.323C48.1674 123.408 47.9353 121.372 46.0577 121.523ZM18.0806 131.568C17.951 132.856 17.8234 134.144 17.6938 135.432C20.2773 136.648 23.0444 137.646 25.8947 137.847C26.0823 135.996 25.5621 132.168 24.4483 135.625C23.7367 135.631 24.6224 133.39 23.7734 133.79C23.7328 136.118 23.6304 135.498 23.0986 133.693C22.5359 133.657 22.2284 137.141 21.9403 133.693C21.6193 134.08 21.2964 134.467 20.9754 134.852C20.5151 130.108 20.2792 136.816 19.4322 132.727C18.1927 135.024 18.653 132.498 18.0825 131.568H18.0806ZM17.6958 135.817C16.5549 138.591 23.64 141.96 25.2199 141.419C25.9141 141.181 25.8387 138.404 25.6066 138.329C23.1527 138.166 19.73 137.201 17.6958 135.817Z" fill="white"/>
</mask>
<g mask="url(#mask0_4_709)">
<path d="M41.1753 133.885H4.38232V166.191H41.1753V133.885Z" fill="#826E59"/>
<path d="M71.4514 118.719H36.42V149.268H71.4514V118.719Z" fill="#826E59"/>
<path d="M31.3728 139.254L17.0741 132.227L15.0819 136.281L29.3806 143.308L31.3728 139.254Z" fill="#450000"/>
<path d="M55.2039 117.064L35.6886 123.495L36.4276 125.737L55.9429 119.306L55.2039 117.064Z" fill="#803538"/>
<path d="M32.6497 83.9267L10.6678 79.5183L6.92525 98.1804L28.9071 102.589L32.6497 83.9267Z" fill="#803538"/>
<path d="M25.9161 41.8227L15.0787 32.5765L-13.4418 66.0051L-2.60437 75.2513L25.9161 41.8227Z" fill="#803538"/>
<path d="M7.73926 65.8911H-4.29236V84.3852H7.73926V65.8911Z" fill="#803538"/>
<path d="M35.8324 41.331H22.2267V53.3355H35.8324V41.331Z" fill="#803538"/>
<path d="M37.1839 51.2124H25.6067V59.4172H37.1839V51.2124Z" fill="#803538"/>
<path d="M40.5077 66.5975L31.9952 69.4028L36.3367 82.5765L44.8492 79.7711L40.5077 66.5975Z" fill="#803538"/>
<path d="M32.2762 70.8894L26.3665 69.7042L23.4771 84.1117L29.3868 85.2969L32.2762 70.8894Z" fill="#803538"/>
<path d="M35.5442 88.0864H29.5554V91.3428H35.5442V88.0864Z" fill="#803538"/>
<path d="M43.6059 83.5616H33.3823V89.6741H43.6059V83.5616Z" fill="#803538"/>
<path d="M35.0474 90.2154L31.0902 87.9307L24.562 99.2379L28.5192 101.523L35.0474 90.2154Z" fill="#803538"/>
<path d="M32.0693 92.8259H26.8599V104.158H32.0693V92.8259Z" fill="#803538"/>
<path d="M36.1146 102.593H13.1304V109.425H36.1146V102.593Z" fill="#803538"/>
<path d="M40.2703 91.1727H28.7898V98.5285H40.2703V91.1727Z" fill="#803538"/>
<path d="M38.2997 95.8039H28.8496V103.374H38.2997V95.8039Z" fill="#803538"/>
<path d="M40.2703 96.1771H35.8324V102.593H40.2703V96.1771Z" fill="#803538"/>
<path d="M52.4673 86.9844L41.6759 85.6211L37.4012 119.459L48.1926 120.822L52.4673 86.9844Z" fill="black"/>
<path d="M32.4204 111.501L17.6769 109.638L14.5936 134.045L29.3371 135.907L32.4204 111.501Z" fill="black"/>
<path d="M58.3622 47.8747H37.0874V69.018H58.3622V47.8747Z" fill="black"/>
<path d="M35.5443 59.2277H29.8108V80.3787H35.5443V59.2277Z" fill="black"/>
<path d="M26.1269 51.2124H10.4115V69.4725H26.1269V51.2124Z" fill="black"/>
<path d="M34.5194 59.618L25.1281 56.3751L21.1562 67.8776L30.5475 71.1205L34.5194 59.618Z" fill="black"/>
<path d="M31.0464 54.7916H26.1251V59.713H31.0464V54.7916Z" fill="black"/>
<path d="M32.7672 56.6054H29.9556V59.417H32.7672V56.6054Z" fill="black"/>
<path d="M15.7582 71.5957H0.506958V82.9409H15.7582V71.5957Z" fill="black"/>
<path d="M7.68891 80.3786H-0.382446V86.6323H7.68891V80.3786Z" fill="black"/>
<path d="M9.90888 85.563H3.55273V102.593H9.90888V85.563Z" fill="black"/>
<path d="M17.1178 96.1578H7.68896V102.593H17.1178V96.1578Z" fill="black"/>
<path d="M40.0731 19.683H18.425V41.331H40.0731V19.683Z" fill="black"/>
<path d="M43.6058 11.8088L13.1304 11.4646L13.9735 9.84607L43.6058 10.2328V11.8088Z" fill="#731D00" stroke="black" stroke-miterlimit="10"/>
<path d="M15.9962 21.1274C16.3327 19.2459 16.7213 17.2387 18.5139 15.9006C20.6371 14.313 23.2477 14.7713 23.8703 14.8989C26.1927 16.0785 26.9565 17.4901 27.2466 18.279C29.248 23.6973 20.8904 31.9099 17.6959 30.738C15.4161 29.9026 15.4528 24.1788 15.9962 21.1293V21.1274Z" fill="black"/>
<path d="M16.5454 8.4828C15.333 6.35377 16.9283 3.33329 17.6051 2.05124C18.8388 -0.286635 20.6101 -3.64551 23.9613 -4.30491C28.5809 -5.21376 32.9608 -0.350447 34.6296 3.33716C36.1108 6.61095 35.8769 9.88475 35.6893 9.91955C35.5307 9.95049 35.0086 7.75959 33.4945 4.39491C32.6205 2.44958 32.1776 1.81145 31.4506 1.59488C30.0718 1.18493 28.5925 2.56947 28.2735 2.8808C27.4613 2.30842 26.1502 1.60841 24.5665 1.67029C23.9922 1.6935 23.0795 1.7283 22.7314 2.33743C22.3891 2.93881 22.801 3.74518 22.9016 3.94048C23.267 4.65403 23.8858 4.97309 24.1121 5.07558C24.3731 5.02724 24.7812 4.9963 25.0964 5.22641C25.5218 5.53967 25.5334 6.15846 25.5508 6.58775C25.5817 7.36704 25.6726 8.46346 25.9298 9.91762C25.4657 10.0878 24.5162 10.3624 23.3579 10.1439C22.6347 10.0085 21.693 9.83254 21.1632 9.08419C20.7107 8.44606 20.8074 7.74025 20.1789 7.41925C19.8888 7.27035 19.6935 7.33223 19.5079 7.12339C19.1405 6.70957 19.3996 5.90321 19.4209 5.90515C19.4479 5.90901 19.3841 7.14853 19.0419 8.32617C18.8214 9.08612 18.6455 9.69331 18.2336 9.80353C17.6631 9.95629 16.8954 9.08999 16.5454 8.477V8.4828Z" fill="black"/>
<path d="M17.3517 152.744C15.6017 151.596 13.8014 150.538 11.9605 149.544C11.8812 149.49 11.8039 149.434 11.7246 149.38C11.5989 149.293 11.4732 149.242 11.3533 149.221C11.2276 149.155 11.1039 149.088 10.9782 149.022C9.87596 148.446 8.89749 150.115 10.0016 150.691C10.3304 150.863 10.6572 151.037 10.982 151.213C12.7243 152.431 14.3487 153.787 15.8666 155.276C16.6304 156.024 17.7443 155.123 17.4832 154.301C17.8738 153.897 17.9647 153.147 17.3498 152.744H17.3517Z" fill="black"/>
<path d="M32.4503 152.501C31.0735 153.632 29.7237 154.968 28.1941 155.892C26.7071 156.792 25.3728 157.677 24.0598 158.832C23.1239 159.655 24.4949 161.019 25.427 160.199C26.1599 159.555 26.8927 158.901 27.7223 158.379C28.3701 157.971 29.0721 157.66 29.6986 157.215C31.1353 156.194 32.458 154.984 33.8174 153.866C34.7804 153.075 33.4055 151.714 32.4503 152.499V152.501Z" fill="black"/>
<path d="M61.0035 127.921C60.6574 127.96 60.3267 128.161 60.172 128.567C59.1587 131.234 57.6272 133.713 56.2678 136.215C55.6742 137.309 57.343 138.286 57.9366 137.191C57.9888 137.097 58.0391 137.002 58.0913 136.909C58.248 136.87 58.4046 136.778 58.5438 136.619C59.501 135.525 60.3402 134.337 60.9938 133.034C61.3013 132.423 61.572 131.789 61.806 131.145C62.0419 130.493 62.1405 129.721 62.4925 129.128C63.0745 128.143 61.7209 127.246 61.0035 127.925V127.921Z" fill="black"/>
<path d="M50.5229 139.336C48.2353 140.49 46.2823 142.2 44.0043 143.362C43.8322 143.426 43.6582 143.488 43.4842 143.546C43.256 143.621 43.0916 143.754 42.9833 143.915C42.7552 144.155 42.7378 144.481 42.8557 144.773C42.964 145.17 43.285 145.495 43.7433 145.462C43.9077 145.479 44.0836 145.454 44.2635 145.375C44.4452 145.296 44.6231 145.21 44.7991 145.123C45.7563 144.76 46.6883 144.329 47.5721 143.81C48.6859 143.157 49.6934 142.095 50.9309 141.693C51.3215 141.565 51.5246 141.275 51.5826 140.96C52.5553 140.359 51.6019 138.794 50.5229 139.338V139.336Z" fill="black"/>
<path d="M38.462 95.3031C38.1449 95.2722 37.8374 95.307 37.5339 95.3611C37.1026 95.2045 36.5844 95.2064 36.128 95.191C35.6891 95.1774 35.1186 95.0865 34.5733 95.0749C34.3103 94.9396 34.0415 94.8293 33.7438 94.8313C33.6741 94.8313 33.6045 94.839 33.5368 94.8525C33.4711 93.9089 31.9357 93.6034 31.636 94.6805C31.2396 96.1095 31.052 97.6004 31.1564 99.0835C31.2454 100.325 31.3537 101.915 32.9529 101.868C35.3545 101.797 37.6576 99.8106 38.754 97.8112C38.8643 97.61 38.8913 97.3973 38.8565 97.1962C39.6803 96.912 39.543 95.4056 38.462 95.3031Z" fill="black"/>
<path d="M31.1293 105.912C30.4313 105.681 29.5224 105.72 28.7895 105.65C27.7801 105.552 26.7707 105.463 25.7594 105.399C24.7674 105.337 23.7715 105.353 22.7815 105.287C22.1066 105.242 21.3931 104.891 20.7201 105.032C20.0743 105.167 19.6527 105.774 19.7784 106.422C19.9254 107.182 20.7066 107.522 21.3331 107.818C21.9886 108.128 22.5862 107.77 22.7254 107.213C22.8607 107.221 22.9961 107.226 23.1315 107.23C23.9456 107.255 24.7577 107.273 25.5699 107.321C26.3917 107.371 27.2116 107.437 28.0315 107.513C28.4105 107.547 28.7876 107.584 29.1666 107.623C29.2053 107.627 29.2498 107.629 29.2962 107.631C29.2169 108.365 29.9382 109.141 30.6865 108.599C31.1951 108.23 31.8313 108.118 32.0014 107.399C32.1561 106.737 31.7578 106.12 31.1313 105.913L31.1293 105.912Z" fill="black"/>
<path d="M30.1006 68.8806C29.7777 68.7511 29.4509 68.6486 29.1202 68.5635C28.3738 68.2928 27.6564 67.9582 26.9603 67.5541C25.8812 66.9295 24.9067 68.5983 25.9837 69.2229C26.2293 69.366 26.4807 69.4994 26.7321 69.629C26.8636 69.9442 27.144 70.2014 27.5713 70.24C27.8884 70.2671 28.1998 70.3232 28.5053 70.3967C28.8611 70.5243 29.2208 70.6422 29.5863 70.7447C30.8122 71.0889 31.2299 69.3292 30.1006 68.8806Z" fill="black"/>
<path d="M6.72591 83.1496C6.60602 82.9504 6.50934 82.757 6.43006 82.5598C6.49967 82.0938 6.41652 81.6065 6.21735 81.1656C6.21155 81.067 6.20381 80.9703 6.19221 80.8813C6.18641 80.8407 6.1806 80.8001 6.17094 80.7614C6.50354 80.4675 6.69304 79.9473 6.49193 79.4929C5.86928 78.0871 5.11706 76.7644 4.22561 75.5133C4.16567 75.4282 4.08832 75.3547 4.00323 75.2929C4.00323 75.1981 3.9897 75.0956 3.95876 74.9873C3.74798 74.268 3.51594 73.5583 3.26455 72.8525C3.23941 71.818 3.14853 70.7912 3.0035 69.7624C3.35157 67.4168 3.74025 65.077 4.1792 62.7469C4.43832 61.3739 4.71098 60.0048 5.00103 58.6377C5.24662 57.4813 5.3433 55.9247 6.25409 55.0719C7.16487 54.2191 5.79386 52.8539 4.88694 53.7048C3.99743 54.5401 3.6745 55.6636 3.41925 56.82C3.07698 58.3689 2.75792 59.9256 2.45819 61.4841C1.85874 64.6013 1.34243 67.7359 0.901542 70.8801C0.84353 71.2959 1.02337 71.6323 1.29215 71.845C1.29796 71.9436 1.30569 72.0423 1.30956 72.1409C1.23994 72.2646 1.18773 72.4058 1.16646 72.5702C1.08138 73.216 1.15099 73.8155 1.36177 74.4304C1.41398 74.5851 1.49713 74.7089 1.59381 74.8094C1.63829 74.9854 1.6847 75.1633 1.73111 75.3393C1.6615 75.5133 1.64796 75.7183 1.72531 75.9465C1.91481 76.5072 2.10432 77.0661 2.29382 77.6269C1.67697 77.7893 1.20707 78.6382 1.76978 79.2802C1.91868 79.4504 2.07144 79.6128 2.22808 79.7694C2.09658 79.986 2.00183 80.2277 1.95155 80.4791C1.83746 81.0611 1.90128 81.6915 2.10432 82.2717C2.09852 82.7938 2.23388 83.2772 2.64383 83.5595C2.55874 83.7974 2.45819 83.9695 2.36537 83.8515C1.58995 82.8788 0.23054 84.2537 0.998228 85.2187C1.95349 86.4176 3.70157 85.8026 4.31843 84.6037C4.37838 84.4858 4.43445 84.3581 4.48473 84.2305C4.6839 84.2344 4.87921 84.2073 5.06871 84.1551C5.72618 85.1742 7.36404 84.2112 6.72011 83.1534L6.72591 83.1496Z" fill="black"/>
<path d="M29.1939 91.134C25.8176 91.5091 22.2112 91.3544 19.1811 89.6586C16.5976 88.2121 14.5537 85.6209 14.3739 82.5947C14.3004 81.3571 12.3647 81.3493 12.4401 82.5947C12.6509 86.1179 14.7606 89.1751 17.7076 91.0334C21.0955 93.1683 25.3052 93.5009 29.1939 93.0696C30.418 92.9343 30.4315 90.9986 29.1939 91.1359V91.134Z" fill="#AFA730"/>
<path d="M28.1014 96.7282C23.7602 96.5368 18.9414 96.3376 15.4162 93.4506C13.8731 92.1878 12.8559 90.5751 12.4286 88.6279C11.9568 86.4718 11.9123 84.3002 10.9957 82.2562C10.4871 81.1231 8.82026 82.1054 9.32689 83.2328C10.317 85.4392 10.1023 87.9588 10.8584 90.2348C11.5178 92.2227 12.8211 93.8837 14.4706 95.1522C18.3612 98.1456 23.3831 98.457 28.1033 98.6639C29.3467 98.718 29.3448 96.7843 28.1033 96.7302L28.1014 96.7282Z" fill="#AFA730"/>
<path d="M72.7721 126.695C72.685 126.691 72.6 126.695 72.5149 126.695C72.4665 126.604 72.3988 126.517 72.3041 126.442C72.1977 126.357 72.0894 126.279 71.9792 126.206C72.8397 125.91 72.9751 124.734 71.9947 124.367C71.9019 124.332 71.8071 124.301 71.7124 124.268C71.6969 124.065 71.6176 123.868 71.4649 123.709C71.548 123.675 71.6312 123.642 71.7162 123.607C72.5052 123.269 72.2287 122.033 71.4861 121.839C71.4184 121.822 71.3508 121.807 71.2831 121.789C71.1729 121.445 70.8809 121.168 70.3994 121.168C70.2311 121.168 70.0648 121.168 69.8966 121.168C69.856 121.043 69.7922 120.925 69.7013 120.828C70.0262 120.538 70.0494 120.078 69.8502 119.71H69.856C70.4961 119.618 70.6914 118.827 70.4458 118.303C70.9969 117.856 70.7146 116.767 69.9508 116.603C69.9295 116.497 69.8927 116.392 69.8425 116.294C70.1693 116.005 70.2485 115.545 70.0764 115.176C70.3259 114.779 70.1538 114.168 69.7438 113.845C70.03 113.78 70.3143 113.716 70.6005 113.65C71.7336 113.393 71.3643 111.85 70.3433 111.751L69.8463 111.703C69.9179 111.428 69.8908 111.134 69.7458 110.912C70.1751 110.614 70.3897 110.015 70.1886 109.601C70.3394 109.071 70.0262 108.383 69.2991 108.288C69.2546 108.282 69.2082 108.278 69.1637 108.272C69.2662 107.967 69.243 107.615 69.0728 107.36C69.5195 106.859 69.5311 106.004 68.6745 105.821L67.7386 105.621C68.0286 105.594 68.3187 105.571 68.6107 105.552C69.7013 105.484 69.8425 104.028 68.9897 103.69C69.156 103.4 69.2043 103.057 69.0864 102.788C69.4789 102.711 69.8695 102.634 70.2621 102.554C71.1806 102.373 71.1883 100.866 70.2621 100.69C69.8212 100.607 69.3803 100.538 68.9375 100.476C68.9723 100.315 68.9704 100.155 68.9278 100.008C69.2585 99.942 69.448 99.7467 69.5215 99.5031C70.4999 99.2362 70.5309 97.8691 69.5253 97.639C70.5908 97.639 71.6563 97.6467 72.7198 97.666C73.9903 97.6892 73.9265 95.8657 72.7198 95.7323C71.2212 95.566 69.7206 95.4616 68.2201 95.4132C68.4231 95.1154 68.4753 94.7074 68.3458 94.3884C68.6223 94.0712 68.717 93.6052 68.5469 93.261C68.9994 92.7969 68.893 91.9151 68.2181 91.6792C68.6919 91.2538 68.7692 90.4242 68.1543 90.1226C68.1505 90.0085 68.1253 89.8944 68.0828 89.79C68.7499 89.701 68.9916 89.0281 68.8099 88.5021C68.953 87.9645 68.659 87.3109 67.9145 87.2742C67.8894 87.2742 67.8643 87.2723 67.8411 87.2703C67.8662 87.1543 67.8701 87.0305 67.8507 86.9087C67.9242 86.814 67.9764 86.7076 68.0112 86.5955C68.7557 86.2706 68.717 85.1316 67.9339 84.8242C67.8952 84.5554 67.7424 84.3195 67.4485 84.2131C67.5027 84.0429 67.5085 83.8592 67.4679 83.6852C67.5568 83.3681 67.4833 83.0045 67.2513 82.7435C68.1311 82.6661 69.011 82.5888 69.8908 82.5134C70.7687 82.436 71.0143 81.6123 70.6759 81.0611C70.9331 80.4984 70.6585 79.6901 69.8386 79.6631C69.3107 79.6457 68.7828 79.6302 68.2549 79.6128C68.2587 79.5741 68.2587 79.5335 68.2587 79.4948C68.5256 78.9302 68.2471 78.0832 67.4234 78.0581C67.3866 78.0581 67.3499 78.0581 67.3132 78.0581C67.2493 77.5998 66.8955 77.1415 66.3714 77.097C66.2322 77.0854 66.0949 77.0738 65.9557 77.0622C65.9924 76.5923 65.714 76.0954 65.1261 76.0122C65.1261 75.7821 65.0565 75.5481 64.9269 75.3625C65.2305 75.3257 65.5341 75.2871 65.8358 75.2503C66.9032 75.1188 67.0714 73.8136 66.2477 73.4229C66.5996 72.9782 66.5029 72.1757 65.9673 71.9185C66.6712 71.8083 67.375 71.6981 68.0789 71.5878C69.009 71.4428 68.9239 70.3483 68.3245 69.8881C68.5546 69.3061 68.282 68.5422 67.4737 68.5828C66.0678 68.6544 64.6736 68.6099 63.2929 68.4513C64.2501 68.2154 65.2247 68.053 66.2129 67.9737C67.2165 67.8925 67.6206 66.2662 66.4701 66.0748C66.3811 66.0593 66.2922 66.0477 66.2051 66.0342C66.2554 65.5392 65.9421 64.9919 65.2808 64.9242C64.6891 64.8624 64.0993 64.8005 63.5076 64.7386C63.7648 64.6961 64.0239 64.6574 64.283 64.6187C65.2441 64.4775 65.1648 62.9576 64.283 62.7546C63.7609 62.6347 63.2388 62.5206 62.7148 62.4143C63.2427 62.3389 63.7744 62.2731 64.3062 62.217C65.3176 62.1107 65.7043 60.5908 64.5634 60.3181C64.0703 60.2002 63.5753 60.0899 63.0802 59.9874C63.1866 59.9546 63.2929 59.9236 63.3974 59.8908C64.2869 59.62 64.3488 58.2684 63.3974 58.0266C63.0222 57.9319 62.6471 57.8449 62.27 57.7617C62.5852 57.6941 62.9023 57.6322 63.2195 57.5761C64.0529 57.4291 64.0703 56.528 63.6236 56.0214C63.9872 55.9363 64.3488 55.8473 64.7104 55.7545C65.4626 55.5612 65.7178 54.341 64.9405 53.9871C64.8535 53.9465 64.7664 53.9117 64.6794 53.8749C64.8264 53.3277 64.4686 52.6335 63.7667 52.5968L60.7656 52.4363C60.6592 52.2448 60.4639 52.1017 60.1622 52.0611C59.2747 51.9412 58.536 52.0379 57.7296 52.4324C56.813 52.8829 57.3293 54.1863 58.2169 54.2346L60.6805 54.3661C60.7114 54.4667 60.7578 54.5634 60.8178 54.6523C59.6517 54.8785 58.478 55.0642 57.2984 55.2092C56.0763 55.3581 56.0357 57.0385 57.2984 57.1429C57.3758 57.1487 57.4531 57.1565 57.5305 57.1623C56.6061 57.6032 56.7976 58.92 57.8747 59.0186C58.302 59.0573 58.7274 59.1076 59.1509 59.1637C58.9633 59.2217 58.7758 59.2778 58.5901 59.3358C57.5575 59.651 57.7702 60.9214 58.6501 61.1922C58.1164 61.3082 57.5846 61.4319 57.0548 61.5673C55.9158 61.8574 56.3006 63.3405 57.3119 63.4662C57.8476 63.5339 58.3832 63.6074 58.9189 63.6886C58.331 63.8297 57.7451 63.9786 57.163 64.1372C56.0492 64.4408 56.3838 65.9278 57.4202 66.0361C57.7838 66.0748 58.1454 66.1115 58.5089 66.1502C58.3136 66.7226 58.6655 67.529 59.4042 67.5096C59.6189 67.5038 59.8335 67.5019 60.0482 67.498C59.7272 67.6276 59.4062 67.7629 59.0871 67.9099C58.5167 68.171 58.5031 68.8961 58.8357 69.3409L58.7042 69.3525C57.5363 69.4549 57.4492 71.1489 58.5553 71.2746C58.0294 71.7677 58.4219 72.9066 59.2689 72.9627C59.2785 72.9627 59.2882 72.9627 59.2959 72.9647C58.8415 73.1967 58.7816 73.7362 58.9923 74.1694C58.0216 74.3125 57.8186 75.4495 58.4644 75.9078C58.1067 76.2423 58.1763 76.8882 58.5302 77.2788C58.4896 77.797 58.8705 78.41 59.4777 78.4603C59.6595 78.4758 59.8413 78.4912 60.023 78.5048C59.8529 78.9476 60.0443 79.5528 60.491 79.7984C60.0675 80.3611 60.2744 81.2971 61.2103 81.3261C61.2529 81.3261 61.2935 81.328 61.336 81.3299C60.4407 81.4073 59.5454 81.4866 58.6501 81.5639C57.8205 81.6374 57.5517 82.4051 57.8224 82.9543C57.3622 83.3313 57.3487 84.1203 57.7857 84.4858C57.7412 84.9479 57.9945 85.4198 58.5592 85.4932C58.3039 85.9129 58.3794 86.522 58.7893 86.8159C58.8899 87.1911 59.1877 87.514 59.6827 87.5411C60.0559 87.5604 60.4291 87.5817 60.8023 87.601C60.781 87.69 60.7714 87.7847 60.7752 87.8795C60.5297 87.8795 60.2821 87.8795 60.0366 87.8795C58.7932 87.8891 58.7893 89.8151 60.0366 89.8132C60.4774 89.8093 60.9164 89.8132 61.3554 89.8228C61.2451 90.0278 61.2103 90.2753 61.2529 90.5112C61.1871 90.517 61.1214 90.5209 61.0576 90.5267C60.286 90.5886 59.9921 91.2828 60.1816 91.8242C59.9302 92.2033 59.9631 92.7447 60.286 93.0676C60.2957 93.1914 60.3266 93.3132 60.3808 93.4254C59.5357 93.8063 59.6634 95.1734 60.7617 95.2624C60.8217 95.2682 60.8816 95.2701 60.9415 95.2759C61.0788 95.363 61.2509 95.4171 61.4578 95.4171H62.0534C61.9838 95.4693 61.9239 95.5351 61.8717 95.6066C61.6319 95.6414 61.4482 95.7516 61.3205 95.9044C61.0904 95.916 60.8623 95.9257 60.6321 95.9373C59.3888 96.0011 59.3849 97.8111 60.6321 97.871C60.9512 97.8865 61.2722 97.9019 61.5913 97.9174C61.5913 97.9329 61.5893 97.9483 61.5874 97.9658C60.8081 98.3583 60.9609 99.7428 62.0302 99.795C62.038 99.795 62.0438 99.795 62.0496 99.795C62.0612 99.9981 62.1288 100.205 62.2468 100.383C61.4985 100.741 61.5565 101.976 62.4247 102.187C61.9103 102.45 61.8523 103.154 62.1521 103.606C62.1211 103.612 62.0882 103.618 62.0573 103.624C61.2045 103.79 61.1929 104.854 61.7382 105.312C61.628 105.792 61.8369 106.345 62.3976 106.464C62.5233 106.492 62.649 106.519 62.7728 106.544C62.5929 106.567 62.415 106.592 62.2352 106.615C61.046 106.774 60.9493 108.572 62.2352 108.549C62.2797 108.549 62.3261 108.549 62.3706 108.549C62.1965 109.1 62.475 109.775 63.2504 109.787C63.3568 109.787 63.4631 109.794 63.5695 109.796C63.5598 109.997 63.6081 110.2 63.7029 110.374C63.4186 110.585 63.3026 110.931 63.3394 111.26C62.5388 111.687 62.9139 112.97 63.8518 113.06C64.0046 113.076 64.1593 113.089 64.312 113.105C64.283 113.111 64.254 113.118 64.2231 113.124C63.0783 113.385 63.4728 114.907 64.4802 115.023L64.693 115.048C64.693 115.1 64.693 115.155 64.7026 115.207C64.0568 115.462 63.8808 116.27 64.2366 116.734C63.9756 117.05 64.0007 117.556 64.2443 117.92C64.1844 118.129 64.2037 118.365 64.2888 118.583C64.2037 118.595 64.1186 118.608 64.0355 118.62C62.8617 118.79 63.3161 120.401 64.2927 120.519C64.3971 120.53 64.4996 120.544 64.604 120.556C64.2424 121.054 64.4126 121.876 65.1087 122.073C65.1861 122.095 65.2615 122.114 65.3388 122.133C65.3524 122.244 65.3833 122.348 65.4316 122.445C65.5341 122.81 65.8319 123.112 66.3231 123.114C66.3985 123.114 66.472 123.116 66.5455 123.118C65.9654 123.458 65.8648 124.282 66.3154 124.682C66.3386 124.773 66.3714 124.862 66.4178 124.943C66.2554 125.251 66.2438 125.649 66.4101 125.953C66.1278 126.252 66.0852 126.716 66.267 127.076C66.1955 127.167 66.1239 127.26 66.0582 127.358C65.975 127.48 65.9325 127.633 65.9267 127.791C65.6463 128.399 65.9112 129.261 66.7427 129.172C66.9806 129.147 67.2126 129.11 67.4408 129.068C67.4427 129.068 67.4466 129.068 67.4485 129.07C67.4195 129.097 67.3905 129.122 67.3634 129.149C66.4468 130.029 67.783 131.28 68.7306 130.516C69.2914 130.064 69.8753 129.603 70.5038 129.251C70.6585 129.226 70.8113 129.197 70.9679 129.161C71.2173 129.103 71.3933 128.975 71.5055 128.811C71.9057 128.685 72.3254 128.617 72.7721 128.633C74.0174 128.677 74.0154 126.743 72.7721 126.699V126.695Z" fill="#684836"/>
<path d="M62.0516 41.4683C61.8098 41.4644 61.5701 41.4606 61.3283 41.4567C61.3283 41.4548 61.3283 41.4528 61.3303 41.4509C61.7209 41.3871 62.1096 41.3194 62.4963 41.242C63.3916 41.0641 63.351 40.0141 62.7844 39.5616C62.8715 39.2909 62.8405 38.9873 62.6916 38.7437C62.6877 38.6818 62.6781 38.6199 62.6626 38.558C62.7806 38.1017 62.5911 37.5699 62.0109 37.3959C61.833 37.3417 61.6551 37.2934 61.4753 37.245C61.8156 36.7345 61.7518 35.9862 60.9745 35.8257C60.9203 35.8141 60.8662 35.8064 60.814 35.7948C60.8739 35.3906 60.7115 34.9439 60.3363 34.7544C60.7811 34.534 60.9184 33.9751 60.7598 33.5342C60.8294 33.3563 60.8507 33.1591 60.8236 32.9715C62.067 32.9638 62.069 31.032 60.8236 31.0378C58.9305 31.0475 56.9794 31.208 55.5542 32.5944C54.9761 33.1572 55.3454 33.9268 55.9197 34.1646C55.4808 34.5649 55.3938 35.3229 55.8791 35.6729C55.767 35.876 55.7496 36.1254 55.8114 36.3633C54.9703 36.6456 54.9277 37.7343 55.6703 38.1152C55.3918 38.6857 55.6529 39.5152 56.465 39.521C56.5714 39.6564 56.7183 39.7608 56.9079 39.8188L56.2929 40.0122C55.6993 40.1998 55.5059 40.8244 55.6722 41.3078C55.591 41.3368 55.5098 41.3658 55.4305 41.3967C54.4501 41.77 54.5371 43.2783 55.6877 43.2957C55.9197 43.2995 56.1518 43.3034 56.3838 43.3073C56.3974 43.4426 56.4341 43.578 56.496 43.7037C55.4286 43.9493 55.4537 45.5388 56.6545 45.6084C58.0197 45.6877 59.3695 45.56 60.6883 45.2371C61.0325 45.2062 61.3767 45.1733 61.7209 45.1424C62.6994 45.0515 62.9063 43.8062 62.3203 43.3614C63.4052 43.1487 63.1112 41.4818 62.0535 41.4644L62.0516 41.4683Z" fill="#684836"/>
<path d="M61.5372 25.2714C61.4463 25.2656 61.3554 25.2598 61.2645 25.254C61.5236 24.7358 61.396 24.0281 60.6979 23.9062C59.0021 23.6104 57.3526 23.7051 55.7263 24.2891C55.5948 24.3355 55.4827 24.409 55.386 24.4979C54.8832 24.4863 54.3824 24.4805 53.8796 24.4805C52.8296 24.4805 52.5144 26.2228 53.6224 26.3795C53.6224 26.3795 53.6244 26.3795 53.6263 26.3795C53.6263 26.4181 53.6282 26.4549 53.6321 26.4935C53.3788 27.0543 53.8506 27.8897 54.5352 27.9013C55.299 27.9148 56.0551 27.8684 56.8053 27.7679C57.4647 27.7659 58.1222 27.7621 58.7816 27.7601C59.0311 27.7601 59.2302 27.6809 59.3811 27.5571C60.1894 27.4604 60.9938 27.3328 61.7963 27.1723C62.9178 26.948 62.5736 25.3391 61.5391 25.2734L61.5372 25.2714Z" fill="#684836"/>
<path d="M76.6126 39.5694C76.922 39.289 77.0593 38.8075 76.8446 38.3531C74.3578 33.0895 69.7266 27.7467 63.4033 28.1817C63.4323 27.677 63.1248 27.1549 62.4732 27.1685C60.6071 27.2013 58.7488 27.3174 56.8925 27.5165C56.7629 27.5301 56.6449 27.5707 56.5367 27.6306C55.3358 27.7312 54.1466 27.9013 52.9709 28.1489C52.5029 27.8375 51.8164 27.882 51.5979 28.4757C51.2151 28.5762 50.8322 28.6806 50.4532 28.7986C49.7512 29.0152 49.6062 29.9182 49.9794 30.3997C49.3935 30.6086 48.8327 30.9682 48.3609 31.3221C46.9937 32.347 45.8393 33.5575 44.8222 34.9266C44.5437 35.3017 44.6056 35.671 44.8299 35.934C43.8186 36.9628 43.1263 38.4517 42.6583 39.6642C42.3354 40.4996 41.821 41.6946 42.5597 42.4545C43.2385 43.1526 44.213 42.8606 44.9962 42.53C46.52 41.888 47.8349 40.8766 48.8656 39.6332C49.5559 39.144 50.1883 38.5697 50.7297 37.9296C51.5438 36.9666 52.7408 35.1122 53.0328 33.4144C53.2184 33.3622 53.3731 33.2655 53.5104 33.1437C53.5626 33.1379 53.6167 33.1301 53.6728 33.1147C55.9797 32.5017 58.3254 32.0995 60.7096 31.9583C62.2933 31.8655 63.9467 31.8268 65.4898 32.2232C65.5033 32.2503 65.5149 32.2793 65.5323 32.3064C66.8859 34.4489 69.1465 35.4873 71.4341 36.3479C72.0587 36.9608 72.6832 37.5719 73.3465 38.1365C73.3678 38.1926 73.3891 38.2487 73.4103 38.3067C73.2421 38.7379 73.3156 39.26 73.799 39.4843C73.8029 39.4863 73.8067 39.4882 73.8125 39.4902C74.1142 40.2926 74.5415 40.9772 75.5993 41.1454C76.4559 41.2808 77.0651 40.5247 76.6918 39.7241C76.6667 39.6719 76.6377 39.6216 76.6106 39.5694H76.6126ZM48.6374 36.4117C48.6451 36.284 48.649 36.1545 48.649 36.0269C48.7534 35.8644 48.8636 35.6962 48.9797 35.5318C48.8811 35.8315 48.767 36.1255 48.6374 36.4117ZM50.2733 32.3431C50.3101 32.3257 50.3488 32.3083 50.3855 32.2948C50.8593 32.1169 50.9637 32.0898 51.1029 32.5346C51.1203 32.5868 51.128 32.6448 51.1338 32.7067C50.9347 32.4649 50.604 32.3392 50.2733 32.345V32.3431Z" fill="#77767A"/>
<path d="M63.8114 35.6768C63.6819 35.6478 63.5523 35.6169 63.4227 35.5879C64.4612 35.4061 64.3587 33.7682 63.21 33.6715L61.5954 33.5342C61.6534 33.511 61.7133 33.4936 61.7713 33.4685C62.423 33.1958 62.8678 32.0704 62.0015 31.7011C61.9222 31.6663 61.841 31.6373 61.7617 31.6083C61.6186 31.3569 61.3517 31.1867 60.9592 31.2196C60.76 31.237 60.5628 31.2582 60.3655 31.2815C59.2227 31.1693 58.0857 31.4342 57.1149 32.082C57.0608 32.1033 57.0086 32.1207 56.9544 32.142C56.6876 32.2483 56.5136 32.434 56.413 32.6467C56.3801 32.6776 56.3453 32.7066 56.3144 32.7395C56.2506 32.8033 56.2003 32.871 56.1597 32.9387C56.1461 32.9387 56.1345 32.9387 56.121 32.9387C55.8445 32.958 55.5699 32.9773 55.2934 32.9986C54.0461 33.0875 54.0539 34.8279 55.2934 34.9323C55.8986 34.9845 56.502 35.0348 57.1072 35.087C56.9892 35.5821 57.2097 36.1506 57.7666 36.2763L58.9713 36.5508C58.8534 36.605 58.7373 36.663 58.6233 36.7346C57.8807 37.1967 58.0818 38.2196 58.8534 38.502L59.6675 38.7998C59.0931 38.9042 58.5169 39.0086 57.9426 39.113C57.113 39.2639 57.0917 40.2346 57.5655 40.7335C57.3973 40.807 57.231 40.8901 57.0666 40.9926C56.5658 41.3059 56.3917 42.0813 56.8713 42.5106C57.0782 42.6962 57.289 42.8722 57.5036 43.0462C57.1923 43.1719 56.879 43.2976 56.5677 43.4233C55.6859 43.7791 55.6202 44.9529 56.5677 45.2874C57.6506 45.6703 58.7335 46.0551 59.8144 46.438C60.9901 46.8537 61.4948 44.9857 60.3288 44.5739L59.5418 44.2954C59.6075 44.2683 59.6713 44.2432 59.7371 44.2161C60.497 43.9106 60.7175 42.9263 59.9672 42.4487C59.828 42.3617 59.6926 42.2708 59.5592 42.178C60.5802 42.0562 61.6882 42.1702 62.6551 41.9227C63.6973 41.6578 63.4653 40.3777 62.6299 40.0799C63.007 39.873 63.2932 39.5617 63.4556 39.0724C63.6297 38.5484 63.2506 38.0553 62.7808 37.8832L62.7169 37.86C63.1694 37.7768 63.6026 37.6473 64.0415 37.4404C64.7938 37.0865 64.5868 35.8508 63.8114 35.6729V35.6768Z" fill="#6F4631"/>
<path opacity="0.65" d="M52.646 30.4848C52.561 30.4461 52.5204 30.3707 52.5107 30.3339C52.3637 29.8679 54.922 28.5723 57.3527 28.0579C61.4638 27.1878 65.1534 28.5704 66.9556 29.2472C69.5371 30.214 71.1421 31.4187 71.0435 31.5715C71.0164 31.6121 70.7708 31.7204 70.7708 31.7223C66.1106 29.2317 64.0937 28.7231 64.0937 28.7231C63.0185 28.4524 60.3133 27.7679 57.6428 28.4602C55.8174 28.9339 54.9046 29.1698 54.1002 29.7731C53.7889 30.0052 53.0057 30.653 52.646 30.4848Z" fill="white"/>
<path d="M70.8913 39.1351L61.3528 38.55L60.528 51.997L70.0665 52.5821L70.8913 39.1351Z" fill="black"/>
<path d="M68.6378 48.1279H58.2267V54.6736H68.6378V48.1279Z" fill="black"/>
<path d="M57.9597 40.7974H54.7826V47.8748H57.9597V40.7974Z" fill="black"/>
<path opacity="0.65" d="M71.5056 32.0917C71.3953 32.1748 71.61 32.6544 71.8092 32.9483C71.9542 33.1649 72.2442 33.5111 72.3641 33.453C72.4686 33.4008 72.4241 33.0547 72.3139 32.7975C72.1128 32.3315 71.6216 32.0047 71.5075 32.0917H71.5056Z" fill="white"/>
<path d="M51.5033 32.0608C51.2558 31.6199 50.6138 31.4343 50.1806 31.7147C50.1593 31.7282 50.1439 31.7437 50.1245 31.7591C49.9698 31.6953 49.8016 31.6605 49.6353 31.6644C49.119 31.6741 48.8077 32.0067 48.624 32.4514C48.535 32.6661 48.5737 32.9116 48.6839 33.1244C48.6549 33.192 48.6317 33.2674 48.6182 33.3525C48.3764 34.7467 47.4502 35.7678 46.5162 36.7714C45.6441 37.7073 46.9261 38.8868 47.8833 38.1385C48.5756 37.599 49.1867 36.9937 49.7339 36.3092C49.9524 36.0346 49.9988 35.7271 49.935 35.4506C50.0665 35.1954 50.1806 34.9304 50.2754 34.6578C50.3875 34.7081 50.5113 34.7371 50.6524 34.7371C50.9966 34.7371 51.3118 34.5514 51.4878 34.2575C51.8919 33.5826 51.8881 32.7453 51.5052 32.0627L51.5033 32.0608Z" fill="#75777A"/>
<path d="M64.3723 26.2983C64.2369 26.217 64.0725 26.1687 63.8753 26.1687C63.6162 26.1687 63.4112 26.2538 63.2604 26.3872C63.0109 26.567 62.8852 26.8687 62.8814 27.1704C62.8504 27.6751 63.1618 28.203 63.8134 28.203C63.8656 28.203 63.9159 28.1991 63.9623 28.1914C63.9991 28.1972 64.0358 28.201 64.0764 28.201C64.148 28.2165 64.2234 28.2262 64.3046 28.2262C65.5248 28.2262 65.5499 26.3659 64.3723 26.2963V26.2983Z" fill="#75777A"/>
<path d="M61.6241 25.4745C61.4984 25.3952 61.3495 25.3411 61.1735 25.3256C60.8139 25.2927 60.4581 25.2831 60.1023 25.2927C59.9418 25.2734 59.7793 25.2657 59.6208 25.285C59.5453 25.2947 59.4719 25.3101 59.4003 25.3314C59.2572 25.343 59.1141 25.3585 58.971 25.374C58.4857 25.3817 58.0061 25.4165 57.542 25.5093C57.426 25.5325 57.3274 25.5712 57.2403 25.6195C57.2229 25.6195 57.2055 25.6157 57.1881 25.6157C56.6428 25.6157 56.1169 25.6698 55.6431 25.8787C55.5445 25.8439 55.4342 25.8245 55.3124 25.8245C54.3224 25.8245 54.1193 27.0486 54.7052 27.5475C54.7748 27.6306 54.8599 27.7002 54.9624 27.7524C55.1132 27.8781 55.3124 27.9593 55.5638 27.9593C55.6721 27.9593 55.7688 27.9419 55.8577 27.9149C55.8713 27.9129 55.8848 27.9071 55.8983 27.9033C55.9061 27.9013 55.9138 27.8994 55.9215 27.8955C55.9699 27.882 56.0182 27.8646 56.0666 27.8453C57.2365 27.7002 58.3484 27.4044 59.4989 27.2806C59.847 27.2903 60.1951 27.3096 60.5373 27.327C60.7965 27.356 61.0536 27.3638 61.3186 27.356C61.8407 27.3425 62.2854 26.9209 62.2854 26.3892C62.2854 25.9792 62.0031 25.5983 61.6222 25.4687L61.6241 25.4745Z" fill="#6E4730"/>
<path d="M60.6767 30.941C59.4913 31.0319 58.3987 31.1537 57.3101 31.6023C56.1614 31.699 56.1904 33.5322 57.4048 33.5322C57.515 33.5322 57.6175 33.5167 57.7084 33.4877C57.7993 33.4723 57.8921 33.4452 57.9869 33.4007C58.8435 32.9966 59.7466 32.9463 60.6767 32.8767C61.9104 32.7819 61.9201 30.8482 60.6767 30.9429V30.941Z" fill="#6E4730"/>
</g>
<path d="M14.8977 34.7931C11.2487 40.1341 5.52491 44.4501 4.38208 51.2124C6.65227 46.1189 11.9681 39.2194 16.4408 36.0481C15.1742 34.973 15.8026 34.4431 14.8977 34.7931ZM14.8977 34.7931C15.412 33.7953 15.9264 32.7975 16.4408 31.7997C17.0866 30.7381 18.6278 29.8447 18.3706 28.5163C18.2855 28.0734 15.5571 25.3372 16.056 20.0176C10.6029 18.37 15.8935 14.3962 18.1792 12.2904C17.922 10.5829 18.3552 8.60473 19.1441 7.07515C19.0861 4.94226 17.9085 -0.214981 20.0124 1.76322C20.4745 0.593315 21.2248 2.40521 21.7488 2.34333C22.0892 2.30273 22.329 0.235577 28.1166 2.14996C33.3357 -2.19125 34.4012 6.92626 36.3175 10.1672C35.486 14.549 41.1808 15.9007 39.9838 18.4725C39.104 20.3618 36.1435 19.4935 35.9327 19.8242C35.8031 20.9825 35.6755 22.1427 35.546 23.301C36.8899 26.6251 38.5239 33.0102 32.7479 29.9646C31.5045 32.637 32.0498 34.0467 28.7915 34.6964C31.1951 37.9934 30.936 43.0579 32.2644 44.7402C33.036 45.3841 33.8075 46.0281 34.5791 46.672C35.8534 48.2383 36.1415 51.4386 39.307 50.0521C39.4037 50.1488 39.5004 50.2455 39.5971 50.3422C38.9454 50.8566 40.0419 52.2817 40.272 52.3707C45.5781 51.0499 50.8842 49.7311 56.1904 48.4104C55.268 43.9899 57.2771 44.4095 57.3487 44.1601C57.0915 43.7733 56.8343 43.3866 56.5771 43.0018C56.0627 40.6639 57.8128 41.0545 57.9269 40.8766C57.573 37.8832 57.2191 34.8879 56.8652 31.8945C51.6191 33.3428 47.332 38.181 45.0947 42.9051C43.8648 37.4017 50.2306 29.4116 55.5136 27.8375C56.5578 23.9546 60.2435 23.4267 61.3012 27.2574C69.7438 28.9127 73.9342 30.8097 75.6765 39.7164C75.2337 40.3681 73.8859 37.6376 71.7201 35.9495C69.2121 33.9945 63.9407 31.4768 60.7211 31.121C60.2319 34.3793 60.8448 37.626 61.2026 40.8766C64.4938 38.9429 64.399 41.4219 64.5789 41.5534C64.9965 41.6501 65.4142 41.7468 65.8338 41.8435C65.9943 42.3269 66.1548 42.8084 66.3153 43.2918C66.7601 43.5722 68.0325 42.3656 67.377 45.5137C70.5734 46.0822 68.398 48.3891 68.3419 48.6038C67.609 51.3999 67.9319 53.4826 62.4576 55.074C63.0048 61.6738 63.5501 68.2736 64.0974 74.8734C65.5438 82.8229 66.3269 90.9388 67.1836 99.0198V102.883C67.7618 106.94 68.3419 110.995 68.9201 115.052C69.2411 119.109 69.564 123.164 69.885 127.221C70.0146 127.415 70.1422 127.608 70.2717 127.801C67.3944 130.947 67.9687 128.051 66.9922 125.289C65.0449 112.078 63.699 98.8226 62.7476 85.4973C61.6087 79.5801 61.073 73.5507 60.6244 67.533C59.3385 63.4992 59.383 59.1542 58.6945 54.9773C50.7179 57.4274 47.2585 64.6092 37.6634 67.3396C38.9087 69.5769 41.0029 72.8179 39.0131 75.0668C38.8333 77.045 40.1985 79.7096 38.4349 80.6688C37.9689 85.9904 40.5388 82.4343 41.8112 87.3324C45.3364 87.3498 48.4594 86.8122 50.5903 90.1324C50.89 94.0559 50.7682 98.0587 49.2406 101.723C49.2174 106.637 47.6356 111.398 47.1174 116.211C46.9878 116.34 46.8602 116.468 46.7306 116.597C47.245 118.659 47.7593 120.718 48.2737 122.779C48.5831 125.197 47.6897 131.015 50.1069 130.797C51.7215 130.65 52.5975 124.605 58.2111 125.775C60.139 126.177 59.8702 129.124 60.3343 129.252C60.7075 129.354 61.1987 128.343 61.2026 129.928C61.2084 131.887 59.7639 131.197 59.6595 131.667C59.6208 131.839 61.3109 133.755 58.6945 133.985C58.2247 136.236 57.6735 134.542 56.8614 134.856C56.1536 135.563 55.4459 136.273 54.7381 136.981C52.8006 138.158 49.0259 138.135 49.8188 141.328C43.7411 146.116 45.3132 143.59 44.3193 142.969C44.1916 142.89 43.0546 143.041 41.6178 141.811C37.8413 138.576 41.4477 134.73 39.3999 130.704C40.009 126.183 36.5747 117.968 39.0131 117.955C38.433 113.631 39.8833 109.381 39.3999 105.012C39.5758 103.191 41.7667 96.6858 40.2681 97.1886C39.9626 97.291 39.6609 100.01 36.5051 102.307C35.31 104.976 34.6255 109.545 31.2956 109.841C30.8277 115.28 26.7746 123.058 26.2796 128.192C26.2157 132.442 26.15 136.691 26.0862 140.941C26.2157 141.198 26.3434 141.455 26.4729 141.714C24.634 144.279 21.8339 147.73 24.8331 150.31C25.7265 147.502 28.3834 146.307 31.0075 147.798C33.7669 149.366 31.6901 152.539 31.8757 153.11C31.9744 153.415 32.8484 153.415 32.6473 154.075C32.5216 154.487 26.1635 157.855 25.6047 159C25.3475 158.87 25.0903 158.743 24.8331 158.613C19.6082 158.766 22.0505 158.068 20.1052 155.233C19.1074 154.429 18.1115 153.624 17.1137 152.818C16.1875 152.692 15.8336 154.34 15.5706 154.363C14.0584 153.365 12.5482 152.367 11.036 151.37C11.9023 147.85 8.78903 142.937 15.0872 142.871C15.8587 141.003 16.6303 139.137 17.4018 137.269C17.2858 129.845 17.6977 122.308 19.5251 115.054C20.1032 113.252 20.6834 111.448 21.2615 109.646C15.1432 108.077 18.3958 103.974 16.5336 102.402C15.5996 101.613 9.6186 101.019 7.36775 96.3164C4.40142 90.1169 6.39702 82.4362 4.37628 83.4707C3.39395 83.9735 3.3166 86.3732 2.92986 80.8621C5.02601 80.866 2.57212 77.6193 2.1583 76.0336C1.77155 73.2007 1.38674 70.3678 1 67.5349C1.38674 63.8009 1.77155 60.0669 2.1583 56.3309C3.70914 51.4986 5.1285 46.5869 8.1393 42.4236C10.3902 39.8808 12.641 37.3379 14.8919 34.7931H14.8977ZM19.2389 1.76128C18.3803 2.03587 20.0375 3.88838 19.9137 4.1765L19.0455 3.88644C18.1463 4.38921 20.2579 5.78923 20.3005 5.91492C20.4842 6.46796 18.3977 6.16437 20.6872 7.07322C20.5867 8.00334 22.8936 10.5462 23.4853 9.29507C23.6632 10.1691 24.077 10.3006 23.9668 9.58512C22.8085 7.7829 21.6522 5.97873 20.4939 4.1765C20.4262 4.05081 19.9911 1.5215 19.2389 1.76128ZM20.3952 1.76128C20.5577 4.81463 22.5107 5.93812 23 6.68647C23.4563 7.38455 24.4077 10.8614 25.6047 10.0666C25.3146 8.4887 25.0265 6.91079 24.7364 5.3348C23.9223 4.81076 23.9881 6.19918 23.6748 6.20498C23.1237 6.21465 23.6478 2.22731 22.7099 5.43149C22.1781 5.41215 22.5533 3.58865 22.4198 3.20964C21.8842 1.68393 21.9635 4.45883 21.745 4.46463C21.1881 3.88258 21.7546 2.29886 20.3952 1.76128ZM23.8701 14.8971C22.8047 15.1465 24.3226 15.8852 24.3516 15.9587C24.3729 16.0128 23.9958 17.0203 24.4483 17.0203C24.6166 17.0203 24.6668 15.541 25.4132 17.6004C25.976 16.1424 27.1691 17.9659 27.2464 18.2772C27.5887 19.654 26.3782 21.8295 26.1848 21.8507C26.0881 21.8604 25.7613 21.0811 25.0265 21.2706C23.1585 25.024 24.9395 20.1278 23.29 19.7256C22.9033 19.7894 22.5185 19.8551 22.1317 19.9189C20.0394 21.1913 23.203 25.3701 21.8417 24.2659C21.7218 24.1693 21.2654 22.135 20.3952 22.2375C19.9447 22.8814 19.4941 23.5253 19.0455 24.1693C18.8657 24.1693 18.0632 21.58 18.1773 24.8461C15.7388 23.8831 19.148 28.7135 19.1422 29.0964C19.1364 29.5276 17.2317 29.6997 19.1422 32.5732C21.4259 34.6655 23.7077 36.7578 25.9914 38.8501C26.2157 37.4655 26.442 36.081 26.6663 34.6964C25.9586 33.8591 25.2508 33.0218 24.5431 32.1845C25.8928 32.2019 25.8599 34.6771 29.0777 34.213C30.586 33.9964 31.1796 33.1166 31.6824 31.7978C31.6669 31.239 29.0448 30.7768 27.726 27.8375C26.6102 30.0072 27.2522 26.8958 27.8227 26.5825C28.8475 26.0179 27.2406 27.4489 29.5591 29.6726C32.5409 32.5345 32.1967 29.2511 32.7421 29.1892C37.1741 32.6409 37.1799 27.6016 34.96 23.2972C35.6581 20.5281 35.2385 19.0024 34.7667 16.3435C34.3625 15.628 27.2986 15.7672 26.1809 15.6667C25.4094 15.4095 24.6378 15.1523 23.8663 14.8932L23.8701 14.8971ZM17.6958 30.7362C13.9772 35.555 16.58 34.8163 17.5991 37.2064C18.0728 38.3164 18.9527 43.7231 20.4939 46.2852H20.8806C25.0033 36.1815 28.0199 46.6217 28.6948 46.1886C27.9522 42.0233 25.3224 38.7147 22.327 35.7581C20.9019 34.3503 19.3936 34.3271 17.6958 30.7362ZM27.5345 34.5998C27.374 34.6964 27.2135 34.7931 27.053 34.8898C27.2135 37.1832 25.2353 40.0122 27.6312 41.2634C27.6718 40.6929 28.0547 36.2589 28.8862 36.7249C28.6619 37.7227 28.4357 38.7205 28.2113 39.7183C30.1103 40.8186 31.1235 43.609 30.9128 41.4567C30.8006 40.3081 29.0951 34.2072 27.5365 34.5998H27.5345ZM17.1156 38.0766C4.92739 49.0273 1.36354 60.0514 3.12709 76.4204C4.71855 78.7176 7.77576 81.7226 10.5565 82.3124C14.8377 83.2213 11.2855 80.7829 11.2313 79.8972C11.1424 78.4585 12.7744 81.9702 14.0294 82.8906C15.0292 83.6235 18.8753 85.0506 20.0104 84.8224C21.5864 83.4379 23.1624 82.0533 24.7384 80.6688C25.6395 77.1281 26.5387 73.5855 27.4398 70.0449C27.3663 69.6872 23.4312 66.8291 27.6332 67.7264C27.2986 65.168 29.2091 63.2247 29.1763 60.7727C30.3984 60.2583 31.6205 59.742 32.8426 59.2276C29.6578 53.382 29.7603 57.35 28.4047 58.6475C28.2113 58.7113 28.018 58.7771 27.8265 58.8409C31.547 52.303 28.2655 57.1934 25.9934 59.131C23.9668 60.5793 21.9422 62.0277 19.9157 63.478C18.5814 65.5664 21.2809 66.5449 22.327 66.278C23.0464 66.0943 25.0768 61.1865 25.3185 62.7045C25.3784 63.0874 22.3502 66.8929 23.292 67.2429C25.9276 68.2233 26.6721 63.4528 27.3431 63.7661C27.0318 65.9976 24.0848 69.749 22.5185 66.6628C20.7162 66.8214 18.6549 65.9609 19.1422 63.8628C19.38 62.834 25.9218 58.7578 27.3431 57.3925C29.5108 55.3099 28.4357 53.6102 32.0711 56.9091C33.8733 60.9525 33.707 58.1757 32.2644 56.1356C30.3133 53.3801 28.3022 54.7182 27.6332 53.8171C27.1536 52.7632 22.8337 44.9606 22.327 44.835C21.4008 44.6048 21.2287 47.8728 20.4939 47.2502C19.6585 45.125 18.8212 42.9999 17.9858 40.8766C17.775 40.2404 17.7963 38.0495 17.1176 38.0766H17.1156ZM63.2311 40.5885C61.2509 40.4686 60.2183 44.8059 60.9164 45.0322C61.2045 45.125 65.478 40.7258 63.2311 40.5885ZM57.2501 41.3601C56.0163 41.7333 57.8108 44.164 57.7316 44.3535C54.4075 45.7109 57.6059 49.4952 57.7316 49.9555C58.4161 52.4422 55.6741 51.9375 53.7752 52.564C49.8961 53.8422 46.0441 55.2461 42.0046 56.0409C36.3407 59.1909 30.1915 58.2492 31.5857 63.9614C30.4757 62.31 32.4172 59.1638 30.236 60.4846C29.4779 60.9429 29.768 62.3313 29.5611 62.8998C29.1743 63.7371 28.7895 64.5744 28.4028 65.4117C27.403 71.1278 33.444 69.4126 36.217 67.0534C45.6303 65.3962 50.2519 57.4448 57.8263 54.6911C57.8901 54.5616 57.9559 54.434 58.0197 54.3044C64.0587 56.2284 60.2048 53.5077 60.0462 52.4693C60.1429 51.7287 60.2396 50.9881 60.3363 50.2474C61.046 49.735 60.4697 51.7867 60.6263 52.4693C61.2374 53.2099 61.8484 53.9505 62.4595 54.6911C63.3471 54.8613 68.3322 52.2256 67.7656 48.9925C62.3048 51.0577 63.8885 49.8781 63.0377 49.0891C62.9294 48.9886 60.8584 48.8416 62.1694 47.0607C61.102 47.0181 60.6109 45.1018 60.3363 45.0322C59.586 44.8427 61.0866 47.6543 58.1183 44.7421C58.3368 43.957 58.4103 41.01 57.2501 41.362V41.3601ZM64.5808 41.9402C63.9137 42.0852 59.4042 47.5383 62.6509 46.3839C63.6487 45.4499 64.6446 44.5159 65.6424 43.5838C65.9247 42.7987 65.4181 41.7603 64.5808 41.9421V41.9402ZM30.6227 42.7117C30.058 43.0675 31.4813 45.0477 31.6843 45.5118C32.4559 47.3797 33.2274 49.2458 33.999 51.1138C35.2907 54.7859 34.9484 59.1039 37.5686 57.584C38.7192 56.9169 40.2294 50.5472 39.015 52.0787C38.5123 52.7149 37.5957 56.5959 37.0852 55.7489C36.77 55.2248 41.0184 48.9731 37.3753 50.8237C36.8609 51.661 36.3465 52.4983 35.8321 53.3356C35.2617 52.9875 36.8454 51.1969 36.7004 50.5356C36.623 50.1817 33.1404 45.1366 32.0691 45.1269C31.7617 44.1369 31.3846 43.4098 30.6227 42.7117ZM66.8974 43.6786C65.799 43.7927 62.1694 47.1245 62.1694 47.8322C62.1694 48.2808 62.9468 48.888 63.6159 48.509C63.8847 48.3563 68.2471 44.5256 66.8955 43.6805L66.8974 43.6786ZM67.2822 45.9971C65.7526 46.1654 60.5529 52.129 66.8955 48.7005C69.8637 47.0974 68.3651 45.8772 67.2822 45.9971ZM29.271 47.7355C29.3039 48.219 29.3348 48.7005 29.3677 49.1839C29.3252 49.3173 26.7456 50.4582 29.4644 50.0541C29.534 52.8077 30.3075 50.2997 30.4293 50.2474C30.4931 50.2204 31.518 50.8121 31.6843 50.1508C31.8003 49.6905 30.4603 50.0579 31.0094 48.1223C29.9169 48.6192 29.6926 47.4281 29.273 47.7355H29.271ZM55.8984 48.7005C50.6889 50.0521 45.4795 51.4038 40.27 52.7574C39.7151 53.0861 38.1913 57.116 39.1117 57.0077C40.1405 56.5572 41.1692 56.1066 42.198 55.6561C47.0864 54.3044 51.9749 52.9527 56.8614 51.5991C58.1744 51.1563 56.9987 48.6405 55.8965 48.7024L55.8984 48.7005ZM37.3753 67.6297C36.5728 69.3449 38.5258 72.1855 38.9184 74.39C40.328 72.0018 38.404 69.78 37.3753 67.6297ZM35.0606 68.4032C31.0268 69.749 34.3799 72.9745 33.5175 78.2535C34.9368 78.064 35.8902 77.1223 37.0871 76.4184C37.0311 75.3974 35.4725 68.4631 35.0606 68.4012V68.4032ZM32.3592 69.5615C30.992 69.5634 30.0252 70.1493 28.7895 70.6231C29.3039 73.8176 29.4683 76.9676 29.4644 80.1853C35.6968 80.4329 32.0865 73.1543 32.8407 69.6581C32.6802 69.6253 32.5197 69.5943 32.3592 69.5615ZM37.1819 76.9019C35.6291 78.2071 33.9468 78.4875 33.3222 78.8337C32.9354 79.2842 32.5506 79.7348 32.1639 80.1853C31.4445 80.5721 28.7528 80.5044 28.981 81.2469C31.578 83.1826 34.6178 83.5094 37.7601 83.8555C38.0076 82.8964 38.054 77.074 37.1819 76.9019ZM4.76689 79.027C5.24839 80.9917 5.73182 82.9544 6.21332 84.9191C5.48237 88.8794 6.63487 92.6656 7.9498 96.3164C11.1288 102.118 24.1351 103.786 30.3326 103.657C29.6655 101.849 29.0351 99.946 29.271 97.9582C27.2193 98.1573 17.8853 96.5949 16.7289 96.2198C12.4496 94.8275 10.3031 86.6942 10.2645 82.6025C6.43569 81.4326 5.08789 78.9091 4.76496 79.029L4.76689 79.027ZM24.4483 81.5389C23.0986 82.763 21.7469 83.9851 20.3972 85.2091C18.2295 85.855 13.8186 83.0743 13.4512 83.084C12.1402 83.1188 15.2457 86.9959 15.7659 87.5277C20.1593 92.0004 24.1699 91.9346 30.0445 91.5846C31.3227 88.7343 33.8269 86.5163 35.544 84.1475C35.4241 83.8188 30.1702 83.2677 29.0796 81.7323C28.9055 83.1401 27.5403 84.6252 26.1848 84.8224C22.9671 85.2942 25.6047 81.4887 24.4483 81.5389ZM26.3782 81.9237C24.8873 82.1287 23.8141 85.0544 26.5715 84.2423C28.4492 83.6892 28.5149 81.6298 26.3782 81.9237ZM36.6037 86.1741C34.7589 88.6937 32.7285 91.1341 31.8757 94.1913C33.2874 95.1021 36.1996 95.9703 37.9534 96.4131C38.1294 96.4576 41.0764 96.4209 41.3297 97.2833C40.7515 100.18 40.1714 103.079 39.5932 105.975C40.4093 108.335 38.5819 116.452 39.2065 117.566C39.4308 117.533 39.657 117.502 39.8814 117.469C40.2391 117.661 39.6551 118.398 41.0397 117.469C42.8071 118.386 46.4038 117.976 46.924 115.248C48.3472 109.717 48.1906 103.825 50.0102 98.4416C52.1547 85.3058 46.3168 88.4211 41.8093 87.7211C40.0728 87.2067 38.3363 86.6904 36.5998 86.176L36.6037 86.1741ZM17.8466 91.8805C17.7596 92.0951 17.6745 92.3117 17.5875 92.5264C15.6886 92.1783 17.222 93.0272 17.2645 93.1084L17.4579 94.0772C17.5875 93.9051 17.717 93.733 17.8447 93.5609C17.9471 93.5686 18.477 94.8004 18.361 93.3018C20.1864 94.0521 18.3745 93.1161 18.6839 92.333C17.5604 92.9092 18.4209 91.7142 17.8447 91.8805H17.8466ZM17.1156 102.593C17.3864 105.616 19.7571 103.405 18.6588 102.98C18.1444 102.85 17.63 102.723 17.1156 102.593ZM35.8321 102.593C29.5495 106.059 26.1055 102.272 34.6738 106.07C34.8634 105.186 36.4664 102.557 35.8321 102.593ZM22.1337 105.683C22.7389 109.292 21.3582 109.992 20.6872 112.347C19.0339 118.148 17.5759 124.874 17.9858 130.891C19.6121 133.165 19.1074 131.959 19.6256 132.146C19.7552 132.34 19.8828 132.533 20.0124 132.727C20.1883 132.794 20.8168 132.001 21.3621 133.307C21.8765 133.243 22.3908 133.177 22.9052 133.113C23.8701 133.37 24.8351 133.628 25.8 133.887C25.8329 132.245 25.8638 130.603 25.8967 128.962C26.4343 123.238 29.3271 117.475 30.3346 113.509C30.9108 111.237 31.3517 108.017 29.8531 106.265C27.2812 106.072 24.7074 105.879 22.1356 105.685L22.1337 105.683ZM46.4444 117.274C46.2917 117.87 46.5894 119.742 45.9629 118.722C45.4872 117.951 45.7908 116.139 45.288 119.399C44.8394 119.407 44.8858 116.537 44.1297 119.206C43.8726 118.885 43.6154 118.562 43.3582 118.241C42.1341 121.772 43.0043 116.238 41.4283 119.399C40.4267 115.534 41.4844 122.36 39.8852 118.241C39.628 118.628 39.3709 119.014 39.1137 119.399C38.957 119.409 38.1159 116.756 38.4388 120.461C38.6322 121.362 38.8255 122.263 39.017 123.164C41.5212 122.176 44.6306 121.043 47.2179 120.942C47.3881 120.857 46.8737 117.626 46.4463 117.272L46.4444 117.274ZM46.0577 121.523C44.7079 121.844 43.3563 122.166 42.0065 122.487C38.3866 123.634 39.0402 124.046 39.8833 127.703C41.204 127.592 47.593 125.305 47.8908 124.323C48.1674 123.408 47.9353 121.372 46.0577 121.523ZM18.0806 131.568C17.951 132.856 17.8234 134.144 17.6938 135.432C20.2773 136.648 23.0444 137.646 25.8947 137.847C26.0823 135.996 25.5621 132.168 24.4483 135.625C23.7367 135.631 24.6224 133.39 23.7734 133.79C23.7328 136.118 23.6304 135.498 23.0986 133.693C22.5359 133.657 22.2284 137.141 21.9403 133.693C21.6193 134.08 21.2964 134.467 20.9754 134.852C20.5151 130.108 20.2792 136.816 19.4322 132.727C18.1927 135.024 18.653 132.498 18.0825 131.568H18.0806ZM17.6958 135.817C16.5549 138.591 23.64 141.96 25.2199 141.419C25.9141 141.181 25.8387 138.404 25.6066 138.329C23.1527 138.166 19.73 137.201 17.6958 135.817Z" stroke="black" stroke-width="1.34" stroke-miterlimit="10"/>
<path d="M19.2389 1.76133C19.9911 1.51961 20.4243 4.04892 20.4939 4.17655C21.6522 5.97878 22.8086 7.78294 23.9669 9.58517C24.0771 10.3006 23.6614 10.1692 23.4854 9.29511C22.8937 10.5462 20.5867 8.00532 20.6873 7.07326C18.3978 6.16441 20.4862 6.46801 20.3005 5.91496C20.258 5.78927 18.1464 4.38926 19.0456 3.88649L19.9138 4.17655C20.0376 3.88842 18.3804 2.03785 19.2389 1.76133Z" fill="white"/>
<path d="M20.3951 1.76129C21.7565 2.3008 21.188 3.88452 21.7449 4.46464C21.9634 4.4569 21.8841 1.68394 22.4197 3.20965C22.5532 3.58673 22.1761 5.41216 22.7098 5.4315C23.6477 2.22732 23.1236 6.21272 23.6747 6.20499C23.9861 6.19918 23.9223 4.81077 24.7364 5.33481C25.0264 6.91273 25.3145 8.49065 25.6046 10.0666C24.4057 10.8614 23.4562 7.38456 22.9999 6.68648C22.5106 5.9362 20.5576 4.81271 20.3951 1.76129Z" fill="white"/>
<path d="M17.1158 102.593C17.6302 102.723 18.1446 102.851 18.659 102.98C19.7573 103.405 17.3866 105.616 17.1158 102.593Z" fill="white"/>
<path d="M35.8321 102.593C36.4683 102.557 34.8633 105.187 34.6738 106.07C26.1054 102.272 29.5494 106.059 35.8321 102.593Z" fill="white"/>
<path d="M23.8703 14.897C24.6418 15.1542 25.4134 15.4114 26.1849 15.6705C27.3046 15.7711 34.3665 15.6299 34.7707 16.3473C35.2425 19.0062 35.6602 20.5319 34.964 23.301C37.1839 27.6055 37.1762 32.6447 32.7461 29.193C32.2007 29.2549 32.543 32.5384 29.5631 29.6765C27.2446 27.4508 28.8515 26.0217 27.8267 26.5864C27.2562 26.8996 26.6142 30.011 27.73 27.8414C29.0488 30.7806 31.6709 31.2409 31.6864 31.8016C31.1836 33.1185 30.5899 33.9983 29.0816 34.2169C25.8639 34.6809 25.8968 32.2077 24.5471 32.1884C25.2548 33.0257 25.9626 33.863 26.6703 34.7003C26.446 36.0848 26.2197 37.4694 25.9954 38.8539C23.7117 36.7616 21.4299 34.6693 19.1462 32.5771C17.2357 29.7035 19.1404 29.5314 19.1462 29.1002C19.152 28.7173 15.7428 23.8869 18.1813 24.8499C18.0672 21.5858 18.8697 24.1731 19.0495 24.1731C19.5001 23.5292 19.9506 22.8852 20.3992 22.2413C21.2694 22.1388 21.7277 24.1731 21.8457 24.2698C23.2051 25.3739 20.0434 21.1952 22.1357 19.9228C22.5225 19.859 22.9073 19.7932 23.294 19.7294C24.9435 20.1336 23.1625 25.0278 25.0305 21.2745C25.7634 21.083 26.0902 21.8642 26.1888 21.8546C26.3822 21.8333 27.5927 19.6579 27.2504 18.281C27.1731 17.9697 25.98 16.1462 25.4172 17.6042C24.6708 15.5448 24.6205 17.0241 24.4523 17.0241C23.9998 17.0241 24.3769 16.0167 24.3556 15.9625C24.3266 15.889 22.8067 15.1504 23.8741 14.9009L23.8703 14.897ZM31.7811 17.6004C31.1701 18.341 30.559 19.0816 29.948 19.8222C28.8438 24.6759 34.79 25.4165 33.8077 20.0156C36.0933 18.0181 30.091 21.578 30.3347 19.8222C30.4797 18.7819 32.4231 17.1518 33.6143 18.0838C33.7903 17.5868 32.1041 17.5056 31.7811 17.6004ZM22.5186 20.8858C22.3697 21.9764 22.4993 24.6527 23.1935 22.3341C22.9691 21.8507 22.7429 21.3692 22.5186 20.8858Z" fill="#FAAD81"/>
<path d="M31.7812 17.6004C32.1041 17.5056 33.7903 17.5849 33.6144 18.0838C32.4232 17.1518 30.4779 18.7819 30.3348 19.8222C30.0911 21.5781 36.0934 18.0181 33.8077 20.0156C34.792 25.4165 28.8458 24.6759 29.948 19.8222C30.5591 19.0816 31.1701 18.341 31.7812 17.6004ZM32.7442 20.3057C32.197 20.4584 32.4599 22.1369 30.5262 22.5275C32.9646 25.4842 34.8848 19.7082 32.7442 20.3057Z" fill="black"/>
<path d="M32.7441 20.3058C34.8847 19.7083 32.9626 25.4843 30.5261 22.5276C32.4598 22.137 32.1969 20.4586 32.7441 20.3058Z" fill="white"/>
<path d="M22.5185 20.8858C22.7428 21.3692 22.9691 21.8507 23.1934 22.3342C22.4992 24.6527 22.3696 21.9764 22.5185 20.8858Z" fill="#AD8671" stroke="black" stroke-miterlimit="10"/>
<path d="M63.2312 40.5885C65.4782 40.7258 61.2047 45.125 60.9166 45.0322C60.2185 44.806 61.2511 40.4686 63.2312 40.5885Z" fill="#FAAD81"/>
<path d="M57.2502 41.3601C58.4105 41.0101 58.337 43.9551 58.1185 44.7402C61.0887 47.6505 59.5881 44.8408 60.3365 45.0303C60.611 45.0999 61.1022 47.0162 62.1696 47.0587C60.8586 48.8378 62.9296 48.9867 63.0379 49.0872C63.8887 49.8762 62.305 51.0557 67.7658 48.9905C68.3324 52.2218 63.3473 54.8594 62.4597 54.6892C61.8486 53.9486 61.2376 53.208 60.6265 52.4674C60.4718 51.7867 61.0481 49.735 60.3365 50.2455C60.2398 50.9861 60.1431 51.7267 60.0464 52.4674C60.205 53.5058 64.0589 56.2265 58.0198 54.3025C57.956 54.432 57.8903 54.5596 57.8265 54.6892C50.2521 57.4428 45.6286 65.3943 36.2171 67.0515C33.4442 69.4106 27.4032 71.1258 28.403 65.4098C28.7897 64.5725 29.1745 63.7352 29.5613 62.8979C29.7682 62.3293 29.4781 60.9429 30.2361 60.4826C32.4174 59.1619 30.4778 62.3081 31.5859 63.9595C30.1917 58.2473 36.3409 59.1909 42.0048 56.0389C46.0443 55.2442 49.8963 53.8403 53.7753 52.5621C55.6742 51.9375 58.4163 52.4422 57.7317 49.9535C57.606 49.4933 54.4077 45.709 57.7317 44.3515C57.811 44.1601 56.0165 41.7294 57.2502 41.3581V41.3601Z" fill="#FAAD81"/>
<path d="M64.5808 41.9402C65.4181 41.7604 65.9247 42.7968 65.6424 43.5819C64.6446 44.5159 63.6487 45.4499 62.6509 46.382C59.4042 47.5364 63.9117 42.0833 64.5808 41.9383V41.9402Z" fill="#FAAD81"/>
<path d="M66.8975 43.6787C68.2492 44.5237 63.8867 48.3544 63.6179 48.5072C62.9489 48.8881 62.1715 48.279 62.1715 47.8304C62.1715 47.1227 65.8011 43.7908 66.8995 43.6768L66.8975 43.6787Z" fill="#FAAD81"/>
<path d="M67.2823 45.9972C68.3671 45.8773 69.8638 47.0975 66.8956 48.7005C60.553 52.129 65.7528 46.1654 67.2823 45.9972Z" fill="#FAAD81"/>
<path d="M55.8984 48.7004C57.0006 48.6385 58.1763 51.1562 56.8633 51.5971C51.9749 52.9488 47.0864 54.3005 42.1999 55.6541C41.1712 56.1046 40.1424 56.5552 39.1137 57.0058C38.1932 57.116 39.717 53.0842 40.272 52.7554C45.4814 51.4038 50.6909 50.0521 55.9003 48.6985L55.8984 48.7004Z" fill="#FAAD81"/>
<path d="M36.6038 86.1741C38.3403 86.6884 40.0768 87.2047 41.8133 87.7191C46.3208 88.4191 52.1568 85.3039 50.0142 98.4397C48.1926 103.823 48.3493 109.713 46.928 115.246C46.4078 117.974 42.8111 118.384 41.0437 117.467C39.6591 118.396 40.2431 117.659 39.8854 117.467C39.6611 117.5 39.4348 117.531 39.2105 117.564C38.584 116.45 40.4133 108.333 39.5972 105.973C40.1754 103.077 40.7555 100.178 41.3337 97.2814C41.0804 96.4208 38.1334 96.4557 37.9574 96.4112C36.2036 95.9684 33.2914 95.1001 31.8798 94.1893C32.7306 91.1341 34.7629 88.6937 36.6077 86.1721L36.6038 86.1741Z" fill="#FAAD81"/>
<path d="M22.1338 105.683C24.7057 105.877 27.2795 106.07 29.8513 106.264C31.3499 108.015 30.911 111.235 30.3328 113.507C29.3253 117.475 26.4325 123.238 25.8949 128.96C25.862 130.601 25.8311 132.243 25.7982 133.885C24.8333 133.628 23.8684 133.37 22.9034 133.111C22.3891 133.175 21.8747 133.241 21.3603 133.305C20.8131 131.999 20.1866 132.792 20.0106 132.725C19.881 132.531 19.7534 132.338 19.6239 132.144C19.1037 131.957 19.6103 133.164 17.9841 130.889C17.5741 124.874 19.0321 118.146 20.6855 112.345C21.3565 109.99 22.7371 109.288 22.1319 105.681L22.1338 105.683Z" fill="#FAAD81"/>
<path d="M46.4445 117.274C46.8718 117.628 47.3862 120.859 47.216 120.944C44.6287 121.045 41.5193 122.178 39.0151 123.166C38.8218 122.265 38.6284 121.364 38.437 120.463C38.114 116.756 38.9552 119.409 39.1118 119.401C39.369 119.015 39.6262 118.628 39.8834 118.243C41.4826 122.364 40.4248 115.538 41.4265 119.401C43.0025 116.24 42.1323 121.774 43.3563 118.243C43.6135 118.564 43.8707 118.887 44.1279 119.208C44.884 116.539 44.8376 119.409 45.2862 119.401C45.789 116.143 45.4854 117.953 45.9611 118.724C46.5895 119.744 46.2898 117.872 46.4426 117.276L46.4445 117.274Z" fill="white"/>
<path d="M46.0576 121.522C47.9353 121.372 48.1673 123.41 47.8908 124.322C47.593 125.305 41.204 127.594 39.8832 127.703C39.0401 124.046 38.3865 123.634 42.0065 122.487C43.3562 122.166 44.7079 121.843 46.0576 121.522Z" fill="white"/>
<path d="M18.0807 131.568C18.6531 132.498 18.1929 135.026 19.4304 132.726C20.2793 136.816 20.5133 130.108 20.9735 134.852C21.2945 134.465 21.6175 134.078 21.9385 133.693C22.2247 137.141 22.5341 133.657 23.0968 133.693C23.6285 135.497 23.733 136.118 23.7716 133.79C24.6205 133.39 23.7368 135.631 24.4465 135.625C25.5603 132.168 26.0805 135.996 25.8929 137.847C23.0426 137.646 20.2755 136.65 17.692 135.432C17.8216 134.144 17.9492 132.856 18.0788 131.568H18.0807Z" fill="white"/>
<path d="M17.6959 135.817C19.7302 137.201 23.1528 138.166 25.6067 138.328C25.8407 138.404 25.9142 141.181 25.22 141.419C23.6382 141.96 16.555 138.591 17.6959 135.817Z" fill="white"/>
<path d="M17.696 30.7362C19.3938 34.3271 20.9021 34.3503 22.3273 35.7581C25.3207 38.7167 27.9525 42.0253 28.695 46.1886C28.0201 46.6217 25.0035 36.1816 20.8808 46.2853H20.4941C18.9529 43.7231 18.0731 38.3164 17.5993 37.2064C16.5783 34.8164 13.9775 35.5531 17.696 30.7362Z" fill="#AFAFAF"/>
<path d="M14.8979 34.7931C15.8029 34.445 15.1744 34.9749 16.441 36.0481C11.9683 39.2194 6.65251 46.1189 4.38232 51.2123C5.52515 44.4501 11.249 40.134 14.8979 34.7931Z" fill="#ADAFAD"/>
<path d="M27.535 34.5997C29.0935 34.2072 30.7991 40.3081 30.9112 41.4567C31.1239 43.6089 30.1087 40.8186 28.2098 39.7183C28.4341 38.7205 28.6604 37.7227 28.8847 36.7249C28.0551 36.2608 27.6723 40.6948 27.6297 41.2633C25.2338 40.0103 27.2101 37.1832 27.0515 34.8898C27.212 34.7931 27.3725 34.6964 27.533 34.5997H27.535Z" fill="#AEAEAE"/>
<path d="M17.1159 38.0765C17.7947 38.0495 17.7734 40.2404 17.9842 40.8766C18.8195 43.0017 19.6568 45.1269 20.4922 47.2501C21.227 47.8747 21.3991 44.6048 22.3254 44.8349C22.832 44.9606 27.1519 52.7632 27.6315 53.817C28.3006 54.7182 30.3116 53.3781 32.2628 56.1356C33.7053 58.1737 33.8716 60.9505 32.0694 56.9091C28.434 53.6101 29.5111 55.3079 27.3414 57.3925C25.9202 58.7577 19.3803 62.834 19.1405 63.8627C18.6532 65.9608 20.7146 66.8213 22.5168 66.6628C24.0812 69.749 27.0282 65.9956 27.3414 63.766C26.6685 63.4528 25.924 68.2233 23.2903 67.2429C22.3466 66.8929 25.3768 63.0873 25.3168 62.7044C25.0771 61.1865 23.0447 66.0942 22.3254 66.2779C21.2773 66.5448 18.5798 65.5644 19.914 63.4779C21.9406 62.0296 23.9652 60.5812 25.9917 59.1309C28.2638 57.1933 31.5434 52.3029 27.8249 58.8409C28.0182 58.777 28.2116 58.7113 28.4031 58.6475C29.7586 57.348 29.6542 53.382 32.841 59.2276C31.6188 59.742 30.3967 60.2583 29.1746 60.7726C29.2075 63.2246 27.295 65.1699 27.6315 67.7263C23.4315 66.8271 27.3666 69.6871 27.4381 70.0448C26.537 73.5855 25.6378 77.1281 24.7367 80.6687C23.1607 82.0533 21.5848 83.4378 20.0088 84.8224C18.8717 85.0505 15.0275 83.6234 14.0278 82.8906C12.7728 81.9701 11.1407 78.4585 11.2297 79.8972C11.2838 80.7828 14.8361 83.2212 10.5548 82.3124C7.77604 81.7226 4.71689 78.7176 3.12544 76.4203C1.36382 60.0533 4.92574 49.0291 17.114 38.0765H17.1159ZM14.2231 49.6653C14.2559 50.9861 14.2869 52.3049 14.3198 53.6256C10.8835 51.8698 12.4286 53.5579 14.5131 54.3991C15.5825 57.4544 18.1505 59.8541 19.6259 62.8011C20.0474 62.8127 19.4403 61.6622 18.951 60.7726C17.6651 58.9704 16.3792 57.1663 15.0913 55.364C14.8013 53.4651 14.5131 51.5643 14.2231 49.6653Z" fill="#AFAFAF"/>
<path d="M30.6228 42.7117C31.3867 43.4079 31.7618 44.1369 32.0693 45.127C33.1386 45.1366 36.6232 50.1817 36.7005 50.5356C36.8456 51.1988 35.2618 52.9895 35.8323 53.3356C36.3467 52.4983 36.861 51.661 37.3754 50.8237C41.0185 48.9731 36.7701 55.2268 37.0853 55.7489C37.5958 56.5959 38.5105 52.7149 39.0152 52.0787C40.2276 50.5472 38.7193 56.9169 37.5688 57.584C34.9486 59.1039 35.2908 54.7859 33.9991 51.1138C33.2276 49.2458 32.456 47.3797 31.6845 45.5118C31.4814 45.0477 30.0601 43.0675 30.6228 42.7117Z" fill="#ABAFAD"/>
<path d="M29.2712 47.7354C29.6909 47.428 29.9152 48.6172 31.0077 48.1222C30.4585 50.0578 31.7986 49.6904 31.6826 50.1507C31.5163 50.812 30.4934 50.2203 30.4276 50.2474C30.3058 50.2996 29.5323 52.8076 29.4627 50.054C26.7439 50.4581 29.3234 49.3172 29.366 49.1838C29.3331 48.7004 29.3022 48.2189 29.2693 47.7354H29.2712Z" fill="#AA993E"/>
<path d="M14.223 49.6655C14.5131 51.5644 14.8012 53.4652 15.0913 55.3641C16.3772 57.1664 17.6631 58.9705 18.951 60.7728C19.4421 61.6623 20.0474 62.8109 19.6258 62.8012C18.1504 59.8523 15.5824 57.4545 14.5131 54.3992C12.4285 53.56 10.8835 51.8699 14.3197 53.6257C14.2868 52.305 14.2559 50.9862 14.223 49.6655Z" fill="black"/>
<path d="M37.3754 67.6297C38.4061 69.7819 40.3282 72.0018 38.9186 74.39C38.526 72.1855 36.5729 69.3449 37.3754 67.6297Z" fill="#AFAFAF"/>
<path d="M35.0607 68.4032C35.4726 68.4631 37.0311 75.3975 37.0872 76.4204C35.8902 77.1243 34.9389 78.066 33.5176 78.2555C34.38 72.9745 31.0289 69.7491 35.0607 68.4051V68.4032Z" fill="#AFAFAF"/>
<path d="M32.3594 69.5614C32.5199 69.5943 32.6804 69.6252 32.8409 69.6581C32.0868 73.1543 35.6971 80.4328 29.4647 80.1853C29.4685 76.9676 29.3022 73.8195 28.7898 70.623C30.0254 70.1473 30.9923 69.5633 32.3594 69.5614Z" fill="#AFAFAF"/>
<path d="M37.182 76.9018C38.0561 77.0739 38.0077 82.8963 37.7602 83.8555C34.6179 83.5093 31.5781 83.1845 28.9811 81.2469C28.7549 80.5043 31.4466 80.5701 32.164 80.1853C32.5508 79.7347 32.9356 79.2841 33.3223 78.8336C33.945 78.4875 35.6292 78.209 37.182 76.9018Z" fill="#777777"/>
<path d="M4.76709 79.027C5.08809 78.9071 6.43783 81.4306 10.2666 82.6005C10.3053 86.6923 12.4517 94.8275 16.731 96.2178C17.8855 96.5929 27.2195 98.1554 29.2732 97.9562C29.0353 99.9441 29.6676 101.847 30.3348 103.655C24.1391 103.786 11.1329 102.116 7.95193 96.3145C6.637 92.6636 5.4845 88.8774 6.21545 84.9171C5.73395 82.9525 5.25052 80.9897 4.76902 79.0251L4.76709 79.027Z" fill="#777777"/>
<path d="M24.4487 81.5389C25.605 81.4887 22.9674 85.2942 26.1852 84.8224C27.5388 84.6232 28.9059 83.1401 29.0799 81.7323C30.1686 83.2677 35.4245 83.8169 35.5444 84.1475C33.8272 86.5163 31.3231 88.7343 30.0449 91.5846C24.1702 91.9346 20.1597 92.0004 15.7663 87.5277C15.2442 86.9959 12.1386 83.1188 13.4516 83.084C13.819 83.0743 18.2298 85.855 20.3975 85.2092C21.7473 83.9851 23.0989 82.763 24.4487 81.5389Z" fill="#777777"/>
<path d="M26.3785 81.9237C28.5152 81.6298 28.4495 83.6892 26.5718 84.2422C23.8143 85.0544 24.8876 82.1306 26.3785 81.9237Z" fill="white"/>
<path d="M17.8566 92.0584C18.3381 91.9191 17.6188 92.9189 18.5585 92.4374C18.3014 93.0948 19.8174 93.8761 18.2878 93.2495C18.3845 94.5026 17.9417 93.4719 17.8566 93.4661C17.7483 93.6111 17.64 93.7542 17.5317 93.8993L17.3693 93.0871C17.3345 93.0194 16.0505 92.3078 17.64 92.5998C17.7116 92.42 17.7831 92.2401 17.8566 92.0584Z" fill="white"/>
<path d="M39 147L39.4497 139.508L32.7365 142.865L39 147Z" fill="#E80A0D"/>
</svg>
