<svg width="78" height="48" viewBox="0 0 78 48" fill="none" xmlns="http://www.w3.org/2000/svg">
<g opacity="0.8" clip-path="url(#clip0_10_2324)">
<path d="M75.1449 38.0482H42.5021C41.282 38.0482 40.2931 37.0557 40.2931 35.8312V3.0661C40.2931 1.8416 41.282 0.84906 42.5021 0.84906H70.2532C72.6214 3.31329 74.9895 5.77371 77.3539 8.23793V35.8312C77.3539 35.9795 77.3388 36.7667 75.1449 38.0482Z" fill="#7C7258"/>
<path d="M76.2738 38.048H41.3727C40.7741 38.048 40.2891 37.5613 40.2891 36.9604V1.9327C40.2891 1.33185 40.7741 0.845093 41.3727 0.845093H69.6657C69.965 0.845093 70.2075 1.08847 70.2075 1.3889V6.99045C70.2075 7.56087 70.666 8.02101 71.2343 8.02101H76.8156C77.115 8.02101 77.3575 8.26439 77.3575 8.56481V36.9604C77.3575 37.5613 76.8725 38.048 76.2738 38.048Z" fill="#C8B992"/>
<path d="M55.1454 18.6042C55.1454 19.7983 54.3269 20.5018 52.9364 20.5018H51.6708V22.6922H50.4166V16.6686H52.9364C54.3269 16.6686 55.1454 17.3721 55.1454 18.6042ZM53.8723 18.5966C53.8723 17.9844 53.5274 17.6763 52.7431 17.6763H51.6708V19.5283H52.7431C53.5237 19.5283 53.8723 19.2089 53.8723 18.5966Z" fill="white"/>
<path d="M61.4466 22.6961H60.0105L57.9114 19.1556L57.3923 18.1441H57.3847L57.4226 19.2127V22.6999H56.2935V16.6762H57.7219L59.8211 20.209L60.3402 21.232H60.3591L60.3212 20.1634V16.6762H61.4504V22.6999L61.4466 22.6961Z" fill="white"/>
<path d="M68.2139 19.5093V22.696H67.2969L67.2704 21.9735C66.9256 22.4831 66.3421 22.7873 65.4971 22.7873C63.8527 22.7873 62.7159 21.6541 62.7159 19.6918C62.7159 17.7296 63.8527 16.5811 65.6373 16.5811C66.937 16.5811 67.7213 17.0375 68.1911 18.0604L67.0355 18.5624C66.846 17.9235 66.3345 17.6117 65.6714 17.6117C64.6446 17.6117 64.0156 18.3418 64.0156 19.6842C64.0156 21.0266 64.5877 21.7758 65.6979 21.7758C66.5088 21.7758 67.134 21.3841 67.134 20.5817V20.4448H65.3797V19.5131H68.2177L68.2139 19.5093Z" fill="white"/>
<path d="M34.8556 47.1992H2.20902C0.988945 47.1992 0 46.2066 0 44.9821V12.217C0 10.9925 0.988945 10 2.20902 10H29.9601C32.3283 12.4642 34.6964 14.9246 37.0608 17.3889V44.9821C37.0608 45.1304 37.0457 45.9176 34.8518 47.1992H34.8556Z" fill="#7C7258"/>
<path d="M35.9847 47.1992H1.08367C0.485 47.1992 0 46.7124 0 46.1115V11.0876C0 10.4868 0.485 10 1.08367 10H29.3766C29.6759 10 29.9184 10.2434 29.9184 10.5438V16.1454C29.9184 16.7158 30.3769 17.1759 30.9453 17.1759H36.5266C36.8259 17.1759 37.0684 17.4193 37.0684 17.7197V46.1154C37.0684 46.7162 36.5834 47.203 35.9847 47.203V47.1992Z" fill="#C8B992"/>
<path d="M14.1181 29.6302C14.1181 31.0829 13.2542 31.9385 11.7613 31.9385C10.132 31.9385 9.44997 30.9878 9.70763 29.6112L10.9353 29.3906C10.7913 30.4592 11.0452 30.9041 11.7992 30.9041C12.5532 30.9041 12.8639 30.4212 12.8639 29.4515V25.8198H14.1181V29.6264V29.6302Z" fill="white"/>
<path d="M20.3208 27.7554C20.3208 28.9495 19.5024 29.653 18.1118 29.653H16.8462V31.8434H15.592V25.8198H18.1118C19.5024 25.8198 20.3208 26.5233 20.3208 27.7554ZM19.0477 27.7478C19.0477 27.1355 18.7029 26.8275 17.9185 26.8275H16.8462V28.6795H17.9185C18.6991 28.6795 19.0477 28.36 19.0477 27.7478Z" fill="white"/>
<path d="M26.6675 28.6605V31.8472H25.7505L25.724 31.1247C25.3792 31.6343 24.7957 31.9385 23.9507 31.9385C22.3063 31.9385 21.1696 30.8053 21.1696 28.843C21.1696 26.8808 22.3063 25.7323 24.0909 25.7323C25.3906 25.7323 26.1749 26.1886 26.6448 27.2116L25.4891 27.7136C25.2996 27.0747 24.7881 26.7629 24.125 26.7629C23.0982 26.7629 22.4692 27.493 22.4692 28.8354C22.4692 30.1778 23.0414 30.9269 24.1515 30.9269C24.9624 30.9269 25.5876 30.5353 25.5876 29.7329V29.596H23.8333V28.6643H26.6713L26.6675 28.6605Z" fill="white"/>
</g>
<defs>
<clipPath id="clip0_10_2324">
<rect width="78" height="48" fill="white"/>
</clipPath>
</defs>
</svg>
