<svg width="25" height="25" viewBox="0 0 25 25" fill="none" xmlns="http://www.w3.org/2000/svg">
<path d="M24.7495 17.9062C24.8453 19.3274 20.0348 24.1368 18.8609 23.8122C18.6092 23.7307 16.0798 21.4102 12.9585 18.3419C9.72355 21.5483 7.06843 24.0806 6.69167 24.042C5.72796 23.8411 1.30113 19.7383 1.57776 17.8538C1.61492 17.3098 3.76889 14.8654 6.5048 11.9979C3.3398 8.72079 0.807521 6.06566 0.846118 5.6889C1.00552 4.76738 5.1083 0.340546 6.9921 0.533528C7.57833 0.612156 10.0227 2.76613 12.8902 5.50203C15.96 2.54794 18.5329 0.183665 18.909 0.138618C20.3717 0.000605302 25.1395 4.85331 24.815 6.02721C24.775 6.23668 22.4129 8.80827 19.3446 11.9297C22.3402 14.9572 24.7044 17.5301 24.7495 17.9062Z" fill="#5C5C5C"/>
</svg>
