<svg width="45" height="45" viewBox="0 0 45 45" fill="none" xmlns="http://www.w3.org/2000/svg">
<path fill-rule="evenodd" clip-rule="evenodd" d="M26.7651 2.16446C26.9529 2.5285 26.9995 2.9947 27.0927 3.92709C27.2692 5.69195 27.3574 6.57438 27.7268 7.05854C28.1953 7.6727 28.9573 7.98832 29.7228 7.88533C30.3263 7.80414 31.0127 7.24257 32.3854 6.11943C33.1106 5.52607 33.4733 5.22939 33.8634 5.10474C34.359 4.94642 34.8952 4.97316 35.3725 5.18001C35.7484 5.34286 36.0796 5.67415 36.7422 6.33673L38.6632 8.25768C39.3258 8.92028 39.6571 9.25158 39.8199 9.62742C40.0268 10.1048 40.0535 10.6409 39.8952 11.1365C39.7705 11.5267 39.4739 11.8893 38.8805 12.6145C37.7573 13.9873 37.1957 14.6737 37.1145 15.2772C37.0116 16.0427 37.3272 16.8047 37.9413 17.2732C38.4255 17.6425 39.3079 17.7308 41.0729 17.9073C42.0053 18.0005 42.4715 18.0472 42.8356 18.2349C43.2979 18.4734 43.6581 18.8714 43.8494 19.3552C44 19.7361 44 20.2046 44 21.1417V23.8585C44 24.7954 44 25.2638 43.8495 25.6446C43.6582 26.1286 43.2979 26.5267 42.8354 26.7652C42.4714 26.9529 42.0053 26.9995 41.0731 27.0927C39.3087 27.2691 38.4265 27.3574 37.9425 27.7265C37.328 28.195 37.0122 28.9573 37.1154 29.7232C37.1967 30.3264 37.7581 31.0126 38.8808 32.3848C39.474 33.1098 39.7705 33.4723 39.8952 33.8623C40.0536 34.358 40.0269 34.8944 39.8199 35.3719C39.6571 35.7476 39.3259 36.0788 38.6635 36.7411L36.7423 38.6623C36.0797 39.3249 35.7485 39.6562 35.3726 39.819C34.8953 40.0259 34.3591 40.0526 33.8635 39.8943C33.4734 39.7697 33.1107 39.473 32.3855 38.8796C31.0128 37.7565 30.3264 37.1949 29.7229 37.1137C28.9574 37.0107 28.1954 37.3263 27.7269 37.9405C27.3575 38.4247 27.2693 39.3072 27.0928 41.0724C26.9995 42.0052 26.9528 42.4716 26.765 42.8358C26.5265 43.2979 26.1286 43.658 25.645 43.8493C25.264 44 24.7953 44 23.858 44H21.1417C20.2046 44 19.7361 44 19.3552 43.8494C18.8714 43.6581 18.4734 43.2979 18.2349 42.8356C18.0472 42.4715 18.0005 42.0053 17.9073 41.0729C17.7308 39.3079 17.6425 38.4255 17.2732 37.9413C16.8047 37.3272 16.0428 37.0116 15.2772 37.1146C14.6737 37.1957 13.9873 37.7573 12.6145 38.8805C11.8892 39.4739 11.5265 39.7707 11.1364 39.8953C10.6408 40.0536 10.1047 40.0269 9.62735 39.82C9.25149 39.6572 8.92018 39.3259 8.25756 38.6632L6.33666 36.7424C5.67406 36.0797 5.34275 35.7484 5.1799 35.3726C4.97307 34.8953 4.94633 34.3591 5.10464 33.8636C5.22928 33.4734 5.52598 33.1107 6.11937 32.3855C7.24254 31.0127 7.80413 30.3263 7.88532 29.7228C7.9883 28.9573 7.67268 28.1953 7.05854 27.7268C6.57438 27.3574 5.69194 27.2692 3.92708 27.0927C2.99469 26.9995 2.5285 26.9528 2.16447 26.7651C1.7021 26.5266 1.34188 26.1286 1.1506 25.6448C1 25.2639 1 24.7954 1 23.8583V21.1419C1 20.2047 1 19.736 1.15068 19.355C1.34196 18.8714 1.70206 18.4735 2.16427 18.235C2.52839 18.0472 2.9947 18.0005 3.92733 17.9073C5.69267 17.7307 6.57535 17.6425 7.0596 17.2729C7.67349 16.8045 7.989 16.0428 7.88617 15.2774C7.80505 14.6737 7.24328 13.9871 6.11975 12.6139C5.5261 11.8883 5.22928 11.5256 5.10464 11.1352C4.94647 10.6398 4.9732 10.1039 5.17988 9.62673C5.34274 9.25072 5.67417 8.91929 6.33702 8.25644L8.25766 6.3358C8.92028 5.67318 9.25159 5.34187 9.62745 5.17901C10.1048 4.9722 10.6409 4.94546 11.1365 5.10375C11.5267 5.2284 11.8893 5.52515 12.6147 6.11864C13.9873 7.24167 14.6736 7.80319 15.277 7.88444C16.0427 7.98757 16.8049 7.67185 17.2735 7.05745C17.6427 6.57337 17.7309 5.69118 17.9073 3.92681C18.0005 2.99468 18.0471 2.52861 18.2348 2.16466C18.4733 1.70214 18.8715 1.34181 19.3554 1.15052C19.7362 1 20.2046 1 21.1414 1H23.8583C24.7954 1 25.2639 1 25.6448 1.1506C26.1286 1.34188 26.5266 1.7021 26.7651 2.16446ZM22.5 31.1C27.2496 31.1 31.1 27.2496 31.1 22.5C31.1 17.7504 27.2496 13.9 22.5 13.9C17.7504 13.9 13.9 17.7504 13.9 22.5C13.9 27.2496 17.7504 31.1 22.5 31.1Z" fill="#939393" stroke="black"/>
</svg>
