<svg width="1228" height="637" viewBox="0 0 1228 637" fill="none" xmlns="http://www.w3.org/2000/svg">
<path d="M34.8367 489.065C25.2698 487.819 14.3646 483.965 2.41967 477.617L1205.76 149.279L1222.07 178.8C1219.31 177.186 1215.8 176.064 1211.77 175.539C1206.47 174.848 1200.57 175.259 1195.13 176.694C1184.44 179.524 1176.91 185.852 1176.42 192.294C1173.63 190.848 1170.2 189.834 1166.43 189.342C1161.06 188.642 1155.31 188.997 1149.8 190.358C1139.47 192.903 1131.58 198.745 1129.8 205.04C1126.9 203.034 1122.99 201.667 1118.38 201.066C1112.88 200.349 1106.77 200.818 1101.17 202.382C1090.92 205.259 1083.7 211.434 1083.15 217.665C1080.19 215.735 1076.27 214.411 1071.74 213.82C1065.68 213.031 1059.09 213.629 1053.16 215.515C1043.72 218.507 1037.2 224.411 1036.54 230.412C1033.63 228.457 1029.73 227.113 1025.2 226.523C1020.05 225.852 1014.54 226.196 1009.26 227.513C998.377 230.231 990.657 236.578 990.044 243.164C987.134 241.392 983.389 240.175 979.111 239.618C973.177 238.845 966.672 239.412 960.768 241.204C951.198 244.105 944.403 249.961 943.456 255.969C940.546 254.196 936.775 252.965 932.482 252.406C926.563 251.635 920.045 252.189 914.13 253.959C904.446 256.856 897.522 262.717 896.498 268.767C893.572 266.8 889.674 265.456 885.114 264.862C879.363 264.113 873.035 264.639 867.285 266.354C857.245 269.344 850.407 275.409 849.947 281.619C847.254 280.336 844.009 279.431 840.488 278.972C835.017 278.259 829.155 278.621 823.521 280.009C813.289 282.534 805.504 288.111 803.355 294.348C800.465 292.321 796.53 290.94 791.9 290.337C786.402 289.62 780.296 290.089 774.695 291.653C764.458 294.521 757.247 300.698 756.672 306.915C753.784 304.974 749.927 303.646 745.41 303.057C740.093 302.364 734.182 302.773 728.74 304.218C718.14 307.028 710.662 313.278 710.049 319.661C707.177 317.711 703.32 316.383 698.803 315.794C693.486 315.102 687.559 315.519 682.116 316.975C671.558 319.79 664.138 326.036 663.585 332.395C660.611 330.464 656.71 329.141 652.179 328.551C646.119 327.761 639.508 328.369 633.578 330.254C624.151 333.249 617.635 339.152 616.975 345.154C614.06 343.209 610.16 341.876 605.629 341.285C600.425 340.607 594.863 340.965 589.522 342.305C578.63 345.056 570.907 351.423 570.309 358.012C567.446 356.406 563.86 355.285 559.82 354.759C553.816 353.977 547.211 354.542 541.233 356.356C531.738 359.235 524.99 364.851 523.763 370.822C520.822 369.163 517.141 368.008 513.031 367.472C508.191 366.842 503.002 367.087 498.038 368.177C487.11 370.569 478.634 376.806 477.002 383.539C474.108 381.543 470.197 380.187 465.61 379.589C460.055 378.866 453.876 379.347 448.241 380.949C438.117 383.831 430.966 389.984 430.395 396.169C427.506 394.239 423.649 392.911 419.132 392.322C413.773 391.624 407.788 392.045 402.287 393.514C391.713 396.338 384.22 402.596 383.593 408.977C380.648 407.04 376.748 405.706 372.231 405.118C367.097 404.449 361.61 404.784 356.333 406.069C345.377 408.768 337.542 415.121 336.794 421.754C333.924 419.794 330.053 418.464 325.522 417.874C320.023 417.157 313.917 417.627 308.316 419.19C298.064 422.067 290.839 428.242 290.29 434.473C287.316 432.542 283.413 431.229 278.896 430.641C272.85 429.853 266.241 430.45 260.298 432.323C250.772 435.315 244.181 441.241 243.501 447.283C240.544 445.333 236.63 443.998 232.085 443.405C226.096 442.625 219.544 443.218 213.661 445.067C204.163 448.063 197.633 453.964 197.012 459.993C194.052 458.064 190.137 456.739 185.606 456.149C179.588 455.365 173.023 455.956 167.098 457.799C157.514 460.795 150.894 466.727 150.213 472.78C147.23 470.805 143.29 469.456 138.731 468.862C134.172 468.268 128.842 468.495 123.947 469.604C112.669 472.154 104.327 478.87 103.728 485.769C98.5444 483.808 93.3589 482.478 88.2808 481.817C85.1667 481.411 82.061 481.253 79.0215 481.339C70.6329 481.586 65.166 483.628 59.8805 485.597C56.5964 486.831 53.4937 487.991 49.7658 488.717C45.1864 489.61 40.1591 489.716 34.8426 489.023L34.8367 489.065Z" fill="#FFE54D"/>
<path d="M1205.45 149.852L1220.8 177.607C1218.25 176.396 1215.21 175.55 1211.83 175.11C1206.44 174.408 1200.43 174.825 1194.9 176.28C1184.41 179.06 1176.89 185.176 1175.91 191.544C1173.2 190.279 1169.98 189.378 1166.47 188.921C1161.02 188.21 1155.17 188.563 1149.57 189.955C1139.44 192.451 1131.62 198.087 1129.42 204.253C1126.53 202.451 1122.77 201.211 1118.42 200.645C1112.83 199.916 1106.6 200.391 1100.91 201.986C1090.9 204.797 1083.72 210.722 1082.65 216.841C1079.71 215.129 1076.01 213.96 1071.78 213.41C1065.63 212.608 1058.9 213.221 1052.88 215.127C1043.66 218.053 1037.18 223.703 1036.05 229.58C1033.17 227.853 1029.47 226.665 1025.24 226.113C1020.01 225.431 1014.4 225.783 1009.03 227.12C998.352 229.791 990.664 235.906 989.552 242.384C986.698 240.823 983.149 239.739 979.165 239.22C973.133 238.434 966.499 239.006 960.507 240.819C951.145 243.661 944.365 249.305 943.005 255.205C940.124 253.629 936.549 252.531 932.537 252.008C926.519 251.224 919.886 251.785 913.868 253.584C904.407 256.413 897.529 262.045 896.065 267.974C893.151 266.222 889.434 265.02 885.169 264.464C879.32 263.702 872.877 264.234 867.036 265.981C857.175 268.919 850.335 274.791 849.427 280.932C846.826 279.811 843.796 279.009 840.541 278.585C834.972 277.859 829.01 278.218 823.287 279.638C813.245 282.123 805.501 287.513 803.013 293.62C800.111 291.784 796.329 290.53 791.952 289.96C786.355 289.231 780.134 289.706 774.444 291.301C764.444 294.103 757.284 300.019 756.182 306.114C753.319 304.411 749.656 303.227 745.462 302.68C740.061 301.977 734.034 302.392 728.504 303.858C718.156 306.604 710.714 312.59 709.56 318.86C706.698 317.147 703.049 315.964 698.841 315.416C693.426 314.71 687.398 315.136 681.866 316.612C671.546 319.362 664.16 325.356 663.081 331.603C660.146 329.902 656.439 328.723 652.217 328.172C646.044 327.368 639.319 327.982 633.298 329.898C624.095 332.826 617.614 338.476 616.486 344.353C613.584 342.624 609.905 341.448 605.669 340.896C600.38 340.207 594.704 340.561 589.287 341.934C578.588 344.634 570.896 350.781 569.797 357.272C567.008 355.858 563.619 354.86 559.859 354.37C553.743 353.573 547.037 354.146 540.955 355.99C531.638 358.817 524.915 364.254 523.304 370.11C520.426 368.621 516.914 367.584 513.056 367.081C508.132 366.44 502.857 366.685 497.805 367.795C487.068 370.148 478.651 376.168 476.594 382.77C473.7 380.978 469.957 379.751 465.651 379.19C459.983 378.451 453.717 378.942 447.993 380.576C437.943 383.436 430.972 389.216 429.909 395.347C427.046 393.645 423.381 392.471 419.201 391.926C413.744 391.215 407.658 391.644 402.068 393.134C391.732 395.892 384.286 401.91 383.133 408.17C380.214 406.46 376.522 405.272 372.3 404.722C367.082 404.042 361.48 404.373 356.128 405.691C345.41 408.324 337.608 414.435 336.349 420.948C333.488 419.225 329.825 418.04 325.603 417.49C320.006 416.761 313.785 417.236 308.094 418.832C298.079 421.642 290.904 427.567 289.827 433.686C286.893 431.985 283.184 430.816 278.976 430.268C272.818 429.465 266.108 430.07 260.06 431.972C250.772 434.899 244.215 440.583 243.053 446.498C240.121 444.776 236.402 443.584 232.165 443.032C226.063 442.237 219.411 442.839 213.424 444.717C204.151 447.635 197.653 453.305 196.564 459.208C193.631 457.497 189.922 456.327 185.7 455.777C179.584 454.98 172.889 455.577 166.873 457.461C157.528 460.381 150.928 466.07 149.777 472.007C146.82 470.261 143.088 469.057 138.823 468.501C133.956 467.867 128.751 468.121 123.767 469.251C112.623 471.765 104.274 478.319 103.227 485.16C98.2388 483.331 93.2424 482.079 88.3607 481.443C85.2185 481.034 82.0568 480.869 78.9737 480.96C70.4559 481.211 64.944 483.269 59.6121 485.264C56.3589 486.48 53.2717 487.632 49.6014 488.355C45.095 489.236 40.1548 489.332 34.9365 488.652C25.7062 487.449 15.2155 483.799 3.72503 477.779L1158.28 162.72L1205.45 149.852ZM1206.06 148.71C804.436 258.297 402.81 367.883 1.18309 477.469C15.0942 484.984 26.0931 488.368 34.7903 489.501C40.9345 490.301 45.9068 489.974 49.9438 489.182C59.8516 487.246 65.6922 482.198 79.0844 481.81C82.2826 481.713 85.3403 481.907 88.216 482.282C94.6688 483.123 100.192 484.903 104.284 486.498C104.386 479.469 112.804 472.624 124.155 470.062C129.064 468.955 134.106 468.744 138.679 469.34C143.462 469.963 147.723 471.472 150.757 473.796C150.822 467.556 157.509 461.343 167.363 458.254C173.333 456.395 179.802 455.877 185.554 456.626C190.281 457.242 194.518 458.716 197.558 460.999C197.56 454.804 204.146 448.599 213.911 445.53C219.839 443.666 226.294 443.146 232.018 443.892C236.759 444.51 240.995 445.994 244.018 448.296C244.08 442.077 250.723 435.868 260.533 432.784C266.506 430.905 273.033 430.383 278.813 431.136C283.54 431.752 287.777 433.226 290.833 435.5C290.691 429.104 297.928 422.63 308.536 419.661C314.211 418.074 320.179 417.673 325.454 418.36C330.209 418.98 334.4 420.48 337.308 422.788C337.364 415.989 345.378 409.274 356.525 406.535C361.789 405.238 367.241 404.952 372.137 405.59C377.033 406.228 381.113 407.703 384.109 409.99C384.045 403.444 391.596 396.872 402.48 393.97C408.056 392.478 413.875 392.122 419.038 392.794C423.779 393.412 427.971 394.902 430.91 397.192C430.779 390.819 437.953 384.391 448.436 381.395C454.145 379.77 460.172 379.355 465.503 380.049C470.258 380.669 474.449 382.169 477.385 384.481C478.477 377.528 487.053 371.078 498.202 368.64C503.18 367.552 508.292 367.35 512.935 367.955C517.255 368.518 521.165 369.778 524.2 371.685C524.97 365.611 531.781 359.746 541.455 356.816C547.478 354.986 553.973 354.492 559.738 355.244C564.003 355.799 567.872 357.043 570.837 358.94C570.808 352.238 578.659 345.565 589.712 342.783C595.04 341.44 600.58 341.133 605.532 341.779C610.484 342.424 614.508 343.891 617.475 346.186C617.518 339.996 624.087 333.811 633.812 330.726C639.787 328.825 646.301 328.302 652.094 329.057C656.822 329.673 661.073 331.148 664.111 333.441C663.971 326.928 671.465 320.359 682.319 317.465C687.851 315.988 693.612 315.635 698.718 316.3C703.474 316.92 707.664 318.42 710.586 320.73C710.494 314.18 718.062 307.588 728.957 304.71C734.473 303.242 740.233 302.899 745.339 303.565C750.095 304.184 754.285 305.684 757.224 307.975C757.082 301.579 764.32 295.105 774.928 292.136C780.603 290.55 786.571 290.148 791.845 290.835C796.601 291.455 800.791 292.955 803.699 295.263C805.411 288.884 813.316 283.054 823.727 280.477C829.333 279.086 835.175 278.764 840.422 279.448C844.195 279.94 847.654 280.948 850.502 282.455C850.432 276.154 857.349 269.832 867.522 266.806C873.331 265.076 879.535 264.62 885.034 265.336C889.776 265.954 893.996 267.447 896.961 269.752C897.41 263.519 904.354 257.414 914.352 254.419C920.325 252.636 926.719 252.15 932.401 252.891C936.889 253.475 940.929 254.827 943.941 256.902C944.325 250.725 951.149 244.658 961.004 241.666C966.952 239.858 973.36 239.374 979.041 240.115C983.544 240.701 987.597 242.065 990.591 244.16C990.536 237.443 998.417 230.764 1009.47 228.002C1014.75 226.686 1020.22 226.391 1025.11 227.029C1029.88 227.65 1034.09 229.152 1037.05 231.457C1037.1 225.257 1043.66 219.082 1053.4 215.989C1059.36 214.096 1065.89 213.564 1071.67 214.317C1076.4 214.933 1080.65 216.409 1083.69 218.702C1083.55 212.306 1090.78 205.832 1101.39 202.863C1107.07 201.277 1113.04 200.875 1118.31 201.563C1123.07 202.182 1127.26 203.682 1130.16 205.99C1131.46 199.504 1139.4 193.453 1150 190.837C1155.5 189.474 1161.23 189.17 1166.36 189.839C1170.39 190.363 1174.06 191.495 1176.98 193.194C1176.87 186.642 1184.45 180.053 1195.35 177.175C1200.86 175.717 1206.6 175.371 1211.7 176.036C1216.46 176.656 1220.65 178.156 1223.59 180.457L1206.07 148.765L1206.06 148.71Z" fill="black"/>
<path d="M282.766 415.706L279.398 417.151L279.886 418.371C280.066 418.272 280.219 418.203 280.437 418.105C281.266 417.754 282.2 417.546 283.03 417.663C283.912 417.76 284.676 418.205 285.183 419.064C286 420.446 285.336 422.261 282.989 423.255C281.93 423.704 280.935 423.878 280.324 423.865L279.91 422.413C280.397 422.411 281.302 422.276 282.093 421.934C282.935 421.573 283.621 420.844 283.161 420.061C282.7 419.277 281.721 419.133 279.986 419.875C279.502 420.079 279.181 420.248 278.847 420.448L277.117 416.318L281.901 414.269L282.742 415.695L282.766 415.706Z" fill="black"/>
<path d="M327.178 402.432C326.936 402.519 326.629 402.666 326.32 402.856C324.632 403.908 324.342 405.471 324.864 406.778L324.902 406.758C325.034 406.114 325.53 405.421 326.487 405.011C328.018 404.357 329.667 404.836 330.519 406.283C331.325 407.643 330.977 409.353 329.179 410.124C327.38 410.895 325.379 410.211 324.239 408.285C323.376 406.827 323.309 405.41 323.738 404.32C324.095 403.409 324.846 402.619 325.861 402.041C326.183 401.851 326.464 401.713 326.681 401.615L327.165 402.432L327.178 402.432ZM329.367 406.845C328.746 405.789 327.651 405.449 326.567 405.907C325.866 406.21 325.434 406.864 325.425 407.544C325.417 407.692 325.446 407.864 325.549 408.048C326.301 409.258 327.481 409.878 328.718 409.351C329.739 408.912 329.988 407.911 329.367 406.845Z" fill="black"/>
<path d="M374.069 387.456L374.461 388.12L374.669 396.476L373.457 396.993L373.352 388.832L373.353 388.811L369.092 390.625L368.597 389.797L374.069 387.456Z" fill="black"/>
<path d="M419.398 382.665C418.846 381.729 419.105 380.792 419.946 379.942L419.91 379.909C418.723 379.937 417.934 379.471 417.554 378.829C416.864 377.654 417.553 376.362 419.071 375.708C420.755 374.985 422.126 375.527 422.667 376.452C423.035 377.083 423.081 377.904 422.263 378.798L422.286 378.83C423.589 378.732 424.633 379.091 425.162 379.994C425.922 381.278 425.139 382.705 423.481 383.407C421.669 384.188 420.019 383.731 419.387 382.643L419.398 382.665ZM424.044 380.621C423.515 379.718 422.522 379.605 421.176 379.819C420.305 380.509 420.102 381.309 420.517 382.017C420.928 382.787 421.983 383.158 423.092 382.69C424.202 382.222 424.493 381.393 424.044 380.621ZM418.617 378.296C419.055 379.036 419.948 379.155 421.081 378.954C421.695 378.414 422.005 377.714 421.601 377.049C421.255 376.462 420.479 376.017 419.42 376.465C418.45 376.885 418.237 377.654 418.617 378.296Z" fill="black"/>
<path d="M94.3315 468.262L94.3066 468.261L93.203 469.611L92.5245 468.947L93.9067 467.267L94.9143 466.838L99.2895 474.238L98.1541 474.726L94.332 468.251L94.3315 468.262Z" fill="black"/>
<path d="M139.885 461.651L139.516 461.03L139.986 459.868C141.135 457.115 141.578 455.739 140.922 454.608C140.473 453.857 139.637 453.346 138.348 453.903C137.557 454.244 137.102 454.865 136.88 455.314L136.083 454.773C136.429 454.084 137.088 453.397 138.095 452.968C139.97 452.168 141.406 452.925 142.027 453.98C142.833 455.351 142.329 456.949 141.391 459.231L141.024 460.078L141.023 460.099L144.939 458.432L145.435 459.259L139.898 461.63L139.885 461.651Z" fill="black"/>
<path d="M185.256 447.587C185.703 447.626 186.642 447.577 187.458 447.236C188.963 446.592 188.952 445.571 188.57 444.96C187.948 443.926 186.586 443.948 185.45 444.436L184.8 444.72L184.35 443.968L185.001 443.685C185.855 443.325 186.709 442.485 186.191 441.604C185.846 441.016 185.088 440.679 184.004 441.137C183.316 441.429 182.801 441.984 182.557 442.368L181.826 441.766C182.112 441.287 182.819 440.623 183.763 440.224C185.472 439.492 186.756 440.03 187.286 440.923C187.735 441.685 187.591 442.562 186.716 443.347L186.715 443.368C187.902 443.095 189.172 443.41 189.795 444.444C190.497 445.63 190.023 447.133 187.943 448.02C186.974 448.44 185.957 448.54 185.386 448.486L185.244 447.576L185.256 447.587Z" fill="black"/>
<path d="M237.405 435.705L236.207 433.692L232.176 435.419L231.784 434.755L232.864 428.373L234.127 427.826L236.857 432.43L238.068 431.913L238.529 432.696L237.317 433.213L238.515 435.227L237.405 435.705ZM235.747 432.898L234.285 430.427C234.055 430.036 233.837 429.644 233.632 429.243L233.594 429.263C233.579 429.805 233.546 430.218 233.524 430.664L232.892 434.085L232.89 434.106L235.748 432.887L235.747 432.898Z" fill="black"/>
<path d="M466.649 370.69C466.915 370.605 467.197 370.456 467.582 370.247C468.213 369.878 468.712 369.366 468.968 368.748C469.277 368.058 469.306 367.23 468.953 366.291L468.915 366.311C468.73 367.016 468.213 367.613 467.346 367.984C465.79 368.647 464.183 368.075 463.446 366.813C462.618 365.409 463.079 363.672 464.852 362.911C466.625 362.149 468.447 362.911 469.564 364.804C470.531 366.437 470.561 367.842 470.12 368.92C469.779 369.768 469.068 370.496 468.182 370.994C467.783 371.234 467.425 371.401 467.132 371.517L466.648 370.701L466.649 370.69ZM464.561 366.249C465.101 367.174 466.144 367.544 467.165 367.105C467.956 366.763 468.372 366.173 468.413 365.6C468.419 365.483 468.401 365.344 468.309 365.192C467.56 363.929 466.436 363.195 465.211 363.722C464.203 364.151 463.951 365.205 464.561 366.249Z" fill="black"/>
<path d="M508.088 353.618L508.064 353.613L506.646 354.782L505.706 353.45L507.681 351.867L509.436 351.429L512.805 359.488L510.758 359.995L508.09 353.608L508.088 353.618Z" fill="black"/>
<path d="M520.777 353.034C521.826 355.525 521.415 357.518 519.102 358.09C516.789 358.662 514.946 357.057 513.986 354.78C513.011 352.446 513.345 350.317 515.684 349.74C518.104 349.136 519.855 350.83 520.777 353.034ZM516.102 354.243C516.859 356.1 517.726 356.853 518.551 356.644C519.376 356.436 519.434 355.409 518.662 353.571C517.889 351.733 517.091 350.951 516.24 351.165C515.455 351.36 515.299 352.367 516.102 354.243Z" fill="black"/>
<path d="M556.357 338.911L556.332 338.906L555.069 340.063L554.485 339.292L556.065 337.854L557.115 337.595L560.484 345.654L559.3 345.95L556.359 338.9L556.357 338.911Z" fill="black"/>
<path d="M563.496 337.137L563.472 337.132L562.209 338.289L561.624 337.518L563.204 336.08L564.254 335.821L567.623 343.88L566.44 344.177L563.498 337.126L563.496 337.137Z" fill="black"/>
<path d="M602.107 326.209L602.082 326.204L600.819 327.361L600.235 326.591L601.815 325.153L602.865 324.894L606.234 332.953L605.05 333.249L602.108 326.199L602.107 326.209Z" fill="black"/>
<path d="M609.541 332.145L609.257 331.469L609.87 330.394C611.358 327.854 611.972 326.563 611.47 325.333C611.123 324.514 610.364 323.87 609.02 324.209C608.195 324.417 607.666 324.958 607.389 325.366L606.671 324.698C607.102 324.072 607.84 323.5 608.89 323.24C610.844 322.757 612.164 323.744 612.642 324.893C613.261 326.386 612.558 327.886 611.339 329.994L610.868 330.773L610.865 330.794L614.945 329.787L615.328 330.689L609.557 332.126L609.541 332.145Z" fill="black"/>
<path d="M647.857 314.17L647.832 314.165L646.569 315.322L645.985 314.552L647.565 313.114L648.615 312.855L651.984 320.914L650.8 321.21L647.859 314.16L647.857 314.17Z" fill="black"/>
<path d="M655.063 318.778C655.5 318.89 656.433 318.997 657.283 318.793C658.851 318.403 658.971 317.389 658.673 316.721C658.191 315.592 656.844 315.39 655.66 315.686L654.981 315.86L654.634 315.041L655.313 314.867C656.203 314.651 657.153 313.96 656.755 313C656.489 312.361 655.785 311.901 654.656 312.176C653.939 312.353 653.36 312.818 653.069 313.158L652.425 312.44C652.768 312.013 653.552 311.472 654.535 311.231C656.317 310.788 657.515 311.533 657.923 312.506C658.269 313.335 658.014 314.181 657.049 314.815L657.045 314.836C658.252 314.761 659.466 315.282 659.948 316.411C660.489 317.703 659.828 319.114 657.661 319.651C656.65 319.907 655.634 319.838 655.076 319.69L655.053 318.765L655.063 318.778Z" fill="black"/>
<path d="M695.856 300.386L695.832 300.381L694.569 301.538L693.984 300.767L695.565 299.329L696.615 299.07L699.984 307.129L698.8 307.426L695.858 300.375L695.856 300.386Z" fill="black"/>
<path d="M707.07 305.384L706.146 303.19L701.944 304.237L701.643 303.515L703.529 297.365L704.846 297.032L706.949 302.046L708.212 301.734L708.566 302.586L707.303 302.899L708.227 305.093L707.07 305.384ZM705.794 302.327L704.667 299.636C704.491 299.21 704.326 298.786 704.175 298.354L704.135 298.368C704.051 298.902 703.965 299.307 703.886 299.745L702.822 303.033L702.818 303.054L705.796 302.316L705.794 302.327Z" fill="black"/>
<path d="M740.59 289.827L740.566 289.822L739.147 291L738.206 289.669L740.181 288.086L741.936 287.647L745.305 295.706L743.258 296.214L740.59 289.827Z" fill="black"/>
<path d="M751.61 286.952L748.099 287.828L748.425 289.119C748.615 289.05 748.775 289.007 749.002 288.946C749.866 288.735 750.815 288.682 751.62 288.935C752.477 289.178 753.175 289.744 753.565 290.68C754.194 292.185 753.305 293.874 750.86 294.473C749.758 294.743 748.753 294.752 748.152 294.638L747.929 293.13C748.41 293.208 749.321 293.223 750.146 293.015C751.024 292.796 751.794 292.187 751.44 291.334C751.086 290.481 750.138 290.177 748.33 290.626C747.826 290.749 747.488 290.863 747.132 291.006L745.955 286.627L750.941 285.384L751.587 286.936L751.61 286.952Z" fill="black"/>
<path d="M787.357 275.837L787.333 275.832L786.07 276.989L785.485 276.219L787.065 274.781L788.115 274.522L791.484 282.581L790.301 282.877L787.359 275.827L787.357 275.837Z" fill="black"/>
<path d="M796.9 273.2C796.65 273.246 796.328 273.342 795.999 273.479C794.197 274.243 793.71 275.745 794.057 277.127L794.097 277.114C794.31 276.497 794.89 275.892 795.887 275.643C797.482 275.248 799.049 275.994 799.704 277.569C800.325 279.051 799.762 280.689 797.887 281.156C796.013 281.624 794.125 280.616 793.247 278.518C792.582 276.93 792.698 275.514 793.261 274.505C793.731 273.66 794.574 273.001 795.65 272.595C795.992 272.46 796.288 272.37 796.515 272.309L796.887 273.198L796.9 273.2ZM798.495 277.936C798.016 276.787 796.98 276.27 795.851 276.545C795.119 276.729 794.609 277.306 794.513 277.979C794.486 278.125 794.493 278.3 794.571 278.5C795.157 279.823 796.243 280.632 797.532 280.314C798.596 280.047 798.971 279.096 798.495 277.936Z" fill="black"/>
<path d="M834.607 263.307L834.583 263.302L833.32 264.459L832.735 263.688L834.316 262.25L835.365 261.991L838.734 270.05L837.551 270.346L834.609 263.296L834.607 263.307Z" fill="black"/>
<path d="M844.54 259.71L844.841 260.432L843.973 268.752L842.71 269.064L843.655 260.956L843.658 260.935L839.22 262.03L838.837 261.128L844.54 259.71Z" fill="black"/>
<path d="M881.857 249.076L881.833 249.071L880.57 250.228L879.985 249.458L881.566 248.02L882.615 247.761L885.984 255.819L884.801 256.116L881.859 249.066L881.857 249.076Z" fill="black"/>
<path d="M888.325 252.991C887.9 251.972 888.276 251.086 889.216 250.382L889.185 250.343C888.009 250.176 887.29 249.583 886.998 248.884C886.467 247.605 887.313 246.437 888.896 246.039C890.651 245.601 891.935 246.365 892.35 247.371C892.632 248.057 892.573 248.879 891.65 249.63L891.669 249.666C892.968 249.783 893.952 250.311 894.358 251.294C894.944 252.693 893.988 253.978 892.261 254.4C890.372 254.876 888.801 254.151 888.317 252.968L888.325 252.991ZM893.175 251.731C892.768 250.749 891.802 250.473 890.445 250.463C889.497 251.003 889.195 251.763 889.513 252.533C889.819 253.365 890.814 253.906 891.969 253.626C893.124 253.345 893.518 252.571 893.175 251.731ZM888.115 248.53C888.452 249.336 889.318 249.602 890.463 249.59C891.139 249.156 891.534 248.512 891.221 247.787C890.955 247.147 890.246 246.578 889.143 246.848C888.132 247.105 887.823 247.831 888.115 248.53Z" fill="black"/>
<path d="M927.607 236.281L927.583 236.276L926.32 237.433L925.735 236.663L927.315 235.225L928.353 234.963L931.722 243.022L930.538 243.319L927.597 236.268L927.607 236.281Z" fill="black"/>
<path d="M935.443 241.259C935.717 241.218 936.015 241.118 936.421 240.974C937.091 240.712 937.65 240.287 937.982 239.716C938.376 239.083 938.51 238.267 938.283 237.278L938.242 237.291C937.969 237.96 937.382 238.467 936.478 238.691C934.857 239.092 933.344 238.259 932.779 236.887C932.141 235.358 932.82 233.712 934.668 233.25C936.517 232.788 938.218 233.843 939.077 235.905C939.822 237.683 939.671 239.081 939.098 240.077C938.651 240.862 937.856 241.466 936.917 241.813C936.505 241.988 936.118 242.092 935.814 242.159L935.441 241.27L935.443 241.259ZM933.94 236.509C934.355 237.515 935.336 238.054 936.401 237.787C937.225 237.579 937.712 237.062 937.826 236.501C937.847 236.387 937.847 236.246 937.776 236.079C937.199 234.704 936.183 233.79 934.906 234.111C933.868 234.373 933.472 235.373 933.94 236.509Z" fill="black"/>
<path d="M973.173 232.561L972.693 231.423L973.463 230.185C974.776 228.118 975.363 226.973 974.99 226.019C974.714 225.366 974.053 224.948 973.003 225.207C972.219 225.402 971.693 225.922 971.348 226.359L970.181 225.154C970.675 224.531 971.577 223.895 972.801 223.585C974.848 223.077 976.42 223.868 977.032 225.326C977.601 226.678 976.951 228.027 976.081 229.395L975.513 230.22L975.51 230.24L978.937 229.401L979.584 230.953L973.163 232.548L973.173 232.561Z" fill="black"/>
<path d="M985.885 224.9C986.933 227.39 986.522 229.384 984.209 229.955C981.897 230.527 980.053 228.923 979.093 226.645C978.118 224.311 978.452 222.182 980.791 221.605C983.13 221.028 984.962 222.695 985.885 224.9ZM981.207 226.119C981.964 227.975 982.831 228.728 983.656 228.52C984.481 228.312 984.539 227.285 983.767 225.447C982.994 223.609 982.196 222.827 981.345 223.04C980.56 223.235 980.404 224.242 981.207 226.119Z" fill="black"/>
<path d="M1022.56 219.265L1022.28 218.589L1022.89 217.514C1024.38 214.974 1024.99 213.683 1024.49 212.453C1024.14 211.634 1023.38 210.99 1022.04 211.329C1021.22 211.538 1020.69 212.078 1020.41 212.486L1019.69 211.818C1020.12 211.192 1020.86 210.62 1021.91 210.36C1023.87 209.877 1025.18 210.864 1025.66 212.013C1026.28 213.506 1025.58 215.006 1024.36 217.114L1023.89 217.893L1023.89 217.914L1027.97 216.907L1028.35 217.809L1022.58 219.246L1022.56 219.265Z" fill="black"/>
<path d="M1029.42 209.786L1029.39 209.781L1028.13 210.938L1027.55 210.168L1029.13 208.73L1030.18 208.471L1033.55 216.529L1032.36 216.826L1029.42 209.776L1029.42 209.786Z" fill="black"/>
<path d="M1069.06 206.571L1068.78 205.895L1069.39 204.82C1070.88 202.28 1071.49 200.989 1070.99 199.759C1070.64 198.94 1069.89 198.296 1068.54 198.635C1067.72 198.844 1067.19 199.384 1066.91 199.792L1066.19 199.124C1066.62 198.498 1067.36 197.926 1068.41 197.667C1070.37 197.183 1071.69 198.171 1072.16 199.32C1072.78 200.812 1072.08 202.312 1070.86 204.42L1070.39 205.2L1070.39 205.221L1074.47 204.213L1074.85 205.115L1069.08 206.552L1069.06 206.571Z" fill="black"/>
<path d="M1076.21 204.79L1075.92 204.114L1076.53 203.039C1078.02 200.5 1078.64 199.208 1078.13 197.979C1077.79 197.16 1077.03 196.515 1075.68 196.855C1074.86 197.063 1074.33 197.603 1074.05 198.011L1073.34 197.343C1073.77 196.718 1074.5 196.145 1075.55 195.886C1077.51 195.402 1078.83 196.39 1079.31 197.539C1079.92 199.031 1079.22 200.531 1078 202.639L1077.53 203.419L1077.53 203.44L1081.61 202.432L1081.99 203.334L1076.22 204.772L1076.21 204.79Z" fill="black"/>
<path d="M1114.06 193.776L1113.78 193.1L1114.39 192.026C1115.88 189.486 1116.49 188.195 1115.99 186.965C1115.64 186.146 1114.88 185.502 1113.54 185.841C1112.72 186.049 1112.19 186.589 1111.91 186.998L1111.19 186.33C1111.62 185.704 1112.36 185.131 1113.41 184.872C1115.36 184.389 1116.68 185.376 1117.16 186.525C1117.78 188.017 1117.08 189.518 1115.86 191.626L1115.39 192.405L1115.39 192.426L1119.47 191.419L1119.85 192.321L1114.08 193.758L1114.06 193.776Z" fill="black"/>
<path d="M1120.97 190.672C1121.41 190.784 1122.34 190.89 1123.19 190.687C1124.76 190.297 1124.88 189.282 1124.58 188.614C1124.1 187.486 1122.75 187.283 1121.57 187.58L1120.89 187.753L1120.54 186.934L1121.22 186.761C1122.11 186.544 1123.06 185.853 1122.66 184.894C1122.4 184.254 1121.69 183.795 1120.56 184.07C1119.85 184.246 1119.27 184.711 1118.98 185.052L1118.33 184.334C1118.68 183.907 1119.46 183.365 1120.44 183.125C1122.22 182.681 1123.42 183.427 1123.83 184.399C1124.18 185.229 1123.92 186.075 1122.96 186.709L1122.95 186.729C1124.16 186.654 1125.37 187.176 1125.86 188.304C1126.4 189.596 1125.74 191.008 1123.57 191.545C1122.56 191.801 1121.54 191.732 1120.98 191.584L1120.96 190.659L1120.97 190.672Z" fill="black"/>
<path d="M1161.31 180.752L1161.03 180.077L1161.64 179.002C1163.13 176.462 1163.74 175.171 1163.24 173.941C1162.89 173.122 1162.14 172.478 1160.79 172.817C1159.97 173.025 1159.44 173.565 1159.16 173.974L1158.44 173.306C1158.87 172.68 1159.61 172.107 1160.66 171.848C1162.62 171.365 1163.94 172.352 1164.41 173.501C1165.03 174.993 1164.33 176.494 1163.11 178.602L1162.64 179.381L1162.64 179.402L1166.72 178.395L1167.1 179.297L1161.33 180.734L1161.31 180.752Z" fill="black"/>
<path d="M1172.24 178.03L1171.32 175.836L1167.12 176.884L1166.82 176.161L1168.7 170.012L1170.02 169.678L1172.12 174.693L1173.39 174.38L1173.74 175.233L1172.48 175.545L1173.4 177.739L1172.24 178.03ZM1170.97 174.984L1169.84 172.293C1169.66 171.867 1169.5 171.443 1169.35 171.011L1169.31 171.025C1169.22 171.559 1169.14 171.964 1169.06 172.402L1167.99 175.69L1167.99 175.711L1170.97 174.973L1170.97 174.984Z" fill="black"/>
<path d="M1198.92 171.023L1198.44 169.884L1199.21 168.647C1200.53 166.58 1201.11 165.435 1200.74 164.48C1200.46 163.828 1199.8 163.41 1198.75 163.669C1197.97 163.864 1197.44 164.383 1197.1 164.821L1195.93 163.616C1196.42 162.992 1197.33 162.356 1198.55 162.046C1200.6 161.539 1202.17 162.329 1202.78 163.788C1203.35 165.139 1202.7 166.488 1201.83 167.857L1201.26 168.681L1201.26 168.702L1204.69 167.863L1205.33 169.415L1198.91 171.01L1198.92 171.023Z" fill="black"/>
<path d="M1209.96 161.082L1206.45 161.959L1206.78 163.249C1206.97 163.18 1207.13 163.138 1207.36 163.076C1208.22 162.865 1209.17 162.812 1209.97 163.066C1210.83 163.308 1211.53 163.874 1211.92 164.81C1212.55 166.315 1211.66 168.005 1209.22 168.603C1208.11 168.873 1207.11 168.882 1206.51 168.768L1206.28 167.261C1206.76 167.339 1207.68 167.354 1208.5 167.146C1209.38 166.926 1210.15 166.317 1209.8 165.464C1209.44 164.612 1208.49 164.307 1206.69 164.756C1206.18 164.879 1205.84 164.993 1205.49 165.136L1204.31 160.757L1209.3 159.515L1209.94 161.067L1209.96 161.082Z" fill="black"/>
<path d="M54.6947 480.514C55.743 483.005 55.332 484.998 53.0194 485.57C50.7067 486.142 48.8635 484.537 47.9036 482.26C46.9287 479.926 47.2625 477.797 49.6015 477.22C51.9406 476.643 53.7725 478.31 54.6947 480.514ZM50.0176 481.734C50.7742 483.59 51.6412 484.343 52.4661 484.135C53.2909 483.927 53.3496 482.899 52.577 481.061C51.8044 479.224 51.0061 478.441 50.1548 478.655C49.3705 478.85 49.2139 479.857 50.0176 481.734Z" fill="black"/>
<path d="M1200.82 149.857L1205.78 158.853" stroke="black" stroke-width="5.94" stroke-miterlimit="10"/>
<path d="M43.0299 466.823L48.009 475.821" stroke="black" stroke-width="5.94" stroke-miterlimit="10"/>
<path d="M86.714 454.882L91.6791 463.878" stroke="black" stroke-width="1.49" stroke-miterlimit="10"/>
<path d="M132.98 442.234L137.945 451.23" stroke="black" stroke-width="1.49" stroke-miterlimit="10"/>
<path d="M179.247 429.579L184.212 438.575" stroke="black" stroke-width="1.49" stroke-miterlimit="10"/>
<path d="M226.805 416.569L231.784 425.566" stroke="black" stroke-width="1.49" stroke-miterlimit="10"/>
<path d="M273.073 403.915L278.036 412.921" stroke="black" stroke-width="5.94" stroke-miterlimit="10"/>
<path d="M319.338 391.266L324.302 400.272" stroke="black" stroke-width="1.49" stroke-miterlimit="10"/>
<path d="M365.605 378.612L370.569 387.619" stroke="black" stroke-width="1.49" stroke-miterlimit="10"/>
<path d="M413.162 365.612L418.142 374.609" stroke="black" stroke-width="1.49" stroke-miterlimit="10"/>
<path d="M459.43 352.955L464.395 361.951" stroke="black" stroke-width="1.49" stroke-miterlimit="10"/>
<path d="M506.989 339.944L511.969 348.941" stroke="black" stroke-width="5.94" stroke-miterlimit="10"/>
<path d="M553.257 327.295L558.236 336.292" stroke="black" stroke-width="1.49" stroke-miterlimit="10"/>
<path d="M599.523 314.641L604.502 323.639" stroke="black" stroke-width="1.49" stroke-miterlimit="10"/>
<path d="M645.791 301.984L650.756 310.98" stroke="black" stroke-width="1.49" stroke-miterlimit="10"/>
<path d="M693.349 288.978L698.327 297.986" stroke="black" stroke-width="1.49" stroke-miterlimit="10"/>
<path d="M739.615 276.33L744.593 285.338" stroke="black" stroke-width="5.94" stroke-miterlimit="10"/>
<path d="M785.882 263.666L790.86 272.674" stroke="black" stroke-width="1.49" stroke-miterlimit="10"/>
<path d="M832.15 251.019L837.127 260.027" stroke="black" stroke-width="1.49" stroke-miterlimit="10"/>
<path d="M879.708 238.013L884.687 247.01" stroke="black" stroke-width="1.49" stroke-miterlimit="10"/>
<path d="M925.974 225.366L930.953 234.363" stroke="black" stroke-width="1.49" stroke-miterlimit="10"/>
<path d="M972.242 212.708L977.221 221.706" stroke="black" stroke-width="5.94" stroke-miterlimit="10"/>
<path d="M1019.8 199.705L1024.78 208.702" stroke="black" stroke-width="1.49" stroke-miterlimit="10"/>
<path d="M1066.07 187.047L1071.05 196.044" stroke="black" stroke-width="1.49" stroke-miterlimit="10"/>
<path d="M1112.33 174.398L1117.31 183.406" stroke="black" stroke-width="1.49" stroke-miterlimit="10"/>
<path d="M1159.89 161.386L1164.87 170.394" stroke="black" stroke-width="1.49" stroke-miterlimit="10"/>
</svg>
