<svg width="1060" height="864" viewBox="0 0 1060 864" fill="none" xmlns="http://www.w3.org/2000/svg">
<path d="M37.1499 434.68C30.3222 431.221 23.3711 425.091 16.4842 416.467L1041.15 415.743L1043.43 446.258C1041.89 444.133 1039.61 442.265 1036.73 440.809C1032.95 438.892 1028.34 437.818 1023.72 437.777C1014.65 437.706 1006.78 441.55 1004.2 447.217C1002.58 445.238 1000.33 443.487 997.636 442.122C993.801 440.179 989.322 439.093 984.675 438.967C975.979 438.73 967.997 442.049 964.491 447.267C962.984 444.758 960.487 442.574 957.193 440.905C953.268 438.916 948.478 437.844 943.697 437.88C934.94 437.957 927.351 441.738 924.804 447.202C923.219 444.745 920.703 442.597 917.47 440.959C913.145 438.767 907.94 437.692 902.798 437.936C894.617 438.316 887.658 442.027 885.106 447.258C883.565 444.788 881.068 442.628 877.835 440.989C874.161 439.127 869.87 438.091 865.416 437.982C856.232 437.762 848.208 441.576 845.492 447.345C843.891 445.04 841.468 443.031 838.414 441.484C834.179 439.338 829.053 438.257 823.964 438.424C815.716 438.69 808.561 442.29 805.79 447.456C804.189 445.151 801.75 443.123 798.687 441.571C794.462 439.43 789.331 438.335 784.241 438.478C775.908 438.712 768.654 442.285 765.809 447.471C764.262 444.988 761.766 442.827 758.512 441.178C754.408 439.098 749.43 438.023 744.483 438.159C735.849 438.39 728.59 442.167 726.118 447.634C724.515 445.822 722.364 444.216 719.851 442.942C715.947 440.964 711.378 439.855 706.632 439.724C698.01 439.491 690.2 442.598 686.439 447.676C684.941 445.148 682.429 442.945 679.125 441.271C675.2 439.282 670.41 438.21 665.629 438.246C656.887 438.319 649.307 442.106 646.745 447.55C645.22 445.1 642.749 442.964 639.525 441.33C635.731 439.408 631.109 438.329 626.489 438.297C617.491 438.229 609.684 442.015 607.037 447.601C605.526 445.147 603.055 443.01 599.831 441.377C596.037 439.454 591.4 438.379 586.775 438.356C577.807 438.304 570.045 442.101 567.452 447.679C565.857 445.217 563.352 443.075 560.118 441.436C555.793 439.245 550.573 438.173 545.432 438.417C537.261 438.802 530.302 442.513 527.749 447.744C526.204 445.284 523.703 443.132 520.469 441.493C516.755 439.611 512.415 438.573 507.907 438.471C498.708 438.278 490.675 442.111 487.969 447.884C486.347 445.742 484.011 443.857 481.128 442.396C476.843 440.225 471.642 439.118 466.489 439.286C458.305 439.55 451.269 442.946 448.297 448.01C446.634 445.801 444.238 443.863 441.304 442.377C437.85 440.627 433.831 439.578 429.695 439.343C420.592 438.82 412.032 442.351 408.493 448.001C406.981 445.5 404.479 443.325 401.205 441.666C397.241 439.658 392.391 438.579 387.571 438.64C378.909 438.754 371.384 442.534 368.836 447.951C367.306 445.51 364.835 443.374 361.611 441.74C357.787 439.802 353.105 438.717 348.431 438.691C339.448 438.643 331.627 442.433 328.97 448.013C327.399 445.552 324.898 443.4 321.675 441.767C318.011 439.91 313.735 438.87 309.295 438.733C300.065 438.479 291.952 442.271 289.117 448.048C287.611 445.585 285.13 443.444 281.897 441.805C277.972 439.816 273.182 438.745 268.401 438.78C259.644 438.857 252.054 442.639 249.508 448.103C247.913 445.64 245.402 443.507 242.179 441.873C237.864 439.687 232.649 438.607 227.502 438.836C219.256 439.195 212.233 442.908 209.651 448.17C208.076 445.695 205.565 443.538 202.321 441.894C198.046 439.728 192.876 438.659 187.783 438.881C179.557 439.25 172.588 442.956 170.056 448.221C168.471 445.763 165.956 443.616 162.722 441.977C158.427 439.801 153.247 438.727 148.124 438.934C139.834 439.282 132.786 442.993 130.2 448.265C128.613 445.761 126.087 443.585 122.833 441.936C119.58 440.287 115.461 439.188 111.37 438.988C101.947 438.52 93.3253 442.514 90.5123 448.567C87.2526 445.537 83.7754 443.074 80.1512 441.238C77.9287 440.112 75.628 439.21 73.2938 438.544C66.8489 436.714 62.0055 437.212 57.3246 437.689C54.4127 437.994 51.6634 438.278 48.5888 438.018C44.8112 437.701 40.9631 436.566 37.1688 434.644L37.1499 434.68Z" fill="#FFE54D"/>
<path d="M1040.72 416.183L1042.87 444.875C1041.35 443.164 1039.34 441.661 1036.93 440.438C1033.08 438.49 1028.38 437.394 1023.69 437.35C1014.78 437.281 1006.99 440.938 1004.07 446.419C1002.45 444.62 1000.32 443.024 997.813 441.755C993.919 439.782 989.365 438.669 984.639 438.549C976.106 438.315 968.248 441.466 964.474 446.469C962.898 444.143 960.474 442.11 957.37 440.538C953.376 438.514 948.496 437.42 943.636 437.461C935.082 437.537 927.615 441.106 924.707 446.34C923.068 444.085 920.656 442.128 917.642 440.601C913.247 438.374 907.938 437.281 902.722 437.521C894.734 437.896 887.888 441.388 885.023 446.392C883.423 444.134 881.031 442.163 878.008 440.631C874.273 438.739 869.904 437.685 865.375 437.573C856.364 437.361 848.444 440.975 845.386 446.524C843.756 444.423 841.436 442.581 838.592 441.14C834.287 438.959 829.062 437.85 823.898 438.014C815.828 438.278 808.757 441.691 805.709 446.659C804.064 444.539 801.728 442.678 798.865 441.227C794.57 439.051 789.349 437.933 784.17 438.077C776.03 438.306 768.889 441.683 765.752 446.653C764.142 444.366 761.734 442.377 758.691 440.835C754.516 438.719 749.448 437.622 744.423 437.763C735.941 437.992 728.747 441.595 725.959 446.89C724.371 445.247 722.347 443.785 720.024 442.608C716.05 440.594 711.406 439.459 706.581 439.334C698.118 439.112 690.403 442.06 686.429 446.939C684.856 444.58 682.417 442.528 679.293 440.945C675.299 438.921 670.419 437.827 665.559 437.869C657.019 437.941 649.567 441.505 646.649 446.712C645.06 444.482 642.687 442.522 639.694 441.005C635.839 439.052 631.128 437.951 626.433 437.916C617.648 437.852 609.959 441.411 606.94 446.762C605.356 444.523 602.993 442.568 599.99 441.046C596.125 439.088 591.409 437.996 586.71 437.97C577.945 437.916 570.296 441.496 567.341 446.845C565.697 444.599 563.29 442.632 560.277 441.106C555.872 438.873 550.562 437.78 545.342 438.029C537.363 438.409 530.517 441.901 527.653 446.905C526.043 444.642 523.656 442.686 520.632 441.154C516.858 439.241 512.434 438.171 507.856 438.08C498.821 437.89 490.887 441.531 487.834 447.095C486.203 445.143 483.975 443.416 481.292 442.057C476.927 439.845 471.646 438.72 466.404 438.89C458.373 439.151 451.416 442.392 448.193 447.26C446.519 445.217 444.211 443.427 441.458 442.032C437.944 440.251 433.86 439.182 429.65 438.944C420.704 438.431 412.264 441.782 408.447 447.211C406.865 444.893 404.447 442.875 401.374 441.318C397.329 439.268 392.41 438.177 387.511 438.245C378.913 438.357 371.652 441.845 368.749 447.094C367.16 444.865 364.783 442.913 361.799 441.402C357.905 439.428 353.144 438.325 348.395 438.297C339.615 438.248 331.912 441.834 328.898 447.176C327.269 444.926 324.876 442.955 321.863 441.428C318.139 439.541 313.778 438.469 309.27 438.344C300.242 438.089 292.237 441.672 289.056 447.216C287.476 444.968 285.104 443.008 282.09 441.481C278.096 439.457 273.216 438.362 268.356 438.404C259.801 438.48 252.335 442.048 249.427 447.283C247.783 445.037 245.371 443.08 242.367 441.558C237.972 439.331 232.678 438.234 227.442 438.464C219.399 438.822 212.484 442.325 209.58 447.356C207.946 445.092 205.533 443.111 202.51 441.579C198.155 439.372 192.905 438.286 187.723 438.509C179.695 438.863 172.829 442.369 169.985 447.406C168.346 445.151 165.934 443.194 162.921 441.667C158.556 439.455 153.276 438.353 148.07 438.576C139.986 438.914 133.037 442.411 130.134 447.464C128.489 445.172 126.071 443.177 123.027 441.635C119.553 439.875 115.52 438.83 111.355 438.627C102.045 438.16 93.4744 442.007 90.3411 447.897C87.1845 445.034 83.8239 442.688 80.3399 440.923C78.0973 439.786 75.7566 438.864 73.3877 438.192C66.8433 436.335 61.9604 436.836 57.2353 437.325C54.3529 437.622 51.6183 437.902 48.5885 437.653C44.8703 437.343 41.0917 436.221 37.3675 434.334C30.7799 430.996 24.0734 425.151 17.4192 416.932L1000.56 416.21L1040.72 416.183ZM1041.58 415.308C699.585 415.549 357.591 415.79 15.5978 416.032C23.5764 426.186 30.7592 431.916 36.9663 435.061C41.3513 437.283 45.2334 438.205 48.5653 438.48C56.7394 439.164 62.8938 436.057 73.1808 438.984C75.6392 439.678 77.8911 440.601 79.9435 441.641C84.5487 443.974 88.1275 446.925 90.6851 449.358C93.1659 443.068 101.889 438.976 111.371 439.451C115.472 439.656 119.367 440.699 122.631 442.353C126.045 444.083 128.76 446.481 130.265 449.311C132.448 443.721 139.643 439.773 148.17 439.408C153.332 439.198 158.415 440.314 162.52 442.394C165.894 444.104 168.602 446.464 170.127 449.258C172.246 443.693 179.361 439.728 187.815 439.359C192.947 439.134 198.019 440.246 202.104 442.315C205.488 444.03 208.192 446.399 209.697 449.207C211.87 443.634 219.031 439.681 227.523 439.309C232.695 439.081 237.822 440.209 241.947 442.299C245.321 444.008 248.03 446.369 249.569 449.159C251.648 443.377 259.349 439.331 268.407 439.257C273.253 439.22 277.915 440.319 281.679 442.226C285.073 443.946 287.738 446.318 289.154 449.103C291.521 443.009 299.893 438.934 309.282 439.2C313.716 439.322 317.948 440.398 321.442 442.169C324.936 443.939 327.526 446.262 329.015 449.05C331.205 443.153 339.177 439.094 348.422 439.149C353.16 439.172 357.694 440.275 361.379 442.142C364.763 443.857 367.432 446.22 368.877 448.997C370.956 443.239 378.594 439.217 387.567 439.089C392.452 439.025 397.163 440.126 400.968 442.054C404.362 443.774 407.026 446.146 408.462 448.941C411.667 442.961 420.375 439.264 429.662 439.8C433.808 440.04 437.753 441.108 441.067 442.788C444.15 444.35 446.684 446.438 448.334 448.893C450.994 443.625 458.163 440.021 466.5 439.754C471.693 439.582 476.786 440.727 480.901 442.812C483.944 444.354 486.453 446.418 488.052 448.848C490.322 442.819 498.556 438.744 507.889 438.947C512.387 439.044 516.693 440.123 520.227 441.913C523.761 443.704 526.31 446.007 527.775 448.794C529.924 443.243 537.02 439.292 545.448 438.899C550.629 438.652 555.747 439.775 559.881 441.87C563.255 443.58 565.974 445.945 567.494 448.749C569.615 442.862 577.542 438.792 586.762 438.846C591.461 438.873 595.95 439.964 599.595 441.811C602.989 443.53 605.653 445.903 607.079 448.693C609.248 442.785 617.24 438.714 626.486 438.792C631.17 438.822 635.654 439.923 639.299 441.77C642.692 443.489 645.357 445.862 646.802 448.639C648.881 442.857 656.582 438.811 665.641 438.737C670.486 438.7 675.149 439.799 678.913 441.706C682.307 443.426 684.972 445.798 686.387 448.583C689.866 443.27 697.853 439.966 706.628 440.196C711.354 440.317 715.894 441.457 719.639 443.354C722.332 444.719 724.61 446.47 726.253 448.521C728.355 442.843 735.761 438.854 744.509 438.623C749.505 438.489 754.365 439.597 758.29 441.585C761.674 443.3 764.363 445.673 765.824 448.469C768.295 442.979 775.648 439.192 784.252 438.946C789.391 438.805 794.405 439.932 798.46 441.987C801.663 443.61 804.264 445.812 805.838 448.413C808.242 442.957 815.49 439.175 823.985 438.897C829.114 438.727 834.138 439.86 838.192 441.914C841.406 443.543 844.012 445.759 845.567 448.373C847.822 442.325 856.08 438.251 865.404 438.472C869.858 438.581 874.104 439.653 877.598 441.423C881.002 443.148 883.677 445.526 885.137 448.322C887.291 442.762 894.382 438.82 902.825 438.423C907.991 438.18 913.123 439.299 917.248 441.389C920.622 443.099 923.341 445.464 924.86 448.267C926.939 442.486 934.641 438.44 943.699 438.366C948.545 438.328 953.207 439.427 956.971 441.335C960.365 443.054 963.03 445.427 964.445 448.212C967.648 442.701 975.734 439.206 984.667 439.448C989.304 439.569 993.75 440.696 997.414 442.552C1000.29 444.008 1002.68 445.923 1004.32 448.164C1006.48 442.251 1014.48 438.185 1023.72 438.263C1028.4 438.302 1032.87 439.393 1036.51 441.239C1039.91 442.959 1042.57 445.332 1044.01 448.118L1041.56 415.358L1041.58 415.308Z" fill="black"/>
<path d="M251.281 430.106L247.942 430.114L247.851 431.365C248.038 431.345 248.191 431.343 248.408 431.338C249.228 431.34 250.077 431.506 250.71 431.919C251.393 432.333 251.84 433.008 251.909 433.95C252.022 435.466 250.747 436.807 248.426 436.802C247.378 436.8 246.493 436.581 245.998 436.342L246.243 434.915C246.643 435.095 247.439 435.315 248.224 435.31C249.059 435.308 249.913 434.926 249.852 434.068C249.79 433.21 249.046 432.718 247.327 432.72C246.848 432.718 246.518 432.746 246.164 432.796L246.409 428.533L251.151 428.524L251.266 430.087L251.281 430.106Z" fill="black"/>
<path d="M288.538 429.275C288.305 429.26 287.994 429.275 287.665 429.326C285.859 429.618 284.993 430.878 284.894 432.218L284.934 432.215C285.301 431.7 285.986 431.278 286.935 431.276C288.451 431.275 289.609 432.31 289.724 433.896C289.837 435.389 288.864 436.756 287.081 436.76C285.298 436.764 283.934 435.419 283.776 433.306C283.656 431.705 284.172 430.439 284.961 429.645C285.621 428.98 286.554 428.568 287.617 428.441C287.957 428.395 288.243 428.379 288.46 428.374L288.528 429.27L288.538 429.275ZM288.555 433.958C288.471 432.801 287.712 432.095 286.64 432.092C285.943 432.095 285.326 432.506 285.045 433.099C284.979 433.226 284.934 433.387 284.944 433.587C285.073 434.927 285.79 435.911 287.015 435.911C288.027 435.907 288.634 435.124 288.555 433.958Z" fill="black"/>
<path d="M329.478 428.575L329.532 429.302L326.339 436.701L325.138 436.701L328.337 429.513L328.346 429.494L324.128 429.493L324.055 428.583L329.478 428.575Z" fill="black"/>
<path d="M364.553 434.462C364.477 433.435 365.066 432.711 366.097 432.281L366.081 432.238C365.097 431.82 364.639 431.117 364.587 430.413C364.494 429.125 365.578 428.25 367.085 428.244C368.754 428.24 369.659 429.227 369.729 430.239C369.777 430.929 369.485 431.666 368.455 432.143L368.46 432.18C369.567 432.581 370.277 433.285 370.347 434.273C370.453 435.682 369.237 436.64 367.597 436.636C365.799 436.644 364.632 435.627 364.552 434.438L364.553 434.462ZM369.18 434.406C369.11 433.417 368.342 432.947 367.153 432.632C366.163 432.911 365.675 433.537 365.729 434.311C365.756 435.14 366.471 435.858 367.567 435.863C368.664 435.867 369.236 435.25 369.18 434.406ZM365.672 430.342C365.732 431.154 366.415 431.592 367.424 431.839C368.144 431.595 368.68 431.097 368.616 430.364C368.57 429.721 368.113 429.041 367.065 429.039C366.102 429.045 365.619 429.638 365.672 430.342Z" fill="black"/>
<path d="M89.0012 429.933L88.9812 429.923L87.534 430.694L87.2457 429.859L89.0537 428.903L90.0515 428.903L90.656 437.02L89.5298 437.023L89.0059 429.924L89.0012 429.933Z" fill="black"/>
<path d="M127.317 436.974L127.265 436.293L128.118 435.45C130.166 433.467 131.083 432.427 131.001 431.191C130.936 430.366 130.457 429.606 129.177 429.613C128.392 429.617 127.77 429.99 127.407 430.3L126.972 429.529C127.533 429.055 128.349 428.699 129.347 428.699C131.204 428.698 132.075 429.897 132.159 431.054C132.267 432.556 131.211 433.767 129.525 435.416L128.883 436.022L128.874 436.04L132.752 436.041L132.824 436.951L127.337 436.961L127.317 436.974Z" fill="black"/>
<path d="M166.713 435.526C167.064 435.727 167.852 436.034 168.657 436.04C170.149 436.038 170.551 435.139 170.484 434.462C170.39 433.323 169.266 432.834 168.14 432.838L167.493 432.843L167.427 432.017L168.074 432.012C168.919 432.015 169.956 431.599 169.886 430.633C169.84 429.989 169.356 429.411 168.284 429.408C167.602 429.407 166.958 429.701 166.603 429.946L166.247 429.145C166.673 428.833 167.52 428.515 168.453 428.517C170.148 428.514 170.982 429.466 171.057 430.445C171.118 431.28 170.647 431.995 169.614 432.356L169.605 432.374C170.687 432.578 171.601 433.328 171.694 434.467C171.792 435.768 170.799 436.907 168.739 436.909C167.776 436.915 166.904 436.622 166.458 436.361L166.707 435.512L166.713 435.526Z" fill="black"/>
<path d="M209.355 436.865L209.184 434.654L205.188 434.662L205.135 433.934L208.587 428.746L209.842 428.739L210.224 433.791L211.424 433.79L211.486 434.649L210.286 434.649L210.456 436.861L209.355 436.865ZM209.127 433.787L208.924 431.076C208.893 430.647 208.872 430.223 208.866 429.795L208.827 429.798C208.597 430.267 208.403 430.617 208.206 431L206.311 433.761L206.302 433.779L209.132 433.778L209.127 433.787Z" fill="black"/>
<path d="M404.646 435.692C404.899 435.717 405.189 435.692 405.589 435.653C406.253 435.565 406.869 435.303 407.327 434.857C407.857 434.368 408.214 433.653 408.303 432.699L408.264 432.702C407.828 433.251 407.165 433.581 406.306 433.582C404.765 433.582 403.679 432.48 403.584 431.1C403.47 429.561 404.547 428.211 406.305 428.206C408.064 428.201 409.249 429.549 409.402 431.624C409.537 433.416 408.996 434.658 408.201 435.438C407.58 436.053 406.705 436.426 405.779 436.531C405.356 436.592 404.996 436.605 404.709 436.597L404.641 435.701L404.646 435.692ZM404.723 431.022C404.794 432.034 405.499 432.748 406.511 432.744C407.297 432.74 407.875 432.378 408.139 431.892C408.191 431.792 408.232 431.663 408.218 431.495C408.113 430.11 407.488 429.046 406.273 429.051C405.275 429.051 404.644 429.88 404.723 431.022Z" fill="black"/>
<path d="M443.079 429.969L443.059 429.959L441.473 430.706L441.036 429.278L443.233 428.278L444.902 428.274L445.507 436.391L443.561 436.392L443.084 429.96L443.079 429.969Z" fill="black"/>
<path d="M454.394 432.299C454.587 434.808 453.644 436.536 451.445 436.536C449.247 436.536 448.097 434.656 447.92 432.36C447.745 430.009 448.66 428.142 450.883 428.142C453.185 428.137 454.228 430.078 454.394 432.299ZM449.935 432.348C450.057 434.213 450.598 435.096 451.384 435.092C452.169 435.088 452.52 434.163 452.379 432.311C452.237 430.459 451.765 429.565 450.955 429.568C450.209 429.569 449.777 430.453 449.935 432.348Z" fill="black"/>
<path d="M483.363 429.396L483.343 429.386L481.896 430.157L481.608 429.322L483.416 428.366L484.414 428.366L485.018 436.483L483.892 436.486L483.368 429.387L483.363 429.396Z" fill="black"/>
<path d="M490.152 429.388L490.132 429.378L488.685 430.149L488.396 429.314L490.204 428.358L491.202 428.358L491.807 436.474L490.681 436.478L490.157 429.379L490.152 429.388Z" fill="black"/>
<path d="M522.579 429.345L522.559 429.335L521.112 430.106L520.824 429.271L522.632 428.315L523.63 428.315L524.234 436.432L523.108 436.435L522.584 429.336L522.579 429.345Z" fill="black"/>
<path d="M527.375 436.441L527.323 435.76L528.175 434.917C530.224 432.934 531.14 431.894 531.059 430.658C530.993 429.832 530.514 429.073 529.235 429.079C528.45 429.083 527.827 429.457 527.465 429.767L527.03 428.995C527.591 428.522 528.406 428.165 529.404 428.166C531.261 428.165 532.132 429.364 532.216 430.521C532.324 432.023 531.269 433.234 529.582 434.883L528.941 435.488L528.932 435.507L532.809 435.507L532.882 436.417L527.394 436.428L527.375 436.441Z" fill="black"/>
<path d="M561.779 429.156L561.759 429.146L560.312 429.917L560.023 429.082L561.831 428.126L562.829 428.126L563.434 436.242L562.307 436.246L561.783 429.147L561.779 429.156Z" fill="black"/>
<path d="M566.762 434.986C567.113 435.187 567.902 435.494 568.707 435.5C570.199 435.498 570.6 434.599 570.533 433.922C570.44 432.783 569.316 432.294 568.19 432.298L567.543 432.303L567.477 431.477L568.124 431.472C568.968 431.475 570.005 431.059 569.936 430.093C569.889 429.449 569.405 428.871 568.333 428.868C567.652 428.867 567.007 429.16 566.653 429.406L566.296 428.605C566.723 428.293 567.569 427.975 568.503 427.977C570.197 427.974 571.032 428.926 571.106 429.905C571.167 430.74 570.697 431.455 569.664 431.816L569.655 431.834C570.737 432.038 571.65 432.788 571.744 433.927C571.841 435.228 570.848 436.367 568.788 436.369C567.825 436.375 566.953 436.082 566.507 435.821L566.757 434.972L566.762 434.986Z" fill="black"/>
<path d="M602.117 429.23L602.097 429.219L600.65 429.991L600.362 429.156L602.17 428.2L603.168 428.2L603.772 436.316L602.646 436.32L602.122 429.221L602.117 429.23Z" fill="black"/>
<path d="M610.505 436.321L610.334 434.11L606.338 434.118L606.285 433.39L609.738 428.203L610.992 428.195L611.374 433.247L612.575 433.247L612.636 434.105L611.436 434.105L611.607 436.317L610.505 436.321ZM610.277 433.243L610.074 430.532C610.043 430.103 610.023 429.679 610.016 429.251L609.977 429.254C609.747 429.723 609.554 430.073 609.356 430.456L607.461 433.217L607.452 433.235L610.282 433.234L610.277 433.243Z" fill="black"/>
<path d="M640.269 429.701L640.249 429.691L638.658 430.447L638.221 429.02L640.418 428.02L642.088 428.016L642.692 436.132L640.746 436.134L640.269 429.701Z" fill="black"/>
<path d="M650.787 429.563L647.448 429.571L647.357 430.823C647.544 430.803 647.697 430.8 647.914 430.795C648.734 430.797 649.583 430.963 650.216 431.376C650.899 431.791 651.346 432.465 651.415 433.407C651.528 434.923 650.253 436.265 647.932 436.26C646.884 436.257 645.999 436.039 645.504 435.799L645.749 434.373C646.149 434.552 646.945 434.772 647.73 434.768C648.565 434.766 649.419 434.383 649.358 433.525C649.296 432.667 648.552 432.175 646.833 432.177C646.354 432.176 646.024 432.204 645.67 432.254L645.915 427.991L650.657 427.981L650.772 429.544L650.787 429.563Z" fill="black"/>
<path d="M680.533 428.989L680.513 428.979L679.066 429.751L678.778 428.915L680.586 427.959L681.583 427.96L682.188 436.076L681.062 436.08L680.538 428.98L680.533 428.989Z" fill="black"/>
<path d="M689.685 428.734C689.452 428.72 689.141 428.734 688.812 428.786C687.006 429.077 686.14 430.338 686.041 431.677L686.081 431.674C686.448 431.16 687.133 430.738 688.082 430.736C689.598 430.735 690.756 431.769 690.871 433.355C690.984 434.848 690.011 436.216 688.228 436.22C686.445 436.223 685.081 434.878 684.923 432.765C684.803 431.165 685.319 429.898 686.108 429.104C686.768 428.439 687.701 428.027 688.764 427.9C689.104 427.854 689.39 427.838 689.607 427.833L689.675 428.729L689.685 428.734ZM689.702 433.417C689.618 432.261 688.858 431.554 687.786 431.551C687.09 431.554 686.473 431.965 686.192 432.558C686.126 432.685 686.081 432.846 686.091 433.046C686.22 434.386 686.937 435.37 688.162 435.37C689.174 435.367 689.781 434.583 689.702 433.417Z" fill="black"/>
<path d="M720.866 429.075L720.846 429.065L719.399 429.836L719.111 429.001L720.919 428.045L721.917 428.045L722.521 436.162L721.395 436.165L720.871 429.066L720.866 429.075Z" fill="black"/>
<path d="M730.64 428.031L730.694 428.759L727.501 436.157L726.301 436.158L729.499 428.969L729.508 428.95L725.29 428.949L725.217 428.039L730.64 428.031Z" fill="black"/>
<path d="M762.279 428.88L762.259 428.87L760.811 429.641L760.523 428.806L762.331 427.85L763.329 427.85L763.933 435.967L762.807 435.971L762.283 428.871L762.279 428.88Z" fill="black"/>
<path d="M766.816 433.913C766.74 432.887 767.329 432.163 768.36 431.732L768.344 431.69C767.36 431.272 766.903 430.569 766.85 429.864C766.757 428.577 767.841 427.702 769.348 427.696C771.017 427.692 771.922 428.679 771.992 429.691C772.04 430.381 771.748 431.117 770.718 431.594L770.724 431.632C771.831 432.032 772.54 432.736 772.61 433.725C772.716 435.134 771.501 436.091 769.86 436.087C768.063 436.095 766.895 435.079 766.815 433.89L766.816 433.913ZM771.443 433.857C771.373 432.868 770.605 432.399 769.416 432.084C768.426 432.363 767.938 432.988 767.993 433.763C768.019 434.592 768.734 435.31 769.831 435.314C770.927 435.319 771.499 434.701 771.443 433.857ZM767.935 429.794C767.995 430.605 768.678 431.043 769.687 431.291C770.407 431.047 770.943 430.548 770.879 429.816C770.833 429.172 770.376 428.492 769.329 428.49C768.366 428.496 767.882 429.089 767.935 429.794Z" fill="black"/>
<path d="M800.38 428.836L800.36 428.826L798.913 429.598L798.625 428.762L800.433 427.806L801.421 427.801L802.025 435.918L800.899 435.922L800.375 428.822L800.38 428.836Z" fill="black"/>
<path d="M805.808 435.15C806.06 435.174 806.351 435.149 806.75 435.11C807.415 435.022 808.03 434.76 808.488 434.314C809.019 433.825 809.376 433.11 809.465 432.156L809.425 432.159C808.99 432.708 808.327 433.038 807.467 433.039C805.926 433.039 804.841 431.938 804.746 430.557C804.632 429.018 805.709 427.668 807.467 427.663C809.225 427.658 810.411 429.006 810.563 431.082C810.699 432.873 810.158 434.115 809.363 434.895C808.741 435.511 807.867 435.883 806.941 435.988C806.527 436.054 806.157 436.062 805.871 436.054L805.803 435.159L805.808 435.15ZM805.875 430.475C805.945 431.487 806.65 432.2 807.663 432.196C808.448 432.192 809.027 431.83 809.291 431.344C809.343 431.244 809.384 431.115 809.369 430.947C809.265 429.562 808.639 428.499 807.424 428.503C806.437 428.508 805.796 429.332 805.875 430.475Z" fill="black"/>
<path d="M836.46 435.879L836.371 434.731L837.408 433.775C839.165 432.185 840.016 431.272 839.967 430.317C839.915 429.659 839.457 429.128 838.459 429.128C837.713 429.129 837.1 429.484 836.669 429.806L835.996 428.443C836.612 427.985 837.59 427.608 838.756 427.601C840.702 427.599 841.851 428.676 841.963 430.145C842.067 431.507 841.102 432.592 839.939 433.645L839.199 434.269L839.19 434.288L842.445 434.295L842.56 435.857L836.454 435.865L836.46 435.879Z" fill="black"/>
<path d="M849.861 431.752C850.055 434.262 849.111 435.989 846.913 435.989C844.715 435.99 843.565 434.109 843.387 431.814C843.213 429.463 844.128 427.595 846.351 427.596C848.574 427.596 849.695 429.532 849.861 431.752ZM845.397 431.81C845.52 433.675 846.061 434.559 846.846 434.554C847.632 434.55 847.983 433.626 847.842 431.774C847.7 429.922 847.227 429.028 846.417 429.031C845.672 429.032 845.24 429.916 845.397 431.81Z" fill="black"/>
<path d="M879.032 435.958L878.98 435.277L879.832 434.434C881.88 432.451 882.797 431.411 882.716 430.175C882.65 429.35 882.171 428.59 880.892 428.597C880.107 428.601 879.484 428.974 879.121 429.284L878.687 428.513C879.247 428.039 880.063 427.683 881.061 427.683C882.918 427.682 883.789 428.881 883.873 430.038C883.981 431.54 882.925 432.751 881.239 434.4L880.598 435.006L880.588 435.024L884.466 435.025L884.539 435.935L879.051 435.945L879.032 435.958Z" fill="black"/>
<path d="M887.824 428.851L887.804 428.841L886.357 429.612L886.068 428.777L887.876 427.821L888.874 427.821L889.479 435.937L888.353 435.941L887.829 428.842L887.824 428.851Z" fill="black"/>
<path d="M917.151 435.906L917.098 435.225L917.951 434.382C919.999 432.399 920.916 431.359 920.835 430.124C920.769 429.298 920.29 428.538 919.011 428.545C918.225 428.549 917.603 428.922 917.24 429.233L916.805 428.461C917.366 427.987 918.182 427.631 919.18 427.631C921.037 427.63 921.908 428.83 921.992 429.986C922.1 431.488 921.044 432.699 919.358 434.349L918.717 434.954L918.707 434.972L922.585 434.973L922.658 435.883L917.17 435.893L917.151 435.906Z" fill="black"/>
<path d="M923.943 435.891L923.891 435.21L924.744 434.367C926.792 432.385 927.709 431.344 927.627 430.109C927.562 429.283 927.083 428.523 925.803 428.53C925.018 428.534 924.396 428.908 924.033 429.218L923.598 428.446C924.159 427.972 924.975 427.616 925.973 427.616C927.83 427.616 928.701 428.815 928.785 429.972C928.893 431.473 927.837 432.684 926.151 434.334L925.509 434.939L925.5 434.957L929.378 434.958L929.451 435.868L923.963 435.878L923.943 435.891Z" fill="black"/>
<path d="M957.461 435.718L957.409 435.037L958.262 434.194C960.31 432.211 961.227 431.171 961.145 429.936C961.08 429.11 960.601 428.35 959.321 428.357C958.536 428.361 957.913 428.734 957.551 429.045L957.116 428.273C957.677 427.799 958.493 427.443 959.491 427.443C961.348 427.442 962.218 428.642 962.303 429.798C962.411 431.3 961.355 432.511 959.669 434.161L959.027 434.766L959.018 434.784L962.896 434.785L962.968 435.695L957.481 435.705L957.461 435.718Z" fill="black"/>
<path d="M964.436 434.444C964.787 434.644 965.576 434.952 966.381 434.958C967.873 434.956 968.274 434.057 968.207 433.38C968.114 432.241 966.99 431.752 965.864 431.756L965.217 431.761L965.151 430.935L965.798 430.93C966.643 430.933 967.679 430.516 967.61 429.551C967.564 428.907 967.079 428.329 966.007 428.325C965.326 428.324 964.681 428.618 964.327 428.864L963.97 428.063C964.397 427.751 965.243 427.433 966.177 427.435C967.871 427.432 968.706 428.383 968.781 429.363C968.842 430.198 968.371 430.913 967.338 431.274L967.329 431.292C968.411 431.496 969.324 432.246 969.418 433.384C969.516 434.686 968.522 435.825 966.463 435.826C965.5 435.832 964.628 435.54 964.181 435.279L964.431 434.429L964.436 434.444Z" fill="black"/>
<path d="M996.681 435.804L996.629 435.123L997.481 434.28C999.529 432.297 1000.45 431.257 1000.36 430.022C1000.3 429.196 999.82 428.436 998.541 428.443C997.755 428.447 997.133 428.82 996.77 429.131L996.335 428.359C996.896 427.885 997.712 427.529 998.71 427.529C1000.57 427.528 1001.44 428.728 1001.52 429.884C1001.63 431.386 1000.57 432.597 998.888 434.247L998.247 434.852L998.237 434.87L1002.11 434.871L1002.19 435.781L996.7 435.791L996.681 435.804Z" fill="black"/>
<path d="M1007.08 435.786L1006.9 433.574L1002.91 433.583L1002.86 432.855L1006.31 427.667L1007.56 427.659L1007.94 432.712L1009.14 432.711L1009.21 433.569L1008.01 433.57L1008.18 435.781L1007.08 435.786ZM1006.84 432.716L1006.64 430.006C1006.61 429.577 1006.59 429.153 1006.58 428.725L1006.54 428.728C1006.31 429.197 1006.12 429.547 1005.92 429.929L1004.03 432.69L1004.02 432.709L1006.85 432.707L1006.84 432.716Z" fill="black"/>
<path d="M1029.23 435.621L1029.14 434.473L1030.18 433.517C1031.94 431.926 1032.79 431.014 1032.74 430.058C1032.69 429.4 1032.23 428.87 1031.23 428.869C1030.49 428.87 1029.87 429.226 1029.44 429.547L1028.77 428.184C1029.38 427.727 1030.36 427.349 1031.53 427.343C1033.47 427.341 1034.62 428.417 1034.74 429.887C1034.84 431.249 1033.87 432.333 1032.71 433.386L1031.97 434.011L1031.96 434.029L1035.22 434.036L1035.33 435.599L1029.23 435.606L1029.23 435.621Z" fill="black"/>
<path d="M1041.83 429.038L1038.49 429.046L1038.4 430.298C1038.59 430.278 1038.74 430.275 1038.96 430.27C1039.78 430.272 1040.63 430.438 1041.26 430.851C1041.94 431.265 1042.39 431.94 1042.46 432.882C1042.57 434.398 1041.3 435.739 1038.98 435.734C1037.93 435.732 1037.05 435.513 1036.55 435.274L1036.8 433.847C1037.19 434.027 1037.99 434.247 1038.78 434.243C1039.61 434.241 1040.47 433.858 1040.4 433C1040.34 432.142 1039.6 431.65 1037.88 431.652C1037.4 431.65 1037.07 431.678 1036.72 431.728L1036.96 427.465L1041.7 427.456L1041.82 429.019L1041.83 429.038Z" fill="black"/>
<path d="M57.1028 432.838C57.296 435.348 56.3526 437.075 54.1544 437.075C51.9563 437.076 50.8062 435.195 50.6285 432.9C50.4542 430.549 51.3693 428.681 53.5922 428.682C55.815 428.682 56.9369 430.617 57.1028 432.838ZM52.6388 432.896C52.761 434.761 53.3025 435.644 54.0878 435.64C54.8731 435.636 55.2247 434.712 55.083 432.86C54.9414 431.008 54.4688 430.114 53.6588 430.117C52.9129 430.118 52.4813 431.002 52.6388 432.896Z" fill="black"/>
<path d="M1037.21 415.056L1037.9 424.353" stroke="black" stroke-width="5.94" stroke-miterlimit="10"/>
<path d="M50.9675 416.7L51.6668 426.002" stroke="black" stroke-width="5.94" stroke-miterlimit="10"/>
<path d="M88.1719 416.655L88.8612 425.951" stroke="black" stroke-width="1.49" stroke-miterlimit="10"/>
<path d="M127.577 416.606L128.266 425.903" stroke="black" stroke-width="1.49" stroke-miterlimit="10"/>
<path d="M166.984 416.55L167.673 425.847" stroke="black" stroke-width="1.49" stroke-miterlimit="10"/>
<path d="M207.492 416.491L208.192 425.793" stroke="black" stroke-width="1.49" stroke-miterlimit="10"/>
<path d="M246.902 416.436L247.587 425.742" stroke="black" stroke-width="5.94" stroke-miterlimit="10"/>
<path d="M286.306 416.387L286.99 425.692" stroke="black" stroke-width="1.49" stroke-miterlimit="10"/>
<path d="M325.713 416.333L326.398 425.638" stroke="black" stroke-width="1.49" stroke-miterlimit="10"/>
<path d="M366.217 416.283L366.916 425.584" stroke="black" stroke-width="1.49" stroke-miterlimit="10"/>
<path d="M405.626 416.225L406.316 425.522" stroke="black" stroke-width="1.49" stroke-miterlimit="10"/>
<path d="M446.135 416.167L446.835 425.468" stroke="black" stroke-width="5.94" stroke-miterlimit="10"/>
<path d="M485.542 416.115L486.242 425.416" stroke="black" stroke-width="1.49" stroke-miterlimit="10"/>
<path d="M524.948 416.062L525.647 425.364" stroke="black" stroke-width="1.49" stroke-miterlimit="10"/>
<path d="M564.359 416.003L565.048 425.3" stroke="black" stroke-width="1.49" stroke-miterlimit="10"/>
<path d="M604.865 415.948L605.56 425.259" stroke="black" stroke-width="1.49" stroke-miterlimit="10"/>
<path d="M644.269 415.899L644.964 425.209" stroke="black" stroke-width="5.94" stroke-miterlimit="10"/>
<path d="M683.68 415.836L684.375 425.146" stroke="black" stroke-width="1.49" stroke-miterlimit="10"/>
<path d="M723.086 415.787L723.781 425.098" stroke="black" stroke-width="1.49" stroke-miterlimit="10"/>
<path d="M763.592 415.734L764.291 425.035" stroke="black" stroke-width="1.49" stroke-miterlimit="10"/>
<path d="M802.997 415.685L803.696 424.987" stroke="black" stroke-width="1.49" stroke-miterlimit="10"/>
<path d="M842.406 415.628L843.106 424.929" stroke="black" stroke-width="5.94" stroke-miterlimit="10"/>
<path d="M882.912 415.574L883.611 424.875" stroke="black" stroke-width="1.49" stroke-miterlimit="10"/>
<path d="M922.321 415.516L923.02 424.818" stroke="black" stroke-width="1.49" stroke-miterlimit="10"/>
<path d="M961.726 415.466L962.421 424.776" stroke="black" stroke-width="1.49" stroke-miterlimit="10"/>
<path d="M1002.24 415.405L1002.93 424.716" stroke="black" stroke-width="1.49" stroke-miterlimit="10"/>
</svg>
